# Knife
v -0.015000 0.052500 0.052500
v -0.015000 -0.052500 0.037500
v -0.015000 -0.052500 0.052500
v -0.015000 0.052500 0.037500
v -0.011250 0.022500 0.232500
v -0.011250 -0.022500 0.052500
v -0.011250 -0.022500 0.232500
v -0.011250 0.022500 0.052500
v -0.015000 0.022500 0.247500
v -0.015000 -0.022500 0.232500
v -0.015000 -0.022500 0.247500
v -0.015000 0.022500 0.232500
v -0.007500 0.022500 0.262500
v -0.007500 -0.022500 0.247500
v -0.007500 -0.022500 0.262500
v -0.007500 0.022500 0.247500
v -0.007500 0.037500 0.247500
v -0.007500 0.022500 0.232500
v -0.007500 0.037500 0.067500
v -0.007500 0.022500 0.052500
v -0.007500 0.052500 0.067500
v -0.007500 0.052500 0.052500
v -0.007500 -0.022500 0.232500
v -0.007500 -0.037500 0.247500
v -0.007500 -0.037500 0.067500
v -0.007500 -0.022500 0.052500
v -0.007500 -0.052500 0.052500
v -0.007500 -0.052500 0.067500
v -0.007500 -0.052500 0.037500
v -0.007500 -0.067500 0.052500
v -0.007500 -0.067500 0.022500
v -0.007500 -0.022500 0.037500
v -0.007500 -0.037500 0.022500
v -0.007500 0.067500 0.052500
v -0.007500 0.052500 0.037500
v -0.007500 0.067500 0.022500
v -0.007500 0.037500 0.022500
v -0.007500 0.022500 0.037500
v -0.007500 0.022500 0.037500
v -0.015000 0.052500 0.037500
v -0.007500 0.052500 0.037500
v -0.011250 0.022500 0.037500
v -0.015000 -0.052500 0.037500
v -0.011250 -0.022500 0.037500
v -0.007500 -0.052500 0.037500
v -0.007500 -0.022500 0.037500
v -0.007500 0.022500 0.052500
v -0.007500 0.052500 0.052500
v -0.015000 0.052500 0.052500
v -0.011250 0.022500 0.052500
v -0.015000 -0.052500 0.052500
v -0.011250 -0.022500 0.052500
v -0.007500 -0.052500 0.052500
v -0.007500 -0.022500 0.052500
v -0.015000 0.022500 0.232500
v -0.015000 0.022500 0.247500
v -0.011250 0.022500 0.232500
v -0.007500 0.022500 0.247500
v -0.007500 0.022500 0.232500
v -0.011250 0.022500 0.052500
v -0.007500 0.022500 0.052500
v -0.011250 -0.022500 0.052500
v -0.007500 -0.022500 0.052500
v -0.007500 -0.022500 0.232500
v -0.011250 -0.022500 0.232500
v -0.007500 -0.022500 0.247500
v -0.015000 -0.022500 0.247500
v -0.015000 -0.022500 0.232500
v 0.007500 0.037500 0.022500
v 0.007500 0.052500 0.037500
v 0.007500 0.022500 0.037500
v 0.007500 0.067500 0.022500
v 0.007500 0.067500 0.052500
v 0.007500 0.052500 0.052500
v 0.007500 0.052500 0.067500
v 0.007500 0.022500 0.052500
v 0.007500 0.037500 0.067500
v 0.007500 0.022500 0.232500
v 0.007500 0.037500 0.247500
v 0.007500 0.022500 0.247500
v 0.007500 0.022500 0.262500
v 0.007500 -0.022500 0.247500
v 0.007500 -0.022500 0.262500
v 0.007500 -0.022500 0.232500
v 0.007500 -0.037500 0.247500
v 0.007500 -0.037500 0.067500
v 0.007500 -0.022500 0.052500
v 0.007500 -0.052500 0.052500
v 0.007500 -0.052500 0.067500
v 0.007500 -0.052500 0.037500
v 0.007500 -0.067500 0.052500
v 0.007500 -0.067500 0.022500
v 0.007500 -0.022500 0.037500
v 0.007500 -0.037500 0.022500
v 0.015000 0.022500 0.232500
v 0.015000 0.022500 0.247500
v 0.015000 -0.022500 0.232500
v 0.015000 -0.022500 0.247500
v 0.011250 0.022500 0.052500
v 0.011250 0.022500 0.232500
v 0.011250 -0.022500 0.052500
v 0.011250 -0.022500 0.232500
v 0.015000 0.052500 0.037500
v 0.015000 0.052500 0.052500
v 0.015000 -0.052500 0.037500
v 0.015000 -0.052500 0.052500
v 0.011250 -0.022500 0.037500
v 0.007500 -0.052500 0.037500
v 0.007500 -0.022500 0.037500
v 0.015000 -0.052500 0.037500
v 0.011250 0.022500 0.037500
v 0.015000 0.052500 0.037500
v 0.007500 0.022500 0.037500
v 0.007500 0.052500 0.037500
v 0.007500 -0.022500 0.052500
v 0.007500 -0.052500 0.052500
v 0.011250 -0.022500 0.052500
v 0.015000 -0.052500 0.052500
v 0.011250 0.022500 0.052500
v 0.015000 0.052500 0.052500
v 0.007500 0.022500 0.052500
v 0.007500 0.052500 0.052500
v 0.007500 0.022500 0.232500
v 0.011250 0.022500 0.052500
v 0.007500 0.022500 0.052500
v 0.011250 0.022500 0.232500
v 0.007500 0.022500 0.247500
v 0.015000 0.022500 0.247500
v 0.015000 0.022500 0.232500
v 0.011250 -0.022500 0.232500
v 0.015000 -0.022500 0.232500
v 0.015000 -0.022500 0.247500
v 0.007500 -0.022500 0.247500
v 0.007500 -0.022500 0.232500
v 0.011250 -0.022500 0.052500
v 0.007500 -0.022500 0.052500
v 0.007500 -0.022500 0.262500
v -0.007500 0.022500 0.262500
v -0.007500 -0.022500 0.262500
v 0.007500 0.022500 0.262500
v 0.007500 -0.037500 0.247500
v -0.007500 -0.022500 0.247500
v -0.007500 -0.037500 0.247500
v 0.007500 -0.022500 0.247500
v 0.007500 0.022500 0.247500
v -0.007500 0.037500 0.247500
v -0.007500 0.022500 0.247500
v 0.007500 0.037500 0.247500
v 0.007500 -0.052500 0.067500
v -0.007500 -0.037500 0.067500
v -0.007500 -0.052500 0.067500
v 0.007500 -0.037500 0.067500
v 0.007500 0.037500 0.067500
v -0.007500 0.052500 0.067500
v -0.007500 0.037500 0.067500
v 0.007500 0.052500 0.067500
v 0.007500 -0.067500 0.052500
v -0.007500 -0.052500 0.052500
v -0.007500 -0.067500 0.052500
v 0.007500 -0.052500 0.052500
v 0.007500 0.052500 0.052500
v -0.007500 0.067500 0.052500
v -0.007500 0.052500 0.052500
v 0.007500 0.067500 0.052500
v 0.007500 -0.037500 0.022500
v -0.007500 -0.067500 0.022500
v -0.007500 -0.037500 0.022500
v 0.007500 -0.067500 0.022500
v 0.007500 0.067500 0.022500
v -0.007500 0.037500 0.022500
v -0.007500 0.067500 0.022500
v 0.007500 0.037500 0.022500
v -0.007500 -0.067500 0.022500
v 0.007500 -0.067500 0.052500
v -0.007500 -0.067500 0.052500
v 0.007500 -0.067500 0.022500
v -0.007500 -0.052500 0.052500
v 0.007500 -0.052500 0.067500
v -0.007500 -0.052500 0.067500
v 0.007500 -0.052500 0.052500
v -0.007500 -0.037500 0.067500
v 0.007500 -0.037500 0.247500
v -0.007500 -0.037500 0.247500
v 0.007500 -0.037500 0.067500
v -0.007500 -0.022500 0.247500
v 0.007500 -0.022500 0.262500
v -0.007500 -0.022500 0.262500
v 0.007500 -0.022500 0.247500
v 0.007500 0.022500 0.247500
v -0.007500 0.022500 0.262500
v 0.007500 0.022500 0.262500
v -0.007500 0.022500 0.247500
v 0.007500 0.037500 0.067500
v -0.007500 0.037500 0.247500
v 0.007500 0.037500 0.247500
v -0.007500 0.037500 0.067500
v 0.007500 0.052500 0.052500
v -0.007500 0.052500 0.067500
v 0.007500 0.052500 0.067500
v -0.007500 0.052500 0.052500
v 0.007500 0.067500 0.022500
v -0.007500 0.067500 0.052500
v 0.007500 0.067500 0.052500
v -0.007500 0.067500 0.022500
v -0.007500 -0.022500 0.247500
v -0.015000 0.022500 0.247500
v -0.015000 -0.022500 0.247500
v -0.007500 0.022500 0.247500
v -0.011250 0.022500 0.232500
v -0.015000 -0.022500 0.232500
v -0.015000 0.022500 0.232500
v -0.011250 -0.022500 0.232500
v -0.015000 -0.052500 0.037500
v -0.007500 -0.052500 0.052500
v -0.015000 -0.052500 0.052500
v -0.007500 -0.052500 0.037500
v -0.007500 0.052500 0.037500
v -0.015000 0.052500 0.052500
v -0.007500 0.052500 0.052500
v -0.015000 0.052500 0.037500
v 0.007500 -0.022500 0.247500
v 0.015000 0.022500 0.247500
v 0.007500 0.022500 0.247500
v 0.015000 -0.022500 0.247500
v 0.015000 0.022500 0.232500
v 0.011250 -0.022500 0.232500
v 0.011250 0.022500 0.232500
v 0.015000 -0.022500 0.232500
v 0.015000 -0.052500 0.037500
v 0.007500 -0.052500 0.052500
v 0.007500 -0.052500 0.037500
v 0.015000 -0.052500 0.052500
v 0.007500 0.052500 0.052500
v 0.015000 0.052500 0.037500
v 0.007500 0.052500 0.037500
v 0.015000 0.052500 0.052500
vt 0.218800 0.125000
vt 0.234400 0.015600
vt 0.218800 0.015600
vt 0.234400 0.125000
vt 0.031200 0.093800
vt 0.218800 0.046900
vt 0.031200 0.046900
vt 0.218800 0.093800
vt 0.015600 0.093800
vt 0.031200 0.046900
vt 0.015600 0.046900
vt 0.031200 0.093800
vt 0.000000 0.093700
vt 0.015600 0.046900
vt 0.000000 0.046900
vt 0.015600 0.093800
vt 0.015600 0.109400
vt 0.031200 0.093800
vt 0.203100 0.109400
vt 0.218800 0.093800
vt 0.203400 0.124700
vt 0.218800 0.125000
vt 0.031200 0.046900
vt 0.015600 0.031200
vt 0.203100 0.031200
vt 0.218800 0.046900
vt 0.218800 0.015600
vt 0.203100 0.015600
vt 0.234400 0.015600
vt 0.218800 0.000000
vt 0.250000 0.000000
vt 0.234400 0.046900
vt 0.250000 0.031300
vt 0.218800 0.140600
vt 0.234400 0.125000
vt 0.250000 0.140600
vt 0.250000 0.109400
vt 0.234400 0.093800
vt 0.234400 0.093800
vt 0.226600 0.125000
vt 0.234400 0.125000
vt 0.230500 0.093800
vt 0.226600 0.015600
vt 0.230500 0.046900
vt 0.234400 0.015600
vt 0.234400 0.046900
vt 0.218800 0.093800
vt 0.218800 0.125000
vt 0.226600 0.125000
vt 0.222700 0.093800
vt 0.226600 0.015600
vt 0.222700 0.046900
vt 0.218800 0.015600
vt 0.218800 0.046900
vt 0.031300 0.089800
vt 0.015600 0.089800
vt 0.031300 0.085900
vt 0.015600 0.082000
vt 0.031300 0.082000
vt 0.218800 0.085900
vt 0.218800 0.082000
vt 0.218800 0.054700
vt 0.218800 0.050800
vt 0.031300 0.050800
vt 0.031300 0.054700
vt 0.015600 0.050800
vt 0.015600 0.058600
vt 0.031300 0.058600
vt 0.250000 0.109400
vt 0.234400 0.125000
vt 0.234400 0.093800
vt 0.250000 0.140600
vt 0.218800 0.140600
vt 0.218800 0.125000
vt 0.203400 0.124700
vt 0.218800 0.093800
vt 0.203100 0.109400
vt 0.031200 0.093800
vt 0.015600 0.109400
vt 0.015600 0.093800
vt 0.000000 0.093700
vt 0.015600 0.046900
vt 0.000000 0.046900
vt 0.031200 0.046900
vt 0.015600 0.031200
vt 0.203100 0.031200
vt 0.218800 0.046900
vt 0.218800 0.015600
vt 0.203100 0.015600
vt 0.234400 0.015600
vt 0.218800 0.000000
vt 0.250000 0.000000
vt 0.234400 0.046900
vt 0.250000 0.031300
vt 0.031200 0.093800
vt 0.015600 0.093800
vt 0.031200 0.046900
vt 0.015600 0.046900
vt 0.218800 0.093800
vt 0.031200 0.093800
vt 0.218800 0.046900
vt 0.031200 0.046900
vt 0.234400 0.125000
vt 0.218800 0.125000
vt 0.234400 0.015600
vt 0.218800 0.015600
vt 0.230500 0.046900
vt 0.234400 0.015600
vt 0.234400 0.046900
vt 0.226600 0.015600
vt 0.230500 0.093800
vt 0.226600 0.125000
vt 0.234400 0.093800
vt 0.234400 0.125000
vt 0.218800 0.046900
vt 0.218800 0.015600
vt 0.222700 0.046900
vt 0.226600 0.015600
vt 0.222700 0.093800
vt 0.226600 0.125000
vt 0.218800 0.093800
vt 0.218800 0.125000
vt 0.031300 0.082000
vt 0.218800 0.085900
vt 0.218800 0.082000
vt 0.031300 0.085900
vt 0.015600 0.082000
vt 0.015600 0.089800
vt 0.031300 0.089800
vt 0.031300 0.054700
vt 0.031300 0.058600
vt 0.015600 0.058600
vt 0.015600 0.050800
vt 0.031300 0.050800
vt 0.218800 0.054700
vt 0.218800 0.050800
vt 0.000300 0.047800
vt 0.015300 0.092800
vt 0.015300 0.047800
vt 0.000300 0.092800
vt 0.203400 0.109700
vt 0.218400 0.124700
vt 0.218400 0.109700
vt 0.203400 0.124700
vt 0.203400 0.109700
vt 0.218400 0.124700
vt 0.218400 0.109700
vt 0.203400 0.124700
vt 0.203400 0.109700
vt 0.218400 0.124700
vt 0.218400 0.109700
vt 0.203400 0.124700
vt 0.203400 0.109700
vt 0.218400 0.124700
vt 0.218400 0.109700
vt 0.203400 0.124700
vt 0.203400 0.109700
vt 0.218400 0.124700
vt 0.218400 0.109700
vt 0.203400 0.124700
vt 0.203400 0.109700
vt 0.218400 0.124700
vt 0.218400 0.109700
vt 0.203400 0.124700
vt 0.249700 0.030600
vt 0.234700 0.000600
vt 0.234700 0.030600
vt 0.249700 0.000600
vt 0.249700 0.140000
vt 0.234700 0.110000
vt 0.234700 0.140000
vt 0.249700 0.110000
vt 0.249400 0.015300
vt 0.219400 0.000300
vt 0.219400 0.015300
vt 0.249400 0.000300
vt 0.218400 0.124700
vt 0.203400 0.109700
vt 0.203400 0.124700
vt 0.218400 0.109700
vt 0.199400 0.046600
vt 0.019400 0.031600
vt 0.019400 0.046600
vt 0.199400 0.031600
vt 0.218400 0.124700
vt 0.203400 0.109700
vt 0.203400 0.124700
vt 0.218400 0.109700
vt 0.203400 0.109700
vt 0.218400 0.124700
vt 0.218400 0.109700
vt 0.203400 0.124700
vt 0.019400 0.094100
vt 0.199400 0.109100
vt 0.199400 0.094100
vt 0.019400 0.109100
vt 0.203400 0.109700
vt 0.218400 0.124700
vt 0.218400 0.109700
vt 0.203400 0.124700
vt 0.219400 0.125300
vt 0.249400 0.140300
vt 0.249400 0.125300
vt 0.219400 0.140300
vt 0.019500 0.046900
vt 0.027300 0.093800
vt 0.027300 0.046900
vt 0.019500 0.093800
vt 0.025400 0.093700
vt 0.021500 0.046900
vt 0.021500 0.093700
vt 0.025400 0.046900
vt 0.234400 0.027300
vt 0.218800 0.019500
vt 0.218800 0.027300
vt 0.234400 0.019500
vt 0.218800 0.113300
vt 0.234400 0.121100
vt 0.234400 0.113300
vt 0.218800 0.121100
vt 0.019500 0.046900
vt 0.027300 0.093800
vt 0.019500 0.093800
vt 0.027300 0.046900
vt 0.021500 0.093700
vt 0.025400 0.046900
vt 0.025400 0.093700
vt 0.021500 0.046900
vt 0.234400 0.027300
vt 0.218800 0.019500
vt 0.234400 0.019500
vt 0.218800 0.027300
vt 0.234400 0.113300
vt 0.218800 0.121100
vt 0.218800 0.113300
vt 0.234400 0.121100
vn -1.000000 0.000000 0.000000
vn -1.000000 0.000000 0.000000
vn -1.000000 0.000000 0.000000
vn -1.000000 0.000000 0.000000
vn -1.000000 0.000000 0.000000
vn -1.000000 0.000000 0.000000
vn -1.000000 0.000000 0.000000
vn -1.000000 0.000000 0.000000
vn -1.000000 0.000000 0.000000
vn -1.000000 0.000000 0.000000
vn -1.000000 0.000000 0.000000
vn -1.000000 0.000000 0.000000
vn -1.000000 0.000000 0.000000
vn -1.000000 0.000000 0.000000
vn -1.000000 0.000000 0.000000
vn -1.000000 0.000000 0.000000
vn -1.000000 0.000000 0.000000
vn -1.000000 0.000000 0.000000
vn -1.000000 0.000000 0.000000
vn -1.000000 0.000000 0.000000
vn -1.000000 0.000000 0.000000
vn -1.000000 0.000000 0.000000
vn -1.000000 0.000000 0.000000
vn -1.000000 0.000000 0.000000
vn -1.000000 0.000000 0.000000
vn -1.000000 0.000000 0.000000
vn -1.000000 0.000000 0.000000
vn -1.000000 0.000000 0.000000
vn -1.000000 0.000000 0.000000
vn -1.000000 0.000000 0.000000
vn -1.000000 0.000000 0.000000
vn -1.000000 0.000000 0.000000
vn -1.000000 0.000000 0.000000
vn -1.000000 0.000000 0.000000
vn -1.000000 0.000000 0.000000
vn -1.000000 0.000000 0.000000
vn -1.000000 0.000000 0.000000
vn -1.000000 0.000000 0.000000
vn 0.000000 0.000000 -1.000000
vn 0.000000 0.000000 -1.000000
vn 0.000000 0.000000 -1.000000
vn 0.000000 0.000000 -1.000000
vn 0.000000 0.000000 -1.000000
vn 0.000000 0.000000 -1.000000
vn 0.000000 0.000000 -1.000000
vn 0.000000 0.000000 -1.000000
vn 0.000000 0.000000 1.000000
vn 0.000000 0.000000 1.000000
vn 0.000000 0.000000 1.000000
vn 0.000000 0.000000 1.000000
vn 0.000000 0.000000 1.000000
vn 0.000000 0.000000 1.000000
vn 0.000000 0.000000 1.000000
vn 0.000000 0.000000 1.000000
vn 0.000000 1.000000 0.000000
vn 0.000000 1.000000 0.000000
vn 0.000000 1.000000 0.000000
vn 0.000000 1.000000 0.000000
vn 0.000000 1.000000 0.000000
vn 0.000000 1.000000 0.000000
vn 0.000000 1.000000 0.000000
vn 0.000000 -1.000000 0.000000
vn 0.000000 -1.000000 0.000000
vn 0.000000 -1.000000 0.000000
vn 0.000000 -1.000000 0.000000
vn 0.000000 -1.000000 0.000000
vn 0.000000 -1.000000 0.000000
vn 0.000000 -1.000000 0.000000
vn 1.000000 0.000000 0.000000
vn 1.000000 0.000000 0.000000
vn 1.000000 0.000000 0.000000
vn 1.000000 0.000000 0.000000
vn 1.000000 0.000000 0.000000
vn 1.000000 0.000000 0.000000
vn 1.000000 0.000000 0.000000
vn 1.000000 0.000000 0.000000
vn 1.000000 0.000000 0.000000
vn 1.000000 0.000000 0.000000
vn 1.000000 0.000000 0.000000
vn 1.000000 0.000000 0.000000
vn 1.000000 0.000000 0.000000
vn 1.000000 0.000000 0.000000
vn 1.000000 0.000000 0.000000
vn 1.000000 0.000000 0.000000
vn 1.000000 0.000000 0.000000
vn 1.000000 0.000000 0.000000
vn 1.000000 0.000000 0.000000
vn 1.000000 0.000000 0.000000
vn 1.000000 0.000000 0.000000
vn 1.000000 0.000000 0.000000
vn 1.000000 0.000000 0.000000
vn 1.000000 0.000000 0.000000
vn 1.000000 0.000000 0.000000
vn 1.000000 0.000000 0.000000
vn 1.000000 0.000000 0.000000
vn 1.000000 0.000000 0.000000
vn 1.000000 0.000000 0.000000
vn 1.000000 0.000000 0.000000
vn 1.000000 0.000000 0.000000
vn 1.000000 0.000000 0.000000
vn 1.000000 0.000000 0.000000
vn 1.000000 0.000000 0.000000
vn 1.000000 0.000000 0.000000
vn 1.000000 0.000000 0.000000
vn 1.000000 0.000000 0.000000
vn 1.000000 0.000000 0.000000
vn 0.000000 0.000000 -1.000000
vn 0.000000 0.000000 -1.000000
vn 0.000000 0.000000 -1.000000
vn 0.000000 0.000000 -1.000000
vn 0.000000 0.000000 -1.000000
vn 0.000000 0.000000 -1.000000
vn 0.000000 0.000000 -1.000000
vn 0.000000 0.000000 -1.000000
vn 0.000000 0.000000 1.000000
vn 0.000000 0.000000 1.000000
vn 0.000000 0.000000 1.000000
vn 0.000000 0.000000 1.000000
vn 0.000000 0.000000 1.000000
vn 0.000000 0.000000 1.000000
vn 0.000000 0.000000 1.000000
vn 0.000000 0.000000 1.000000
vn 0.000000 1.000000 0.000000
vn 0.000000 1.000000 0.000000
vn 0.000000 1.000000 0.000000
vn 0.000000 1.000000 0.000000
vn 0.000000 1.000000 0.000000
vn 0.000000 1.000000 0.000000
vn 0.000000 1.000000 0.000000
vn 0.000000 -1.000000 0.000000
vn 0.000000 -1.000000 0.000000
vn 0.000000 -1.000000 0.000000
vn 0.000000 -1.000000 0.000000
vn 0.000000 -1.000000 0.000000
vn 0.000000 -1.000000 0.000000
vn 0.000000 -1.000000 0.000000
vn 0.000000 0.000000 1.000000
vn 0.000000 0.000000 1.000000
vn 0.000000 0.000000 1.000000
vn 0.000000 0.000000 1.000000
vn 0.000000 0.000000 1.000000
vn 0.000000 0.000000 1.000000
vn 0.000000 0.000000 1.000000
vn 0.000000 0.000000 1.000000
vn 0.000000 0.000000 1.000000
vn 0.000000 0.000000 1.000000
vn 0.000000 0.000000 1.000000
vn 0.000000 0.000000 1.000000
vn 0.000000 0.000000 1.000000
vn 0.000000 0.000000 1.000000
vn 0.000000 0.000000 1.000000
vn 0.000000 0.000000 1.000000
vn 0.000000 0.000000 1.000000
vn 0.000000 0.000000 1.000000
vn 0.000000 0.000000 1.000000
vn 0.000000 0.000000 1.000000
vn 0.000000 0.000000 1.000000
vn 0.000000 0.000000 1.000000
vn 0.000000 0.000000 1.000000
vn 0.000000 0.000000 1.000000
vn 0.000000 0.000000 1.000000
vn 0.000000 0.000000 1.000000
vn 0.000000 0.000000 1.000000
vn 0.000000 0.000000 1.000000
vn 0.000000 0.000000 -1.000000
vn 0.000000 0.000000 -1.000000
vn 0.000000 0.000000 -1.000000
vn 0.000000 0.000000 -1.000000
vn 0.000000 0.000000 -1.000000
vn 0.000000 0.000000 -1.000000
vn 0.000000 0.000000 -1.000000
vn 0.000000 0.000000 -1.000000
vn 0.000000 -1.000000 0.000000
vn 0.000000 -1.000000 0.000000
vn 0.000000 -1.000000 0.000000
vn 0.000000 -1.000000 0.000000
vn 0.000000 -1.000000 0.000000
vn 0.000000 -1.000000 0.000000
vn 0.000000 -1.000000 0.000000
vn 0.000000 -1.000000 0.000000
vn 0.000000 -1.000000 0.000000
vn 0.000000 -1.000000 0.000000
vn 0.000000 -1.000000 0.000000
vn 0.000000 -1.000000 0.000000
vn 0.000000 -1.000000 0.000000
vn 0.000000 -1.000000 0.000000
vn 0.000000 -1.000000 0.000000
vn 0.000000 -1.000000 0.000000
vn 0.000000 1.000000 0.000000
vn 0.000000 1.000000 0.000000
vn 0.000000 1.000000 0.000000
vn 0.000000 1.000000 0.000000
vn 0.000000 1.000000 0.000000
vn 0.000000 1.000000 0.000000
vn 0.000000 1.000000 0.000000
vn 0.000000 1.000000 0.000000
vn 0.000000 1.000000 0.000000
vn 0.000000 1.000000 0.000000
vn 0.000000 1.000000 0.000000
vn 0.000000 1.000000 0.000000
vn 0.000000 1.000000 0.000000
vn 0.000000 1.000000 0.000000
vn 0.000000 1.000000 0.000000
vn 0.000000 1.000000 0.000000
vn 0.000000 0.000000 1.000000
vn 0.000000 0.000000 1.000000
vn 0.000000 0.000000 1.000000
vn 0.000000 0.000000 1.000000
vn 0.000000 0.000000 -1.000000
vn 0.000000 0.000000 -1.000000
vn 0.000000 0.000000 -1.000000
vn 0.000000 0.000000 -1.000000
vn 0.000000 -1.000000 0.000000
vn 0.000000 -1.000000 0.000000
vn 0.000000 -1.000000 0.000000
vn 0.000000 -1.000000 0.000000
vn 0.000000 1.000000 0.000000
vn 0.000000 1.000000 0.000000
vn 0.000000 1.000000 0.000000
vn 0.000000 1.000000 0.000000
vn 0.000000 0.000000 1.000000
vn 0.000000 0.000000 1.000000
vn 0.000000 0.000000 1.000000
vn 0.000000 0.000000 1.000000
vn 0.000000 0.000000 -1.000000
vn 0.000000 0.000000 -1.000000
vn 0.000000 0.000000 -1.000000
vn 0.000000 0.000000 -1.000000
vn 0.000000 -1.000000 0.000000
vn 0.000000 -1.000000 0.000000
vn 0.000000 -1.000000 0.000000
vn 0.000000 -1.000000 0.000000
vn 0.000000 1.000000 0.000000
vn 0.000000 1.000000 0.000000
vn 0.000000 1.000000 0.000000
vn 0.000000 1.000000 0.000000
f 1/1/1 2/2/2 3/3/3
f 1/1/1 4/4/4 2/2/2
f 5/5/5 6/6/6 7/7/7
f 5/5/5 8/8/8 6/6/6
f 9/9/9 10/10/10 11/11/11
f 9/9/9 12/12/12 10/10/10
f 13/13/13 14/14/14 15/15/15
f 13/13/13 16/16/16 14/14/14
f 17/17/17 18/18/18 16/16/16
f 17/17/17 19/19/19 18/18/18
f 19/19/19 20/20/20 18/18/18
f 21/21/21 20/20/20 19/19/19
f 21/21/21 22/22/22 20/20/20
f 14/14/14 23/23/23 24/24/24
f 23/23/23 25/25/25 24/24/24
f 23/23/23 26/26/26 25/25/25
f 25/25/25 26/26/26 27/27/27
f 25/25/25 27/27/27 28/28/28
f 27/27/27 29/29/29 30/30/30
f 29/29/29 31/31/31 30/30/30
f 32/32/32 31/31/31 29/29/29
f 32/32/32 33/33/33 31/31/31
f 34/34/34 35/35/35 22/22/22
f 34/34/34 36/36/36 35/35/35
f 35/35/35 36/36/36 37/37/37
f 35/35/35 37/37/37 38/38/38
f 39/39/39 40/40/40 41/41/41
f 39/39/39 42/42/42 40/40/40
f 42/42/42 43/43/43 40/40/40
f 44/44/44 43/43/43 42/42/42
f 45/45/45 43/43/43 44/44/44
f 45/45/45 44/44/44 46/46/46
f 47/47/47 48/48/48 49/49/49
f 47/47/47 49/49/49 50/50/50
f 50/50/50 49/49/49 51/51/51
f 52/52/52 50/50/50 51/51/51
f 53/53/53 52/52/52 51/51/51
f 53/53/53 54/54/54 52/52/52
f 55/55/55 56/56/56 57/57/57
f 57/57/57 56/56/56 58/58/58
f 57/57/57 58/58/58 59/59/59
f 60/60/60 57/57/57 59/59/59
f 60/60/60 59/59/59 61/61/61
f 62/62/62 63/63/63 64/64/64
f 62/62/62 64/64/64 65/65/65
f 65/65/65 64/64/64 66/66/66
f 65/65/65 66/66/66 67/67/67
f 68/68/68 65/65/65 67/67/67
f 69/69/69 70/70/70 71/71/71
f 72/72/72 70/70/70 69/69/69
f 72/72/72 73/73/73 70/70/70
f 70/70/70 73/73/73 74/74/74
f 74/74/74 75/75/75 76/76/76
f 76/76/76 75/75/75 77/77/77
f 76/76/76 77/77/77 78/78/78
f 77/77/77 79/79/79 78/78/78
f 78/78/78 79/79/79 80/80/80
f 80/80/80 81/81/81 82/82/82
f 82/82/82 81/81/81 83/83/83
f 84/84/84 82/82/82 85/85/85
f 86/86/86 84/84/84 85/85/85
f 87/87/87 84/84/84 86/86/86
f 87/87/87 86/86/86 88/88/88
f 88/88/88 86/86/86 89/89/89
f 90/90/90 88/88/88 91/91/91
f 92/92/92 90/90/90 91/91/91
f 92/92/92 93/93/93 90/90/90
f 94/94/94 93/93/93 92/92/92
f 95/95/95 96/96/96 97/97/97
f 97/97/97 96/96/96 98/98/98
f 99/99/99 100/100/100 101/101/101
f 101/101/101 100/100/100 102/102/102
f 103/103/103 104/104/104 105/105/105
f 105/105/105 104/104/104 106/106/106
f 107/107/107 108/108/108 109/109/109
f 110/110/110 108/108/108 107/107/107
f 110/110/110 107/107/107 111/111/111
f 110/110/110 111/111/111 112/112/112
f 111/111/111 113/113/113 112/112/112
f 112/112/112 113/113/113 114/114/114
f 115/115/115 116/116/116 117/117/117
f 117/117/117 116/116/116 118/118/118
f 119/119/119 117/117/117 118/118/118
f 120/120/120 119/119/119 118/118/118
f 120/120/120 121/121/121 119/119/119
f 122/122/122 121/121/121 120/120/120
f 123/123/123 124/124/124 125/125/125
f 126/126/126 124/124/124 123/123/123
f 127/127/127 126/126/126 123/123/123
f 128/128/128 126/126/126 127/127/127
f 128/128/128 129/129/129 126/126/126
f 130/130/130 131/131/131 132/132/132
f 133/133/133 130/130/130 132/132/132
f 134/134/134 130/130/130 133/133/133
f 134/134/134 135/135/135 130/130/130
f 136/136/136 135/135/135 134/134/134
f 137/137/137 138/138/138 139/139/139
f 138/138/138 137/137/137 140/140/140
f 141/141/141 142/142/142 143/143/143
f 142/142/142 141/141/141 144/144/144
f 145/145/145 146/146/146 147/147/147
f 146/146/146 145/145/145 148/148/148
f 149/149/149 150/150/150 151/151/151
f 150/150/150 149/149/149 152/152/152
f 153/153/153 154/154/154 155/155/155
f 154/154/154 153/153/153 156/156/156
f 157/157/157 158/158/158 159/159/159
f 158/158/158 157/157/157 160/160/160
f 161/161/161 162/162/162 163/163/163
f 162/162/162 161/161/161 164/164/164
f 165/165/165 166/166/166 167/167/167
f 166/166/166 165/165/165 168/168/168
f 169/169/169 170/170/170 171/171/171
f 170/170/170 169/169/169 172/172/172
f 173/173/173 174/174/174 175/175/175
f 174/174/174 173/173/173 176/176/176
f 177/177/177 178/178/178 179/179/179
f 178/178/178 177/177/177 180/180/180
f 181/181/181 182/182/182 183/183/183
f 182/182/182 181/181/181 184/184/184
f 185/185/185 186/186/186 187/187/187
f 186/186/186 185/185/185 188/188/188
f 189/189/189 190/190/190 191/191/191
f 190/190/190 189/189/189 192/192/192
f 193/193/193 194/194/194 195/195/195
f 194/194/194 193/193/193 196/196/196
f 197/197/197 198/198/198 199/199/199
f 198/198/198 197/197/197 200/200/200
f 201/201/201 202/202/202 203/203/203
f 202/202/202 201/201/201 204/204/204
f 205/205/205 206/206/206 207/207/207
f 206/206/206 205/205/205 208/208/208
f 209/209/209 210/210/210 211/211/211
f 210/210/210 209/209/209 212/212/212
f 213/213/213 214/214/214 215/215/215
f 214/214/214 213/213/213 216/216/216
f 217/217/217 218/218/218 219/219/219
f 218/218/218 217/217/217 220/220/220
f 221/221/221 222/222/222 223/223/223
f 222/222/222 221/221/221 224/224/224
f 225/225/225 226/226/226 227/227/227
f 226/226/226 225/225/225 228/228/228
f 229/229/229 230/230/230 231/231/231
f 230/230/230 229/229/229 232/232/232
f 233/233/233 234/234/234 235/235/235
f 234/234/234 233/233/233 236/236/236