# Object001
v -0.011250 0.022500 0.037500
v -0.011250 0.022500 -0.247500
v -0.011250 0.007500 -0.247500
v -0.011250 0.007500 -0.217500
v -0.011250 -0.007500 -0.217500
v -0.011250 -0.007500 -0.187500
v -0.011250 -0.007500 -0.022500
v -0.011250 -0.022500 -0.187500
v -0.011250 -0.022500 -0.022500
v -0.011250 -0.007500 0.007500
v -0.011250 -0.022500 0.007500
v -0.011250 -0.022500 0.037500
v -0.007500 -0.022500 0.037500
v -0.007500 -0.037500 0.007500
v -0.007500 -0.037500 0.022500
v -0.007500 -0.022500 0.007500
v -0.007500 -0.007500 0.007500
v -0.007500 -0.022500 -0.022500
v -0.007500 -0.007500 -0.022500
v -0.007500 -0.037500 -0.187500
v -0.007500 -0.037500 -0.022500
v -0.007500 -0.022500 -0.187500
v -0.007500 -0.007500 -0.187500
v -0.007500 -0.022500 -0.217500
v -0.007500 -0.007500 -0.217500
v -0.007500 0.007500 -0.217500
v -0.007500 -0.007500 -0.247500
v -0.007500 0.007500 -0.247500
v -0.007500 0.022500 -0.247500
v -0.007500 0.007500 -0.262500
v -0.007500 0.037500 -0.262500
v -0.007500 0.037500 0.022500
v -0.007500 0.022500 0.037500
v 0.007500 0.022500 -0.247500
v 0.007500 0.037500 0.022500
v 0.007500 0.022500 0.037500
v 0.007500 0.037500 -0.262500
v 0.007500 0.007500 -0.262500
v 0.007500 0.007500 -0.247500
v 0.007500 0.007500 -0.217500
v 0.007500 -0.007500 -0.247500
v 0.007500 -0.007500 -0.217500
v 0.007500 -0.007500 -0.187500
v 0.007500 -0.022500 -0.217500
v 0.007500 -0.022500 -0.187500
v 0.007500 -0.022500 -0.022500
v 0.007500 -0.037500 -0.187500
v 0.007500 -0.037500 -0.022500
v 0.007500 -0.007500 -0.022500
v 0.007500 -0.007500 0.007500
v 0.007500 -0.022500 0.007500
v 0.007500 -0.022500 0.037500
v 0.007500 -0.037500 0.007500
v 0.007500 -0.037500 0.022500
v 0.011250 -0.022500 0.007500
v 0.011250 0.022500 0.037500
v 0.011250 -0.022500 0.037500
v 0.011250 -0.007500 0.007500
v 0.011250 -0.007500 -0.022500
v 0.011250 -0.007500 -0.187500
v 0.011250 -0.022500 -0.187500
v 0.011250 -0.022500 -0.022500
v 0.011250 -0.007500 -0.217500
v 0.011250 0.007500 -0.217500
v 0.011250 0.007500 -0.247500
v 0.011250 0.022500 -0.247500
v 0.007500 -0.037500 -0.022500
v -0.007500 -0.022500 -0.022500
v -0.007500 -0.037500 -0.022500
v 0.007500 -0.022500 -0.022500
v 0.007500 -0.022500 0.007500
v -0.007500 -0.037500 0.007500
v -0.007500 -0.022500 0.007500
v 0.007500 -0.037500 0.007500
v 0.007500 -0.022500 -0.187500
v -0.007500 -0.037500 -0.187500
v -0.007500 -0.022500 -0.187500
v 0.007500 -0.037500 -0.187500
v 0.007500 -0.007500 -0.217500
v -0.007500 -0.022500 -0.217500
v -0.007500 -0.007500 -0.217500
v 0.007500 -0.022500 -0.217500
v 0.007500 0.007500 -0.247500
v -0.007500 -0.007500 -0.247500
v -0.007500 0.007500 -0.247500
v 0.007500 -0.007500 -0.247500
v 0.007500 0.037500 -0.262500
v -0.007500 0.007500 -0.262500
v -0.007500 0.037500 -0.262500
v 0.007500 0.007500 -0.262500
v -0.007500 -0.037500 0.007500
v 0.007500 -0.037500 0.022500
v -0.007500 -0.037500 0.022500
v 0.007500 -0.037500 0.007500
v -0.007500 -0.037500 -0.187500
v 0.007500 -0.037500 -0.022500
v -0.007500 -0.037500 -0.022500
v 0.007500 -0.037500 -0.187500
v -0.007500 -0.022500 -0.022500
v 0.007500 -0.022500 0.007500
v -0.007500 -0.022500 0.007500
v 0.007500 -0.022500 -0.022500
v -0.007500 -0.022500 -0.217500
v 0.007500 -0.022500 -0.187500
v -0.007500 -0.022500 -0.187500
v 0.007500 -0.022500 -0.217500
v -0.007500 -0.007500 -0.247500
v 0.007500 -0.007500 -0.217500
v -0.007500 -0.007500 -0.217500
v 0.007500 -0.007500 -0.247500
v -0.007500 0.007500 -0.262500
v 0.007500 0.007500 -0.247500
v -0.007500 0.007500 -0.247500
v 0.007500 0.007500 -0.262500
v 0.007500 0.037500 -0.262500
v -0.007500 0.037500 0.022500
v 0.007500 0.037500 0.022500
v -0.007500 0.037500 -0.262500
v -0.007500 -0.022500 -0.022500
v -0.011250 -0.007500 -0.022500
v -0.011250 -0.022500 -0.022500
v -0.007500 -0.007500 -0.022500
v -0.007500 -0.007500 0.007500
v -0.011250 -0.022500 0.007500
v -0.011250 -0.007500 0.007500
v -0.007500 -0.022500 0.007500
v -0.007500 -0.007500 -0.187500
v -0.011250 -0.022500 -0.187500
v -0.011250 -0.007500 -0.187500
v -0.007500 -0.022500 -0.187500
v -0.007500 0.007500 -0.217500
v -0.011250 -0.007500 -0.217500
v -0.011250 0.007500 -0.217500
v -0.007500 -0.007500 -0.217500
v -0.007500 0.022500 -0.247500
v -0.011250 0.007500 -0.247500
v -0.011250 0.022500 -0.247500
v -0.007500 0.007500 -0.247500
v -0.011250 -0.022500 0.007500
v -0.007500 -0.022500 0.037500
v -0.011250 -0.022500 0.037500
v -0.007500 -0.022500 0.007500
v -0.011250 -0.022500 -0.187500
v -0.007500 -0.022500 -0.022500
v -0.011250 -0.022500 -0.022500
v -0.007500 -0.022500 -0.187500
v -0.011250 -0.007500 -0.022500
v -0.007500 -0.007500 0.007500
v -0.011250 -0.007500 0.007500
v -0.007500 -0.007500 -0.022500
v -0.011250 -0.007500 -0.217500
v -0.007500 -0.007500 -0.187500
v -0.011250 -0.007500 -0.187500
v -0.007500 -0.007500 -0.217500
v -0.011250 0.007500 -0.247500
v -0.007500 0.007500 -0.217500
v -0.011250 0.007500 -0.217500
v -0.007500 0.007500 -0.247500
v -0.007500 0.022500 -0.247500
v -0.011250 0.022500 0.037500
v -0.007500 0.022500 0.037500
v -0.011250 0.022500 -0.247500
v 0.007500 -0.022500 -0.022500
v 0.011250 -0.007500 -0.022500
v 0.007500 -0.007500 -0.022500
v 0.011250 -0.022500 -0.022500
v 0.011250 -0.007500 0.007500
v 0.007500 -0.022500 0.007500
v 0.007500 -0.007500 0.007500
v 0.011250 -0.022500 0.007500
v 0.011250 -0.007500 -0.187500
v 0.007500 -0.022500 -0.187500
v 0.007500 -0.007500 -0.187500
v 0.011250 -0.022500 -0.187500
v 0.011250 0.007500 -0.217500
v 0.007500 -0.007500 -0.217500
v 0.007500 0.007500 -0.217500
v 0.011250 -0.007500 -0.217500
v 0.011250 0.022500 -0.247500
v 0.007500 0.007500 -0.247500
v 0.007500 0.022500 -0.247500
v 0.011250 0.007500 -0.247500
v 0.011250 -0.022500 0.007500
v 0.007500 -0.022500 0.037500
v 0.007500 -0.022500 0.007500
v 0.011250 -0.022500 0.037500
v 0.011250 -0.022500 -0.187500
v 0.007500 -0.022500 -0.022500
v 0.007500 -0.022500 -0.187500
v 0.011250 -0.022500 -0.022500
v 0.011250 -0.007500 -0.022500
v 0.007500 -0.007500 0.007500
v 0.007500 -0.007500 -0.022500
v 0.011250 -0.007500 0.007500
v 0.011250 -0.007500 -0.217500
v 0.007500 -0.007500 -0.187500
v 0.007500 -0.007500 -0.217500
v 0.011250 -0.007500 -0.187500
v 0.011250 0.007500 -0.247500
v 0.007500 0.007500 -0.217500
v 0.007500 0.007500 -0.247500
v 0.011250 0.007500 -0.217500
v 0.007500 0.022500 0.037500
v 0.011250 0.022500 -0.247500
v 0.007500 0.022500 -0.247500
v 0.011250 0.022500 0.037500
vt 0.234400 0.093800
vt 0.531200 0.093800
vt 0.531200 0.078100
vt 0.500000 0.078100
vt 0.500000 0.062500
vt 0.468700 0.062500
vt 0.296900 0.062500
vt 0.468700 0.046900
vt 0.296900 0.046900
vt 0.265600 0.062500
vt 0.265600 0.046900
vt 0.234400 0.046900
vt 0.234400 0.046900
vt 0.265600 0.031300
vt 0.250000 0.031300
vt 0.265600 0.046900
vt 0.265600 0.062500
vt 0.296900 0.046900
vt 0.296900 0.062500
vt 0.468700 0.031300
vt 0.296900 0.031300
vt 0.468700 0.046900
vt 0.468700 0.062500
vt 0.500000 0.046900
vt 0.500000 0.062500
vt 0.500000 0.078100
vt 0.531200 0.062500
vt 0.531200 0.078100
vt 0.531200 0.093800
vt 0.546900 0.078100
vt 0.546900 0.109400
vt 0.250000 0.109400
vt 0.234400 0.093800
vt 0.531200 0.093800
vt 0.250000 0.109400
vt 0.234400 0.093800
vt 0.546900 0.109400
vt 0.546900 0.078100
vt 0.531200 0.078100
vt 0.500000 0.078100
vt 0.531200 0.062500
vt 0.500000 0.062500
vt 0.468700 0.062500
vt 0.500000 0.046900
vt 0.468700 0.046900
vt 0.296900 0.046900
vt 0.468700 0.031300
vt 0.296900 0.031300
vt 0.296900 0.062500
vt 0.265600 0.062500
vt 0.265600 0.046900
vt 0.234400 0.046900
vt 0.265600 0.031300
vt 0.250000 0.031300
vt 0.265600 0.046900
vt 0.234400 0.093800
vt 0.234400 0.046900
vt 0.265600 0.062500
vt 0.296900 0.062500
vt 0.468700 0.062500
vt 0.468700 0.046900
vt 0.296900 0.046900
vt 0.500000 0.062500
vt 0.500000 0.078100
vt 0.531200 0.078100
vt 0.531200 0.093800
vt 0.203400 0.109700
vt 0.218400 0.124700
vt 0.218400 0.109700
vt 0.203400 0.124700
vt 0.218400 0.124700
vt 0.203400 0.109700
vt 0.203400 0.124700
vt 0.218400 0.109700
vt 0.218400 0.124700
vt 0.203400 0.109700
vt 0.203400 0.124700
vt 0.218400 0.109700
vt 0.218400 0.124700
vt 0.203400 0.109700
vt 0.203400 0.124700
vt 0.218400 0.109700
vt 0.218400 0.124700
vt 0.203400 0.109700
vt 0.203400 0.124700
vt 0.218400 0.109700
vt 0.546600 0.108800
vt 0.531600 0.078800
vt 0.531600 0.108800
vt 0.546600 0.078800
vt 0.218400 0.124700
vt 0.203400 0.109700
vt 0.203400 0.124700
vt 0.218400 0.109700
vt 0.465300 0.046600
vt 0.300300 0.031600
vt 0.300300 0.046600
vt 0.465300 0.031600
vt 0.296200 0.062200
vt 0.266300 0.047200
vt 0.266300 0.062200
vt 0.296200 0.047200
vt 0.499400 0.062200
vt 0.469400 0.047200
vt 0.469400 0.062200
vt 0.499400 0.047200
vt 0.530600 0.077800
vt 0.500600 0.062800
vt 0.500600 0.077800
vt 0.530600 0.062800
vt 0.218400 0.124700
vt 0.203400 0.109700
vt 0.203400 0.124700
vt 0.218400 0.109700
vt 0.255900 0.094100
vt 0.540900 0.109100
vt 0.540900 0.094100
vt 0.255900 0.109100
vt 0.302700 0.046900
vt 0.306600 0.062500
vt 0.306600 0.046900
vt 0.302700 0.062500
vt 0.259800 0.062500
vt 0.255800 0.046900
vt 0.255800 0.062500
vt 0.259800 0.046900
vt 0.463000 0.062500
vt 0.459100 0.046900
vt 0.459100 0.062500
vt 0.463000 0.046900
vt 0.494100 0.078100
vt 0.490200 0.062500
vt 0.490200 0.078100
vt 0.494100 0.062500
vt 0.525400 0.093800
vt 0.521500 0.078100
vt 0.521500 0.093800
vt 0.525400 0.078100
vt 0.265600 0.056600
vt 0.234400 0.052700
vt 0.234400 0.056600
vt 0.265600 0.052700
vt 0.468800 0.056600
vt 0.296900 0.052700
vt 0.296900 0.056600
vt 0.468800 0.052700
vt 0.296900 0.072300
vt 0.265600 0.068400
vt 0.265600 0.072300
vt 0.296900 0.068400
vt 0.500000 0.072300
vt 0.468800 0.068400
vt 0.468800 0.072300
vt 0.500000 0.068400
vt 0.531300 0.087900
vt 0.500000 0.084000
vt 0.500000 0.087900
vt 0.531300 0.084000
vt 0.531300 0.084000
vt 0.234400 0.087900
vt 0.234400 0.084000
vt 0.531300 0.087900
vt 0.302700 0.046900
vt 0.306600 0.062500
vt 0.302700 0.062500
vt 0.306600 0.046900
vt 0.255800 0.062500
vt 0.259800 0.046900
vt 0.259800 0.062500
vt 0.255800 0.046900
vt 0.459100 0.062500
vt 0.463000 0.046900
vt 0.463000 0.062500
vt 0.459100 0.046900
vt 0.490200 0.078100
vt 0.494100 0.062500
vt 0.494100 0.078100
vt 0.490200 0.062500
vt 0.521500 0.093800
vt 0.525400 0.078100
vt 0.525400 0.093800
vt 0.521500 0.078100
vt 0.265600 0.056600
vt 0.234400 0.052700
vt 0.265600 0.052700
vt 0.234400 0.056600
vt 0.468800 0.056600
vt 0.296900 0.052700
vt 0.468800 0.052700
vt 0.296900 0.056600
vt 0.296900 0.072300
vt 0.265600 0.068400
vt 0.296900 0.068400
vt 0.265600 0.072300
vt 0.500000 0.072300
vt 0.468800 0.068400
vt 0.500000 0.068400
vt 0.468800 0.072300
vt 0.531300 0.087900
vt 0.500000 0.084000
vt 0.531300 0.084000
vt 0.500000 0.087900
vt 0.234400 0.084000
vt 0.531300 0.087900
vt 0.531300 0.084000
vt 0.234400 0.087900
vn -1.000000 0.000000 0.000000
vn -1.000000 0.000000 0.000000
vn -1.000000 0.000000 0.000000
vn -1.000000 0.000000 0.000000
vn -1.000000 0.000000 0.000000
vn -1.000000 0.000000 0.000000
vn -1.000000 0.000000 0.000000
vn -1.000000 0.000000 0.000000
vn -1.000000 0.000000 0.000000
vn -1.000000 0.000000 0.000000
vn -1.000000 0.000000 0.000000
vn -1.000000 0.000000 0.000000
vn -1.000000 0.000000 0.000000
vn -1.000000 0.000000 0.000000
vn -1.000000 0.000000 0.000000
vn -1.000000 0.000000 0.000000
vn -1.000000 0.000000 0.000000
vn -1.000000 0.000000 0.000000
vn -1.000000 0.000000 0.000000
vn -1.000000 0.000000 0.000000
vn -1.000000 0.000000 0.000000
vn -1.000000 0.000000 0.000000
vn -1.000000 0.000000 0.000000
vn -1.000000 0.000000 0.000000
vn -1.000000 0.000000 0.000000
vn -1.000000 0.000000 0.000000
vn -1.000000 0.000000 0.000000
vn -1.000000 0.000000 0.000000
vn -1.000000 0.000000 0.000000
vn -1.000000 0.000000 0.000000
vn -1.000000 0.000000 0.000000
vn -1.000000 0.000000 0.000000
vn -1.000000 0.000000 0.000000
vn 1.000000 0.000000 0.000000
vn 1.000000 0.000000 0.000000
vn 1.000000 0.000000 0.000000
vn 1.000000 0.000000 0.000000
vn 1.000000 0.000000 0.000000
vn 1.000000 0.000000 0.000000
vn 1.000000 0.000000 0.000000
vn 1.000000 0.000000 0.000000
vn 1.000000 0.000000 0.000000
vn 1.000000 0.000000 0.000000
vn 1.000000 0.000000 0.000000
vn 1.000000 0.000000 0.000000
vn 1.000000 0.000000 0.000000
vn 1.000000 0.000000 0.000000
vn 1.000000 0.000000 0.000000
vn 1.000000 0.000000 0.000000
vn 1.000000 0.000000 0.000000
vn 1.000000 0.000000 0.000000
vn 1.000000 0.000000 0.000000
vn 1.000000 0.000000 0.000000
vn 1.000000 0.000000 0.000000
vn 1.000000 0.000000 0.000000
vn 1.000000 0.000000 0.000000
vn 1.000000 0.000000 0.000000
vn 1.000000 0.000000 0.000000
vn 1.000000 0.000000 0.000000
vn 1.000000 0.000000 0.000000
vn 1.000000 0.000000 0.000000
vn 1.000000 0.000000 0.000000
vn 1.000000 0.000000 0.000000
vn 1.000000 0.000000 0.000000
vn 1.000000 0.000000 0.000000
vn 1.000000 0.000000 0.000000
vn 0.000000 0.000000 1.000000
vn 0.000000 0.000000 1.000000
vn 0.000000 0.000000 1.000000
vn 0.000000 0.000000 1.000000
vn 0.000000 0.000000 -1.000000
vn 0.000000 0.000000 -1.000000
vn 0.000000 0.000000 -1.000000
vn 0.000000 0.000000 -1.000000
vn 0.000000 0.000000 -1.000000
vn 0.000000 0.000000 -1.000000
vn 0.000000 0.000000 -1.000000
vn 0.000000 0.000000 -1.000000
vn 0.000000 0.000000 -1.000000
vn 0.000000 0.000000 -1.000000
vn 0.000000 0.000000 -1.000000
vn 0.000000 0.000000 -1.000000
vn 0.000000 0.000000 -1.000000
vn 0.000000 0.000000 -1.000000
vn 0.000000 0.000000 -1.000000
vn 0.000000 0.000000 -1.000000
vn 0.000000 0.000000 -1.000000
vn 0.000000 0.000000 -1.000000
vn 0.000000 0.000000 -1.000000
vn 0.000000 0.000000 -1.000000
vn 0.000000 -1.000000 0.000000
vn 0.000000 -1.000000 0.000000
vn 0.000000 -1.000000 0.000000
vn 0.000000 -1.000000 0.000000
vn 0.000000 -1.000000 0.000000
vn 0.000000 -1.000000 0.000000
vn 0.000000 -1.000000 0.000000
vn 0.000000 -1.000000 0.000000
vn 0.000000 -1.000000 0.000000
vn 0.000000 -1.000000 0.000000
vn 0.000000 -1.000000 0.000000
vn 0.000000 -1.000000 0.000000
vn 0.000000 -1.000000 0.000000
vn 0.000000 -1.000000 0.000000
vn 0.000000 -1.000000 0.000000
vn 0.000000 -1.000000 0.000000
vn 0.000000 -1.000000 0.000000
vn 0.000000 -1.000000 0.000000
vn 0.000000 -1.000000 0.000000
vn 0.000000 -1.000000 0.000000
vn 0.000000 -1.000000 0.000000
vn 0.000000 -1.000000 0.000000
vn 0.000000 -1.000000 0.000000
vn 0.000000 -1.000000 0.000000
vn 0.000000 1.000000 0.000000
vn 0.000000 1.000000 0.000000
vn 0.000000 1.000000 0.000000
vn 0.000000 1.000000 0.000000
vn 0.000000 0.000000 1.000000
vn 0.000000 0.000000 1.000000
vn 0.000000 0.000000 1.000000
vn 0.000000 0.000000 1.000000
vn 0.000000 0.000000 -1.000000
vn 0.000000 0.000000 -1.000000
vn 0.000000 0.000000 -1.000000
vn 0.000000 0.000000 -1.000000
vn 0.000000 0.000000 -1.000000
vn 0.000000 0.000000 -1.000000
vn 0.000000 0.000000 -1.000000
vn 0.000000 0.000000 -1.000000
vn 0.000000 0.000000 -1.000000
vn 0.000000 0.000000 -1.000000
vn 0.000000 0.000000 -1.000000
vn 0.000000 0.000000 -1.000000
vn 0.000000 0.000000 -1.000000
vn 0.000000 0.000000 -1.000000
vn 0.000000 0.000000 -1.000000
vn 0.000000 0.000000 -1.000000
vn 0.000000 -1.000000 0.000000
vn 0.000000 -1.000000 0.000000
vn 0.000000 -1.000000 0.000000
vn 0.000000 -1.000000 0.000000
vn 0.000000 -1.000000 0.000000
vn 0.000000 -1.000000 0.000000
vn 0.000000 -1.000000 0.000000
vn 0.000000 -1.000000 0.000000
vn 0.000000 -1.000000 0.000000
vn 0.000000 -1.000000 0.000000
vn 0.000000 -1.000000 0.000000
vn 0.000000 -1.000000 0.000000
vn 0.000000 -1.000000 0.000000
vn 0.000000 -1.000000 0.000000
vn 0.000000 -1.000000 0.000000
vn 0.000000 -1.000000 0.000000
vn 0.000000 -1.000000 0.000000
vn 0.000000 -1.000000 0.000000
vn 0.000000 -1.000000 0.000000
vn 0.000000 -1.000000 0.000000
vn 0.000000 1.000000 0.000000
vn 0.000000 1.000000 0.000000
vn 0.000000 1.000000 0.000000
vn 0.000000 1.000000 0.000000
vn 0.000000 0.000000 1.000000
vn 0.000000 0.000000 1.000000
vn 0.000000 0.000000 1.000000
vn 0.000000 0.000000 1.000000
vn 0.000000 0.000000 -1.000000
vn 0.000000 0.000000 -1.000000
vn 0.000000 0.000000 -1.000000
vn 0.000000 0.000000 -1.000000
vn 0.000000 0.000000 -1.000000
vn 0.000000 0.000000 -1.000000
vn 0.000000 0.000000 -1.000000
vn 0.000000 0.000000 -1.000000
vn 0.000000 0.000000 -1.000000
vn 0.000000 0.000000 -1.000000
vn 0.000000 0.000000 -1.000000
vn 0.000000 0.000000 -1.000000
vn 0.000000 0.000000 -1.000000
vn 0.000000 0.000000 -1.000000
vn 0.000000 0.000000 -1.000000
vn 0.000000 0.000000 -1.000000
vn 0.000000 -1.000000 0.000000
vn 0.000000 -1.000000 0.000000
vn 0.000000 -1.000000 0.000000
vn 0.000000 -1.000000 0.000000
vn 0.000000 -1.000000 0.000000
vn 0.000000 -1.000000 0.000000
vn 0.000000 -1.000000 0.000000
vn 0.000000 -1.000000 0.000000
vn 0.000000 -1.000000 0.000000
vn 0.000000 -1.000000 0.000000
vn 0.000000 -1.000000 0.000000
vn 0.000000 -1.000000 0.000000
vn 0.000000 -1.000000 0.000000
vn 0.000000 -1.000000 0.000000
vn 0.000000 -1.000000 0.000000
vn 0.000000 -1.000000 0.000000
vn 0.000000 -1.000000 0.000000
vn 0.000000 -1.000000 0.000000
vn 0.000000 -1.000000 0.000000
vn 0.000000 -1.000000 0.000000
vn 0.000000 1.000000 0.000000
vn 0.000000 1.000000 0.000000
vn 0.000000 1.000000 0.000000
vn 0.000000 1.000000 0.000000
f 1/1/1 2/2/2 3/3/3
f 1/1/1 3/3/3 4/4/4
f 1/1/1 4/4/4 5/5/5
f 1/1/1 5/5/5 6/6/6
f 1/1/1 6/6/6 7/7/7
f 7/7/7 6/6/6 8/8/8
f 7/7/7 8/8/8 9/9/9
f 1/1/1 7/7/7 10/10/10
f 1/1/1 10/10/10 11/11/11
f 1/1/1 11/11/11 12/12/12
f 13/13/13 14/14/14 15/15/15
f 13/13/13 16/16/16 14/14/14
f 17/17/17 18/18/18 16/16/16
f 17/17/17 19/19/19 18/18/18
f 18/18/18 20/20/20 21/21/21
f 18/18/18 22/22/22 20/20/20
f 23/23/23 24/24/24 22/22/22
f 23/23/23 25/25/25 24/24/24
f 26/26/26 27/27/27 25/25/25
f 26/26/26 28/28/28 27/27/27
f 29/29/29 30/30/30 28/28/28
f 29/29/29 31/31/31 30/30/30
f 32/32/32 31/31/31 29/29/29
f 32/32/32 29/29/29 33/33/33
f 34/34/34 35/35/35 36/36/36
f 37/37/37 35/35/35 34/34/34
f 37/37/37 34/34/34 38/38/38
f 38/38/38 34/34/34 39/39/39
f 39/39/39 40/40/40 41/41/41
f 41/41/41 40/40/40 42/42/42
f 42/42/42 43/43/43 44/44/44
f 44/44/44 43/43/43 45/45/45
f 45/45/45 46/46/46 47/47/47
f 47/47/47 46/46/46 48/48/48
f 49/49/49 50/50/50 46/46/46
f 46/46/46 50/50/50 51/51/51
f 51/51/51 52/52/52 53/53/53
f 53/53/53 52/52/52 54/54/54
f 55/55/55 56/56/56 57/57/57
f 58/58/58 56/56/56 55/55/55
f 59/59/59 56/56/56 58/58/58
f 60/60/60 56/56/56 59/59/59
f 60/60/60 59/59/59 61/61/61
f 61/61/61 59/59/59 62/62/62
f 63/63/63 56/56/56 60/60/60
f 64/64/64 56/56/56 63/63/63
f 65/65/65 56/56/56 64/64/64
f 66/66/66 56/56/56 65/65/65
f 67/67/67 68/68/68 69/69/69
f 68/68/68 67/67/67 70/70/70
f 71/71/71 72/72/72 73/73/73
f 72/72/72 71/71/71 74/74/74
f 75/75/75 76/76/76 77/77/77
f 76/76/76 75/75/75 78/78/78
f 79/79/79 80/80/80 81/81/81
f 80/80/80 79/79/79 82/82/82
f 83/83/83 84/84/84 85/85/85
f 84/84/84 83/83/83 86/86/86
f 87/87/87 88/88/88 89/89/89
f 88/88/88 87/87/87 90/90/90
f 91/91/91 92/92/92 93/93/93
f 92/92/92 91/91/91 94/94/94
f 95/95/95 96/96/96 97/97/97
f 96/96/96 95/95/95 98/98/98
f 99/99/99 100/100/100 101/101/101
f 100/100/100 99/99/99 102/102/102
f 103/103/103 104/104/104 105/105/105
f 104/104/104 103/103/103 106/106/106
f 107/107/107 108/108/108 109/109/109
f 108/108/108 107/107/107 110/110/110
f 111/111/111 112/112/112 113/113/113
f 112/112/112 111/111/111 114/114/114
f 115/115/115 116/116/116 117/117/117
f 116/116/116 115/115/115 118/118/118
f 119/119/119 120/120/120 121/121/121
f 120/120/120 119/119/119 122/122/122
f 123/123/123 124/124/124 125/125/125
f 124/124/124 123/123/123 126/126/126
f 127/127/127 128/128/128 129/129/129
f 128/128/128 127/127/127 130/130/130
f 131/131/131 132/132/132 133/133/133
f 132/132/132 131/131/131 134/134/134
f 135/135/135 136/136/136 137/137/137
f 136/136/136 135/135/135 138/138/138
f 139/139/139 140/140/140 141/141/141
f 140/140/140 139/139/139 142/142/142
f 143/143/143 144/144/144 145/145/145
f 144/144/144 143/143/143 146/146/146
f 147/147/147 148/148/148 149/149/149
f 148/148/148 147/147/147 150/150/150
f 151/151/151 152/152/152 153/153/153
f 152/152/152 151/151/151 154/154/154
f 155/155/155 156/156/156 157/157/157
f 156/156/156 155/155/155 158/158/158
f 159/159/159 160/160/160 161/161/161
f 160/160/160 159/159/159 162/162/162
f 163/163/163 164/164/164 165/165/165
f 164/164/164 163/163/163 166/166/166
f 167/167/167 168/168/168 169/169/169
f 168/168/168 167/167/167 170/170/170
f 171/171/171 172/172/172 173/173/173
f 172/172/172 171/171/171 174/174/174
f 175/175/175 176/176/176 177/177/177
f 176/176/176 175/175/175 178/178/178
f 179/179/179 180/180/180 181/181/181
f 180/180/180 179/179/179 182/182/182
f 183/183/183 184/184/184 185/185/185
f 184/184/184 183/183/183 186/186/186
f 187/187/187 188/188/188 189/189/189
f 188/188/188 187/187/187 190/190/190
f 191/191/191 192/192/192 193/193/193
f 192/192/192 191/191/191 194/194/194
f 195/195/195 196/196/196 197/197/197
f 196/196/196 195/195/195 198/198/198
f 199/199/199 200/200/200 201/201/201
f 200/200/200 199/199/199 202/202/202
f 203/203/203 204/204/204 205/205/205
f 204/204/204 203/203/203 206/206/206