# Object001
v -0.011250 0.142500 -0.390000
v -0.011250 0.127500 -0.390000
v -0.011250 0.142500 -0.375000
v -0.011250 0.127500 -0.405000
v -0.011250 0.067500 -0.390000
v -0.011250 0.052500 -0.390000
v -0.011250 0.112500 -0.405000
v -0.011250 0.112500 -0.480000
v -0.011250 0.052500 -0.435000
v 0.011250 0.127500 -0.390000
v 0.011250 0.142500 -0.390000
v 0.011250 0.142500 -0.375000
v 0.011250 0.067500 -0.390000
v 0.011250 0.127500 -0.405000
v 0.011250 0.052500 -0.390000
v 0.011250 0.112500 -0.405000
v 0.011250 0.052500 -0.435000
v 0.011250 0.112500 -0.480000
v -0.011250 -0.007500 -0.375000
v -0.011250 -0.052500 -0.375000
v -0.011250 -0.007500 -0.360000
v -0.011250 -0.052500 -0.390000
v -0.011250 -0.082500 -0.390000
v 0.011250 -0.082500 -0.390000
v 0.011250 -0.052500 -0.390000
v 0.011250 -0.052500 -0.375000
v 0.011250 -0.007500 -0.375000
v 0.011250 -0.007500 -0.360000
v -0.007500 0.157500 -0.390000
v -0.007500 0.142500 -0.375000
v -0.007500 0.157500 -0.375000
v -0.007500 0.142500 -0.390000
v -0.007500 0.142500 -0.405000
v -0.007500 0.127500 -0.390000
v -0.007500 0.127500 -0.405000
v -0.007500 0.127500 -0.480000
v -0.007500 0.112500 -0.405000
v -0.007500 0.112500 -0.480000
v 0.007500 0.142500 -0.390000
v 0.011250 0.142500 -0.390000
v 0.011250 0.127500 -0.390000
v 0.007500 0.127500 -0.390000
v -0.007500 0.052500 -0.435000
v -0.007500 0.037500 -0.435000
v -0.007500 0.037500 -0.390000
v -0.007500 0.052500 -0.390000
v -0.007500 0.067500 -0.390000
v -0.007500 0.052500 -0.360000
v -0.007500 0.067500 -0.360000
v 0.007500 0.157500 -0.390000
v -0.007500 0.157500 -0.390000
v -0.007500 0.157500 -0.375000
v 0.007500 0.157500 -0.375000
v 0.007500 0.052500 -0.390000
v 0.007500 0.067500 -0.390000
v 0.007500 0.067500 -0.360000
v 0.007500 0.052500 -0.360000
v 0.007500 0.037500 -0.435000
v 0.007500 0.052500 -0.435000
v 0.007500 0.037500 -0.390000
v 0.007500 0.142500 -0.405000
v 0.007500 0.127500 -0.405000
v -0.007500 0.127500 -0.405000
v -0.007500 0.142500 -0.405000
v 0.007500 0.127500 -0.405000
v 0.007500 0.142500 -0.405000
v 0.007500 0.142500 -0.390000
v 0.007500 0.127500 -0.390000
v 0.007500 0.112500 -0.480000
v 0.007500 0.127500 -0.480000
v 0.007500 0.112500 -0.405000
v 0.007500 0.157500 -0.390000
v 0.007500 0.157500 -0.375000
v 0.007500 0.142500 -0.375000
v 0.007500 0.127500 -0.390000
v 0.011250 0.127500 -0.390000
v 0.011250 0.127500 -0.405000
v 0.007500 0.127500 -0.405000
v 0.007500 0.127500 -0.405000
v 0.011250 0.127500 -0.405000
v 0.011250 0.112500 -0.405000
v 0.007500 0.112500 -0.405000
v 0.011250 0.037500 -0.435000
v 0.011250 0.052500 -0.435000
v 0.007500 0.052500 -0.435000
v 0.007500 0.037500 -0.435000
v 0.007500 0.157500 -0.375000
v 0.011250 0.157500 -0.375000
v 0.011250 0.142500 -0.375000
v 0.007500 0.142500 -0.375000
v 0.007500 0.037500 -0.390000
v 0.007500 0.052500 -0.390000
v -0.007500 0.052500 -0.390000
v -0.007500 0.037500 -0.390000
v 0.011250 0.052500 -0.390000
v 0.011250 0.067500 -0.390000
v 0.007500 0.067500 -0.390000
v 0.007500 0.052500 -0.390000
v 0.007500 0.142500 -0.405000
v -0.007500 0.142500 -0.405000
v -0.007500 0.142500 -0.390000
v 0.007500 0.142500 -0.390000
v 0.007500 0.052500 -0.360000
v 0.007500 0.022500 -0.360000
v -0.007500 0.022500 -0.360000
v -0.007500 0.052500 -0.360000
v -0.007500 0.022500 -0.360000
v -0.007500 -0.007500 -0.360000
v -0.011250 -0.007500 -0.360000
v -0.011250 0.022500 -0.360000
v -0.007500 0.052500 -0.390000
v 0.007500 0.052500 -0.390000
v 0.007500 0.052500 -0.360000
v -0.007500 0.052500 -0.360000
v -0.011250 0.067500 -0.390000
v -0.007500 0.067500 -0.390000
v -0.007500 0.067500 -0.360000
v -0.011250 0.067500 -0.360000
v -0.015000 0.067500 -0.390000
v -0.011250 0.067500 -0.285000
v -0.011250 0.067500 -0.195000
v -0.007500 0.067500 -0.195000
v -0.007500 0.067500 -0.285000
v 0.007500 0.172500 -0.375000
v 0.007500 0.157500 -0.375000
v -0.007500 0.157500 -0.375000
v -0.007500 0.172500 -0.375000
v -0.007500 0.037500 -0.435000
v -0.007500 0.052500 -0.435000
v -0.011250 0.052500 -0.435000
v -0.011250 0.037500 -0.435000
v 0.007500 -0.007500 -0.360000
v 0.007500 0.022500 -0.375000
v 0.007500 0.022500 -0.360000
v 0.007500 -0.007500 -0.375000
v 0.007500 -0.052500 -0.375000
v 0.007500 -0.007500 -0.390000
v 0.007500 -0.052500 -0.390000
v 0.007500 -0.082500 -0.390000
v 0.007500 -0.052500 -0.405000
v 0.007500 -0.082500 -0.405000
v 0.011250 0.067500 -0.390000
v 0.007500 0.067500 -0.360000
v 0.007500 0.067500 -0.390000
v 0.011250 0.067500 -0.360000
v 0.015000 0.067500 -0.390000
v 0.011250 0.067500 -0.285000
v 0.011250 0.067500 -0.195000
v 0.007500 0.067500 -0.285000
v 0.007500 0.067500 -0.195000
v -0.007500 0.157500 -0.375000
v -0.007500 0.142500 -0.375000
v -0.011250 0.142500 -0.375000
v -0.011250 0.157500 -0.375000
v 0.007500 0.157500 -0.390000
v 0.007500 0.142500 -0.390000
v -0.007500 0.142500 -0.390000
v -0.007500 0.157500 -0.390000
v 0.011250 0.052500 -0.435000
v 0.011250 0.052500 -0.390000
v 0.007500 0.052500 -0.390000
v 0.007500 0.052500 -0.435000
v 0.007500 0.022500 -0.375000
v -0.007500 0.022500 -0.375000
v -0.007500 0.022500 -0.360000
v 0.007500 0.022500 -0.360000
v -0.007500 0.127500 -0.405000
v -0.007500 0.112500 -0.405000
v -0.011250 0.112500 -0.405000
v -0.011250 0.127500 -0.405000
v -0.007500 0.037500 -0.435000
v 0.007500 0.037500 -0.435000
v 0.007500 0.037500 -0.390000
v -0.007500 0.037500 -0.390000
v -0.007500 -0.007500 -0.360000
v -0.007500 0.022500 -0.360000
v -0.007500 0.022500 -0.375000
v -0.007500 -0.007500 -0.375000
v -0.007500 -0.052500 -0.375000
v -0.007500 -0.007500 -0.390000
v -0.007500 -0.052500 -0.390000
v -0.007500 -0.082500 -0.390000
v -0.007500 -0.052500 -0.405000
v -0.007500 -0.082500 -0.405000
v -0.007500 0.112500 -0.480000
v -0.011250 0.112500 -0.480000
v -0.011250 0.112500 -0.405000
v -0.007500 0.112500 -0.405000
v -0.007500 -0.007500 -0.375000
v -0.011250 -0.007500 -0.375000
v -0.011250 -0.007500 -0.360000
v -0.007500 -0.007500 -0.360000
v 0.007500 0.022500 -0.435000
v 0.007500 0.037500 -0.435000
v -0.007500 0.037500 -0.435000
v -0.007500 0.022500 -0.435000
v -0.007500 0.142500 -0.390000
v -0.011250 0.142500 -0.390000
v -0.011250 0.142500 -0.375000
v -0.007500 0.142500 -0.375000
v 0.007500 -0.052500 -0.390000
v 0.011250 -0.052500 -0.390000
v 0.011250 -0.082500 -0.390000
v 0.007500 -0.082500 -0.390000
v 0.007500 -0.052500 -0.375000
v 0.011250 -0.052500 -0.375000
v 0.011250 -0.052500 -0.390000
v 0.007500 -0.052500 -0.390000
v 0.007500 -0.007500 -0.375000
v 0.011250 -0.007500 -0.375000
v 0.011250 -0.052500 -0.375000
v 0.007500 -0.052500 -0.375000
v 0.007500 0.022500 -0.375000
v 0.007500 -0.007500 -0.375000
v -0.007500 -0.007500 -0.375000
v -0.007500 0.022500 -0.375000
v -0.007500 0.142500 -0.390000
v -0.007500 0.127500 -0.390000
v -0.011250 0.127500 -0.390000
v -0.011250 0.142500 -0.390000
v -0.007500 0.067500 -0.360000
v -0.007500 0.052500 -0.360000
v -0.011250 0.052500 -0.360000
v -0.011250 0.067500 -0.360000
v -0.007500 0.127500 -0.405000
v -0.011250 0.127500 -0.405000
v -0.011250 0.127500 -0.390000
v -0.007500 0.127500 -0.390000
v 0.007500 0.022500 -0.360000
v 0.011250 0.022500 -0.360000
v 0.011250 -0.007500 -0.360000
v 0.007500 -0.007500 -0.360000
v 0.007500 0.127500 -0.480000
v 0.007500 0.112500 -0.480000
v -0.007500 0.112500 -0.480000
v -0.007500 0.127500 -0.480000
v -0.007500 -0.052500 -0.390000
v -0.011250 -0.052500 -0.390000
v -0.011250 -0.052500 -0.375000
v -0.007500 -0.052500 -0.375000
v 0.007500 0.127500 -0.480000
v -0.007500 0.127500 -0.480000
v -0.007500 0.127500 -0.405000
v 0.007500 0.127500 -0.405000
v -0.011250 0.127500 -0.390000
v -0.011250 0.067500 -0.390000
v -0.015000 0.067500 -0.390000
v -0.015000 0.127500 -0.390000
v 0.007500 0.142500 -0.375000
v 0.011250 0.142500 -0.375000
v 0.011250 0.142500 -0.390000
v 0.007500 0.142500 -0.390000
v -0.007500 -0.007500 -0.375000
v -0.007500 -0.052500 -0.375000
v -0.011250 -0.052500 -0.375000
v -0.011250 -0.007500 -0.375000
v 0.007500 -0.052500 -0.405000
v -0.007500 -0.052500 -0.405000
v -0.007500 -0.052500 -0.390000
v 0.007500 -0.052500 -0.390000
v 0.007500 -0.007500 -0.360000
v 0.011250 -0.007500 -0.360000
v 0.011250 -0.007500 -0.375000
v 0.007500 -0.007500 -0.375000
v 0.007500 0.067500 -0.360000
v 0.011250 0.067500 -0.360000
v 0.011250 0.052500 -0.360000
v 0.007500 0.052500 -0.360000
v 0.011250 0.127500 -0.390000
v 0.015000 0.127500 -0.390000
v 0.015000 0.067500 -0.390000
v 0.011250 0.067500 -0.390000
v 0.007500 0.112500 -0.405000
v 0.011250 0.112500 -0.405000
v 0.011250 0.112500 -0.480000
v 0.007500 0.112500 -0.480000
v 0.007500 -0.007500 -0.390000
v 0.007500 -0.052500 -0.390000
v -0.007500 -0.052500 -0.390000
v -0.007500 -0.007500 -0.390000
v -0.011250 0.052500 -0.435000
v -0.007500 0.052500 -0.435000
v -0.007500 0.052500 -0.390000
v -0.011250 0.052500 -0.390000
v 0.007500 -0.007500 -0.390000
v -0.007500 -0.007500 -0.390000
v -0.007500 -0.007500 -0.375000
v 0.007500 -0.007500 -0.375000
v -0.007500 0.052500 -0.390000
v -0.007500 0.067500 -0.390000
v -0.011250 0.067500 -0.390000
v -0.011250 0.052500 -0.390000
v -0.007500 -0.052500 -0.390000
v -0.007500 -0.082500 -0.390000
v -0.011250 -0.082500 -0.390000
v -0.011250 -0.052500 -0.390000
vt 0.179700 0.187500
vt 0.179700 0.179700
vt 0.187500 0.187500
vt 0.171900 0.179700
vt 0.179700 0.148400
vt 0.179700 0.140600
vt 0.171900 0.171900
vt 0.132800 0.171900
vt 0.156300 0.140600
vt 0.179700 0.179700
vt 0.179700 0.187500
vt 0.187500 0.187500
vt 0.179700 0.148400
vt 0.171900 0.179700
vt 0.179700 0.140600
vt 0.171900 0.171900
vt 0.156300 0.140600
vt 0.132800 0.171900
vt 0.187500 0.109400
vt 0.187500 0.085900
vt 0.195300 0.109400
vt 0.179700 0.085900
vt 0.179700 0.070300
vt 0.179700 0.070300
vt 0.179700 0.085900
vt 0.187500 0.085900
vt 0.187500 0.109400
vt 0.195300 0.109400
vt 0.179700 0.195300
vt 0.187500 0.187500
vt 0.187500 0.195300
vt 0.179700 0.187500
vt 0.171900 0.187500
vt 0.179700 0.179700
vt 0.171900 0.179700
vt 0.132800 0.179700
vt 0.171900 0.171900
vt 0.132800 0.171900
vt 0.182600 0.187500
vt 0.184600 0.187500
vt 0.184600 0.179700
vt 0.182600 0.179700
vt 0.156300 0.140600
vt 0.156300 0.132800
vt 0.179700 0.132800
vt 0.179700 0.140600
vt 0.179700 0.148400
vt 0.195300 0.140600
vt 0.195300 0.148400
vt 0.257400 0.132400
vt 0.257400 0.125400
vt 0.250400 0.125400
vt 0.250400 0.132400
vt 0.179700 0.140600
vt 0.179700 0.148400
vt 0.195300 0.148400
vt 0.195300 0.140600
vt 0.156300 0.132800
vt 0.156300 0.140600
vt 0.179700 0.132800
vt 0.257400 0.132400
vt 0.257400 0.125400
vt 0.250400 0.125400
vt 0.250400 0.132400
vt 0.171900 0.179700
vt 0.171900 0.187500
vt 0.179700 0.187500
vt 0.179700 0.179700
vt 0.132800 0.171900
vt 0.132800 0.179700
vt 0.171900 0.171900
vt 0.179700 0.195300
vt 0.187500 0.195300
vt 0.187500 0.187500
vt 0.179700 0.174800
vt 0.179700 0.176800
vt 0.171900 0.176800
vt 0.171900 0.174800
vt 0.174800 0.179700
vt 0.176800 0.179700
vt 0.176800 0.171900
vt 0.174800 0.171900
vt 0.151400 0.132800
vt 0.151400 0.140600
vt 0.153300 0.140600
vt 0.153300 0.132800
vt 0.190400 0.195300
vt 0.192400 0.195300
vt 0.192400 0.187500
vt 0.190400 0.187500
vt 0.250400 0.125400
vt 0.250400 0.132400
vt 0.257400 0.132400
vt 0.257400 0.125400
vt 0.174800 0.140600
vt 0.174800 0.148400
vt 0.176800 0.148400
vt 0.176800 0.140600
vt 0.257400 0.132400
vt 0.257400 0.125400
vt 0.250400 0.125400
vt 0.250400 0.132400
vt 0.202700 0.139800
vt 0.202700 0.125800
vt 0.195700 0.125800
vt 0.195700 0.139800
vt 0.200200 0.125000
vt 0.200200 0.109400
vt 0.198200 0.109400
vt 0.198200 0.125000
vt 0.180500 0.141000
vt 0.180500 0.148000
vt 0.194500 0.148000
vt 0.194500 0.141000
vt 0.179700 0.150400
vt 0.179700 0.152400
vt 0.195300 0.152400
vt 0.195300 0.150400
vt 0.179700 0.148400
vt 0.234400 0.150400
vt 0.281300 0.150400
vt 0.281300 0.152400
vt 0.234400 0.152400
vt 0.257400 0.132400
vt 0.257400 0.125400
vt 0.250400 0.125400
vt 0.250400 0.132400
vt 0.151400 0.132800
vt 0.151400 0.140600
vt 0.153300 0.140600
vt 0.153300 0.132800
vt 0.195300 0.109400
vt 0.187500 0.125000
vt 0.195300 0.125000
vt 0.187500 0.109400
vt 0.187500 0.085900
vt 0.179700 0.109400
vt 0.179700 0.085900
vt 0.179700 0.070300
vt 0.171900 0.085900
vt 0.171900 0.070300
vt 0.179700 0.150400
vt 0.195300 0.148400
vt 0.179700 0.148400
vt 0.195300 0.150400
vt 0.179700 0.152400
vt 0.234400 0.150400
vt 0.281300 0.150400
vt 0.234400 0.148400
vt 0.281300 0.148400
vt 0.192400 0.195300
vt 0.192400 0.187500
vt 0.190400 0.187500
vt 0.190400 0.195300
vt 0.257400 0.132400
vt 0.257400 0.125400
vt 0.250400 0.125400
vt 0.250400 0.132400
vt 0.156300 0.145500
vt 0.179700 0.145500
vt 0.179700 0.143600
vt 0.156300 0.143600
vt 0.257400 0.132400
vt 0.257400 0.125400
vt 0.250400 0.125400
vt 0.250400 0.132400
vt 0.176800 0.179700
vt 0.176800 0.171900
vt 0.174800 0.171900
vt 0.174800 0.179700
vt 0.157500 0.133200
vt 0.157500 0.140200
vt 0.178500 0.140200
vt 0.178500 0.133200
vt 0.195300 0.109400
vt 0.195300 0.125000
vt 0.187500 0.125000
vt 0.187500 0.109400
vt 0.187500 0.085900
vt 0.179700 0.109400
vt 0.179700 0.085900
vt 0.179700 0.070300
vt 0.171900 0.085900
vt 0.171900 0.070300
vt 0.171900 0.168900
vt 0.171900 0.167000
vt 0.132800 0.167000
vt 0.132800 0.168900
vt 0.195300 0.106400
vt 0.195300 0.104500
vt 0.187500 0.104500
vt 0.187500 0.106400
vt 0.250400 0.125400
vt 0.250400 0.132400
vt 0.257400 0.132400
vt 0.257400 0.125400
vt 0.187500 0.184600
vt 0.187500 0.182600
vt 0.179700 0.182600
vt 0.179700 0.184600
vt 0.182600 0.085900
vt 0.184600 0.085900
vt 0.184600 0.070300
vt 0.182600 0.070300
vt 0.187500 0.081100
vt 0.187500 0.083000
vt 0.179700 0.083000
vt 0.179700 0.081100
vt 0.190400 0.109400
vt 0.192400 0.109400
vt 0.192400 0.085900
vt 0.190400 0.085900
vt 0.194900 0.124200
vt 0.194900 0.110200
vt 0.187900 0.110200
vt 0.187900 0.124200
vt 0.184600 0.187500
vt 0.184600 0.179700
vt 0.182600 0.179700
vt 0.182600 0.187500
vt 0.200200 0.148400
vt 0.200200 0.140600
vt 0.198200 0.140600
vt 0.198200 0.148400
vt 0.179700 0.176800
vt 0.179700 0.174800
vt 0.171900 0.174800
vt 0.171900 0.176800
vt 0.198200 0.125000
vt 0.200200 0.125000
vt 0.200200 0.109400
vt 0.198200 0.109400
vt 0.257400 0.132400
vt 0.257400 0.125400
vt 0.250400 0.125400
vt 0.250400 0.132400
vt 0.187500 0.083000
vt 0.187500 0.081100
vt 0.179700 0.081100
vt 0.179700 0.083000
vt 0.169800 0.179300
vt 0.169800 0.172300
vt 0.134800 0.172300
vt 0.134800 0.179300
vt 0.184600 0.179700
vt 0.184600 0.148400
vt 0.182600 0.148400
vt 0.182600 0.179700
vt 0.187500 0.182600
vt 0.187500 0.184600
vt 0.179700 0.184600
vt 0.179700 0.182600
vt 0.192400 0.109400
vt 0.192400 0.085900
vt 0.190400 0.085900
vt 0.190400 0.109400
vt 0.257400 0.132400
vt 0.257400 0.125400
vt 0.250400 0.125400
vt 0.250400 0.132400
vt 0.195300 0.104500
vt 0.195300 0.106400
vt 0.187500 0.106400
vt 0.187500 0.104500
vt 0.198200 0.148400
vt 0.200200 0.148400
vt 0.200200 0.140600
vt 0.198200 0.140600
vt 0.182600 0.179700
vt 0.184600 0.179700
vt 0.184600 0.148400
vt 0.182600 0.148400
vt 0.171900 0.167000
vt 0.171900 0.168900
vt 0.132800 0.168900
vt 0.132800 0.167000
vt 0.187100 0.108600
vt 0.187100 0.087600
vt 0.180100 0.087600
vt 0.180100 0.108600
vt 0.156300 0.143600
vt 0.156300 0.145500
vt 0.179700 0.145500
vt 0.179700 0.143600
vt 0.257400 0.132400
vt 0.257400 0.125400
vt 0.250400 0.125400
vt 0.250400 0.132400
vt 0.174800 0.140600
vt 0.174800 0.148400
vt 0.176800 0.148400
vt 0.176800 0.140600
vt 0.184600 0.085900
vt 0.184600 0.070300
vt 0.182600 0.070300
vt 0.182600 0.085900
vn -1.000000 0.000000 0.000000
vn -1.000000 0.000000 0.000000
vn -1.000000 0.000000 0.000000
vn -1.000000 0.000000 0.000000
vn -1.000000 0.000000 0.000000
vn -1.000000 0.000000 0.000000
vn -1.000000 0.000000 0.000000
vn -1.000000 0.000000 0.000000
vn -1.000000 0.000000 0.000000
vn 1.000000 0.000000 0.000000
vn 1.000000 0.000000 0.000000
vn 1.000000 0.000000 0.000000
vn 1.000000 0.000000 0.000000
vn 1.000000 0.000000 0.000000
vn 1.000000 0.000000 0.000000
vn 1.000000 0.000000 0.000000
vn 1.000000 0.000000 0.000000
vn 1.000000 0.000000 0.000000
vn -1.000000 0.000000 0.000000
vn -1.000000 0.000000 0.000000
vn -1.000000 0.000000 0.000000
vn -1.000000 0.000000 0.000000
vn -1.000000 0.000000 0.000000
vn 1.000000 0.000000 0.000000
vn 1.000000 0.000000 0.000000
vn 1.000000 0.000000 0.000000
vn 1.000000 0.000000 0.000000
vn 1.000000 0.000000 0.000000
vn -1.000000 0.000000 0.000000
vn -1.000000 0.000000 0.000000
vn -1.000000 0.000000 0.000000
vn -1.000000 0.000000 0.000000
vn -1.000000 0.000000 0.000000
vn -1.000000 0.000000 0.000000
vn -1.000000 0.000000 0.000000
vn -1.000000 0.000000 0.000000
vn -1.000000 0.000000 0.000000
vn -1.000000 0.000000 0.000000
vn 0.000000 0.000000 -1.000000
vn 0.000000 0.000000 -1.000000
vn 0.000000 0.000000 -1.000000
vn 0.000000 0.000000 -1.000000
vn -1.000000 0.000000 0.000000
vn -1.000000 0.000000 0.000000
vn -1.000000 0.000000 0.000000
vn -1.000000 0.000000 0.000000
vn -1.000000 0.000000 0.000000
vn -1.000000 0.000000 0.000000
vn -1.000000 0.000000 0.000000
vn 0.000000 1.000000 0.000000
vn 0.000000 1.000000 0.000000
vn 0.000000 1.000000 0.000000
vn 0.000000 1.000000 0.000000
vn 1.000000 0.000000 0.000000
vn 1.000000 0.000000 0.000000
vn 1.000000 0.000000 0.000000
vn 1.000000 0.000000 0.000000
vn 1.000000 0.000000 0.000000
vn 1.000000 0.000000 0.000000
vn 1.000000 0.000000 0.000000
vn 0.000000 0.000000 -1.000000
vn 0.000000 0.000000 -1.000000
vn 0.000000 0.000000 -1.000000
vn 0.000000 0.000000 -1.000000
vn 1.000000 0.000000 0.000000
vn 1.000000 0.000000 0.000000
vn 1.000000 0.000000 0.000000
vn 1.000000 0.000000 0.000000
vn 1.000000 0.000000 0.000000
vn 1.000000 0.000000 0.000000
vn 1.000000 0.000000 0.000000
vn 1.000000 0.000000 0.000000
vn 1.000000 0.000000 0.000000
vn 1.000000 0.000000 0.000000
vn 0.000000 1.000000 0.000000
vn 0.000000 1.000000 0.000000
vn 0.000000 1.000000 0.000000
vn 0.000000 1.000000 0.000000
vn 0.000000 0.000000 -1.000000
vn 0.000000 0.000000 -1.000000
vn 0.000000 0.000000 -1.000000
vn 0.000000 0.000000 -1.000000
vn 0.000000 0.000000 1.000000
vn 0.000000 0.000000 1.000000
vn 0.000000 0.000000 1.000000
vn 0.000000 0.000000 1.000000
vn 0.000000 0.000000 -1.000000
vn 0.000000 0.000000 -1.000000
vn 0.000000 0.000000 -1.000000
vn 0.000000 0.000000 -1.000000
vn 0.000000 0.000000 1.000000
vn 0.000000 0.000000 1.000000
vn 0.000000 0.000000 1.000000
vn 0.000000 0.000000 1.000000
vn 0.000000 0.000000 1.000000
vn 0.000000 0.000000 1.000000
vn 0.000000 0.000000 1.000000
vn 0.000000 0.000000 1.000000
vn 0.000000 1.000000 0.000000
vn 0.000000 1.000000 0.000000
vn 0.000000 1.000000 0.000000
vn 0.000000 1.000000 0.000000
vn 0.000000 0.000000 -1.000000
vn 0.000000 0.000000 -1.000000
vn 0.000000 0.000000 -1.000000
vn 0.000000 0.000000 -1.000000
vn 0.000000 0.000000 -1.000000
vn 0.000000 0.000000 -1.000000
vn 0.000000 0.000000 -1.000000
vn 0.000000 0.000000 -1.000000
vn 0.000000 -1.000000 0.000000
vn 0.000000 -1.000000 0.000000
vn 0.000000 -1.000000 0.000000
vn 0.000000 -1.000000 0.000000
vn 0.000000 -1.000000 0.000000
vn 0.000000 -1.000000 0.000000
vn 0.000000 -1.000000 0.000000
vn 0.000000 -1.000000 0.000000
vn 0.000000 -1.000000 0.000000
vn 0.000000 -1.000000 0.000000
vn 0.000000 -1.000000 0.000000
vn 0.000000 -1.000000 0.000000
vn 0.000000 -1.000000 0.000000
vn 0.000000 0.000000 -1.000000
vn 0.000000 0.000000 -1.000000
vn 0.000000 0.000000 -1.000000
vn 0.000000 0.000000 -1.000000
vn 0.000000 0.000000 1.000000
vn 0.000000 0.000000 1.000000
vn 0.000000 0.000000 1.000000
vn 0.000000 0.000000 1.000000
vn 1.000000 0.000000 0.000000
vn 1.000000 0.000000 0.000000
vn 1.000000 0.000000 0.000000
vn 1.000000 0.000000 0.000000
vn 1.000000 0.000000 0.000000
vn 1.000000 0.000000 0.000000
vn 1.000000 0.000000 0.000000
vn 1.000000 0.000000 0.000000
vn 1.000000 0.000000 0.000000
vn 1.000000 0.000000 0.000000
vn 0.000000 -1.000000 0.000000
vn 0.000000 -1.000000 0.000000
vn 0.000000 -1.000000 0.000000
vn 0.000000 -1.000000 0.000000
vn 0.000000 -1.000000 0.000000
vn 0.000000 -1.000000 0.000000
vn 0.000000 -1.000000 0.000000
vn 0.000000 -1.000000 0.000000
vn 0.000000 -1.000000 0.000000
vn 0.000000 0.000000 -1.000000
vn 0.000000 0.000000 -1.000000
vn 0.000000 0.000000 -1.000000
vn 0.000000 0.000000 -1.000000
vn 0.000000 0.000000 -1.000000
vn 0.000000 0.000000 -1.000000
vn 0.000000 0.000000 -1.000000
vn 0.000000 0.000000 -1.000000
vn 0.000000 -1.000000 0.000000
vn 0.000000 -1.000000 0.000000
vn 0.000000 -1.000000 0.000000
vn 0.000000 -1.000000 0.000000
vn 0.000000 1.000000 0.000000
vn 0.000000 1.000000 0.000000
vn 0.000000 1.000000 0.000000
vn 0.000000 1.000000 0.000000
vn 0.000000 0.000000 -1.000000
vn 0.000000 0.000000 -1.000000
vn 0.000000 0.000000 -1.000000
vn 0.000000 0.000000 -1.000000
vn 0.000000 -1.000000 0.000000
vn 0.000000 -1.000000 0.000000
vn 0.000000 -1.000000 0.000000
vn 0.000000 -1.000000 0.000000
vn -1.000000 0.000000 0.000000
vn -1.000000 0.000000 0.000000
vn -1.000000 0.000000 0.000000
vn -1.000000 0.000000 0.000000
vn -1.000000 0.000000 0.000000
vn -1.000000 0.000000 0.000000
vn -1.000000 0.000000 0.000000
vn -1.000000 0.000000 0.000000
vn -1.000000 0.000000 0.000000
vn -1.000000 0.000000 0.000000
vn 0.000000 1.000000 0.000000
vn 0.000000 1.000000 0.000000
vn 0.000000 1.000000 0.000000
vn 0.000000 1.000000 0.000000
vn 0.000000 1.000000 0.000000
vn 0.000000 1.000000 0.000000
vn 0.000000 1.000000 0.000000
vn 0.000000 1.000000 0.000000
vn 0.000000 0.000000 1.000000
vn 0.000000 0.000000 1.000000
vn 0.000000 0.000000 1.000000
vn 0.000000 0.000000 1.000000
vn 0.000000 1.000000 0.000000
vn 0.000000 1.000000 0.000000
vn 0.000000 1.000000 0.000000
vn 0.000000 1.000000 0.000000
vn 0.000000 0.000000 -1.000000
vn 0.000000 0.000000 -1.000000
vn 0.000000 0.000000 -1.000000
vn 0.000000 0.000000 -1.000000
vn 0.000000 1.000000 0.000000
vn 0.000000 1.000000 0.000000
vn 0.000000 1.000000 0.000000
vn 0.000000 1.000000 0.000000
vn 0.000000 0.000000 -1.000000
vn 0.000000 0.000000 -1.000000
vn 0.000000 0.000000 -1.000000
vn 0.000000 0.000000 -1.000000
vn 0.000000 0.000000 -1.000000
vn 0.000000 0.000000 -1.000000
vn 0.000000 0.000000 -1.000000
vn 0.000000 0.000000 -1.000000
vn 0.000000 0.000000 -1.000000
vn 0.000000 0.000000 -1.000000
vn 0.000000 0.000000 -1.000000
vn 0.000000 0.000000 -1.000000
vn 0.000000 0.000000 -1.000000
vn 0.000000 0.000000 -1.000000
vn 0.000000 0.000000 -1.000000
vn 0.000000 0.000000 -1.000000
vn 0.000000 1.000000 0.000000
vn 0.000000 1.000000 0.000000
vn 0.000000 1.000000 0.000000
vn 0.000000 1.000000 0.000000
vn 0.000000 0.000000 -1.000000
vn 0.000000 0.000000 -1.000000
vn 0.000000 0.000000 -1.000000
vn 0.000000 0.000000 -1.000000
vn 0.000000 0.000000 -1.000000
vn 0.000000 0.000000 -1.000000
vn 0.000000 0.000000 -1.000000
vn 0.000000 0.000000 -1.000000
vn 0.000000 1.000000 0.000000
vn 0.000000 1.000000 0.000000
vn 0.000000 1.000000 0.000000
vn 0.000000 1.000000 0.000000
vn 0.000000 1.000000 0.000000
vn 0.000000 1.000000 0.000000
vn 0.000000 1.000000 0.000000
vn 0.000000 1.000000 0.000000
vn 0.000000 0.000000 -1.000000
vn 0.000000 0.000000 -1.000000
vn 0.000000 0.000000 -1.000000
vn 0.000000 0.000000 -1.000000
vn 0.000000 1.000000 0.000000
vn 0.000000 1.000000 0.000000
vn 0.000000 1.000000 0.000000
vn 0.000000 1.000000 0.000000
vn 0.000000 0.000000 -1.000000
vn 0.000000 0.000000 -1.000000
vn 0.000000 0.000000 -1.000000
vn 0.000000 0.000000 -1.000000
vn 0.000000 1.000000 0.000000
vn 0.000000 1.000000 0.000000
vn 0.000000 1.000000 0.000000
vn 0.000000 1.000000 0.000000
vn 0.000000 1.000000 0.000000
vn 0.000000 1.000000 0.000000
vn 0.000000 1.000000 0.000000
vn 0.000000 1.000000 0.000000
vn 0.000000 0.000000 -1.000000
vn 0.000000 0.000000 -1.000000
vn 0.000000 0.000000 -1.000000
vn 0.000000 0.000000 -1.000000
vn 0.000000 0.000000 -1.000000
vn 0.000000 0.000000 -1.000000
vn 0.000000 0.000000 -1.000000
vn 0.000000 0.000000 -1.000000
vn 0.000000 1.000000 0.000000
vn 0.000000 1.000000 0.000000
vn 0.000000 1.000000 0.000000
vn 0.000000 1.000000 0.000000
vn 0.000000 0.000000 -1.000000
vn 0.000000 0.000000 -1.000000
vn 0.000000 0.000000 -1.000000
vn 0.000000 0.000000 -1.000000
vn 0.000000 -1.000000 0.000000
vn 0.000000 -1.000000 0.000000
vn 0.000000 -1.000000 0.000000
vn 0.000000 -1.000000 0.000000
vn 0.000000 1.000000 0.000000
vn 0.000000 1.000000 0.000000
vn 0.000000 1.000000 0.000000
vn 0.000000 1.000000 0.000000
vn 0.000000 0.000000 1.000000
vn 0.000000 0.000000 1.000000
vn 0.000000 0.000000 1.000000
vn 0.000000 0.000000 1.000000
vn 0.000000 0.000000 -1.000000
vn 0.000000 0.000000 -1.000000
vn 0.000000 0.000000 -1.000000
vn 0.000000 0.000000 -1.000000
f 1/1/1 2/2/2 3/3/3
f 4/4/4 5/5/5 2/2/2
f 4/4/4 6/6/6 5/5/5
f 4/4/4 7/7/7 6/6/6
f 8/8/8 6/6/6 7/7/7
f 8/8/8 9/9/9 6/6/6
f 10/10/10 11/11/11 12/12/12
f 13/13/13 14/14/14 10/10/10
f 15/15/15 14/14/14 13/13/13
f 16/16/16 14/14/14 15/15/15
f 16/16/16 15/15/15 17/17/17
f 16/16/16 17/17/17 18/18/18
f 19/19/19 20/20/20 21/21/21
f 22/22/22 23/23/23 20/20/20
f 24/24/24 25/25/25 26/26/26
f 26/26/26 27/27/27 28/28/28
f 29/29/29 30/30/30 31/31/31
f 29/29/29 32/32/32 30/30/30
f 33/33/33 34/34/34 32/32/32
f 33/33/33 35/35/35 34/34/34
f 36/36/36 37/37/37 35/35/35
f 36/36/36 38/38/38 37/37/37
f 39/39/39 40/40/40 41/41/41
f 39/39/39 41/41/41 42/42/42
f 43/43/43 44/44/44 45/45/45
f 43/43/43 45/45/45 46/46/46
f 47/47/47 46/46/46 48/48/48
f 47/47/47 48/48/48 49/49/49
f 50/50/50 51/51/51 52/52/52
f 50/50/50 52/52/52 53/53/53
f 54/54/54 55/55/55 56/56/56
f 54/54/54 56/56/56 57/57/57
f 58/58/58 59/59/59 54/54/54
f 58/58/58 54/54/54 60/60/60
f 61/61/61 62/62/62 63/63/63
f 61/61/61 63/63/63 64/64/64
f 65/65/65 66/66/66 67/67/67
f 65/65/65 67/67/67 68/68/68
f 69/69/69 70/70/70 65/65/65
f 69/69/69 65/65/65 71/71/71
f 67/67/67 72/72/72 73/73/73
f 67/67/67 73/73/73 74/74/74
f 75/75/75 76/76/76 77/77/77
f 75/75/75 77/77/77 78/78/78
f 79/79/79 80/80/80 81/81/81
f 79/79/79 81/81/81 82/82/82
f 83/83/83 84/84/84 85/85/85
f 83/83/83 85/85/85 86/86/86
f 87/87/87 88/88/88 89/89/89
f 87/87/87 89/89/89 90/90/90
f 91/91/91 92/92/92 93/93/93
f 91/91/91 93/93/93 94/94/94
f 95/95/95 96/96/96 97/97/97
f 95/95/95 97/97/97 98/98/98
f 99/99/99 100/100/100 101/101/101
f 99/99/99 101/101/101 102/102/102
f 103/103/103 104/104/104 105/105/105
f 103/103/103 105/105/105 106/106/106
f 107/107/107 108/108/108 109/109/109
f 107/107/107 109/109/109 110/110/110
f 111/111/111 112/112/112 113/113/113
f 111/111/111 113/113/113 114/114/114
f 115/115/115 116/116/116 117/117/117
f 115/115/115 117/117/117 118/118/118
f 118/118/118 119/119/119 115/115/115
f 120/120/120 119/119/119 118/118/118
f 121/121/121 119/119/119 120/120/120
f 122/122/122 121/121/121 120/120/120
f 122/122/122 120/120/120 123/123/123
f 124/124/124 125/125/125 126/126/126
f 124/124/124 126/126/126 127/127/127
f 128/128/128 129/129/129 130/130/130
f 128/128/128 130/130/130 131/131/131
f 132/132/132 133/133/133 134/134/134
f 132/132/132 135/135/135 133/133/133
f 136/136/136 137/137/137 135/135/135
f 136/136/136 138/138/138 137/137/137
f 139/139/139 140/140/140 138/138/138
f 139/139/139 141/141/141 140/140/140
f 142/142/142 143/143/143 144/144/144
f 142/142/142 145/145/145 143/143/143
f 146/146/146 145/145/145 142/142/142
f 146/146/146 147/147/147 145/145/145
f 146/146/146 148/148/148 147/147/147
f 148/148/148 149/149/149 147/147/147
f 148/148/148 150/150/150 149/149/149
f 151/151/151 152/152/152 153/153/153
f 151/151/151 153/153/153 154/154/154
f 155/155/155 156/156/156 157/157/157
f 155/155/155 157/157/157 158/158/158
f 159/159/159 160/160/160 161/161/161
f 159/159/159 161/161/161 162/162/162
f 163/163/163 164/164/164 165/165/165
f 163/163/163 165/165/165 166/166/166
f 167/167/167 168/168/168 169/169/169
f 167/167/167 169/169/169 170/170/170
f 171/171/171 172/172/172 173/173/173
f 171/171/171 173/173/173 174/174/174
f 175/175/175 176/176/176 177/177/177
f 175/175/175 177/177/177 178/178/178
f 179/179/179 178/178/178 180/180/180
f 179/179/179 180/180/180 181/181/181
f 182/182/182 181/181/181 183/183/183
f 182/182/182 183/183/183 184/184/184
f 185/185/185 186/186/186 187/187/187
f 185/185/185 187/187/187 188/188/188
f 189/189/189 190/190/190 191/191/191
f 189/189/189 191/191/191 192/192/192
f 193/193/193 194/194/194 195/195/195
f 193/193/193 195/195/195 196/196/196
f 197/197/197 198/198/198 199/199/199
f 197/197/197 199/199/199 200/200/200
f 201/201/201 202/202/202 203/203/203
f 201/201/201 203/203/203 204/204/204
f 205/205/205 206/206/206 207/207/207
f 205/205/205 207/207/207 208/208/208
f 209/209/209 210/210/210 211/211/211
f 209/209/209 211/211/211 212/212/212
f 213/213/213 214/214/214 215/215/215
f 213/213/213 215/215/215 216/216/216
f 217/217/217 218/218/218 219/219/219
f 217/217/217 219/219/219 220/220/220
f 221/221/221 222/222/222 223/223/223
f 221/221/221 223/223/223 224/224/224
f 225/225/225 226/226/226 227/227/227
f 225/225/225 227/227/227 228/228/228
f 229/229/229 230/230/230 231/231/231
f 229/229/229 231/231/231 232/232/232
f 233/233/233 234/234/234 235/235/235
f 233/233/233 235/235/235 236/236/236
f 237/237/237 238/238/238 239/239/239
f 237/237/237 239/239/239 240/240/240
f 241/241/241 242/242/242 243/243/243
f 241/241/241 243/243/243 244/244/244
f 245/245/245 246/246/246 247/247/247
f 245/245/245 247/247/247 248/248/248
f 249/249/249 250/250/250 251/251/251
f 249/249/249 251/251/251 252/252/252
f 253/253/253 254/254/254 255/255/255
f 253/253/253 255/255/255 256/256/256
f 257/257/257 258/258/258 259/259/259
f 257/257/257 259/259/259 260/260/260
f 261/261/261 262/262/262 263/263/263
f 261/261/261 263/263/263 264/264/264
f 265/265/265 266/266/266 267/267/267
f 265/265/265 267/267/267 268/268/268
f 269/269/269 270/270/270 271/271/271
f 269/269/269 271/271/271 272/272/272
f 273/273/273 274/274/274 275/275/275
f 273/273/273 275/275/275 276/276/276
f 277/277/277 278/278/278 279/279/279
f 277/277/277 279/279/279 280/280/280
f 281/281/281 282/282/282 283/283/283
f 281/281/281 283/283/283 284/284/284
f 285/285/285 286/286/286 287/287/287
f 285/285/285 287/287/287 288/288/288
f 289/289/289 290/290/290 291/291/291
f 289/289/289 291/291/291 292/292/292
f 293/293/293 294/294/294 295/295/295
f 293/293/293 295/295/295 296/296/296