# Object007
v -0.007500 0.187500 -0.045000
v -0.007500 0.172500 -0.045000
v -0.007500 0.172500 0.060000
v -0.007500 0.172500 -0.375000
v -0.007500 0.157500 -0.045000
v -0.007500 0.157500 -0.375000
v 0.007500 0.172500 -0.045000
v 0.007500 0.187500 -0.045000
v 0.007500 0.172500 0.060000
v 0.007500 0.157500 -0.375000
v 0.007500 0.172500 -0.375000
v 0.007500 0.157500 -0.045000
v 0.015000 0.067500 -0.390000
v 0.015000 0.082500 0.045000
v 0.015000 0.067500 0.045000
v 0.015000 0.127500 -0.390000
v 0.015000 0.127500 0.060000
v 0.007500 0.052500 0.045000
v 0.007500 0.067500 0.045000
v -0.007500 0.067500 0.045000
v -0.007500 0.052500 0.045000
v 0.011250 0.172500 0.060000
v 0.015000 0.172500 0.060000
v 0.015000 0.127500 0.060000
v 0.011250 0.127500 0.060000
v 0.015000 0.067500 0.045000
v 0.015000 0.082500 0.045000
v 0.007500 0.082500 0.045000
v 0.007500 0.067500 0.045000
v -0.007500 0.067500 0.045000
v -0.007500 0.082500 0.045000
v -0.015000 0.082500 0.045000
v -0.015000 0.067500 0.045000
v 0.007500 0.172500 -0.045000
v 0.011250 0.172500 -0.045000
v 0.011250 0.157500 -0.045000
v 0.007500 0.157500 -0.045000
v -0.007500 0.157500 -0.375000
v -0.011250 0.157500 -0.375000
v -0.011250 0.157500 -0.045000
v -0.007500 0.157500 -0.045000
v -0.011250 0.127500 -0.390000
v -0.015000 0.127500 -0.390000
v -0.015000 0.127500 0.060000
v -0.011250 0.127500 0.060000
v -0.011250 0.172500 -0.045000
v -0.011250 0.127500 0.060000
v -0.011250 0.172500 0.060000
v -0.011250 0.157500 -0.045000
v -0.011250 0.142500 -0.375000
v -0.011250 0.157500 -0.375000
v -0.011250 0.127500 -0.390000
v -0.015000 0.127500 -0.390000
v -0.015000 0.082500 0.045000
v -0.015000 0.127500 0.060000
v -0.015000 0.067500 0.045000
v -0.015000 0.067500 -0.390000
v 0.011250 0.157500 -0.045000
v 0.011250 0.172500 -0.045000
v 0.011250 0.172500 0.060000
v 0.011250 0.127500 0.060000
v 0.011250 0.142500 -0.375000
v 0.011250 0.157500 -0.375000
v 0.011250 0.127500 -0.390000
v 0.011250 0.067500 -0.164961
v 0.011250 0.037500 -0.165000
v 0.011250 0.037500 -0.195000
v 0.011250 0.067500 -0.195000
v -0.011250 0.067500 -0.164991
v -0.015000 0.067500 -0.390000
v -0.011250 0.067500 -0.195000
v -0.015000 0.067500 0.045000
v -0.007500 0.067500 0.045000
v -0.007500 0.067500 -0.060004
v 0.011250 0.067500 -0.164961
v 0.007500 0.067500 -0.060004
v 0.015000 0.067500 0.045000
v 0.007500 0.067500 0.045000
v 0.015000 0.067500 -0.390000
v 0.011250 0.067500 -0.195000
v -0.007500 0.067500 -0.060004
v -0.007500 0.052500 -0.060000
v -0.007500 0.052500 0.045000
v -0.007500 0.067500 0.045000
v 0.007500 0.172500 -0.375000
v -0.007500 0.172500 -0.375000
v -0.007500 0.172500 -0.045000
v 0.007500 0.172500 -0.045000
v 0.011250 0.127500 0.060000
v 0.015000 0.127500 0.060000
v 0.015000 0.127500 -0.390000
v 0.011250 0.127500 -0.390000
v 0.007500 0.187500 -0.045000
v 0.007500 0.172500 -0.045000
v -0.007500 0.172500 -0.045000
v -0.007500 0.187500 -0.045000
v -0.007500 0.022500 -0.195000
v 0.007500 0.022500 -0.195000
v 0.007500 0.022500 -0.165000
v -0.007500 0.022500 -0.165000
v 0.007500 0.022500 -0.195000
v 0.007500 0.037500 -0.195000
v 0.007500 0.037500 -0.165000
v 0.007500 0.022500 -0.165000
v -0.007500 0.172500 0.060000
v -0.007500 0.172500 -0.045000
v -0.011250 0.172500 -0.045000
v -0.011250 0.172500 0.060000
v -0.007500 0.037500 -0.195000
v -0.007500 0.022500 -0.195000
v -0.007500 0.022500 -0.165000
v -0.007500 0.037500 -0.165000
v 0.007500 0.172500 -0.045000
v 0.007500 0.172500 0.060000
v 0.011250 0.172500 0.060000
v 0.011250 0.172500 -0.045000
v 0.011250 0.037500 -0.195000
v 0.011250 0.037500 -0.165000
v 0.007500 0.037500 -0.165000
v 0.007500 0.037500 -0.195000
v -0.011250 0.037500 -0.195000
v -0.007500 0.037500 -0.195000
v -0.007500 0.037500 -0.165000
v -0.011250 0.037500 -0.165000
v -0.007500 0.172500 -0.045000
v -0.007500 0.157500 -0.045000
v -0.011250 0.157500 -0.045000
v -0.011250 0.172500 -0.045000
v 0.007500 0.157500 -0.045000
v 0.011250 0.157500 -0.045000
v 0.011250 0.157500 -0.375000
v 0.007500 0.157500 -0.375000
v -0.007500 0.052500 -0.060000
v 0.007500 0.052500 -0.060000
v 0.007500 0.052500 0.045000
v -0.007500 0.052500 0.045000
v -0.011250 0.172500 0.060000
v -0.011250 0.127500 0.060000
v -0.015000 0.127500 0.060000
v -0.015000 0.172500 0.060000
v -0.011250 0.037500 -0.165000
v -0.011250 0.067500 -0.164991
v -0.011250 0.067500 -0.195000
v -0.011250 0.037500 -0.195000
v 0.007500 0.037500 -0.165000
v -0.007500 0.037500 -0.165000
v -0.007500 0.022500 -0.165000
v 0.007500 0.022500 -0.165000
v 0.011250 0.037500 -0.165000
v 0.011250 0.067500 -0.164961
v 0.007500 0.037500 -0.165000
v -0.007500 0.037500 -0.165000
v -0.011250 0.067500 -0.164991
v -0.011250 0.037500 -0.165000
v 0.007500 0.052500 -0.060000
v -0.007500 0.052500 -0.060000
v -0.007500 0.067500 -0.060004
v 0.007500 0.067500 -0.060004
v 0.007500 0.067500 -0.060004
v 0.007500 0.067500 0.045000
v 0.007500 0.052500 0.045000
v 0.007500 0.052500 -0.060000
vt 0.359400 0.210900
vt 0.359400 0.203100
vt 0.414100 0.203100
vt 0.187500 0.203100
vt 0.359400 0.195300
vt 0.187500 0.195300
vt 0.359400 0.203100
vt 0.359400 0.210900
vt 0.414100 0.203100
vt 0.187500 0.195300
vt 0.187500 0.203100
vt 0.359400 0.195300
vt 0.179700 0.148400
vt 0.406300 0.156300
vt 0.406300 0.148400
vt 0.179700 0.179700
vt 0.414100 0.179700
vt 0.250400 0.125400
vt 0.250400 0.132400
vt 0.257400 0.132400
vt 0.257400 0.125400
vt 0.417000 0.203100
vt 0.418900 0.203100
vt 0.418900 0.179700
vt 0.417000 0.179700
vt 0.502000 0.156300
vt 0.502000 0.164100
vt 0.505900 0.164100
vt 0.505900 0.156300
vt 0.502000 0.156300
vt 0.502000 0.164100
vt 0.505900 0.164100
vt 0.505900 0.156300
vt 0.362300 0.203100
vt 0.364300 0.203100
vt 0.364300 0.195300
vt 0.362300 0.195300
vt 0.187500 0.190400
vt 0.187500 0.192400
vt 0.359400 0.192400
vt 0.359400 0.190400
vt 0.179700 0.176800
vt 0.179700 0.174800
vt 0.414100 0.174800
vt 0.414100 0.176800
vt 0.359400 0.203100
vt 0.414100 0.179700
vt 0.414100 0.203100
vt 0.359400 0.195300
vt 0.187500 0.187500
vt 0.187500 0.195300
vt 0.179700 0.179700
vt 0.179700 0.179700
vt 0.406300 0.156300
vt 0.414100 0.179700
vt 0.406300 0.148400
vt 0.179700 0.148400
vt 0.359400 0.195300
vt 0.359400 0.203100
vt 0.414100 0.203100
vt 0.414100 0.179700
vt 0.187500 0.187500
vt 0.187500 0.195300
vt 0.179700 0.179700
vt 0.281280 0.148410
vt 0.281301 0.132850
vt 0.296860 0.132850
vt 0.296860 0.148410
vt 0.296895 0.148854
vt 0.179740 0.148742
vt 0.281270 0.148854
vt 0.406231 0.148742
vt 0.406231 0.148965
vt 0.351559 0.148965
vt 0.296911 0.149522
vt 0.351559 0.149411
vt 0.406231 0.149634
vt 0.406231 0.149411
vt 0.179740 0.149634
vt 0.281270 0.149522
vt 0.351352 0.148400
vt 0.351600 0.140600
vt 0.406300 0.140600
vt 0.406300 0.148400
vt 0.346500 0.202700
vt 0.346500 0.195700
vt 0.192500 0.195700
vt 0.192500 0.202700
vt 0.414100 0.174800
vt 0.414100 0.176800
vt 0.179700 0.176800
vt 0.179700 0.174800
vt 0.257400 0.132400
vt 0.257400 0.125400
vt 0.250400 0.125400
vt 0.250400 0.132400
vt 0.282100 0.125400
vt 0.282100 0.132400
vt 0.296100 0.132400
vt 0.296100 0.125400
vt 0.281300 0.125000
vt 0.281300 0.132800
vt 0.296900 0.132800
vt 0.296900 0.125000
vt 0.414100 0.201200
vt 0.359400 0.201200
vt 0.359400 0.199200
vt 0.414100 0.199200
vt 0.281300 0.132800
vt 0.281300 0.125000
vt 0.296900 0.125000
vt 0.296900 0.132800
vt 0.359400 0.197300
vt 0.414100 0.197300
vt 0.414100 0.199200
vt 0.359400 0.199200
vt 0.281300 0.137700
vt 0.296900 0.137700
vt 0.296900 0.135700
vt 0.281300 0.135700
vt 0.281300 0.135700
vt 0.281300 0.137700
vt 0.296900 0.137700
vt 0.296900 0.135700
vt 0.364300 0.203100
vt 0.364300 0.195300
vt 0.362300 0.195300
vt 0.362300 0.203100
vt 0.359400 0.190400
vt 0.359400 0.192400
vt 0.187500 0.192400
vt 0.187500 0.190400
vt 0.354400 0.141000
vt 0.354400 0.148000
vt 0.403400 0.148000
vt 0.403400 0.141000
vt 0.418900 0.203100
vt 0.418900 0.179700
vt 0.417000 0.179700
vt 0.417000 0.203100
vt 0.281301 0.132850
vt 0.281296 0.148410
vt 0.296860 0.148410
vt 0.296860 0.132850
vt 0.294930 0.132025
vt 0.294930 0.132025
vt 0.294930 0.126898
vt 0.294404 0.131762
vt 0.283236 0.132850
vt 0.283236 0.148410
vt 0.285181 0.132850
vt 0.292960 0.132850
vt 0.294905 0.148410
vt 0.294905 0.132850
vt 0.351446 0.141023
vt 0.351446 0.141023
vt 0.351230 0.147876
vt 0.351457 0.147848
vt 0.351611 0.147425
vt 0.406300 0.148400
vt 0.406300 0.140600
vt 0.351600 0.140600
vn -1.000000 0.000000 0.000000
vn -1.000000 0.000000 0.000000
vn -1.000000 0.000000 0.000000
vn -1.000000 0.000000 0.000000
vn -1.000000 0.000000 0.000000
vn -1.000000 0.000000 0.000000
vn 1.000000 0.000000 0.000000
vn 1.000000 0.000000 0.000000
vn 1.000000 0.000000 0.000000
vn 1.000000 0.000000 0.000000
vn 1.000000 0.000000 0.000000
vn 1.000000 0.000000 0.000000
vn 1.000000 0.000000 0.000000
vn 1.000000 0.000000 0.000000
vn 1.000000 0.000000 0.000000
vn 1.000000 0.000000 0.000000
vn 1.000000 0.000000 0.000000
vn 0.000000 0.000000 1.000000
vn 0.000000 0.000000 1.000000
vn 0.000000 0.000000 1.000000
vn 0.000000 0.000000 1.000000
vn 0.000000 0.000000 -1.000000
vn 0.000000 0.000000 -1.000000
vn 0.000000 0.000000 -1.000000
vn 0.000000 0.000000 -1.000000
vn 0.000000 0.000000 1.000000
vn 0.000000 0.000000 1.000000
vn 0.000000 0.000000 1.000000
vn 0.000000 0.000000 1.000000
vn 0.000000 0.000000 1.000000
vn 0.000000 0.000000 1.000000
vn 0.000000 0.000000 1.000000
vn 0.000000 0.000000 1.000000
vn 0.000000 0.000000 -1.000000
vn 0.000000 0.000000 -1.000000
vn 0.000000 0.000000 -1.000000
vn 0.000000 0.000000 -1.000000
vn 0.000000 1.000000 0.000000
vn 0.000000 1.000000 0.000000
vn 0.000000 1.000000 0.000000
vn 0.000000 1.000000 0.000000
vn 0.000000 1.000000 0.000000
vn 0.000000 1.000000 0.000000
vn 0.000000 1.000000 0.000000
vn 0.000000 1.000000 0.000000
vn -1.000000 0.000000 0.000000
vn -1.000000 0.000000 0.000000
vn -1.000000 0.000000 0.000000
vn -1.000000 0.000000 0.000000
vn -1.000000 0.000000 0.000000
vn -1.000000 0.000000 0.000000
vn -1.000000 0.000000 0.000000
vn -1.000000 0.000000 0.000000
vn -1.000000 0.000000 0.000000
vn -1.000000 0.000000 0.000000
vn -1.000000 0.000000 0.000000
vn -1.000000 0.000000 0.000000
vn 1.000000 0.000000 0.000000
vn 1.000000 0.000000 0.000000
vn 1.000000 0.000000 0.000000
vn 1.000000 0.000000 0.000000
vn 1.000000 0.000000 0.000000
vn 1.000000 0.000000 0.000000
vn 1.000000 0.000000 0.000000
vn 1.000000 0.000000 0.000000
vn 1.000000 0.000000 0.000000
vn 1.000000 0.000000 0.000000
vn 1.000000 0.000000 0.000000
vn 0.000000 -1.000000 0.000000
vn 0.000000 -1.000000 0.000000
vn 0.000000 -1.000000 0.000000
vn 0.000000 -1.000000 0.000000
vn 0.000000 -1.000000 0.000000
vn 0.000000 -1.000000 0.000000
vn 0.000000 -1.000000 0.000000
vn 0.000000 -1.000000 0.000000
vn 0.000000 -1.000000 0.000000
vn 0.000000 -1.000000 0.000000
vn 0.000000 -1.000000 0.000000
vn 0.000000 -1.000000 0.000000
vn -1.000000 0.000000 0.000000
vn -1.000000 0.000000 0.000000
vn -1.000000 0.000000 0.000000
vn -1.000000 0.000000 0.000000
vn 0.000000 1.000000 0.000000
vn 0.000000 1.000000 0.000000
vn 0.000000 1.000000 0.000000
vn 0.000000 1.000000 0.000000
vn 0.000000 1.000000 0.000000
vn 0.000000 1.000000 0.000000
vn 0.000000 1.000000 0.000000
vn 0.000000 1.000000 0.000000
vn 0.000000 0.000000 -1.000000
vn 0.000000 0.000000 -1.000000
vn 0.000000 0.000000 -1.000000
vn 0.000000 0.000000 -1.000000
vn 0.000000 -1.000000 0.000000
vn 0.000000 -1.000000 0.000000
vn 0.000000 -1.000000 0.000000
vn 0.000000 -1.000000 0.000000
vn 1.000000 0.000000 0.000000
vn 1.000000 0.000000 0.000000
vn 1.000000 0.000000 0.000000
vn 1.000000 0.000000 0.000000
vn 0.000000 1.000000 0.000000
vn 0.000000 1.000000 0.000000
vn 0.000000 1.000000 0.000000
vn 0.000000 1.000000 0.000000
vn -1.000000 0.000000 0.000000
vn -1.000000 0.000000 0.000000
vn -1.000000 0.000000 0.000000
vn -1.000000 0.000000 0.000000
vn 0.000000 1.000000 0.000000
vn 0.000000 1.000000 0.000000
vn 0.000000 1.000000 0.000000
vn 0.000000 1.000000 0.000000
vn 0.000000 -1.000000 0.000000
vn 0.000000 -1.000000 0.000000
vn 0.000000 -1.000000 0.000000
vn 0.000000 -1.000000 0.000000
vn 0.000000 -1.000000 0.000000
vn 0.000000 -1.000000 0.000000
vn 0.000000 -1.000000 0.000000
vn 0.000000 -1.000000 0.000000
vn 0.000000 0.000000 -1.000000
vn 0.000000 0.000000 -1.000000
vn 0.000000 0.000000 -1.000000
vn 0.000000 0.000000 -1.000000
vn 0.000000 1.000000 0.000000
vn 0.000000 1.000000 0.000000
vn 0.000000 1.000000 0.000000
vn 0.000000 1.000000 0.000000
vn 0.000000 -1.000000 0.000000
vn 0.000000 -1.000000 0.000000
vn 0.000000 -1.000000 0.000000
vn 0.000000 -1.000000 0.000000
vn 0.000000 0.000000 -1.000000
vn 0.000000 0.000000 -1.000000
vn 0.000000 0.000000 -1.000000
vn 0.000000 0.000000 -1.000000
vn -1.000000 0.000000 0.000000
vn -1.000000 0.000000 0.000000
vn -1.000000 0.000000 0.000000
vn -1.000000 0.000000 0.000000
vn -0.000269 -0.000697 1.000000
vn -0.000269 -0.000362 1.000000
vn 0.000000 0.000000 1.000000
vn 0.000000 0.000000 1.000000
vn 0.000000 -0.001298 0.999999
vn -0.000403 -0.001046 0.999999
vn -0.000269 -0.000697 1.000000
vn -0.000269 -0.000362 1.000000
vn -0.000403 -0.000543 1.000000
vn 0.000000 -0.000291 1.000000
vn 0.000000 -0.000260 -1.000000
vn 0.000000 -0.000260 -1.000000
vn 0.000000 -0.000260 -1.000000
vn 0.000000 -0.000260 -1.000000
vn 1.000000 0.000000 0.000000
vn 1.000000 0.000000 0.000000
vn 1.000000 0.000000 0.000000
vn 1.000000 0.000000 0.000000
f 1/1/1 2/2/2 3/3/3
f 4/4/4 5/5/5 2/2/2
f 4/4/4 6/6/6 5/5/5
f 7/7/7 8/8/8 9/9/9
f 10/10/10 11/11/11 7/7/7
f 10/10/10 7/7/7 12/12/12
f 13/13/13 14/14/14 15/15/15
f 13/13/13 16/16/16 14/14/14
f 14/14/14 16/16/16 17/17/17
f 18/18/18 19/19/19 20/20/20
f 18/18/18 20/20/20 21/21/21
f 22/22/22 23/23/23 24/24/24
f 22/22/22 24/24/24 25/25/25
f 26/26/26 27/27/27 28/28/28
f 26/26/26 28/28/28 29/29/29
f 30/30/30 31/31/31 32/32/32
f 30/30/30 32/32/32 33/33/33
f 34/34/34 35/35/35 36/36/36
f 34/34/34 36/36/36 37/37/37
f 38/38/38 39/39/39 40/40/40
f 38/38/38 40/40/40 41/41/41
f 42/42/42 43/43/43 44/44/44
f 42/42/42 44/44/44 45/45/45
f 46/46/46 47/47/47 48/48/48
f 46/46/46 49/49/49 47/47/47
f 49/49/49 50/50/50 47/47/47
f 51/51/51 50/50/50 49/49/49
f 50/50/50 52/52/52 47/47/47
f 53/53/53 54/54/54 55/55/55
f 53/53/53 56/56/56 54/54/54
f 53/53/53 57/57/57 56/56/56
f 58/58/58 59/59/59 60/60/60
f 58/58/58 60/60/60 61/61/61
f 62/62/62 58/58/58 61/61/61
f 62/62/62 63/63/63 58/58/58
f 64/64/64 62/62/62 61/61/61
f 65/65/65 66/66/66 67/67/67
f 65/65/65 67/67/67 68/68/68
f 69/69/69 70/70/70 71/71/71
f 69/69/69 72/72/72 70/70/70
f 73/73/73 72/72/72 69/69/69
f 73/73/73 69/69/69 74/74/74
f 74/74/74 69/69/69 75/75/75
f 74/74/74 75/75/75 76/76/76
f 77/77/77 76/76/76 75/75/75
f 77/77/77 78/78/78 76/76/76
f 77/77/77 75/75/75 79/79/79
f 79/79/79 75/75/75 80/80/80
f 81/81/81 82/82/82 83/83/83
f 81/81/81 83/83/83 84/84/84
f 85/85/85 86/86/86 87/87/87
f 85/85/85 87/87/87 88/88/88
f 89/89/89 90/90/90 91/91/91
f 89/89/89 91/91/91 92/92/92
f 93/93/93 94/94/94 95/95/95
f 93/93/93 95/95/95 96/96/96
f 97/97/97 98/98/98 99/99/99
f 97/97/97 99/99/99 100/100/100
f 101/101/101 102/102/102 103/103/103
f 101/101/101 103/103/103 104/104/104
f 105/105/105 106/106/106 107/107/107
f 105/105/105 107/107/107 108/108/108
f 109/109/109 110/110/110 111/111/111
f 109/109/109 111/111/111 112/112/112
f 113/113/113 114/114/114 115/115/115
f 113/113/113 115/115/115 116/116/116
f 117/117/117 118/118/118 119/119/119
f 117/117/117 119/119/119 120/120/120
f 121/121/121 122/122/122 123/123/123
f 121/121/121 123/123/123 124/124/124
f 125/125/125 126/126/126 127/127/127
f 125/125/125 127/127/127 128/128/128
f 129/129/129 130/130/130 131/131/131
f 129/129/129 131/131/131 132/132/132
f 133/133/133 134/134/134 135/135/135
f 133/133/133 135/135/135 136/136/136
f 137/137/137 138/138/138 139/139/139
f 137/137/137 139/139/139 140/140/140
f 141/141/141 142/142/142 143/143/143
f 141/141/141 143/143/143 144/144/144
f 145/145/145 146/146/146 147/147/147
f 145/145/145 147/147/147 148/148/148
f 149/149/149 150/150/150 151/151/151
f 152/152/152 151/151/151 150/150/150
f 152/152/152 150/150/150 153/153/153
f 152/152/152 153/153/153 154/154/154
f 155/155/155 156/156/156 157/157/157
f 155/155/155 157/157/157 158/158/158
f 159/159/159 160/160/160 161/161/161
f 159/159/159 161/161/161 162/162/162