# Object006
v -0.011250 -0.097500 -0.015000
v -0.011250 -0.112500 0.000000
v -0.011250 -0.097500 0.000000
v -0.011250 -0.067500 -0.030000
v -0.011250 -0.067500 -0.015000
v -0.011250 -0.037500 -0.045000
v -0.011250 -0.037500 -0.030000
v -0.011250 -0.007500 -0.060000
v -0.011250 -0.007500 -0.045000
v -0.011250 0.037500 -0.075000
v -0.011250 0.037500 -0.060000
v -0.011250 0.067494 -0.165000
v -0.011250 0.067500 -0.075000
v -0.011250 0.022500 -0.150000
v -0.011250 0.022500 -0.165000
v -0.011250 -0.022500 -0.135000
v 0.011250 -0.112500 0.000000
v 0.011250 -0.097500 -0.015000
v 0.011250 -0.097500 0.000000
v 0.011250 -0.067500 -0.030000
v 0.011250 -0.067500 -0.015000
v 0.011250 -0.037500 -0.045000
v 0.011250 -0.037500 -0.030000
v 0.011250 -0.007500 -0.060000
v 0.011250 -0.007500 -0.045000
v 0.011250 0.037500 -0.075000
v 0.011250 0.037500 -0.060000
v 0.011250 0.067494 -0.164971
v 0.011250 0.067500 -0.075000
v 0.011250 0.067494 -0.165000
v 0.011250 0.067494 -0.164971
v 0.011250 -0.022500 -0.135000
v 0.011250 0.022500 -0.150000
v 0.011250 0.067494 -0.165000
v 0.011250 0.022500 -0.165000
v -0.007500 -0.112500 0.000000
v -0.007500 -0.097500 0.000000
v -0.011250 -0.097500 0.000000
v -0.011250 -0.112500 0.000000
v -0.007500 -0.067500 -0.015000
v -0.007500 -0.097500 -0.015000
v -0.007500 -0.097500 0.000000
v -0.007500 -0.067500 0.000000
v -0.007500 -0.112500 0.000000
v -0.007500 -0.112500 0.015000
v -0.007500 -0.097500 0.015000
v -0.007500 -0.037500 -0.030000
v -0.007500 -0.067500 -0.030000
v -0.007500 -0.037500 -0.015000
v -0.007500 -0.007500 -0.045000
v -0.007500 -0.037500 -0.045000
v -0.007500 -0.007500 -0.030000
v -0.007500 0.037500 -0.060000
v -0.007500 -0.007500 -0.060000
v -0.007500 0.037500 -0.045000
v -0.007500 0.067500 -0.075000
v -0.007500 0.037500 -0.075000
v -0.007500 0.067500 -0.060000
v 0.007500 -0.097500 0.000000
v 0.007500 -0.067500 0.000000
v -0.007500 -0.067500 0.000000
v -0.007500 -0.097500 0.000000
v 0.011250 -0.112500 0.000000
v 0.011250 -0.097500 0.000000
v 0.007500 -0.097500 0.000000
v 0.007500 -0.112500 0.000000
v 0.011250 -0.067500 -0.030000
v 0.011250 -0.037500 -0.030000
v 0.007500 -0.037500 -0.030000
v 0.007500 -0.067500 -0.030000
v -0.007500 -0.097500 -0.015000
v -0.011250 -0.097500 -0.015000
v -0.011250 -0.097500 0.000000
v -0.007500 -0.097500 0.000000
v 0.007500 -0.067500 -0.015000
v 0.011250 -0.067500 -0.015000
v 0.011250 -0.067500 -0.030000
v 0.007500 -0.067500 -0.030000
v -0.007500 -0.067500 -0.030000
v -0.011250 -0.067500 -0.030000
v -0.011250 -0.067500 -0.015000
v -0.007500 -0.067500 -0.015000
v 0.007500 -0.067500 -0.015000
v -0.007500 -0.067500 -0.015000
v -0.007500 -0.067500 0.000000
v 0.007500 -0.067500 0.000000
v -0.007500 -0.097500 -0.015000
v -0.007500 -0.067500 -0.015000
v -0.011250 -0.067500 -0.015000
v -0.011250 -0.097500 -0.015000
v 0.007500 -0.097500 0.000000
v -0.007500 -0.097500 0.000000
v -0.007500 -0.097500 0.015000
v 0.007500 -0.097500 0.015000
v -0.007500 -0.067500 -0.030000
v -0.007500 -0.037500 -0.030000
v -0.011250 -0.037500 -0.030000
v -0.011250 -0.067500 -0.030000
v 0.011250 -0.097500 -0.015000
v 0.011250 -0.067500 -0.015000
v 0.007500 -0.067500 -0.015000
v 0.007500 -0.097500 -0.015000
v 0.007500 -0.067500 -0.015000
v 0.007500 -0.037500 -0.015000
v -0.007500 -0.037500 -0.015000
v -0.007500 -0.067500 -0.015000
v 0.007500 -0.097500 0.000000
v 0.011250 -0.097500 0.000000
v 0.011250 -0.097500 -0.015000
v 0.007500 -0.097500 -0.015000
v 0.007500 -0.112500 0.000000
v 0.007500 -0.097500 0.015000
v 0.007500 -0.112500 0.015000
v 0.007500 -0.097500 0.000000
v 0.007500 -0.097500 -0.015000
v 0.007500 -0.067500 0.000000
v 0.007500 -0.067500 -0.015000
v 0.007500 -0.067500 -0.030000
v 0.007500 -0.037500 -0.015000
v 0.007500 -0.037500 -0.030000
v 0.007500 -0.037500 -0.045000
v 0.007500 -0.007500 -0.030000
v 0.007500 -0.007500 -0.045000
v 0.007500 -0.007500 -0.060000
v 0.007500 0.037500 -0.045000
v 0.007500 0.037500 -0.060000
v 0.007500 0.037500 -0.075000
v 0.007500 0.067500 -0.060004
v 0.007500 0.067500 -0.075000
v 0.007500 0.037500 -0.060000
v 0.007500 0.067500 -0.060004
v -0.007500 0.067500 -0.060000
v -0.007500 0.037500 -0.060000
v -0.007500 0.037500 -0.075000
v -0.007500 0.067500 -0.075000
v -0.011250 0.067500 -0.075000
v -0.011250 0.037500 -0.075000
v -0.007500 0.067500 -0.060000
v 0.007500 0.067500 -0.060004
v 0.007500 0.067500 -0.075000
v -0.007500 0.067500 -0.075000
v 0.011250 0.067494 -0.164971
v 0.011250 0.067500 -0.075000
v -0.011250 0.067494 -0.165000
v -0.011250 0.067500 -0.075000
v 0.007500 0.037500 -0.060000
v -0.007500 0.037500 -0.060000
v -0.007500 0.037500 -0.045000
v 0.007500 0.037500 -0.045000
v 0.011250 0.037500 -0.075000
v 0.011250 0.067500 -0.075000
v 0.007500 0.067500 -0.075000
v 0.007500 0.037500 -0.075000
v -0.011250 0.067494 -0.165000
v -0.007500 0.022500 -0.165000
v -0.011250 0.022500 -0.165000
v 0.011250 0.067494 -0.165000
v 0.007500 0.022500 -0.165000
v 0.011250 0.022500 -0.165000
v 0.007500 -0.007500 -0.045000
v 0.011250 -0.007500 -0.045000
v 0.011250 -0.007500 -0.060000
v 0.007500 -0.007500 -0.060000
v -0.007500 -0.007500 -0.060000
v -0.007500 0.037500 -0.060000
v -0.011250 0.037500 -0.060000
v -0.011250 -0.007500 -0.060000
v 0.011250 -0.007500 -0.060000
v 0.011250 0.037500 -0.060000
v 0.007500 0.037500 -0.060000
v 0.007500 -0.007500 -0.060000
v 0.011250 -0.037500 -0.045000
v 0.011250 -0.007500 -0.045000
v 0.007500 -0.007500 -0.045000
v 0.007500 -0.037500 -0.045000
v 0.007500 -0.007500 -0.045000
v -0.007500 -0.007500 -0.045000
v -0.007500 -0.007500 -0.030000
v 0.007500 -0.007500 -0.030000
v -0.007500 -0.037500 -0.045000
v -0.007500 -0.007500 -0.045000
v -0.011250 -0.007500 -0.045000
v -0.011250 -0.037500 -0.045000
v -0.007500 -0.007500 -0.060000
v -0.011250 -0.007500 -0.060000
v -0.011250 -0.007500 -0.045000
v -0.007500 -0.007500 -0.045000
v 0.007500 -0.007500 -0.045000
v 0.007500 0.037500 -0.045000
v -0.007500 0.037500 -0.045000
v -0.007500 -0.007500 -0.045000
v -0.007500 -0.037500 -0.045000
v -0.011250 -0.037500 -0.045000
v -0.011250 -0.037500 -0.030000
v -0.007500 -0.037500 -0.030000
v 0.007500 0.037500 -0.060000
v 0.011250 0.037500 -0.060000
v 0.011250 0.037500 -0.075000
v 0.007500 0.037500 -0.075000
v -0.011250 0.022500 -0.165000
v -0.007500 0.022500 -0.165000
v -0.007500 0.022500 -0.150000
v -0.011250 0.022500 -0.150000
v -0.007500 0.037500 -0.075000
v -0.011250 0.037500 -0.075000
v -0.011250 0.037500 -0.060000
v -0.007500 0.037500 -0.060000
v 0.007500 -0.037500 -0.030000
v 0.011250 -0.037500 -0.030000
v 0.011250 -0.037500 -0.045000
v 0.007500 -0.037500 -0.045000
v 0.011250 0.022500 -0.165000
v 0.011250 0.022500 -0.150000
v 0.007500 0.022500 -0.150000
v 0.007500 0.022500 -0.165000
v 0.007500 -0.037500 -0.030000
v -0.007500 -0.037500 -0.030000
v -0.007500 -0.037500 -0.015000
v 0.007500 -0.037500 -0.015000
v 0.007500 -0.037500 -0.030000
v 0.007500 -0.007500 -0.030000
v -0.007500 -0.007500 -0.030000
v -0.007500 -0.037500 -0.030000
vt 0.374962 0.062500
vt 0.382781 0.054700
vt 0.382781 0.062500
vt 0.367152 0.078100
vt 0.374962 0.078100
vt 0.359342 0.093800
vt 0.367152 0.093800
vt 0.351542 0.109400
vt 0.359342 0.109400
vt 0.343800 0.132800
vt 0.351542 0.132800
vt 0.296930 0.148400
vt 0.343733 0.148400
vt 0.304700 0.125000
vt 0.296900 0.125000
vt 0.312500 0.101600
vt 0.382781 0.054700
vt 0.374962 0.062500
vt 0.382781 0.062500
vt 0.367152 0.078100
vt 0.374962 0.078100
vt 0.359342 0.093800
vt 0.367152 0.093800
vt 0.351542 0.109400
vt 0.359342 0.109400
vt 0.343733 0.132800
vt 0.351542 0.132800
vt 0.296930 0.148400
vt 0.343733 0.148400
vt 0.296900 0.132800
vt 0.296940 0.144496
vt 0.312500 0.101600
vt 0.304700 0.125000
vt 0.296930 0.148400
vt 0.296900 0.125000
vt 0.377900 0.054600
vt 0.377900 0.062500
vt 0.379900 0.062500
vt 0.379900 0.054600
vt 0.375000 0.078100
vt 0.375000 0.062500
vt 0.382800 0.062500
vt 0.382800 0.078100
vt 0.382800 0.054700
vt 0.390600 0.054700
vt 0.390600 0.062500
vt 0.367200 0.093800
vt 0.367200 0.078100
vt 0.375000 0.093800
vt 0.359400 0.109400
vt 0.359400 0.093800
vt 0.367200 0.109400
vt 0.351600 0.132800
vt 0.351600 0.109400
vt 0.359400 0.132800
vt 0.343800 0.148400
vt 0.343800 0.132800
vt 0.351600 0.140600
vt 0.375400 0.063300
vt 0.375400 0.077300
vt 0.382400 0.077300
vt 0.382400 0.063300
vt 0.377900 0.054600
vt 0.377900 0.062500
vt 0.379900 0.062500
vt 0.379900 0.054600
vt 0.362300 0.078100
vt 0.362300 0.093800
vt 0.364300 0.093800
vt 0.364300 0.078100
vt 0.382800 0.059600
vt 0.382800 0.057600
vt 0.375000 0.057600
vt 0.375000 0.059600
vt 0.375000 0.073200
vt 0.375000 0.075200
vt 0.367200 0.075200
vt 0.367200 0.073200
vt 0.375000 0.075200
vt 0.375000 0.073200
vt 0.367200 0.073200
vt 0.367200 0.075200
vt 0.257400 0.132400
vt 0.257400 0.125400
vt 0.250400 0.125400
vt 0.250400 0.132400
vt 0.370100 0.062500
vt 0.370100 0.078100
vt 0.372100 0.078100
vt 0.372100 0.062500
vt 0.257400 0.132400
vt 0.257400 0.125400
vt 0.250400 0.125400
vt 0.250400 0.132400
vt 0.362300 0.078100
vt 0.362300 0.093800
vt 0.364300 0.093800
vt 0.364300 0.078100
vt 0.370100 0.062500
vt 0.370100 0.078100
vt 0.372100 0.078100
vt 0.372100 0.062500
vt 0.367700 0.078900
vt 0.367700 0.092900
vt 0.374700 0.092900
vt 0.374700 0.078900
vt 0.382800 0.057600
vt 0.382800 0.059600
vt 0.375000 0.059600
vt 0.375000 0.057600
vt 0.382800 0.054700
vt 0.390600 0.062500
vt 0.390600 0.054700
vt 0.382800 0.062500
vt 0.375000 0.062500
vt 0.382800 0.078100
vt 0.375000 0.078100
vt 0.367200 0.078100
vt 0.375000 0.093800
vt 0.367200 0.093800
vt 0.359400 0.093800
vt 0.367200 0.109400
vt 0.359400 0.109400
vt 0.351600 0.109400
vt 0.359400 0.132800
vt 0.351600 0.132800
vt 0.343800 0.132800
vt 0.351600 0.140600
vt 0.343800 0.148400
vt 0.250400 0.125400
vt 0.250400 0.132400
vt 0.257400 0.132400
vt 0.257400 0.125400
vt 0.338900 0.132800
vt 0.338900 0.148400
vt 0.340800 0.148400
vt 0.340800 0.132800
vt 0.351600 0.143118
vt 0.351599 0.146681
vt 0.343800 0.146681
vt 0.343800 0.143118
vt 0.296930 0.147571
vt 0.343800 0.147571
vt 0.296920 0.142227
vt 0.343800 0.142227
vt 0.257400 0.132400
vt 0.257400 0.125400
vt 0.250400 0.125400
vt 0.250400 0.132400
vt 0.338900 0.132800
vt 0.338900 0.148400
vt 0.340800 0.148400
vt 0.340800 0.132800
vt 0.303810 0.148400
vt 0.302827 0.125000
vt 0.303810 0.125000
vt 0.297912 0.148400
vt 0.298895 0.125000
vt 0.297912 0.125000
vt 0.359400 0.104500
vt 0.359400 0.106400
vt 0.351600 0.106400
vt 0.351600 0.104500
vt 0.346700 0.109400
vt 0.346700 0.132800
vt 0.348700 0.132800
vt 0.348700 0.109400
vt 0.346700 0.109400
vt 0.346700 0.132800
vt 0.348700 0.132800
vt 0.348700 0.109400
vt 0.354500 0.093800
vt 0.354500 0.109400
vt 0.356400 0.109400
vt 0.356400 0.093800
vt 0.257400 0.132400
vt 0.257400 0.125400
vt 0.250400 0.125400
vt 0.250400 0.132400
vt 0.354500 0.093800
vt 0.354500 0.109400
vt 0.356400 0.109400
vt 0.356400 0.093800
vt 0.359400 0.106400
vt 0.359400 0.104500
vt 0.351600 0.104500
vt 0.351600 0.106400
vt 0.352000 0.110600
vt 0.352000 0.131600
vt 0.359000 0.131600
vt 0.359000 0.110600
vt 0.367200 0.090800
vt 0.367200 0.088900
vt 0.359400 0.088900
vt 0.359400 0.090800
vt 0.351600 0.127900
vt 0.351600 0.129900
vt 0.343800 0.129900
vt 0.343800 0.127900
vt 0.296900 0.127900
vt 0.296900 0.129900
vt 0.304700 0.129900
vt 0.304700 0.127900
vt 0.351600 0.129900
vt 0.351600 0.127900
vt 0.343800 0.127900
vt 0.343800 0.129900
vt 0.367200 0.088900
vt 0.367200 0.090800
vt 0.359400 0.090800
vt 0.359400 0.088900
vt 0.296900 0.129900
vt 0.304700 0.129900
vt 0.304700 0.127900
vt 0.296900 0.127900
vt 0.257400 0.132400
vt 0.257400 0.125400
vt 0.250400 0.125400
vt 0.250400 0.132400
vt 0.359800 0.094600
vt 0.359800 0.108600
vt 0.366800 0.108600
vt 0.366800 0.094600
vn -1.000000 0.000000 0.000000
vn -1.000000 0.000000 0.000000
vn -1.000000 0.000000 0.000000
vn -1.000000 0.000000 0.000000
vn -1.000000 0.000000 0.000000
vn -1.000000 0.000000 0.000000
vn -1.000000 0.000000 0.000000
vn -1.000000 0.000000 0.000000
vn -1.000000 0.000000 0.000000
vn -1.000000 0.000000 0.000000
vn -1.000000 0.000000 0.000000
vn -1.000000 0.000000 0.000000
vn -1.000000 0.000000 0.000000
vn -1.000000 0.000000 0.000000
vn -1.000000 0.000000 0.000000
vn -1.000000 0.000000 0.000000
vn 1.000000 0.000000 0.000000
vn 1.000000 0.000000 0.000000
vn 1.000000 0.000000 0.000000
vn 1.000000 0.000000 0.000000
vn 1.000000 0.000000 0.000000
vn 1.000000 0.000000 0.000000
vn 1.000000 0.000000 0.000000
vn 1.000000 0.000000 0.000000
vn 1.000000 0.000000 0.000000
vn 1.000000 0.000000 0.000000
vn 1.000000 0.000000 0.000000
vn 1.000000 0.000000 0.000000
vn 1.000000 0.000000 0.000000
vn 1.000000 0.000000 0.000000
vn 1.000000 0.000000 0.000000
vn 1.000000 0.000000 0.000000
vn 1.000000 0.000000 0.000000
vn 1.000000 0.000000 0.000000
vn 1.000000 0.000000 0.000000
vn 0.000000 0.000000 1.000000
vn 0.000000 0.000000 1.000000
vn 0.000000 0.000000 1.000000
vn 0.000000 0.000000 1.000000
vn -1.000000 0.000000 0.000000
vn -1.000000 0.000000 0.000000
vn -1.000000 0.000000 0.000000
vn -1.000000 0.000000 0.000000
vn -1.000000 0.000000 0.000000
vn -1.000000 0.000000 0.000000
vn -1.000000 0.000000 0.000000
vn -1.000000 0.000000 0.000000
vn -1.000000 0.000000 0.000000
vn -1.000000 0.000000 0.000000
vn -1.000000 0.000000 0.000000
vn -1.000000 0.000000 0.000000
vn -1.000000 0.000000 0.000000
vn -1.000000 0.000000 0.000000
vn -1.000000 0.000000 0.000000
vn -1.000000 0.000000 0.000000
vn -1.000000 0.000000 0.000000
vn -1.000000 0.000000 0.000000
vn -1.000000 0.000000 0.000000
vn 0.000000 0.000000 1.000000
vn 0.000000 0.000000 1.000000
vn 0.000000 0.000000 1.000000
vn 0.000000 0.000000 1.000000
vn 0.000000 0.000000 1.000000
vn 0.000000 0.000000 1.000000
vn 0.000000 0.000000 1.000000
vn 0.000000 0.000000 1.000000
vn 0.000000 0.000000 1.000000
vn 0.000000 0.000000 1.000000
vn 0.000000 0.000000 1.000000
vn 0.000000 0.000000 1.000000
vn 0.000000 1.000000 0.000000
vn 0.000000 1.000000 0.000000
vn 0.000000 1.000000 0.000000
vn 0.000000 1.000000 0.000000
vn 0.000000 1.000000 0.000000
vn 0.000000 1.000000 0.000000
vn 0.000000 1.000000 0.000000
vn 0.000000 1.000000 0.000000
vn 0.000000 1.000000 0.000000
vn 0.000000 1.000000 0.000000
vn 0.000000 1.000000 0.000000
vn 0.000000 1.000000 0.000000
vn 0.000000 1.000000 0.000000
vn 0.000000 1.000000 0.000000
vn 0.000000 1.000000 0.000000
vn 0.000000 1.000000 0.000000
vn 0.000000 0.000000 1.000000
vn 0.000000 0.000000 1.000000
vn 0.000000 0.000000 1.000000
vn 0.000000 0.000000 1.000000
vn 0.000000 1.000000 0.000000
vn 0.000000 1.000000 0.000000
vn 0.000000 1.000000 0.000000
vn 0.000000 1.000000 0.000000
vn 0.000000 0.000000 1.000000
vn 0.000000 0.000000 1.000000
vn 0.000000 0.000000 1.000000
vn 0.000000 0.000000 1.000000
vn 0.000000 0.000000 1.000000
vn 0.000000 0.000000 1.000000
vn 0.000000 0.000000 1.000000
vn 0.000000 0.000000 1.000000
vn 0.000000 0.000000 1.000000
vn 0.000000 0.000000 1.000000
vn 0.000000 0.000000 1.000000
vn 0.000000 0.000000 1.000000
vn 0.000000 1.000000 0.000000
vn 0.000000 1.000000 0.000000
vn 0.000000 1.000000 0.000000
vn 0.000000 1.000000 0.000000
vn 1.000000 0.000000 0.000000
vn 1.000000 0.000000 0.000000
vn 1.000000 0.000000 0.000000
vn 1.000000 0.000000 0.000000
vn 1.000000 0.000000 0.000000
vn 1.000000 0.000000 0.000000
vn 1.000000 0.000000 0.000000
vn 1.000000 0.000000 0.000000
vn 1.000000 0.000000 0.000000
vn 1.000000 0.000000 0.000000
vn 1.000000 0.000000 0.000000
vn 1.000000 0.000000 0.000000
vn 1.000000 0.000000 0.000000
vn 1.000000 0.000000 0.000000
vn 1.000000 0.000000 0.000000
vn 1.000000 0.000000 0.000000
vn 1.000000 0.000000 0.000000
vn 1.000000 0.000000 0.000000
vn 1.000000 0.000000 0.000000
vn 0.000065 0.000032 1.000000
vn 0.000130 0.000065 1.000000
vn 0.000130 0.000065 1.000000
vn 0.000065 0.000032 1.000000
vn 0.000000 0.000000 1.000000
vn 0.000000 0.000000 1.000000
vn 0.000000 0.000000 1.000000
vn 0.000000 0.000000 1.000000
vn 0.000000 1.000000 0.000000
vn 0.000000 1.000000 0.000000
vn 0.000000 1.000000 -0.000041
vn 0.000000 1.000000 -0.000041
vn 0.000000 1.000000 -0.000062
vn 0.000000 1.000000 -0.000062
vn 0.000000 1.000000 -0.000062
vn 0.000000 1.000000 -0.000062
vn 0.000000 1.000000 0.000000
vn 0.000000 1.000000 0.000000
vn 0.000000 1.000000 0.000000
vn 0.000000 1.000000 0.000000
vn 0.000000 0.000000 1.000000
vn 0.000000 0.000000 1.000000
vn 0.000000 0.000000 1.000000
vn 0.000000 0.000000 1.000000
vn 0.000000 0.000000 -1.000000
vn 0.000000 0.000000 -1.000000
vn 0.000000 0.000000 -1.000000
vn 0.000000 0.000000 -1.000000
vn 0.000000 0.000000 -1.000000
vn 0.000000 0.000000 -1.000000
vn 0.000000 1.000000 0.000000
vn 0.000000 1.000000 0.000000
vn 0.000000 1.000000 0.000000
vn 0.000000 1.000000 0.000000
vn 0.000000 0.000000 1.000000
vn 0.000065 0.000032 1.000000
vn 0.000000 0.000000 1.000000
vn 0.000000 0.000000 1.000000
vn 0.000000 0.000000 1.000000
vn 0.000000 0.000000 1.000000
vn 0.000065 0.000032 1.000000
vn 0.000000 0.000000 1.000000
vn 0.000000 0.000000 1.000000
vn 0.000000 0.000000 1.000000
vn 0.000000 0.000000 1.000000
vn 0.000000 0.000000 1.000000
vn 0.000000 1.000000 0.000000
vn 0.000000 1.000000 0.000000
vn 0.000000 1.000000 0.000000
vn 0.000000 1.000000 0.000000
vn 0.000000 0.000000 1.000000
vn 0.000000 0.000000 1.000000
vn 0.000000 0.000000 1.000000
vn 0.000000 0.000000 1.000000
vn 0.000000 1.000000 0.000000
vn 0.000000 1.000000 0.000000
vn 0.000000 1.000000 0.000000
vn 0.000000 1.000000 0.000000
vn 0.000000 0.000000 1.000000
vn 0.000000 0.000000 1.000000
vn 0.000000 0.000000 1.000000
vn 0.000000 0.000000 1.000000
vn 0.000000 1.000000 0.000000
vn 0.000000 1.000000 0.000000
vn 0.000000 1.000000 0.000000
vn 0.000000 1.000000 0.000000
vn 0.000000 1.000000 0.000000
vn 0.000000 1.000000 0.000000
vn 0.000000 1.000000 0.000000
vn 0.000000 1.000000 0.000000
vn 0.000000 -1.000000 0.000000
vn 0.000000 -1.000000 0.000000
vn 0.000000 -1.000000 0.000000
vn 0.000000 -1.000000 0.000000
vn 0.000000 1.000000 0.000000
vn 0.000000 1.000000 0.000000
vn 0.000000 1.000000 0.000000
vn 0.000000 1.000000 0.000000
vn 0.000000 1.000000 0.000000
vn 0.000000 1.000000 0.000000
vn 0.000000 1.000000 0.000000
vn 0.000000 1.000000 0.000000
vn 0.000000 -1.000000 0.000000
vn 0.000000 -1.000000 0.000000
vn 0.000000 -1.000000 0.000000
vn 0.000000 -1.000000 0.000000
vn 0.000000 1.000000 0.000000
vn 0.000000 1.000000 0.000000
vn 0.000000 1.000000 0.000000
vn 0.000000 1.000000 0.000000
vn 0.000000 0.000000 1.000000
vn 0.000000 0.000000 1.000000
vn 0.000000 0.000000 1.000000
vn 0.000000 0.000000 1.000000
f 1/1/1 2/2/2 3/3/3
f 4/4/4 1/1/1 5/5/5
f 6/6/6 4/4/4 7/7/7
f 8/8/8 6/6/6 9/9/9
f 10/10/10 8/8/8 11/11/11
f 12/12/12 10/10/10 13/13/13
f 12/12/12 14/14/14 10/10/10
f 12/12/12 15/15/15 14/14/14
f 14/14/14 16/16/16 10/10/10
f 17/17/17 18/18/18 19/19/19
f 18/18/18 20/20/20 21/21/21
f 20/20/20 22/22/22 23/23/23
f 22/22/22 24/24/24 25/25/25
f 24/24/24 26/26/26 27/27/27
f 26/26/26 28/28/28 29/29/29
f 30/30/30 31/31/31 26/26/26
f 32/32/32 33/33/33 26/26/26
f 33/33/33 34/34/34 26/26/26
f 35/35/35 34/34/34 33/33/33
f 36/36/36 37/37/37 38/38/38
f 36/36/36 38/38/38 39/39/39
f 40/40/40 41/41/41 42/42/42
f 40/40/40 42/42/42 43/43/43
f 42/42/42 44/44/44 45/45/45
f 42/42/42 45/45/45 46/46/46
f 47/47/47 48/48/48 40/40/40
f 47/47/47 40/40/40 49/49/49
f 50/50/50 51/51/51 47/47/47
f 50/50/50 47/47/47 52/52/52
f 53/53/53 54/54/54 50/50/50
f 53/53/53 50/50/50 55/55/55
f 56/56/56 57/57/57 53/53/53
f 56/56/56 53/53/53 58/58/58
f 59/59/59 60/60/60 61/61/61
f 59/59/59 61/61/61 62/62/62
f 63/63/63 64/64/64 65/65/65
f 63/63/63 65/65/65 66/66/66
f 67/67/67 68/68/68 69/69/69
f 67/67/67 69/69/69 70/70/70
f 71/71/71 72/72/72 73/73/73
f 71/71/71 73/73/73 74/74/74
f 75/75/75 76/76/76 77/77/77
f 75/75/75 77/77/77 78/78/78
f 79/79/79 80/80/80 81/81/81
f 79/79/79 81/81/81 82/82/82
f 83/83/83 84/84/84 85/85/85
f 83/83/83 85/85/85 86/86/86
f 87/87/87 88/88/88 89/89/89
f 87/87/87 89/89/89 90/90/90
f 91/91/91 92/92/92 93/93/93
f 91/91/91 93/93/93 94/94/94
f 95/95/95 96/96/96 97/97/97
f 95/95/95 97/97/97 98/98/98
f 99/99/99 100/100/100 101/101/101
f 99/99/99 101/101/101 102/102/102
f 103/103/103 104/104/104 105/105/105
f 103/103/103 105/105/105 106/106/106
f 107/107/107 108/108/108 109/109/109
f 107/107/107 109/109/109 110/110/110
f 111/111/111 112/112/112 113/113/113
f 111/111/111 114/114/114 112/112/112
f 115/115/115 116/116/116 114/114/114
f 115/115/115 117/117/117 116/116/116
f 118/118/118 119/119/119 117/117/117
f 118/118/118 120/120/120 119/119/119
f 121/121/121 122/122/122 120/120/120
f 121/121/121 123/123/123 122/122/122
f 124/124/124 125/125/125 123/123/123
f 124/124/124 126/126/126 125/125/125
f 127/127/127 128/128/128 126/126/126
f 127/127/127 129/129/129 128/128/128
f 130/130/130 131/131/131 132/132/132
f 130/130/130 132/132/132 133/133/133
f 134/134/134 135/135/135 136/136/136
f 134/134/134 136/136/136 137/137/137
f 138/138/138 139/139/139 140/140/140
f 138/138/138 140/140/140 141/141/141
f 142/142/142 141/141/141 140/140/140
f 140/140/140 143/143/143 142/142/142
f 142/142/142 144/144/144 141/141/141
f 141/141/141 144/144/144 145/145/145
f 146/146/146 147/147/147 148/148/148
f 146/146/146 148/148/148 149/149/149
f 150/150/150 151/151/151 152/152/152
f 150/150/150 152/152/152 153/153/153
f 154/154/154 155/155/155 156/156/156
f 157/157/157 155/155/155 154/154/154
f 157/157/157 158/158/158 155/155/155
f 157/157/157 159/159/159 158/158/158
f 160/160/160 161/161/161 162/162/162
f 160/160/160 162/162/162 163/163/163
f 164/164/164 165/165/165 166/166/166
f 164/164/164 166/166/166 167/167/167
f 168/168/168 169/169/169 170/170/170
f 168/168/168 170/170/170 171/171/171
f 172/172/172 173/173/173 174/174/174
f 172/172/172 174/174/174 175/175/175
f 176/176/176 177/177/177 178/178/178
f 176/176/176 178/178/178 179/179/179
f 180/180/180 181/181/181 182/182/182
f 180/180/180 182/182/182 183/183/183
f 184/184/184 185/185/185 186/186/186
f 184/184/184 186/186/186 187/187/187
f 188/188/188 189/189/189 190/190/190
f 188/188/188 190/190/190 191/191/191
f 192/192/192 193/193/193 194/194/194
f 192/192/192 194/194/194 195/195/195
f 196/196/196 197/197/197 198/198/198
f 196/196/196 198/198/198 199/199/199
f 200/200/200 201/201/201 202/202/202
f 200/200/200 202/202/202 203/203/203
f 204/204/204 205/205/205 206/206/206
f 204/204/204 206/206/206 207/207/207
f 208/208/208 209/209/209 210/210/210
f 208/208/208 210/210/210 211/211/211
f 212/212/212 213/213/213 214/214/214
f 212/212/212 214/214/214 215/215/215
f 216/216/216 217/217/217 218/218/218
f 216/216/216 218/218/218 219/219/219
f 220/220/220 221/221/221 222/222/222
f 220/220/220 222/222/222 223/223/223