# Object003
v -0.007500 0.127500 0.255000
v -0.007500 0.112500 0.255000
v -0.007500 0.127500 0.390000
v 0.007500 0.112500 0.255000
v 0.007500 0.127500 0.255000
v 0.007500 0.127500 0.390000
v -0.007500 0.157500 0.240000
v -0.011250 0.157500 0.240000
v -0.011250 0.157500 0.405000
v -0.007500 0.157500 0.405000
v -0.011250 0.157500 0.240000
v -0.011250 0.097500 0.240000
v -0.011250 0.112500 0.255000
v -0.011250 0.142500 0.255000
v -0.011250 0.142500 0.390000
v -0.011250 0.142500 0.405000
v -0.011250 0.157500 0.405000
v -0.011250 0.127500 0.405000
v -0.011250 0.127500 0.390000
v -0.011250 0.127500 0.420000
v -0.011250 0.142500 0.420000
v 0.007500 0.172500 0.240000
v 0.007500 0.187500 0.240000
v -0.007500 0.187500 0.240000
v -0.007500 0.172500 0.240000
v -0.007500 0.082500 0.045000
v -0.007500 0.067500 0.045000
v -0.007500 0.067500 0.240000
v -0.007500 0.082500 0.240000
v -0.007500 0.142500 0.405000
v -0.011250 0.142500 0.405000
v -0.011250 0.142500 0.420000
v -0.007500 0.142500 0.420000
v -0.007500 0.187500 -0.045000
v -0.007500 0.172500 0.060000
v -0.007500 0.172500 0.240000
v -0.007500 0.187500 0.240000
v -0.007500 0.157500 0.240000
v -0.007500 0.157500 0.405000
v -0.007500 0.172500 0.405000
v -0.007500 0.142500 0.405000
v -0.007500 0.142500 0.420000
v -0.007500 0.157500 0.420000
v -0.007500 0.127500 0.420000
v -0.007500 0.127500 0.435000
v -0.007500 0.142500 0.435000
v -0.007500 0.172500 0.240000
v -0.007500 0.172500 0.060000
v -0.011250 0.172500 0.060000
v -0.015000 0.172500 0.060000
v -0.015000 0.172500 0.240000
v 0.007500 0.172500 0.240000
v 0.007500 0.157500 0.240000
v 0.011250 0.157500 0.240000
v 0.015000 0.172500 0.240000
v 0.015000 0.082500 0.240000
v 0.011250 0.097500 0.240000
v 0.007500 0.082500 0.240000
v 0.007500 0.097500 0.240000
v 0.007500 0.172500 0.240000
v 0.007500 0.187500 -0.045000
v 0.007500 0.187500 0.240000
v 0.007500 0.172500 0.060000
v 0.007500 0.157500 0.240000
v 0.007500 0.172500 0.405000
v 0.007500 0.157500 0.405000
v 0.007500 0.142500 0.405000
v 0.007500 0.157500 0.420000
v 0.007500 0.142500 0.420000
v 0.007500 0.127500 0.420000
v 0.007500 0.142500 0.435000
v 0.007500 0.127500 0.435000
v 0.011250 0.127500 0.405000
v 0.011250 0.142500 0.420000
v 0.011250 0.127500 0.420000
v 0.011250 0.142500 0.405000
v 0.011250 0.127500 0.390000
v 0.011250 0.142500 0.390000
v 0.011250 0.157500 0.240000
v 0.011250 0.157500 0.405000
v 0.011250 0.142500 0.255000
v 0.011250 0.112500 0.255000
v 0.011250 0.097500 0.240000
v 0.007500 0.142500 0.420000
v 0.007500 0.157500 0.420000
v -0.007500 0.157500 0.420000
v -0.007500 0.142500 0.420000
v -0.015000 0.142500 0.135000
v 0.015000 0.142500 0.135000
v 0.015000 0.127500 0.135000
v -0.015000 0.127500 0.135000
v 0.007500 0.127500 0.435000
v 0.007500 0.142500 0.435000
v -0.007500 0.142500 0.435000
v -0.007500 0.127500 0.435000
v 0.015000 0.082500 0.045000
v 0.015000 0.082500 0.240000
v 0.007500 0.082500 0.240000
v 0.007500 0.082500 0.045000
v 0.007500 0.172500 0.060000
v 0.007500 0.172500 0.240000
v 0.011250 0.172500 0.060000
v 0.015000 0.172500 0.240000
v 0.015000 0.172500 0.060000
v -0.015000 0.082500 0.240000
v -0.007500 0.082500 0.240000
v -0.007500 0.097500 0.240000
v -0.011250 0.097500 0.240000
v -0.011250 0.157500 0.240000
v -0.015000 0.172500 0.240000
v -0.007500 0.172500 0.240000
v -0.007500 0.157500 0.240000
v 0.007500 0.112500 0.255000
v 0.011250 0.112500 0.255000
v 0.007500 0.127500 0.255000
v 0.011250 0.142500 0.255000
v -0.007500 0.127500 0.255000
v -0.011250 0.142500 0.255000
v -0.011250 0.112500 0.255000
v -0.007500 0.112500 0.255000
v 0.011250 0.142500 0.390000
v 0.011250 0.127500 0.390000
v 0.007500 0.127500 0.390000
v -0.007500 0.127500 0.390000
v -0.011250 0.142500 0.390000
v -0.011250 0.127500 0.390000
v 0.007500 0.187500 -0.045000
v -0.007500 0.187500 -0.045000
v -0.007500 0.187500 0.240000
v 0.007500 0.187500 0.240000
v 0.007500 0.142500 0.420000
v 0.011250 0.142500 0.420000
v 0.011250 0.142500 0.405000
v 0.007500 0.142500 0.405000
v -0.007500 0.127500 0.420000
v -0.011250 0.127500 0.420000
v -0.011250 0.127500 0.435000
v -0.007500 0.127500 0.435000
v -0.015000 0.082500 0.045000
v -0.007500 0.082500 0.045000
v -0.007500 0.082500 0.240000
v -0.015000 0.082500 0.240000
v -0.011250 0.127500 0.390000
v -0.007500 0.127500 0.390000
v -0.007500 0.127500 0.405000
v -0.011250 0.127500 0.405000
v 0.007500 0.067500 0.045000
v 0.007500 0.082500 0.045000
v 0.007500 0.082500 0.240000
v 0.007500 0.067500 0.240000
v 0.015000 0.142500 0.165000
v -0.015000 0.142500 0.165000
v -0.015000 0.127500 0.165000
v 0.015000 0.127500 0.165000
v -0.011250 0.142500 0.255000
v 0.011250 0.142500 0.255000
v 0.011250 0.142500 0.390000
v -0.011250 0.142500 0.390000
v -0.007500 0.067500 0.045000
v 0.007500 0.067500 0.045000
v 0.007500 0.067500 0.240000
v -0.007500 0.067500 0.240000
v 0.007500 0.172500 0.240000
v -0.007500 0.172500 0.240000
v -0.007500 0.172500 0.405000
v 0.007500 0.172500 0.405000
v 0.011250 0.127500 0.420000
v 0.011250 0.142500 0.420000
v 0.007500 0.142500 0.420000
v 0.007500 0.127500 0.420000
v 0.011250 0.127500 0.390000
v 0.011250 0.127500 0.405000
v 0.007500 0.127500 0.405000
v 0.007500 0.127500 0.390000
v 0.007500 0.157500 0.405000
v -0.007500 0.157500 0.405000
v -0.007500 0.157500 0.420000
v 0.007500 0.157500 0.420000
v 0.007500 0.157500 0.405000
v 0.007500 0.172500 0.405000
v -0.007500 0.172500 0.405000
v -0.007500 0.157500 0.405000
v 0.015000 0.127500 0.135000
v 0.015000 0.127500 0.090000
v -0.015000 0.127500 0.090000
v -0.015000 0.127500 0.135000
v 0.007500 0.142500 0.420000
v -0.007500 0.142500 0.420000
v -0.007500 0.142500 0.435000
v 0.007500 0.142500 0.435000
v 0.007500 0.127500 0.435000
v 0.011250 0.127500 0.435000
v 0.011250 0.127500 0.420000
v 0.007500 0.127500 0.420000
v -0.007500 -0.082500 -0.405000
v 0.007500 -0.082500 -0.405000
v 0.007500 -0.082500 -0.390000
v -0.007500 -0.082500 -0.390000
v -0.015000 0.142500 0.210000
v 0.015000 0.142500 0.210000
v 0.015000 0.127500 0.210000
v -0.015000 0.127500 0.210000
v -0.007500 0.142500 0.405000
v -0.007500 0.157500 0.405000
v -0.011250 0.157500 0.405000
v -0.011250 0.142500 0.405000
v -0.015000 0.142500 0.135000
v -0.015000 0.142500 0.090000
v 0.015000 0.142500 0.090000
v 0.015000 0.142500 0.135000
v 0.007500 0.127500 0.255000
v -0.007500 0.127500 0.255000
v -0.007500 0.127500 0.390000
v 0.007500 0.127500 0.390000
v -0.007500 0.127500 0.420000
v -0.007500 0.142500 0.420000
v -0.011250 0.142500 0.420000
v -0.011250 0.127500 0.420000
v 0.007500 -0.052500 -0.405000
v 0.007500 -0.082500 -0.405000
v -0.007500 -0.082500 -0.405000
v -0.007500 -0.052500 -0.405000
v 0.007500 0.067500 0.240000
v 0.007500 0.082500 0.240000
v -0.007500 0.082500 0.240000
v -0.007500 0.067500 0.240000
v 0.015000 0.142500 0.090000
v -0.015000 0.142500 0.090000
v -0.015000 0.127500 0.090000
v 0.015000 0.127500 0.090000
v 0.011250 0.142500 0.405000
v 0.011250 0.157500 0.405000
v 0.007500 0.157500 0.405000
v 0.007500 0.142500 0.405000
v 0.007500 -0.082500 -0.390000
v 0.007500 -0.097500 -0.390000
v -0.007500 -0.097500 -0.390000
v -0.007500 -0.082500 -0.390000
v 0.015000 0.127500 0.210000
v 0.015000 0.127500 0.165000
v -0.015000 0.127500 0.165000
v -0.015000 0.127500 0.210000
v 0.007500 0.157500 0.405000
v 0.011250 0.157500 0.405000
v 0.011250 0.157500 0.240000
v 0.007500 0.157500 0.240000
v -0.015000 0.142500 0.210000
v -0.015000 0.142500 0.165000
v 0.015000 0.142500 0.165000
v 0.015000 0.142500 0.210000
v 0.015000 0.127500 0.060000
v 0.015000 0.127500 0.090000
v 0.015000 0.082500 0.045000
v 0.015000 0.172500 0.060000
v 0.015000 0.142500 0.090000
v 0.015000 0.142500 0.135000
v 0.015000 0.127500 0.135000
v 0.015000 0.172500 0.240000
v 0.015000 0.127500 0.165000
v 0.015000 0.082500 0.240000
v 0.015000 0.142500 0.165000
v 0.015000 0.127500 0.210000
v 0.015000 0.142500 0.210000
v -0.015000 0.127500 0.210000
v -0.015000 0.082500 0.240000
v -0.015000 0.142500 0.210000
v -0.015000 0.127500 0.165000
v -0.015000 0.172500 0.240000
v -0.015000 0.142500 0.165000
v -0.015000 0.082500 0.045000
v -0.015000 0.142500 0.135000
v -0.015000 0.172500 0.060000
v -0.015000 0.127500 0.135000
v -0.015000 0.142500 0.090000
v -0.015000 0.127500 0.090000
v -0.015000 0.127500 0.060000
vt 0.515600 0.179700
vt 0.515600 0.171900
vt 0.585900 0.179700
vt 0.515600 0.171900
vt 0.515600 0.179700
vt 0.585900 0.179700
vt 0.593800 0.192400
vt 0.593800 0.190400
vt 0.507800 0.190400
vt 0.507800 0.192400
vt 0.507800 0.195300
vt 0.507800 0.164100
vt 0.515600 0.171900
vt 0.515600 0.187500
vt 0.585900 0.187500
vt 0.593800 0.187500
vt 0.593800 0.195300
vt 0.593800 0.179700
vt 0.585900 0.179700
vt 0.601600 0.179700
vt 0.601600 0.187500
vt 0.250400 0.125400
vt 0.250400 0.132400
vt 0.257400 0.132400
vt 0.257400 0.125400
vt 0.406300 0.156300
vt 0.406300 0.148400
vt 0.507800 0.148400
vt 0.507800 0.156300
vt 0.601600 0.184600
vt 0.601600 0.182600
vt 0.593800 0.182600
vt 0.593800 0.184600
vt 0.359400 0.210900
vt 0.414100 0.203100
vt 0.507800 0.203100
vt 0.507800 0.210900
vt 0.507800 0.195300
vt 0.593800 0.195300
vt 0.593800 0.203100
vt 0.593800 0.187500
vt 0.601600 0.187500
vt 0.601600 0.195300
vt 0.601600 0.179700
vt 0.609400 0.179700
vt 0.609400 0.187500
vt 0.507800 0.201200
vt 0.414100 0.201200
vt 0.414100 0.199200
vt 0.414100 0.197300
vt 0.507800 0.197300
vt 0.507800 0.203100
vt 0.507800 0.195300
vt 0.505900 0.195300
vt 0.503900 0.203100
vt 0.503900 0.156300
vt 0.505900 0.164100
vt 0.507800 0.156300
vt 0.507800 0.164100
vt 0.507800 0.203100
vt 0.359400 0.210900
vt 0.507800 0.210900
vt 0.414100 0.203100
vt 0.507800 0.195300
vt 0.593800 0.203100
vt 0.593800 0.195300
vt 0.593800 0.187500
vt 0.601600 0.195300
vt 0.601600 0.187500
vt 0.601600 0.179700
vt 0.609400 0.187500
vt 0.609400 0.179700
vt 0.593800 0.179700
vt 0.601600 0.187500
vt 0.601600 0.179700
vt 0.593800 0.187500
vt 0.585900 0.179700
vt 0.585900 0.187500
vt 0.507800 0.195300
vt 0.593800 0.195300
vt 0.515600 0.187500
vt 0.515600 0.171900
vt 0.507800 0.164100
vt 0.250400 0.125400
vt 0.250400 0.132400
vt 0.257400 0.132400
vt 0.257400 0.125400
vt 0.301700 0.202700
vt 0.307400 0.202800
vt 0.307400 0.195800
vt 0.301700 0.195700
vt 0.250400 0.125400
vt 0.250400 0.132400
vt 0.257400 0.132400
vt 0.257400 0.125400
vt 0.406300 0.162100
vt 0.507800 0.162100
vt 0.507800 0.158200
vt 0.406300 0.158200
vt 0.414100 0.197300
vt 0.507800 0.197300
vt 0.414100 0.199200
vt 0.507800 0.201200
vt 0.414100 0.201200
vt 0.503900 0.203100
vt 0.507800 0.203100
vt 0.507800 0.195300
vt 0.505900 0.195300
vt 0.505900 0.164100
vt 0.503900 0.156300
vt 0.507800 0.156300
vt 0.507800 0.164100
vt 0.510200 0.171900
vt 0.509500 0.171900
vt 0.510200 0.179700
vt 0.509500 0.187500
vt 0.513200 0.179700
vt 0.514000 0.187500
vt 0.514000 0.171900
vt 0.513200 0.171900
vt 0.591300 0.187500
vt 0.591300 0.179700
vt 0.590800 0.179700
vt 0.588800 0.179700
vt 0.588300 0.187500
vt 0.588300 0.179700
vt 0.500100 0.210500
vt 0.500100 0.203500
vt 0.367100 0.203500
vt 0.367100 0.210500
vt 0.601600 0.182600
vt 0.601600 0.184600
vt 0.593800 0.184600
vt 0.593800 0.182600
vt 0.609400 0.176800
vt 0.609400 0.174800
vt 0.601600 0.174800
vt 0.601600 0.176800
vt 0.406300 0.158200
vt 0.406300 0.162100
vt 0.507800 0.162100
vt 0.507800 0.158200
vt 0.585900 0.182600
vt 0.585900 0.184600
vt 0.593800 0.184600
vt 0.593800 0.182600
vt 0.406300 0.148400
vt 0.406300 0.156300
vt 0.507800 0.156300
vt 0.507800 0.148400
vt 0.301700 0.202700
vt 0.307700 0.202700
vt 0.307700 0.195700
vt 0.301700 0.195700
vt 0.515600 0.190700
vt 0.515600 0.193400
vt 0.585900 0.193400
vt 0.585900 0.190700
vt 0.411500 0.148800
vt 0.411500 0.155800
vt 0.502500 0.155800
vt 0.502500 0.148800
vt 0.589300 0.202700
vt 0.589300 0.195700
vt 0.512300 0.195700
vt 0.512300 0.202700
vt 0.596700 0.179700
vt 0.596700 0.187500
vt 0.598600 0.187500
vt 0.598600 0.179700
vt 0.585900 0.184600
vt 0.593800 0.184600
vt 0.593800 0.182600
vt 0.585900 0.182600
vt 0.257400 0.132400
vt 0.257400 0.125400
vt 0.250400 0.125400
vt 0.250400 0.132400
vt 0.250400 0.125400
vt 0.250400 0.132400
vt 0.257400 0.132400
vt 0.257400 0.125400
vt 0.289100 0.201200
vt 0.312500 0.201200
vt 0.312500 0.197300
vt 0.289100 0.197300
vt 0.257400 0.132400
vt 0.257400 0.125400
vt 0.250400 0.125400
vt 0.250400 0.132400
vt 0.609400 0.174800
vt 0.609400 0.176800
vt 0.601600 0.176800
vt 0.601600 0.174800
vt 0.250400 0.125400
vt 0.250400 0.132400
vt 0.257400 0.132400
vt 0.257400 0.125400
vt 0.301700 0.202700
vt 0.307400 0.202800
vt 0.307400 0.195800
vt 0.301700 0.195700
vt 0.588900 0.187500
vt 0.588900 0.195300
vt 0.590800 0.195300
vt 0.590800 0.187500
vt 0.312500 0.197300
vt 0.289100 0.197300
vt 0.289100 0.201200
vt 0.312500 0.201200
vt 0.582300 0.179300
vt 0.582300 0.172300
vt 0.519300 0.172300
vt 0.519300 0.179300
vt 0.596700 0.179700
vt 0.596700 0.187500
vt 0.598600 0.187500
vt 0.598600 0.179700
vt 0.179300 0.085100
vt 0.179300 0.071100
vt 0.172300 0.071100
vt 0.172300 0.085100
vt 0.250400 0.125400
vt 0.250400 0.132400
vt 0.257400 0.132400
vt 0.257400 0.125400
vt 0.301700 0.202700
vt 0.307700 0.202700
vt 0.307700 0.195700
vt 0.301700 0.195700
vt 0.588900 0.187500
vt 0.588900 0.195300
vt 0.590800 0.195300
vt 0.590800 0.187500
vt 0.257400 0.132400
vt 0.257400 0.125400
vt 0.250400 0.125400
vt 0.250400 0.132400
vt 0.289100 0.201200
vt 0.312500 0.201200
vt 0.312500 0.197300
vt 0.289100 0.197300
vt 0.593800 0.190400
vt 0.593800 0.192400
vt 0.507800 0.192400
vt 0.507800 0.190400
vt 0.312500 0.197300
vt 0.289100 0.197300
vt 0.289100 0.201200
vt 0.312500 0.201200
vt 0.414100 0.179700
vt 0.429700 0.179700
vt 0.406300 0.156300
vt 0.414100 0.203100
vt 0.429700 0.187500
vt 0.453100 0.187500
vt 0.453100 0.179700
vt 0.507800 0.203100
vt 0.468800 0.179700
vt 0.507800 0.156300
vt 0.468800 0.187500
vt 0.492200 0.179700
vt 0.492200 0.187500
vt 0.492200 0.179700
vt 0.507800 0.156300
vt 0.492200 0.187500
vt 0.468800 0.179700
vt 0.507800 0.203100
vt 0.468800 0.187500
vt 0.406300 0.156300
vt 0.453100 0.187500
vt 0.414100 0.203100
vt 0.453100 0.179700
vt 0.429700 0.187500
vt 0.429700 0.179700
vt 0.414100 0.179700
vn -1.000000 0.000000 0.000000
vn -1.000000 0.000000 0.000000
vn -1.000000 0.000000 0.000000
vn 1.000000 0.000000 0.000000
vn 1.000000 0.000000 0.000000
vn 1.000000 0.000000 0.000000
vn 0.000000 1.000000 0.000000
vn 0.000000 1.000000 0.000000
vn 0.000000 1.000000 0.000000
vn 0.000000 1.000000 0.000000
vn -1.000000 0.000000 0.000000
vn -1.000000 0.000000 0.000000
vn -1.000000 0.000000 0.000000
vn -1.000000 0.000000 0.000000
vn -1.000000 0.000000 0.000000
vn -1.000000 0.000000 0.000000
vn -1.000000 0.000000 0.000000
vn -1.000000 0.000000 0.000000
vn -1.000000 0.000000 0.000000
vn -1.000000 0.000000 0.000000
vn -1.000000 0.000000 0.000000
vn 0.000000 0.000000 1.000000
vn 0.000000 0.000000 1.000000
vn 0.000000 0.000000 1.000000
vn 0.000000 0.000000 1.000000
vn -1.000000 0.000000 0.000000
vn -1.000000 0.000000 0.000000
vn -1.000000 0.000000 0.000000
vn -1.000000 0.000000 0.000000
vn 0.000000 1.000000 0.000000
vn 0.000000 1.000000 0.000000
vn 0.000000 1.000000 0.000000
vn 0.000000 1.000000 0.000000
vn -1.000000 0.000000 0.000000
vn -1.000000 0.000000 0.000000
vn -1.000000 0.000000 0.000000
vn -1.000000 0.000000 0.000000
vn -1.000000 0.000000 0.000000
vn -1.000000 0.000000 0.000000
vn -1.000000 0.000000 0.000000
vn -1.000000 0.000000 0.000000
vn -1.000000 0.000000 0.000000
vn -1.000000 0.000000 0.000000
vn -1.000000 0.000000 0.000000
vn -1.000000 0.000000 0.000000
vn -1.000000 0.000000 0.000000
vn 0.000000 1.000000 0.000000
vn 0.000000 1.000000 0.000000
vn 0.000000 1.000000 0.000000
vn 0.000000 1.000000 0.000000
vn 0.000000 1.000000 0.000000
vn 0.000000 0.000000 1.000000
vn 0.000000 0.000000 1.000000
vn 0.000000 0.000000 1.000000
vn 0.000000 0.000000 1.000000
vn 0.000000 0.000000 1.000000
vn 0.000000 0.000000 1.000000
vn 0.000000 0.000000 1.000000
vn 0.000000 0.000000 1.000000
vn 1.000000 0.000000 0.000000
vn 1.000000 0.000000 0.000000
vn 1.000000 0.000000 0.000000
vn 1.000000 0.000000 0.000000
vn 1.000000 0.000000 0.000000
vn 1.000000 0.000000 0.000000
vn 1.000000 0.000000 0.000000
vn 1.000000 0.000000 0.000000
vn 1.000000 0.000000 0.000000
vn 1.000000 0.000000 0.000000
vn 1.000000 0.000000 0.000000
vn 1.000000 0.000000 0.000000
vn 1.000000 0.000000 0.000000
vn 1.000000 0.000000 0.000000
vn 1.000000 0.000000 0.000000
vn 1.000000 0.000000 0.000000
vn 1.000000 0.000000 0.000000
vn 1.000000 0.000000 0.000000
vn 1.000000 0.000000 0.000000
vn 1.000000 0.000000 0.000000
vn 1.000000 0.000000 0.000000
vn 1.000000 0.000000 0.000000
vn 1.000000 0.000000 0.000000
vn 1.000000 0.000000 0.000000
vn 0.000000 0.000000 1.000000
vn 0.000000 0.000000 1.000000
vn 0.000000 0.000000 1.000000
vn 0.000000 0.000000 1.000000
vn 0.000000 0.000000 -1.000000
vn 0.000000 0.000000 -1.000000
vn 0.000000 0.000000 -1.000000
vn 0.000000 0.000000 -1.000000
vn 0.000000 0.000000 1.000000
vn 0.000000 0.000000 1.000000
vn 0.000000 0.000000 1.000000
vn 0.000000 0.000000 1.000000
vn 0.000000 -1.000000 0.000000
vn 0.000000 -1.000000 0.000000
vn 0.000000 -1.000000 0.000000
vn 0.000000 -1.000000 0.000000
vn 0.000000 1.000000 0.000000
vn 0.000000 1.000000 0.000000
vn 0.000000 1.000000 0.000000
vn 0.000000 1.000000 0.000000
vn 0.000000 1.000000 0.000000
vn 0.000000 0.000000 1.000000
vn 0.000000 0.000000 1.000000
vn 0.000000 0.000000 1.000000
vn 0.000000 0.000000 1.000000
vn 0.000000 0.000000 1.000000
vn 0.000000 0.000000 1.000000
vn 0.000000 0.000000 1.000000
vn 0.000000 0.000000 1.000000
vn 0.000000 0.000000 1.000000
vn 0.000000 0.000000 1.000000
vn 0.000000 0.000000 1.000000
vn 0.000000 0.000000 1.000000
vn 0.000000 0.000000 1.000000
vn 0.000000 0.000000 1.000000
vn 0.000000 0.000000 1.000000
vn 0.000000 0.000000 1.000000
vn 0.000000 0.000000 -1.000000
vn 0.000000 0.000000 -1.000000
vn 0.000000 0.000000 -1.000000
vn 0.000000 0.000000 -1.000000
vn 0.000000 0.000000 -1.000000
vn 0.000000 0.000000 -1.000000
vn 0.000000 1.000000 0.000000
vn 0.000000 1.000000 0.000000
vn 0.000000 1.000000 0.000000
vn 0.000000 1.000000 0.000000
vn 0.000000 1.000000 0.000000
vn 0.000000 1.000000 0.000000
vn 0.000000 1.000000 0.000000
vn 0.000000 1.000000 0.000000
vn 0.000000 1.000000 0.000000
vn 0.000000 1.000000 0.000000
vn 0.000000 1.000000 0.000000
vn 0.000000 1.000000 0.000000
vn 0.000000 -1.000000 0.000000
vn 0.000000 -1.000000 0.000000
vn 0.000000 -1.000000 0.000000
vn 0.000000 -1.000000 0.000000
vn 0.000000 -1.000000 0.000000
vn 0.000000 -1.000000 0.000000
vn 0.000000 -1.000000 0.000000
vn 0.000000 -1.000000 0.000000
vn 1.000000 0.000000 0.000000
vn 1.000000 0.000000 0.000000
vn 1.000000 0.000000 0.000000
vn 1.000000 0.000000 0.000000
vn 0.000000 0.000000 1.000000
vn 0.000000 0.000000 1.000000
vn 0.000000 0.000000 1.000000
vn 0.000000 0.000000 1.000000
vn 0.000000 -1.000000 0.000000
vn 0.000000 -1.000000 0.000000
vn 0.000000 -1.000000 0.000000
vn 0.000000 -1.000000 0.000000
vn 0.000000 -1.000000 0.000000
vn 0.000000 -1.000000 0.000000
vn 0.000000 -1.000000 0.000000
vn 0.000000 -1.000000 0.000000
vn 0.000000 1.000000 0.000000
vn 0.000000 1.000000 0.000000
vn 0.000000 1.000000 0.000000
vn 0.000000 1.000000 0.000000
vn 0.000000 0.000000 1.000000
vn 0.000000 0.000000 1.000000
vn 0.000000 0.000000 1.000000
vn 0.000000 0.000000 1.000000
vn 0.000000 -1.000000 0.000000
vn 0.000000 -1.000000 0.000000
vn 0.000000 -1.000000 0.000000
vn 0.000000 -1.000000 0.000000
vn 0.000000 1.000000 0.000000
vn 0.000000 1.000000 0.000000
vn 0.000000 1.000000 0.000000
vn 0.000000 1.000000 0.000000
vn 0.000000 0.000000 1.000000
vn 0.000000 0.000000 1.000000
vn 0.000000 0.000000 1.000000
vn 0.000000 0.000000 1.000000
vn 0.000000 1.000000 0.000000
vn 0.000000 1.000000 0.000000
vn 0.000000 1.000000 0.000000
vn 0.000000 1.000000 0.000000
vn 0.000000 1.000000 0.000000
vn 0.000000 1.000000 0.000000
vn 0.000000 1.000000 0.000000
vn 0.000000 1.000000 0.000000
vn 0.000000 1.000000 0.000000
vn 0.000000 1.000000 0.000000
vn 0.000000 1.000000 0.000000
vn 0.000000 1.000000 0.000000
vn 0.000000 -1.000000 0.000000
vn 0.000000 -1.000000 0.000000
vn 0.000000 -1.000000 0.000000
vn 0.000000 -1.000000 0.000000
vn 0.000000 0.000000 -1.000000
vn 0.000000 0.000000 -1.000000
vn 0.000000 0.000000 -1.000000
vn 0.000000 0.000000 -1.000000
vn 0.000000 0.000000 1.000000
vn 0.000000 0.000000 1.000000
vn 0.000000 0.000000 1.000000
vn 0.000000 0.000000 1.000000
vn 0.000000 -1.000000 0.000000
vn 0.000000 -1.000000 0.000000
vn 0.000000 -1.000000 0.000000
vn 0.000000 -1.000000 0.000000
vn 0.000000 1.000000 0.000000
vn 0.000000 1.000000 0.000000
vn 0.000000 1.000000 0.000000
vn 0.000000 1.000000 0.000000
vn 0.000000 0.000000 1.000000
vn 0.000000 0.000000 1.000000
vn 0.000000 0.000000 1.000000
vn 0.000000 0.000000 1.000000
vn 0.000000 0.000000 -1.000000
vn 0.000000 0.000000 -1.000000
vn 0.000000 0.000000 -1.000000
vn 0.000000 0.000000 -1.000000
vn 0.000000 0.000000 1.000000
vn 0.000000 0.000000 1.000000
vn 0.000000 0.000000 1.000000
vn 0.000000 0.000000 1.000000
vn 0.000000 0.000000 1.000000
vn 0.000000 0.000000 1.000000
vn 0.000000 0.000000 1.000000
vn 0.000000 0.000000 1.000000
vn 0.000000 0.000000 1.000000
vn 0.000000 0.000000 1.000000
vn 0.000000 0.000000 1.000000
vn 0.000000 0.000000 1.000000
vn 0.000000 0.000000 -1.000000
vn 0.000000 0.000000 -1.000000
vn 0.000000 0.000000 -1.000000
vn 0.000000 0.000000 -1.000000
vn 0.000000 1.000000 0.000000
vn 0.000000 1.000000 0.000000
vn 0.000000 1.000000 0.000000
vn 0.000000 1.000000 0.000000
vn 0.000000 1.000000 0.000000
vn 0.000000 1.000000 0.000000
vn 0.000000 1.000000 0.000000
vn 0.000000 1.000000 0.000000
vn 0.000000 -1.000000 0.000000
vn 0.000000 -1.000000 0.000000
vn 0.000000 -1.000000 0.000000
vn 0.000000 -1.000000 0.000000
vn 1.000000 0.000000 0.000000
vn 1.000000 0.000000 0.000000
vn 1.000000 0.000000 0.000000
vn 1.000000 0.000000 0.000000
vn 1.000000 0.000000 0.000000
vn 1.000000 0.000000 0.000000
vn 1.000000 0.000000 0.000000
vn 1.000000 0.000000 0.000000
vn 1.000000 0.000000 0.000000
vn 1.000000 0.000000 0.000000
vn 1.000000 0.000000 0.000000
vn 1.000000 0.000000 0.000000
vn 1.000000 0.000000 0.000000
vn -1.000000 0.000000 0.000000
vn -1.000000 0.000000 0.000000
vn -1.000000 0.000000 0.000000
vn -1.000000 0.000000 0.000000
vn -1.000000 0.000000 0.000000
vn -1.000000 0.000000 0.000000
vn -1.000000 0.000000 0.000000
vn -1.000000 0.000000 0.000000
vn -1.000000 0.000000 0.000000
vn -1.000000 0.000000 0.000000
vn -1.000000 0.000000 0.000000
vn -1.000000 0.000000 0.000000
vn -1.000000 0.000000 0.000000
f 1/1/1 2/2/2 3/3/3
f 4/4/4 5/5/5 6/6/6
f 7/7/7 8/8/8 9/9/9
f 7/7/7 9/9/9 10/10/10
f 11/11/11 12/12/12 13/13/13
f 11/11/11 13/13/13 14/14/14
f 11/11/11 14/14/14 15/15/15
f 11/11/11 15/15/15 16/16/16
f 11/11/11 16/16/16 17/17/17
f 15/15/15 18/18/18 16/16/16
f 15/15/15 19/19/19 18/18/18
f 16/16/16 18/18/18 20/20/20
f 16/16/16 20/20/20 21/21/21
f 22/22/22 23/23/23 24/24/24
f 22/22/22 24/24/24 25/25/25
f 26/26/26 27/27/27 28/28/28
f 26/26/26 28/28/28 29/29/29
f 30/30/30 31/31/31 32/32/32
f 30/30/30 32/32/32 33/33/33
f 34/34/34 35/35/35 36/36/36
f 34/34/34 36/36/36 37/37/37
f 36/36/36 38/38/38 39/39/39
f 36/36/36 39/39/39 40/40/40
f 39/39/39 41/41/41 42/42/42
f 39/39/39 42/42/42 43/43/43
f 42/42/42 44/44/44 45/45/45
f 42/42/42 45/45/45 46/46/46
f 47/47/47 48/48/48 49/49/49
f 47/47/47 49/49/49 50/50/50
f 47/47/47 50/50/50 51/51/51
f 52/52/52 53/53/53 54/54/54
f 52/52/52 54/54/54 55/55/55
f 54/54/54 56/56/56 55/55/55
f 57/57/57 56/56/56 54/54/54
f 58/58/58 56/56/56 57/57/57
f 58/58/58 57/57/57 59/59/59
f 60/60/60 61/61/61 62/62/62
f 63/63/63 61/61/61 60/60/60
f 64/64/64 60/60/60 65/65/65
f 64/64/64 65/65/65 66/66/66
f 67/67/67 66/66/66 68/68/68
f 67/67/67 68/68/68 69/69/69
f 70/70/70 69/69/69 71/71/71
f 70/70/70 71/71/71 72/72/72
f 73/73/73 74/74/74 75/75/75
f 73/73/73 76/76/76 74/74/74
f 77/77/77 76/76/76 73/73/73
f 77/77/77 78/78/78 76/76/76
f 78/78/78 79/79/79 76/76/76
f 76/76/76 79/79/79 80/80/80
f 81/81/81 79/79/79 78/78/78
f 82/82/82 79/79/79 81/81/81
f 83/83/83 79/79/79 82/82/82
f 84/84/84 85/85/85 86/86/86
f 84/84/84 86/86/86 87/87/87
f 88/88/88 89/89/89 90/90/90
f 88/88/88 90/90/90 91/91/91
f 92/92/92 93/93/93 94/94/94
f 92/92/92 94/94/94 95/95/95
f 96/96/96 97/97/97 98/98/98
f 96/96/96 98/98/98 99/99/99
f 100/100/100 101/101/101 102/102/102
f 102/102/102 101/101/101 103/103/103
f 102/102/102 103/103/103 104/104/104
f 105/105/105 106/106/106 107/107/107
f 105/105/105 107/107/107 108/108/108
f 105/105/105 108/108/108 109/109/109
f 105/105/105 109/109/109 110/110/110
f 111/111/111 110/110/110 109/109/109
f 111/111/111 109/109/109 112/112/112
f 113/113/113 114/114/114 115/115/115
f 115/115/115 114/114/114 116/116/116
f 117/117/117 115/115/115 116/116/116
f 117/117/117 116/116/116 118/118/118
f 119/119/119 117/117/117 118/118/118
f 119/119/119 120/120/120 117/117/117
f 121/121/121 122/122/122 123/123/123
f 121/121/121 123/123/123 124/124/124
f 121/121/121 124/124/124 125/125/125
f 126/126/126 125/125/125 124/124/124
f 127/127/127 128/128/128 129/129/129
f 127/127/127 129/129/129 130/130/130
f 131/131/131 132/132/132 133/133/133
f 131/131/131 133/133/133 134/134/134
f 135/135/135 136/136/136 137/137/137
f 135/135/135 137/137/137 138/138/138
f 139/139/139 140/140/140 141/141/141
f 139/139/139 141/141/141 142/142/142
f 143/143/143 144/144/144 145/145/145
f 143/143/143 145/145/145 146/146/146
f 147/147/147 148/148/148 149/149/149
f 147/147/147 149/149/149 150/150/150
f 151/151/151 152/152/152 153/153/153
f 151/151/151 153/153/153 154/154/154
f 155/155/155 156/156/156 157/157/157
f 155/155/155 157/157/157 158/158/158
f 159/159/159 160/160/160 161/161/161
f 159/159/159 161/161/161 162/162/162
f 163/163/163 164/164/164 165/165/165
f 163/163/163 165/165/165 166/166/166
f 167/167/167 168/168/168 169/169/169
f 167/167/167 169/169/169 170/170/170
f 171/171/171 172/172/172 173/173/173
f 171/171/171 173/173/173 174/174/174
f 175/175/175 176/176/176 177/177/177
f 175/175/175 177/177/177 178/178/178
f 179/179/179 180/180/180 181/181/181
f 179/179/179 181/181/181 182/182/182
f 183/183/183 184/184/184 185/185/185
f 183/183/183 185/185/185 186/186/186
f 187/187/187 188/188/188 189/189/189
f 187/187/187 189/189/189 190/190/190
f 191/191/191 192/192/192 193/193/193
f 191/191/191 193/193/193 194/194/194
f 195/195/195 196/196/196 197/197/197
f 195/195/195 197/197/197 198/198/198
f 199/199/199 200/200/200 201/201/201
f 199/199/199 201/201/201 202/202/202
f 203/203/203 204/204/204 205/205/205
f 203/203/203 205/205/205 206/206/206
f 207/207/207 208/208/208 209/209/209
f 207/207/207 209/209/209 210/210/210
f 211/211/211 212/212/212 213/213/213
f 211/211/211 213/213/213 214/214/214
f 215/215/215 216/216/216 217/217/217
f 215/215/215 217/217/217 218/218/218
f 219/219/219 220/220/220 221/221/221
f 219/219/219 221/221/221 222/222/222
f 223/223/223 224/224/224 225/225/225
f 223/223/223 225/225/225 226/226/226
f 227/227/227 228/228/228 229/229/229
f 227/227/227 229/229/229 230/230/230
f 231/231/231 232/232/232 233/233/233
f 231/231/231 233/233/233 234/234/234
f 235/235/235 236/236/236 237/237/237
f 235/235/235 237/237/237 238/238/238
f 239/239/239 240/240/240 241/241/241
f 239/239/239 241/241/241 242/242/242
f 243/243/243 244/244/244 245/245/245
f 243/243/243 245/245/245 246/246/246
f 247/247/247 248/248/248 249/249/249
f 247/247/247 249/249/249 250/250/250
f 251/251/251 252/252/252 253/253/253
f 254/254/254 252/252/252 251/251/251
f 254/254/254 255/255/255 252/252/252
f 255/255/255 254/254/254 256/256/256
f 252/252/252 257/257/257 253/253/253
f 256/256/256 254/254/254 258/258/258
f 253/253/253 257/257/257 259/259/259
f 259/259/259 257/257/257 256/256/256
f 253/253/253 259/259/259 260/260/260
f 259/259/259 256/256/256 261/261/261
f 256/256/256 258/258/258 261/261/261
f 259/259/259 262/262/262 260/260/260
f 258/258/258 263/263/263 261/261/261
f 260/260/260 262/262/262 263/263/263
f 260/260/260 263/263/263 258/258/258
f 264/264/264 265/265/265 266/266/266
f 264/264/264 267/267/267 265/265/265
f 266/266/266 265/265/265 268/268/268
f 266/266/266 268/268/268 269/269/269
f 267/267/267 270/270/270 265/265/265
f 268/268/268 271/271/271 269/269/269
f 267/267/267 269/269/269 271/271/271
f 272/272/272 271/271/271 268/268/268
f 267/267/267 271/271/271 273/273/273
f 273/273/273 270/270/270 267/267/267
f 272/272/272 274/274/274 271/271/271
f 273/273/273 275/275/275 270/270/270
f 274/274/274 272/272/272 275/275/275
f 275/275/275 276/276/276 270/270/270
f 275/275/275 272/272/272 276/276/276