# Object009
v -0.011250 0.022500 -0.150000
v -0.011250 -0.022500 -0.150000
v -0.011250 -0.022500 -0.135000
v -0.011250 -0.052500 -0.135000
v -0.011250 -0.052500 -0.120000
v -0.011250 0.037500 -0.075000
v -0.011250 -0.082500 -0.105000
v -0.011250 -0.082500 -0.120000
v -0.011250 -0.112500 -0.090000
v -0.011250 -0.112500 -0.105000
v -0.011250 -0.142500 -0.075000
v -0.011250 -0.142500 -0.090000
v -0.011250 -0.157500 -0.060000
v -0.011250 -0.007500 -0.060000
v -0.011250 -0.157500 -0.075000
v 0.011250 -0.022500 -0.150000
v 0.011250 0.022500 -0.150000
v 0.011250 -0.022500 -0.135000
v 0.011250 -0.052500 -0.135000
v 0.011250 -0.052500 -0.120000
v 0.011250 0.037500 -0.075000
v 0.011250 -0.082500 -0.105000
v 0.011250 -0.082500 -0.120000
v 0.011250 -0.112500 -0.090000
v 0.011250 -0.112500 -0.105000
v 0.011250 -0.142500 -0.075000
v 0.011250 -0.142500 -0.090000
v 0.011250 -0.157500 -0.060000
v 0.011250 -0.157500 -0.075000
v 0.011250 -0.007500 -0.060000
v -0.007500 -0.082500 -0.120000
v -0.007500 -0.112500 -0.120000
v -0.007500 -0.112500 -0.105000
v -0.007500 -0.082500 -0.105000
v -0.007500 -0.052500 -0.135000
v -0.007500 -0.082500 -0.135000
v -0.007500 -0.052500 -0.120000
v -0.007500 -0.142500 -0.105000
v -0.007500 -0.142500 -0.090000
v -0.007500 -0.112500 -0.090000
v -0.007500 -0.022500 -0.150000
v -0.007500 -0.052500 -0.150000
v -0.007500 -0.022500 -0.135000
v -0.007500 0.022500 -0.165000
v -0.007500 -0.022500 -0.165000
v -0.007500 0.022500 -0.150000
v -0.007500 -0.157500 -0.090000
v -0.007500 -0.157500 -0.075000
v -0.007500 -0.142500 -0.075000
v -0.007500 -0.172500 -0.075000
v -0.007500 -0.172500 -0.060000
v -0.007500 -0.157500 -0.060000
v -0.011250 -0.082500 -0.120000
v -0.007500 -0.082500 -0.120000
v -0.007500 -0.082500 -0.105000
v -0.011250 -0.082500 -0.105000
v -0.011250 -0.157500 -0.075000
v -0.007500 -0.157500 -0.075000
v -0.007500 -0.157500 -0.060000
v -0.011250 -0.157500 -0.060000
v -0.011250 -0.142500 -0.090000
v -0.007500 -0.142500 -0.090000
v -0.007500 -0.142500 -0.075000
v -0.011250 -0.142500 -0.075000
v 0.007500 -0.142500 -0.075000
v 0.011250 -0.142500 -0.075000
v 0.011250 -0.157500 -0.075000
v 0.007500 -0.157500 -0.075000
v 0.007500 -0.082500 -0.120000
v 0.007500 -0.112500 -0.120000
v -0.007500 -0.112500 -0.120000
v -0.007500 -0.082500 -0.120000
v 0.011250 -0.052500 -0.135000
v 0.011250 -0.052500 -0.120000
v 0.007500 -0.052500 -0.120000
v 0.007500 -0.052500 -0.135000
v 0.007500 -0.052500 -0.135000
v 0.007500 -0.082500 -0.135000
v -0.007500 -0.082500 -0.135000
v -0.007500 -0.052500 -0.135000
v 0.011250 -0.082500 -0.120000
v 0.011250 -0.082500 -0.105000
v 0.007500 -0.082500 -0.105000
v 0.007500 -0.082500 -0.120000
v -0.011250 -0.112500 -0.105000
v -0.007500 -0.112500 -0.105000
v -0.007500 -0.112500 -0.090000
v -0.011250 -0.112500 -0.090000
v 0.011250 -0.142500 -0.090000
v 0.011250 -0.142500 -0.075000
v 0.007500 -0.142500 -0.075000
v 0.007500 -0.142500 -0.090000
v -0.007500 -0.157500 -0.090000
v 0.007500 -0.157500 -0.090000
v 0.007500 -0.157500 -0.075000
v -0.007500 -0.157500 -0.075000
v -0.007500 -0.052500 -0.150000
v 0.007500 -0.052500 -0.150000
v 0.007500 -0.052500 -0.135000
v -0.007500 -0.052500 -0.135000
v 0.011250 -0.112500 -0.105000
v 0.011250 -0.112500 -0.090000
v 0.007500 -0.112500 -0.090000
v 0.007500 -0.112500 -0.105000
v -0.007500 -0.082500 -0.105000
v -0.007500 -0.112500 -0.105000
v -0.011250 -0.112500 -0.105000
v -0.011250 -0.082500 -0.105000
v 0.007500 -0.157500 -0.060000
v 0.011250 -0.157500 -0.060000
v 0.011250 -0.172500 -0.060000
v 0.007500 -0.172500 -0.060000
v -0.007500 -0.082500 -0.135000
v 0.007500 -0.082500 -0.135000
v 0.007500 -0.082500 -0.120000
v -0.007500 -0.082500 -0.120000
v 0.007500 -0.172500 -0.075000
v 0.007500 -0.157500 -0.060000
v 0.007500 -0.172500 -0.060000
v 0.007500 -0.157500 -0.075000
v 0.007500 -0.157500 -0.090000
v 0.007500 -0.142500 -0.075000
v 0.007500 -0.142500 -0.090000
v 0.007500 -0.142500 -0.105000
v 0.007500 -0.112500 -0.090000
v 0.007500 -0.112500 -0.105000
v 0.007500 -0.112500 -0.120000
v 0.007500 -0.082500 -0.105000
v 0.007500 -0.082500 -0.120000
v 0.007500 -0.082500 -0.135000
v 0.007500 -0.052500 -0.120000
v 0.007500 -0.052500 -0.135000
v 0.007500 -0.052500 -0.150000
v 0.007500 -0.022500 -0.135000
v 0.007500 -0.022500 -0.150000
v 0.007500 -0.022500 -0.165000
v 0.007500 0.022500 -0.150000
v 0.007500 0.022500 -0.165000
v 0.007500 -0.112500 -0.105000
v 0.007500 -0.142500 -0.105000
v -0.007500 -0.142500 -0.105000
v -0.007500 -0.112500 -0.105000
v 0.011250 -0.157500 -0.075000
v 0.011250 -0.157500 -0.060000
v 0.007500 -0.157500 -0.060000
v 0.007500 -0.157500 -0.075000
v 0.007500 -0.112500 -0.090000
v 0.011250 -0.112500 -0.090000
v 0.011250 -0.142500 -0.090000
v 0.007500 -0.142500 -0.090000
v 0.007500 -0.172500 -0.060000
v 0.007500 -0.187500 -0.060000
v -0.007500 -0.187500 -0.060000
v -0.007500 -0.172500 -0.060000
v 0.007500 -0.022500 -0.135000
v 0.011250 -0.022500 -0.135000
v 0.011250 -0.052500 -0.135000
v 0.007500 -0.052500 -0.135000
v -0.007500 -0.157500 -0.060000
v -0.007500 -0.172500 -0.060000
v -0.011250 -0.172500 -0.060000
v -0.011250 -0.157500 -0.060000
v -0.011250 -0.052500 -0.135000
v -0.007500 -0.052500 -0.135000
v -0.007500 -0.052500 -0.120000
v -0.011250 -0.052500 -0.120000
v 0.007500 -0.142500 -0.090000
v 0.007500 -0.157500 -0.090000
v -0.007500 -0.157500 -0.090000
v -0.007500 -0.142500 -0.090000
v -0.007500 -0.112500 -0.090000
v -0.007500 -0.142500 -0.090000
v -0.011250 -0.142500 -0.090000
v -0.011250 -0.112500 -0.090000
v 0.007500 -0.157500 -0.075000
v 0.007500 -0.172500 -0.075000
v -0.007500 -0.172500 -0.075000
v -0.007500 -0.157500 -0.075000
v -0.007500 -0.112500 -0.120000
v 0.007500 -0.112500 -0.120000
v 0.007500 -0.112500 -0.105000
v -0.007500 -0.112500 -0.105000
v -0.007500 -0.142500 -0.105000
v 0.007500 -0.142500 -0.105000
v 0.007500 -0.142500 -0.090000
v -0.007500 -0.142500 -0.090000
v 0.007500 -0.022500 -0.150000
v 0.007500 -0.052500 -0.150000
v -0.007500 -0.052500 -0.150000
v -0.007500 -0.022500 -0.150000
v -0.007500 -0.022500 -0.135000
v -0.007500 -0.052500 -0.135000
v -0.011250 -0.052500 -0.135000
v -0.011250 -0.022500 -0.135000
v 0.007500 -0.082500 -0.105000
v 0.011250 -0.082500 -0.105000
v 0.011250 -0.112500 -0.105000
v 0.007500 -0.112500 -0.105000
v 0.007500 -0.052500 -0.120000
v 0.011250 -0.052500 -0.120000
v 0.011250 -0.082500 -0.120000
v 0.007500 -0.082500 -0.120000
v -0.007500 -0.172500 -0.075000
v 0.007500 -0.172500 -0.075000
v 0.007500 -0.172500 -0.060000
v -0.007500 -0.172500 -0.060000
v -0.007500 -0.052500 -0.120000
v -0.007500 -0.082500 -0.120000
v -0.011250 -0.082500 -0.120000
v -0.011250 -0.052500 -0.120000
v -0.007500 -0.142500 -0.075000
v -0.007500 -0.157500 -0.075000
v -0.011250 -0.157500 -0.075000
v -0.011250 -0.142500 -0.075000
v -0.007500 -0.022500 -0.165000
v 0.007500 -0.022500 -0.165000
v 0.007500 -0.022500 -0.150000
v -0.007500 -0.022500 -0.150000
v 0.007500 0.022500 -0.150000
v 0.011250 0.022500 -0.150000
v 0.011250 -0.022500 -0.150000
v 0.007500 -0.022500 -0.150000
v 0.007500 0.022500 -0.165000
v 0.007500 -0.022500 -0.165000
v -0.007500 -0.022500 -0.165000
v -0.007500 0.022500 -0.165000
v 0.011250 -0.022500 -0.150000
v 0.011250 -0.022500 -0.135000
v 0.007500 -0.022500 -0.135000
v 0.007500 -0.022500 -0.150000
v -0.011250 -0.022500 -0.150000
v -0.007500 -0.022500 -0.150000
v -0.007500 -0.022500 -0.135000
v -0.011250 -0.022500 -0.135000
v -0.007500 0.022500 -0.150000
v -0.007500 -0.022500 -0.150000
v -0.011250 -0.022500 -0.150000
v -0.011250 0.022500 -0.150000
vt 0.304700 0.125000
vt 0.304700 0.101600
vt 0.312500 0.101600
vt 0.312500 0.085900
vt 0.320300 0.085900
vt 0.343800 0.132800
vt 0.328100 0.070300
vt 0.320300 0.070300
vt 0.335900 0.054700
vt 0.328100 0.054700
vt 0.343800 0.039100
vt 0.335900 0.039100
vt 0.351600 0.031300
vt 0.351600 0.109400
vt 0.343800 0.031300
vt 0.304700 0.101600
vt 0.304700 0.125000
vt 0.312500 0.101600
vt 0.312500 0.085900
vt 0.320300 0.085900
vt 0.343800 0.132800
vt 0.328100 0.070300
vt 0.320300 0.070300
vt 0.335900 0.054700
vt 0.328100 0.054700
vt 0.343800 0.039100
vt 0.335900 0.039100
vt 0.351600 0.031300
vt 0.343800 0.031300
vt 0.351600 0.109400
vt 0.320300 0.070300
vt 0.320300 0.054700
vt 0.328100 0.054700
vt 0.328100 0.070300
vt 0.312500 0.085900
vt 0.312500 0.070300
vt 0.320300 0.085900
vt 0.328100 0.039100
vt 0.335900 0.039100
vt 0.335900 0.054700
vt 0.304700 0.101600
vt 0.304700 0.085900
vt 0.312500 0.101600
vt 0.296900 0.125000
vt 0.296900 0.101600
vt 0.304700 0.125000
vt 0.335900 0.031300
vt 0.343800 0.031300
vt 0.343800 0.039100
vt 0.343800 0.023400
vt 0.351600 0.023400
vt 0.351600 0.031300
vt 0.320300 0.073200
vt 0.320300 0.075200
vt 0.328100 0.075200
vt 0.328100 0.073200
vt 0.343800 0.034200
vt 0.343800 0.036100
vt 0.351600 0.036100
vt 0.351600 0.034200
vt 0.335900 0.042000
vt 0.335900 0.043900
vt 0.343800 0.043900
vt 0.343800 0.042000
vt 0.346700 0.039100
vt 0.348600 0.039100
vt 0.348600 0.031300
vt 0.346700 0.031300
vt 0.327700 0.069500
vt 0.327700 0.055500
vt 0.320700 0.055500
vt 0.320700 0.069500
vt 0.312500 0.090800
vt 0.320300 0.090800
vt 0.320300 0.088900
vt 0.312500 0.088900
vt 0.319900 0.085100
vt 0.319900 0.071100
vt 0.312900 0.071100
vt 0.312900 0.085100
vt 0.320300 0.075200
vt 0.328100 0.075200
vt 0.328100 0.073200
vt 0.320300 0.073200
vt 0.328100 0.057600
vt 0.328100 0.059600
vt 0.335900 0.059600
vt 0.335900 0.057600
vt 0.335900 0.043900
vt 0.343800 0.043900
vt 0.343800 0.042000
vt 0.335900 0.042000
vt 0.250400 0.125400
vt 0.250400 0.132400
vt 0.257400 0.132400
vt 0.257400 0.125400
vt 0.250400 0.125400
vt 0.250400 0.132400
vt 0.257400 0.132400
vt 0.257400 0.125400
vt 0.328100 0.059600
vt 0.335900 0.059600
vt 0.335900 0.057600
vt 0.328100 0.057600
vt 0.333000 0.070300
vt 0.333000 0.054700
vt 0.331100 0.054700
vt 0.331100 0.070300
vt 0.354500 0.031300
vt 0.356400 0.031300
vt 0.356400 0.023400
vt 0.354500 0.023400
vt 0.250400 0.125400
vt 0.250400 0.132400
vt 0.257400 0.132400
vt 0.257400 0.125400
vt 0.343800 0.023400
vt 0.351600 0.031300
vt 0.351600 0.023400
vt 0.343800 0.031300
vt 0.335900 0.031300
vt 0.343800 0.039100
vt 0.335900 0.039100
vt 0.328100 0.039100
vt 0.335900 0.054700
vt 0.328100 0.054700
vt 0.320300 0.054700
vt 0.328100 0.070300
vt 0.320300 0.070300
vt 0.312500 0.070300
vt 0.320300 0.085900
vt 0.312500 0.085900
vt 0.304700 0.085900
vt 0.312500 0.101600
vt 0.304700 0.101600
vt 0.296900 0.101600
vt 0.304700 0.125000
vt 0.296900 0.125000
vt 0.335500 0.053800
vt 0.335500 0.039800
vt 0.328500 0.039800
vt 0.328500 0.053800
vt 0.343800 0.036100
vt 0.351600 0.036100
vt 0.351600 0.034200
vt 0.343800 0.034200
vt 0.338900 0.054700
vt 0.340800 0.054700
vt 0.340800 0.039100
vt 0.338900 0.039100
vt 0.257400 0.132400
vt 0.257400 0.125400
vt 0.250400 0.125400
vt 0.250400 0.132400
vt 0.315400 0.101600
vt 0.317400 0.101600
vt 0.317400 0.085900
vt 0.315400 0.085900
vt 0.356400 0.031300
vt 0.356400 0.023400
vt 0.354500 0.023400
vt 0.354500 0.031300
vt 0.312500 0.088900
vt 0.312500 0.090800
vt 0.320300 0.090800
vt 0.320300 0.088900
vt 0.257400 0.132400
vt 0.257400 0.125400
vt 0.250400 0.125400
vt 0.250400 0.132400
vt 0.340800 0.054700
vt 0.340800 0.039100
vt 0.338900 0.039100
vt 0.338900 0.054700
vt 0.257400 0.132400
vt 0.257400 0.125400
vt 0.250400 0.125400
vt 0.250400 0.132400
vt 0.250400 0.125400
vt 0.250400 0.132400
vt 0.257400 0.132400
vt 0.257400 0.125400
vt 0.250400 0.125400
vt 0.250400 0.132400
vt 0.257400 0.132400
vt 0.257400 0.125400
vt 0.312100 0.100700
vt 0.312100 0.086800
vt 0.305100 0.086800
vt 0.305100 0.100700
vt 0.317400 0.101600
vt 0.317400 0.085900
vt 0.315400 0.085900
vt 0.315400 0.101600
vt 0.331100 0.070300
vt 0.333000 0.070300
vt 0.333000 0.054700
vt 0.331100 0.054700
vt 0.323200 0.085900
vt 0.325200 0.085900
vt 0.325200 0.070300
vt 0.323200 0.070300
vt 0.250400 0.125400
vt 0.250400 0.132400
vt 0.257400 0.132400
vt 0.257400 0.125400
vt 0.325200 0.085900
vt 0.325200 0.070300
vt 0.323200 0.070300
vt 0.323200 0.085900
vt 0.348600 0.039100
vt 0.348600 0.031300
vt 0.346700 0.031300
vt 0.346700 0.039100
vt 0.250400 0.125400
vt 0.250400 0.132400
vt 0.257400 0.132400
vt 0.257400 0.125400
vt 0.307600 0.125000
vt 0.309600 0.125000
vt 0.309600 0.101600
vt 0.307600 0.101600
vt 0.304200 0.123800
vt 0.304200 0.102800
vt 0.297200 0.102800
vt 0.297200 0.123800
vt 0.304700 0.106400
vt 0.312500 0.106400
vt 0.312500 0.104500
vt 0.304700 0.104500
vt 0.304700 0.104500
vt 0.304700 0.106400
vt 0.312500 0.106400
vt 0.312500 0.104500
vt 0.309600 0.125000
vt 0.309600 0.101600
vt 0.307600 0.101600
vt 0.307600 0.125000
vn -1.000000 0.000000 0.000000
vn -1.000000 0.000000 0.000000
vn -1.000000 0.000000 0.000000
vn -1.000000 0.000000 0.000000
vn -1.000000 0.000000 0.000000
vn -1.000000 0.000000 0.000000
vn -1.000000 0.000000 0.000000
vn -1.000000 0.000000 0.000000
vn -1.000000 0.000000 0.000000
vn -1.000000 0.000000 0.000000
vn -1.000000 0.000000 0.000000
vn -1.000000 0.000000 0.000000
vn -1.000000 0.000000 0.000000
vn -1.000000 0.000000 0.000000
vn -1.000000 0.000000 0.000000
vn 1.000000 0.000000 0.000000
vn 1.000000 0.000000 0.000000
vn 1.000000 0.000000 0.000000
vn 1.000000 0.000000 0.000000
vn 1.000000 0.000000 0.000000
vn 1.000000 0.000000 0.000000
vn 1.000000 0.000000 0.000000
vn 1.000000 0.000000 0.000000
vn 1.000000 0.000000 0.000000
vn 1.000000 0.000000 0.000000
vn 1.000000 0.000000 0.000000
vn 1.000000 0.000000 0.000000
vn 1.000000 0.000000 0.000000
vn 1.000000 0.000000 0.000000
vn 1.000000 0.000000 0.000000
vn -1.000000 0.000000 0.000000
vn -1.000000 0.000000 0.000000
vn -1.000000 0.000000 0.000000
vn -1.000000 0.000000 0.000000
vn -1.000000 0.000000 0.000000
vn -1.000000 0.000000 0.000000
vn -1.000000 0.000000 0.000000
vn -1.000000 0.000000 0.000000
vn -1.000000 0.000000 0.000000
vn -1.000000 0.000000 0.000000
vn -1.000000 0.000000 0.000000
vn -1.000000 0.000000 0.000000
vn -1.000000 0.000000 0.000000
vn -1.000000 0.000000 0.000000
vn -1.000000 0.000000 0.000000
vn -1.000000 0.000000 0.000000
vn -1.000000 0.000000 0.000000
vn -1.000000 0.000000 0.000000
vn -1.000000 0.000000 0.000000
vn -1.000000 0.000000 0.000000
vn -1.000000 0.000000 0.000000
vn -1.000000 0.000000 0.000000
vn 0.000000 -1.000000 0.000000
vn 0.000000 -1.000000 0.000000
vn 0.000000 -1.000000 0.000000
vn 0.000000 -1.000000 0.000000
vn 0.000000 -1.000000 0.000000
vn 0.000000 -1.000000 0.000000
vn 0.000000 -1.000000 0.000000
vn 0.000000 -1.000000 0.000000
vn 0.000000 -1.000000 0.000000
vn 0.000000 -1.000000 0.000000
vn 0.000000 -1.000000 0.000000
vn 0.000000 -1.000000 0.000000
vn 0.000000 0.000000 -1.000000
vn 0.000000 0.000000 -1.000000
vn 0.000000 0.000000 -1.000000
vn 0.000000 0.000000 -1.000000
vn 0.000000 0.000000 -1.000000
vn 0.000000 0.000000 -1.000000
vn 0.000000 0.000000 -1.000000
vn 0.000000 0.000000 -1.000000
vn 0.000000 -1.000000 0.000000
vn 0.000000 -1.000000 0.000000
vn 0.000000 -1.000000 0.000000
vn 0.000000 -1.000000 0.000000
vn 0.000000 0.000000 -1.000000
vn 0.000000 0.000000 -1.000000
vn 0.000000 0.000000 -1.000000
vn 0.000000 0.000000 -1.000000
vn 0.000000 -1.000000 0.000000
vn 0.000000 -1.000000 0.000000
vn 0.000000 -1.000000 0.000000
vn 0.000000 -1.000000 0.000000
vn 0.000000 -1.000000 0.000000
vn 0.000000 -1.000000 0.000000
vn 0.000000 -1.000000 0.000000
vn 0.000000 -1.000000 0.000000
vn 0.000000 -1.000000 0.000000
vn 0.000000 -1.000000 0.000000
vn 0.000000 -1.000000 0.000000
vn 0.000000 -1.000000 0.000000
vn 0.000000 -1.000000 0.000000
vn 0.000000 -1.000000 0.000000
vn 0.000000 -1.000000 0.000000
vn 0.000000 -1.000000 0.000000
vn 0.000000 -1.000000 0.000000
vn 0.000000 -1.000000 0.000000
vn 0.000000 -1.000000 0.000000
vn 0.000000 -1.000000 0.000000
vn 0.000000 -1.000000 0.000000
vn 0.000000 -1.000000 0.000000
vn 0.000000 -1.000000 0.000000
vn 0.000000 -1.000000 0.000000
vn 0.000000 0.000000 -1.000000
vn 0.000000 0.000000 -1.000000
vn 0.000000 0.000000 -1.000000
vn 0.000000 0.000000 -1.000000
vn 0.000000 0.000000 -1.000000
vn 0.000000 0.000000 -1.000000
vn 0.000000 0.000000 -1.000000
vn 0.000000 0.000000 -1.000000
vn 0.000000 -1.000000 0.000000
vn 0.000000 -1.000000 0.000000
vn 0.000000 -1.000000 0.000000
vn 0.000000 -1.000000 0.000000
vn 1.000000 0.000000 0.000000
vn 1.000000 0.000000 0.000000
vn 1.000000 0.000000 0.000000
vn 1.000000 0.000000 0.000000
vn 1.000000 0.000000 0.000000
vn 1.000000 0.000000 0.000000
vn 1.000000 0.000000 0.000000
vn 1.000000 0.000000 0.000000
vn 1.000000 0.000000 0.000000
vn 1.000000 0.000000 0.000000
vn 1.000000 0.000000 0.000000
vn 1.000000 0.000000 0.000000
vn 1.000000 0.000000 0.000000
vn 1.000000 0.000000 0.000000
vn 1.000000 0.000000 0.000000
vn 1.000000 0.000000 0.000000
vn 1.000000 0.000000 0.000000
vn 1.000000 0.000000 0.000000
vn 1.000000 0.000000 0.000000
vn 1.000000 0.000000 0.000000
vn 1.000000 0.000000 0.000000
vn 1.000000 0.000000 0.000000
vn 0.000000 0.000000 -1.000000
vn 0.000000 0.000000 -1.000000
vn 0.000000 0.000000 -1.000000
vn 0.000000 0.000000 -1.000000
vn 0.000000 -1.000000 0.000000
vn 0.000000 -1.000000 0.000000
vn 0.000000 -1.000000 0.000000
vn 0.000000 -1.000000 0.000000
vn 0.000000 0.000000 -1.000000
vn 0.000000 0.000000 -1.000000
vn 0.000000 0.000000 -1.000000
vn 0.000000 0.000000 -1.000000
vn 0.000000 0.000000 -1.000000
vn 0.000000 0.000000 -1.000000
vn 0.000000 0.000000 -1.000000
vn 0.000000 0.000000 -1.000000
vn 0.000000 0.000000 -1.000000
vn 0.000000 0.000000 -1.000000
vn 0.000000 0.000000 -1.000000
vn 0.000000 0.000000 -1.000000
vn 0.000000 0.000000 -1.000000
vn 0.000000 0.000000 -1.000000
vn 0.000000 0.000000 -1.000000
vn 0.000000 0.000000 -1.000000
vn 0.000000 -1.000000 0.000000
vn 0.000000 -1.000000 0.000000
vn 0.000000 -1.000000 0.000000
vn 0.000000 -1.000000 0.000000
vn 0.000000 0.000000 -1.000000
vn 0.000000 0.000000 -1.000000
vn 0.000000 0.000000 -1.000000
vn 0.000000 0.000000 -1.000000
vn 0.000000 0.000000 -1.000000
vn 0.000000 0.000000 -1.000000
vn 0.000000 0.000000 -1.000000
vn 0.000000 0.000000 -1.000000
vn 0.000000 0.000000 -1.000000
vn 0.000000 0.000000 -1.000000
vn 0.000000 0.000000 -1.000000
vn 0.000000 0.000000 -1.000000
vn 0.000000 -1.000000 0.000000
vn 0.000000 -1.000000 0.000000
vn 0.000000 -1.000000 0.000000
vn 0.000000 -1.000000 0.000000
vn 0.000000 -1.000000 0.000000
vn 0.000000 -1.000000 0.000000
vn 0.000000 -1.000000 0.000000
vn 0.000000 -1.000000 0.000000
vn 0.000000 0.000000 -1.000000
vn 0.000000 0.000000 -1.000000
vn 0.000000 0.000000 -1.000000
vn 0.000000 0.000000 -1.000000
vn 0.000000 0.000000 -1.000000
vn 0.000000 0.000000 -1.000000
vn 0.000000 0.000000 -1.000000
vn 0.000000 0.000000 -1.000000
vn 0.000000 0.000000 -1.000000
vn 0.000000 0.000000 -1.000000
vn 0.000000 0.000000 -1.000000
vn 0.000000 0.000000 -1.000000
vn 0.000000 0.000000 -1.000000
vn 0.000000 0.000000 -1.000000
vn 0.000000 0.000000 -1.000000
vn 0.000000 0.000000 -1.000000
vn 0.000000 -1.000000 0.000000
vn 0.000000 -1.000000 0.000000
vn 0.000000 -1.000000 0.000000
vn 0.000000 -1.000000 0.000000
vn 0.000000 0.000000 -1.000000
vn 0.000000 0.000000 -1.000000
vn 0.000000 0.000000 -1.000000
vn 0.000000 0.000000 -1.000000
vn 0.000000 0.000000 -1.000000
vn 0.000000 0.000000 -1.000000
vn 0.000000 0.000000 -1.000000
vn 0.000000 0.000000 -1.000000
vn 0.000000 -1.000000 0.000000
vn 0.000000 -1.000000 0.000000
vn 0.000000 -1.000000 0.000000
vn 0.000000 -1.000000 0.000000
vn 0.000000 0.000000 -1.000000
vn 0.000000 0.000000 -1.000000
vn 0.000000 0.000000 -1.000000
vn 0.000000 0.000000 -1.000000
vn 0.000000 0.000000 -1.000000
vn 0.000000 0.000000 -1.000000
vn 0.000000 0.000000 -1.000000
vn 0.000000 0.000000 -1.000000
vn 0.000000 -1.000000 0.000000
vn 0.000000 -1.000000 0.000000
vn 0.000000 -1.000000 0.000000
vn 0.000000 -1.000000 0.000000
vn 0.000000 -1.000000 0.000000
vn 0.000000 -1.000000 0.000000
vn 0.000000 -1.000000 0.000000
vn 0.000000 -1.000000 0.000000
vn 0.000000 0.000000 -1.000000
vn 0.000000 0.000000 -1.000000
vn 0.000000 0.000000 -1.000000
vn 0.000000 0.000000 -1.000000
f 1/1/1 2/2/2 3/3/3
f 3/3/3 4/4/4 5/5/5
f 3/3/3 5/5/5 6/6/6
f 5/5/5 7/7/7 6/6/6
f 5/5/5 8/8/8 7/7/7
f 7/7/7 9/9/9 6/6/6
f 7/7/7 10/10/10 9/9/9
f 9/9/9 11/11/11 6/6/6
f 9/9/9 12/12/12 11/11/11
f 6/6/6 11/11/11 13/13/13
f 6/6/6 13/13/13 14/14/14
f 11/11/11 15/15/15 13/13/13
f 16/16/16 17/17/17 18/18/18
f 19/19/19 18/18/18 20/20/20
f 20/20/20 18/18/18 21/21/21
f 22/22/22 20/20/20 21/21/21
f 23/23/23 20/20/20 22/22/22
f 24/24/24 22/22/22 21/21/21
f 25/25/25 22/22/22 24/24/24
f 26/26/26 24/24/24 21/21/21
f 27/27/27 24/24/24 26/26/26
f 26/26/26 21/21/21 28/28/28
f 29/29/29 26/26/26 28/28/28
f 28/28/28 21/21/21 30/30/30
f 31/31/31 32/32/32 33/33/33
f 31/31/31 33/33/33 34/34/34
f 35/35/35 36/36/36 31/31/31
f 35/35/35 31/31/31 37/37/37
f 33/33/33 38/38/38 39/39/39
f 33/33/33 39/39/39 40/40/40
f 41/41/41 42/42/42 35/35/35
f 41/41/41 35/35/35 43/43/43
f 44/44/44 45/45/45 41/41/41
f 44/44/44 41/41/41 46/46/46
f 39/39/39 47/47/47 48/48/48
f 39/39/39 48/48/48 49/49/49
f 48/48/48 50/50/50 51/51/51
f 48/48/48 51/51/51 52/52/52
f 53/53/53 54/54/54 55/55/55
f 53/53/53 55/55/55 56/56/56
f 57/57/57 58/58/58 59/59/59
f 57/57/57 59/59/59 60/60/60
f 61/61/61 62/62/62 63/63/63
f 61/61/61 63/63/63 64/64/64
f 65/65/65 66/66/66 67/67/67
f 65/65/65 67/67/67 68/68/68
f 69/69/69 70/70/70 71/71/71
f 69/69/69 71/71/71 72/72/72
f 73/73/73 74/74/74 75/75/75
f 73/73/73 75/75/75 76/76/76
f 77/77/77 78/78/78 79/79/79
f 77/77/77 79/79/79 80/80/80
f 81/81/81 82/82/82 83/83/83
f 81/81/81 83/83/83 84/84/84
f 85/85/85 86/86/86 87/87/87
f 85/85/85 87/87/87 88/88/88
f 89/89/89 90/90/90 91/91/91
f 89/89/89 91/91/91 92/92/92
f 93/93/93 94/94/94 95/95/95
f 93/93/93 95/95/95 96/96/96
f 97/97/97 98/98/98 99/99/99
f 97/97/97 99/99/99 100/100/100
f 101/101/101 102/102/102 103/103/103
f 101/101/101 103/103/103 104/104/104
f 105/105/105 106/106/106 107/107/107
f 105/105/105 107/107/107 108/108/108
f 109/109/109 110/110/110 111/111/111
f 109/109/109 111/111/111 112/112/112
f 113/113/113 114/114/114 115/115/115
f 113/113/113 115/115/115 116/116/116
f 117/117/117 118/118/118 119/119/119
f 117/117/117 120/120/120 118/118/118
f 121/121/121 122/122/122 120/120/120
f 121/121/121 123/123/123 122/122/122
f 124/124/124 125/125/125 123/123/123
f 124/124/124 126/126/126 125/125/125
f 127/127/127 128/128/128 126/126/126
f 127/127/127 129/129/129 128/128/128
f 130/130/130 131/131/131 129/129/129
f 130/130/130 132/132/132 131/131/131
f 133/133/133 134/134/134 132/132/132
f 133/133/133 135/135/135 134/134/134
f 136/136/136 137/137/137 135/135/135
f 136/136/136 138/138/138 137/137/137
f 139/139/139 140/140/140 141/141/141
f 139/139/139 141/141/141 142/142/142
f 143/143/143 144/144/144 145/145/145
f 143/143/143 145/145/145 146/146/146
f 147/147/147 148/148/148 149/149/149
f 147/147/147 149/149/149 150/150/150
f 151/151/151 152/152/152 153/153/153
f 151/151/151 153/153/153 154/154/154
f 155/155/155 156/156/156 157/157/157
f 155/155/155 157/157/157 158/158/158
f 159/159/159 160/160/160 161/161/161
f 159/159/159 161/161/161 162/162/162
f 163/163/163 164/164/164 165/165/165
f 163/163/163 165/165/165 166/166/166
f 167/167/167 168/168/168 169/169/169
f 167/167/167 169/169/169 170/170/170
f 171/171/171 172/172/172 173/173/173
f 171/171/171 173/173/173 174/174/174
f 175/175/175 176/176/176 177/177/177
f 175/175/175 177/177/177 178/178/178
f 179/179/179 180/180/180 181/181/181
f 179/179/179 181/181/181 182/182/182
f 183/183/183 184/184/184 185/185/185
f 183/183/183 185/185/185 186/186/186
f 187/187/187 188/188/188 189/189/189
f 187/187/187 189/189/189 190/190/190
f 191/191/191 192/192/192 193/193/193
f 191/191/191 193/193/193 194/194/194
f 195/195/195 196/196/196 197/197/197
f 195/195/195 197/197/197 198/198/198
f 199/199/199 200/200/200 201/201/201
f 199/199/199 201/201/201 202/202/202
f 203/203/203 204/204/204 205/205/205
f 203/203/203 205/205/205 206/206/206
f 207/207/207 208/208/208 209/209/209
f 207/207/207 209/209/209 210/210/210
f 211/211/211 212/212/212 213/213/213
f 211/211/211 213/213/213 214/214/214
f 215/215/215 216/216/216 217/217/217
f 215/215/215 217/217/217 218/218/218
f 219/219/219 220/220/220 221/221/221
f 219/219/219 221/221/221 222/222/222
f 223/223/223 224/224/224 225/225/225
f 223/223/223 225/225/225 226/226/226
f 227/227/227 228/228/228 229/229/229
f 227/227/227 229/229/229 230/230/230
f 231/231/231 232/232/232 233/233/233
f 231/231/231 233/233/233 234/234/234
f 235/235/235 236/236/236 237/237/237
f 235/235/235 237/237/237 238/238/238