# Object008
v -0.007500 0.052500 -0.285000
v -0.007500 0.067500 -0.285000
v -0.011250 0.067500 -0.285000
v -0.011250 0.052500 -0.285000
v -0.011250 0.067500 -0.360000
v -0.011250 0.052500 -0.285000
v -0.011250 0.067500 -0.285000
v -0.011250 0.052500 -0.300000
v -0.011250 0.052500 -0.345000
v -0.011250 0.052500 -0.360000
v -0.011250 -0.007500 -0.300000
v -0.011250 -0.007500 -0.315000
v -0.011250 -0.052500 -0.315000
v -0.011250 -0.052500 -0.330000
v -0.011250 -0.082500 -0.330000
v -0.011250 0.022500 -0.345000
v -0.011250 -0.007500 -0.360000
v -0.011250 0.022500 -0.360000
v -0.011250 -0.052500 -0.375000
v -0.011250 -0.082500 -0.390000
v -0.007500 -0.097500 -0.390000
v 0.007500 -0.097500 -0.390000
v 0.007500 -0.097500 -0.315000
v -0.007500 -0.097500 -0.315000
v -0.007500 -0.007500 -0.300000
v -0.007500 0.052500 -0.300000
v -0.011250 0.052500 -0.300000
v -0.011250 -0.007500 -0.300000
v -0.011250 0.052500 -0.360000
v -0.007500 0.052500 -0.360000
v -0.007500 0.052500 -0.345000
v -0.011250 0.052500 -0.345000
v 0.011250 -0.082500 -0.390000
v 0.011250 -0.082500 -0.330000
v 0.007500 -0.082500 -0.330000
v 0.007500 -0.082500 -0.390000
v -0.007500 -0.082500 -0.390000
v -0.007500 -0.097500 -0.390000
v -0.007500 -0.082500 -0.330000
v -0.007500 -0.097500 -0.315000
v -0.007500 -0.052500 -0.330000
v -0.007500 -0.052500 -0.315000
v -0.007500 -0.007500 -0.315000
v -0.007500 -0.052500 -0.300000
v -0.007500 -0.007500 -0.300000
v -0.007500 0.052500 -0.300000
v -0.007500 0.007500 -0.285000
v -0.007500 0.052500 -0.285000
v -0.007500 -0.007500 -0.210000
v -0.007500 0.007500 -0.210000
v -0.007500 0.052500 -0.210000
v -0.007500 0.007500 -0.195000
v -0.007500 0.022500 -0.195000
v -0.007500 0.037500 -0.195000
v -0.007500 0.067500 -0.195000
v -0.007500 0.067500 -0.285000
v -0.007500 0.052500 -0.255000
v -0.007500 0.052500 -0.270000
v -0.007500 0.037500 -0.255000
v -0.007500 0.037500 -0.270000
v -0.007500 0.022500 -0.255000
v -0.007500 0.022500 -0.240000
v -0.007500 0.037500 -0.240000
v 0.007500 -0.097500 -0.390000
v 0.007500 -0.082500 -0.390000
v 0.007500 -0.082500 -0.330000
v 0.007500 -0.097500 -0.315000
v 0.007500 -0.052500 -0.330000
v 0.007500 -0.052500 -0.315000
v 0.007500 -0.007500 -0.315000
v 0.007500 -0.007500 -0.300000
v 0.007500 -0.052500 -0.300000
v 0.007500 0.007500 -0.285000
v 0.007500 -0.007500 -0.210000
v 0.007500 0.052500 -0.300000
v 0.007500 0.007500 -0.210000
v 0.007500 0.052500 -0.285000
v 0.007500 0.052500 -0.210000
v 0.007500 0.007500 -0.195000
v 0.007500 0.022500 -0.195000
v 0.007500 0.037500 -0.195000
v 0.007500 0.067500 -0.195000
v 0.007500 0.067500 -0.285000
v 0.007500 0.052500 -0.255000
v 0.007500 0.052500 -0.270000
v 0.007500 0.037500 -0.255000
v 0.007500 0.037500 -0.270000
v 0.007500 0.022500 -0.255000
v 0.007500 0.037500 -0.240000
v 0.007500 0.022500 -0.240000
v 0.011250 -0.082500 -0.390000
v 0.011250 -0.052500 -0.375000
v 0.011250 -0.082500 -0.330000
v 0.011250 -0.007500 -0.360000
v 0.011250 0.022500 -0.345000
v 0.011250 0.022500 -0.360000
v 0.011250 0.052500 -0.345000
v 0.011250 -0.052500 -0.330000
v 0.011250 -0.052500 -0.315000
v 0.011250 -0.007500 -0.315000
v 0.011250 0.052500 -0.300000
v 0.011250 -0.007500 -0.300000
v 0.011250 0.067500 -0.360000
v 0.011250 0.052500 -0.360000
v 0.011250 0.052500 -0.285000
v 0.011250 0.067500 -0.285000
v 0.011250 -0.052500 -0.330000
v 0.011250 -0.052500 -0.315000
v 0.007500 -0.052500 -0.315000
v 0.007500 -0.052500 -0.330000
v 0.007500 0.052500 -0.270000
v 0.007500 0.037500 -0.270000
v -0.007500 0.037500 -0.270000
v -0.007500 0.052500 -0.270000
v 0.011250 0.052500 -0.360000
v 0.011250 0.052500 -0.345000
v 0.007500 0.052500 -0.345000
v 0.007500 0.052500 -0.360000
v -0.007500 -0.052500 -0.315000
v 0.007500 -0.052500 -0.315000
v 0.007500 -0.052500 -0.300000
v -0.007500 -0.052500 -0.300000
v -0.007500 0.022500 -0.360000
v -0.011250 0.022500 -0.360000
v -0.011250 0.022500 -0.345000
v -0.007500 0.022500 -0.345000
v 0.007500 0.067500 -0.195000
v 0.011250 0.067500 -0.195000
v 0.011250 0.037500 -0.195000
v 0.007500 0.037500 -0.195000
v -0.007500 0.067500 -0.195000
v -0.007500 0.037500 -0.195000
v -0.011250 0.037500 -0.195000
v -0.011250 0.067500 -0.195000
v 0.007500 0.037500 -0.255000
v -0.007500 0.037500 -0.255000
v -0.007500 0.037500 -0.240000
v 0.007500 0.037500 -0.240000
v 0.011250 -0.007500 -0.300000
v 0.011250 0.052500 -0.300000
v 0.007500 0.052500 -0.300000
v 0.007500 -0.007500 -0.300000
v -0.007500 0.052500 -0.285000
v 0.007500 0.052500 -0.285000
v 0.007500 0.052500 -0.270000
v -0.007500 0.052500 -0.270000
v -0.007500 0.037500 -0.270000
v 0.007500 0.037500 -0.270000
v 0.007500 0.037500 -0.255000
v -0.007500 0.037500 -0.255000
v -0.007500 0.022500 -0.345000
v -0.007500 0.052500 -0.345000
v -0.007500 0.052500 -0.360000
v -0.007500 0.022500 -0.360000
v 0.011250 -0.052500 -0.315000
v 0.011250 -0.007500 -0.315000
v 0.007500 -0.007500 -0.315000
v 0.007500 -0.052500 -0.315000
v -0.007500 -0.052500 -0.315000
v -0.007500 -0.007500 -0.315000
v -0.011250 -0.007500 -0.315000
v -0.011250 -0.052500 -0.315000
v -0.007500 0.022500 -0.255000
v 0.007500 0.022500 -0.255000
v 0.007500 0.022500 -0.240000
v -0.007500 0.022500 -0.240000
v 0.007500 0.052500 -0.345000
v 0.011250 0.052500 -0.345000
v 0.011250 0.022500 -0.345000
v 0.007500 0.022500 -0.345000
v -0.007500 0.007500 -0.210000
v 0.007500 0.007500 -0.210000
v 0.007500 0.007500 -0.195000
v -0.007500 0.007500 -0.195000
v 0.007500 0.022500 -0.345000
v 0.007500 0.022500 -0.360000
v 0.007500 0.052500 -0.360000
v 0.007500 0.052500 -0.345000
v 0.007500 -0.097500 -0.315000
v 0.007500 -0.052500 -0.315000
v -0.007500 -0.052500 -0.315000
v -0.007500 -0.097500 -0.315000
v 0.011250 -0.082500 -0.330000
v 0.011250 -0.052500 -0.330000
v 0.007500 -0.052500 -0.330000
v 0.007500 -0.082500 -0.330000
v -0.007500 0.052500 -0.345000
v -0.007500 0.022500 -0.345000
v -0.011250 0.022500 -0.345000
v -0.011250 0.052500 -0.345000
v 0.007500 0.007500 -0.285000
v 0.007500 0.052500 -0.285000
v -0.007500 0.052500 -0.285000
v -0.007500 0.007500 -0.285000
v -0.007500 0.052500 -0.255000
v 0.007500 0.052500 -0.255000
v 0.007500 0.052500 -0.210000
v -0.007500 0.052500 -0.210000
v 0.007500 0.022500 -0.240000
v 0.007500 0.037500 -0.240000
v -0.007500 0.037500 -0.240000
v -0.007500 0.022500 -0.240000
v 0.007500 0.037500 -0.255000
v 0.007500 0.022500 -0.255000
v -0.007500 0.022500 -0.255000
v -0.007500 0.037500 -0.255000
v 0.007500 -0.052500 -0.300000
v 0.007500 -0.007500 -0.300000
v -0.007500 -0.007500 -0.300000
v -0.007500 -0.052500 -0.300000
v -0.007500 -0.082500 -0.330000
v -0.007500 -0.052500 -0.330000
v -0.011250 -0.052500 -0.330000
v -0.011250 -0.082500 -0.330000
v 0.007500 0.052500 -0.210000
v 0.007500 0.007500 -0.210000
v -0.007500 0.007500 -0.210000
v -0.007500 0.052500 -0.210000
v 0.011250 0.052500 -0.300000
v 0.011250 0.052500 -0.285000
v 0.007500 0.052500 -0.285000
v 0.007500 0.052500 -0.300000
v -0.011250 0.052500 -0.300000
v -0.007500 0.052500 -0.300000
v -0.007500 0.052500 -0.285000
v -0.011250 0.052500 -0.285000
v -0.011250 -0.052500 -0.330000
v -0.007500 -0.052500 -0.330000
v -0.007500 -0.052500 -0.315000
v -0.011250 -0.052500 -0.315000
v -0.007500 -0.007500 -0.300000
v 0.007500 -0.007500 -0.300000
v 0.007500 -0.007500 -0.210000
v -0.007500 -0.007500 -0.210000
v 0.007500 0.007500 -0.285000
v -0.007500 0.007500 -0.285000
v -0.007500 0.007500 -0.210000
v 0.007500 0.007500 -0.210000
v 0.007500 0.022500 -0.345000
v 0.011250 0.022500 -0.345000
v 0.011250 0.022500 -0.360000
v 0.007500 0.022500 -0.360000
v 0.007500 0.007500 -0.195000
v 0.007500 0.022500 -0.195000
v -0.007500 0.022500 -0.195000
v -0.007500 0.007500 -0.195000
v 0.007500 -0.007500 -0.210000
v 0.007500 0.007500 -0.210000
v -0.007500 0.007500 -0.210000
v -0.007500 -0.007500 -0.210000
v -0.011250 -0.082500 -0.390000
v -0.007500 -0.082500 -0.390000
v -0.007500 -0.082500 -0.330000
v -0.011250 -0.082500 -0.330000
v 0.011250 -0.007500 -0.315000
v 0.011250 -0.007500 -0.300000
v 0.007500 -0.007500 -0.300000
v 0.007500 -0.007500 -0.315000
v -0.011250 -0.007500 -0.315000
v -0.007500 -0.007500 -0.315000
v -0.007500 -0.007500 -0.300000
v -0.011250 -0.007500 -0.300000
v 0.007500 0.037500 -0.255000
v 0.007500 0.052500 -0.255000
v -0.007500 0.052500 -0.255000
v -0.007500 0.037500 -0.255000
v 0.011250 0.052500 -0.285000
v 0.011250 0.067500 -0.285000
v 0.007500 0.067500 -0.285000
v 0.007500 0.052500 -0.285000
vt 0.229500 0.140600
vt 0.229500 0.148400
vt 0.231400 0.148400
vt 0.231400 0.140600
vt 0.195300 0.148400
vt 0.234400 0.140600
vt 0.234400 0.148400
vt 0.226600 0.140600
vt 0.203100 0.140600
vt 0.195300 0.140600
vt 0.226600 0.109400
vt 0.218800 0.109400
vt 0.218800 0.085900
vt 0.210900 0.085900
vt 0.210900 0.070300
vt 0.203100 0.125000
vt 0.195300 0.109400
vt 0.195300 0.125000
vt 0.187500 0.085900
vt 0.179700 0.070300
vt 0.181700 0.062900
vt 0.181700 0.069900
vt 0.216700 0.069900
vt 0.216700 0.062900
vt 0.221700 0.109400
vt 0.221700 0.140600
vt 0.223600 0.140600
vt 0.223600 0.109400
vt 0.195300 0.143600
vt 0.195300 0.145500
vt 0.203100 0.145500
vt 0.203100 0.143600
vt 0.179700 0.075200
vt 0.210900 0.075200
vt 0.210900 0.073200
vt 0.179700 0.073200
vt 0.179700 0.070300
vt 0.179700 0.062500
vt 0.210900 0.070300
vt 0.218800 0.062500
vt 0.210900 0.085900
vt 0.218800 0.085900
vt 0.218800 0.109400
vt 0.226600 0.085900
vt 0.226600 0.109400
vt 0.226600 0.140600
vt 0.234400 0.117200
vt 0.234400 0.140600
vt 0.273400 0.109400
vt 0.273400 0.117200
vt 0.273400 0.140600
vt 0.281300 0.117200
vt 0.281300 0.125000
vt 0.281300 0.132800
vt 0.281300 0.148400
vt 0.234400 0.148400
vt 0.250000 0.140600
vt 0.242200 0.140600
vt 0.250000 0.132800
vt 0.242200 0.132800
vt 0.250400 0.125400
vt 0.257800 0.125000
vt 0.257800 0.132800
vt 0.179700 0.062500
vt 0.179700 0.070300
vt 0.210900 0.070300
vt 0.218800 0.062500
vt 0.210900 0.085900
vt 0.218800 0.085900
vt 0.218800 0.109400
vt 0.226600 0.109400
vt 0.226600 0.085900
vt 0.234400 0.117200
vt 0.273400 0.109400
vt 0.226600 0.140600
vt 0.273400 0.117200
vt 0.234400 0.140600
vt 0.273400 0.140600
vt 0.281300 0.117200
vt 0.281300 0.125000
vt 0.281300 0.132800
vt 0.281300 0.148400
vt 0.234400 0.148400
vt 0.250000 0.140600
vt 0.242200 0.140600
vt 0.250000 0.132800
vt 0.242200 0.132800
vt 0.250400 0.125400
vt 0.257800 0.132800
vt 0.257800 0.125000
vt 0.179700 0.070300
vt 0.187500 0.085900
vt 0.210900 0.070300
vt 0.195300 0.109400
vt 0.203100 0.125000
vt 0.195300 0.125000
vt 0.203100 0.140600
vt 0.210900 0.085900
vt 0.218800 0.085900
vt 0.218800 0.109400
vt 0.226600 0.140600
vt 0.226600 0.109400
vt 0.195300 0.148400
vt 0.195300 0.140600
vt 0.234400 0.140600
vt 0.234400 0.148400
vt 0.211000 0.090800
vt 0.218800 0.090800
vt 0.218800 0.088900
vt 0.211000 0.088900
vt 0.257400 0.132400
vt 0.257400 0.125400
vt 0.250400 0.125400
vt 0.250400 0.132400
vt 0.195300 0.145500
vt 0.203100 0.145500
vt 0.203100 0.143600
vt 0.195300 0.143600
vt 0.250400 0.125400
vt 0.250400 0.132400
vt 0.257400 0.132400
vt 0.257400 0.125400
vt 0.203100 0.122100
vt 0.203100 0.120100
vt 0.195300 0.120100
vt 0.195300 0.122100
vt 0.284200 0.148400
vt 0.286100 0.148400
vt 0.286100 0.132800
vt 0.284200 0.132800
vt 0.286100 0.148400
vt 0.286100 0.132800
vt 0.284200 0.132800
vt 0.284200 0.148400
vt 0.257400 0.132400
vt 0.257400 0.125400
vt 0.250400 0.125400
vt 0.250400 0.132400
vt 0.221700 0.109400
vt 0.221700 0.140600
vt 0.223600 0.140600
vt 0.223600 0.109400
vt 0.250400 0.125400
vt 0.250400 0.132400
vt 0.257400 0.132400
vt 0.257400 0.125400
vt 0.250400 0.125400
vt 0.250400 0.132400
vt 0.257400 0.132400
vt 0.257400 0.125400
vt 0.203100 0.125000
vt 0.203100 0.140600
vt 0.195300 0.140600
vt 0.195300 0.125000
vt 0.213900 0.085900
vt 0.213900 0.109400
vt 0.215800 0.109400
vt 0.215800 0.085900
vt 0.213900 0.085900
vt 0.213900 0.109400
vt 0.215800 0.109400
vt 0.215800 0.085900
vt 0.250400 0.125400
vt 0.250400 0.132400
vt 0.257400 0.132400
vt 0.257400 0.125400
vt 0.206100 0.140600
vt 0.208000 0.140600
vt 0.208000 0.125000
vt 0.206100 0.125000
vt 0.250400 0.125400
vt 0.250400 0.132400
vt 0.257400 0.132400
vt 0.257400 0.125400
vt 0.203100 0.125000
vt 0.195300 0.125000
vt 0.195300 0.140600
vt 0.203100 0.140600
vt 0.211300 0.063700
vt 0.211300 0.084700
vt 0.218300 0.084700
vt 0.218300 0.063700
vt 0.206100 0.070300
vt 0.206100 0.085900
vt 0.208000 0.085900
vt 0.208000 0.070300
vt 0.208000 0.140600
vt 0.208000 0.125000
vt 0.206100 0.125000
vt 0.206100 0.140600
vt 0.227000 0.118400
vt 0.227000 0.139400
vt 0.234000 0.139400
vt 0.234000 0.118400
vt 0.251200 0.141000
vt 0.251200 0.148000
vt 0.272200 0.148000
vt 0.272200 0.141000
vt 0.250400 0.125400
vt 0.250400 0.132400
vt 0.257400 0.132400
vt 0.257400 0.125400
vt 0.257400 0.132400
vt 0.257400 0.125400
vt 0.250400 0.125400
vt 0.250400 0.132400
vt 0.219200 0.087200
vt 0.219200 0.108200
vt 0.226200 0.108200
vt 0.226200 0.087200
vt 0.206100 0.070300
vt 0.206100 0.085900
vt 0.208000 0.085900
vt 0.208000 0.070300
vt 0.280800 0.139400
vt 0.280800 0.118400
vt 0.273800 0.118400
vt 0.273800 0.139400
vt 0.226600 0.145500
vt 0.234400 0.145500
vt 0.234400 0.143600
vt 0.226600 0.143600
vt 0.226600 0.143600
vt 0.226600 0.145500
vt 0.234400 0.145500
vt 0.234400 0.143600
vt 0.211000 0.088900
vt 0.211000 0.090800
vt 0.218800 0.090800
vt 0.218800 0.088900
vt 0.229000 0.109800
vt 0.229000 0.116800
vt 0.271000 0.116800
vt 0.271000 0.109800
vt 0.271400 0.116800
vt 0.271400 0.109800
vt 0.236400 0.109800
vt 0.236400 0.116800
vt 0.203100 0.120100
vt 0.203100 0.122100
vt 0.195300 0.122100
vt 0.195300 0.120100
vt 0.250400 0.125400
vt 0.250400 0.132400
vt 0.257400 0.132400
vt 0.257400 0.125400
vt 0.250400 0.125400
vt 0.250400 0.132400
vt 0.257400 0.132400
vt 0.257400 0.125400
vt 0.179700 0.073200
vt 0.179700 0.075200
vt 0.210900 0.075200
vt 0.210900 0.073200
vt 0.218800 0.114300
vt 0.226600 0.114300
vt 0.226600 0.112300
vt 0.218800 0.112300
vt 0.218800 0.112300
vt 0.218800 0.114300
vt 0.226600 0.114300
vt 0.226600 0.112300
vt 0.250400 0.125400
vt 0.250400 0.132400
vt 0.257400 0.132400
vt 0.257400 0.125400
vt 0.229500 0.140600
vt 0.229500 0.148400
vt 0.231400 0.148400
vt 0.231400 0.140600
vn 0.000000 0.000000 1.000000
vn 0.000000 0.000000 1.000000
vn 0.000000 0.000000 1.000000
vn 0.000000 0.000000 1.000000
vn -1.000000 0.000000 0.000000
vn -1.000000 0.000000 0.000000
vn -1.000000 0.000000 0.000000
vn -1.000000 0.000000 0.000000
vn -1.000000 0.000000 0.000000
vn -1.000000 0.000000 0.000000
vn -1.000000 0.000000 0.000000
vn -1.000000 0.000000 0.000000
vn -1.000000 0.000000 0.000000
vn -1.000000 0.000000 0.000000
vn -1.000000 0.000000 0.000000
vn -1.000000 0.000000 0.000000
vn -1.000000 0.000000 0.000000
vn -1.000000 0.000000 0.000000
vn -1.000000 0.000000 0.000000
vn -1.000000 0.000000 0.000000
vn 0.000000 -1.000000 0.000000
vn 0.000000 -1.000000 0.000000
vn 0.000000 -1.000000 0.000000
vn 0.000000 -1.000000 0.000000
vn 0.000000 0.000000 1.000000
vn 0.000000 0.000000 1.000000
vn 0.000000 0.000000 1.000000
vn 0.000000 0.000000 1.000000
vn 0.000000 -1.000000 0.000000
vn 0.000000 -1.000000 0.000000
vn 0.000000 -1.000000 0.000000
vn 0.000000 -1.000000 0.000000
vn 0.000000 -1.000000 0.000000
vn 0.000000 -1.000000 0.000000
vn 0.000000 -1.000000 0.000000
vn 0.000000 -1.000000 0.000000
vn -1.000000 0.000000 0.000000
vn -1.000000 0.000000 0.000000
vn -1.000000 0.000000 0.000000
vn -1.000000 0.000000 0.000000
vn -1.000000 0.000000 0.000000
vn -1.000000 0.000000 0.000000
vn -1.000000 0.000000 0.000000
vn -1.000000 0.000000 0.000000
vn -1.000000 0.000000 0.000000
vn -1.000000 0.000000 0.000000
vn -1.000000 0.000000 0.000000
vn -1.000000 0.000000 0.000000
vn -1.000000 0.000000 0.000000
vn -1.000000 0.000000 0.000000
vn -1.000000 0.000000 0.000000
vn -1.000000 0.000000 0.000000
vn -1.000000 0.000000 0.000000
vn -1.000000 0.000000 0.000000
vn -1.000000 0.000000 0.000000
vn -1.000000 0.000000 0.000000
vn -1.000000 0.000000 0.000000
vn -1.000000 0.000000 0.000000
vn -1.000000 0.000000 0.000000
vn -1.000000 0.000000 0.000000
vn -1.000000 0.000000 0.000000
vn -1.000000 0.000000 0.000000
vn -1.000000 0.000000 0.000000
vn 1.000000 0.000000 0.000000
vn 1.000000 0.000000 0.000000
vn 1.000000 0.000000 0.000000
vn 1.000000 0.000000 0.000000
vn 1.000000 0.000000 0.000000
vn 1.000000 0.000000 0.000000
vn 1.000000 0.000000 0.000000
vn 1.000000 0.000000 0.000000
vn 1.000000 0.000000 0.000000
vn 1.000000 0.000000 0.000000
vn 1.000000 0.000000 0.000000
vn 1.000000 0.000000 0.000000
vn 1.000000 0.000000 0.000000
vn 1.000000 0.000000 0.000000
vn 1.000000 0.000000 0.000000
vn 1.000000 0.000000 0.000000
vn 1.000000 0.000000 0.000000
vn 1.000000 0.000000 0.000000
vn 1.000000 0.000000 0.000000
vn 1.000000 0.000000 0.000000
vn 1.000000 0.000000 0.000000
vn 1.000000 0.000000 0.000000
vn 1.000000 0.000000 0.000000
vn 1.000000 0.000000 0.000000
vn 1.000000 0.000000 0.000000
vn 1.000000 0.000000 0.000000
vn 1.000000 0.000000 0.000000
vn 1.000000 0.000000 0.000000
vn 1.000000 0.000000 0.000000
vn 1.000000 0.000000 0.000000
vn 1.000000 0.000000 0.000000
vn 1.000000 0.000000 0.000000
vn 1.000000 0.000000 0.000000
vn 1.000000 0.000000 0.000000
vn 1.000000 0.000000 0.000000
vn 1.000000 0.000000 0.000000
vn 1.000000 0.000000 0.000000
vn 1.000000 0.000000 0.000000
vn 1.000000 0.000000 0.000000
vn 1.000000 0.000000 0.000000
vn 1.000000 0.000000 0.000000
vn 1.000000 0.000000 0.000000
vn 1.000000 0.000000 0.000000
vn 0.000000 -1.000000 0.000000
vn 0.000000 -1.000000 0.000000
vn 0.000000 -1.000000 0.000000
vn 0.000000 -1.000000 0.000000
vn 0.000000 0.000000 -1.000000
vn 0.000000 0.000000 -1.000000
vn 0.000000 0.000000 -1.000000
vn 0.000000 0.000000 -1.000000
vn 0.000000 -1.000000 0.000000
vn 0.000000 -1.000000 0.000000
vn 0.000000 -1.000000 0.000000
vn 0.000000 -1.000000 0.000000
vn 0.000000 -1.000000 0.000000
vn 0.000000 -1.000000 0.000000
vn 0.000000 -1.000000 0.000000
vn 0.000000 -1.000000 0.000000
vn 0.000000 1.000000 0.000000
vn 0.000000 1.000000 0.000000
vn 0.000000 1.000000 0.000000
vn 0.000000 1.000000 0.000000
vn 0.000000 0.000000 -1.000000
vn 0.000000 0.000000 -1.000000
vn 0.000000 0.000000 -1.000000
vn 0.000000 0.000000 -1.000000
vn 0.000000 0.000000 -1.000000
vn 0.000000 0.000000 -1.000000
vn 0.000000 0.000000 -1.000000
vn 0.000000 0.000000 -1.000000
vn 0.000000 1.000000 0.000000
vn 0.000000 1.000000 0.000000
vn 0.000000 1.000000 0.000000
vn 0.000000 1.000000 0.000000
vn 0.000000 0.000000 1.000000
vn 0.000000 0.000000 1.000000
vn 0.000000 0.000000 1.000000
vn 0.000000 0.000000 1.000000
vn 0.000000 -1.000000 0.000000
vn 0.000000 -1.000000 0.000000
vn 0.000000 -1.000000 0.000000
vn 0.000000 -1.000000 0.000000
vn 0.000000 -1.000000 0.000000
vn 0.000000 -1.000000 0.000000
vn 0.000000 -1.000000 0.000000
vn 0.000000 -1.000000 0.000000
vn -1.000000 0.000000 0.000000
vn -1.000000 0.000000 0.000000
vn -1.000000 0.000000 0.000000
vn -1.000000 0.000000 0.000000
vn 0.000000 0.000000 1.000000
vn 0.000000 0.000000 1.000000
vn 0.000000 0.000000 1.000000
vn 0.000000 0.000000 1.000000
vn 0.000000 0.000000 1.000000
vn 0.000000 0.000000 1.000000
vn 0.000000 0.000000 1.000000
vn 0.000000 0.000000 1.000000
vn 0.000000 -1.000000 0.000000
vn 0.000000 -1.000000 0.000000
vn 0.000000 -1.000000 0.000000
vn 0.000000 -1.000000 0.000000
vn 0.000000 0.000000 -1.000000
vn 0.000000 0.000000 -1.000000
vn 0.000000 0.000000 -1.000000
vn 0.000000 0.000000 -1.000000
vn 0.000000 -1.000000 0.000000
vn 0.000000 -1.000000 0.000000
vn 0.000000 -1.000000 0.000000
vn 0.000000 -1.000000 0.000000
vn 1.000000 0.000000 0.000000
vn 1.000000 0.000000 0.000000
vn 1.000000 0.000000 0.000000
vn 1.000000 0.000000 0.000000
vn 0.000000 0.000000 1.000000
vn 0.000000 0.000000 1.000000
vn 0.000000 0.000000 1.000000
vn 0.000000 0.000000 1.000000
vn 0.000000 0.000000 1.000000
vn 0.000000 0.000000 1.000000
vn 0.000000 0.000000 1.000000
vn 0.000000 0.000000 1.000000
vn 0.000000 0.000000 -1.000000
vn 0.000000 0.000000 -1.000000
vn 0.000000 0.000000 -1.000000
vn 0.000000 0.000000 -1.000000
vn 0.000000 0.000000 1.000000
vn 0.000000 0.000000 1.000000
vn 0.000000 0.000000 1.000000
vn 0.000000 0.000000 1.000000
vn 0.000000 -1.000000 0.000000
vn 0.000000 -1.000000 0.000000
vn 0.000000 -1.000000 0.000000
vn 0.000000 -1.000000 0.000000
vn 0.000000 0.000000 1.000000
vn 0.000000 0.000000 1.000000
vn 0.000000 0.000000 1.000000
vn 0.000000 0.000000 1.000000
vn 0.000000 0.000000 -1.000000
vn 0.000000 0.000000 -1.000000
vn 0.000000 0.000000 -1.000000
vn 0.000000 0.000000 -1.000000
vn 0.000000 0.000000 1.000000
vn 0.000000 0.000000 1.000000
vn 0.000000 0.000000 1.000000
vn 0.000000 0.000000 1.000000
vn 0.000000 0.000000 1.000000
vn 0.000000 0.000000 1.000000
vn 0.000000 0.000000 1.000000
vn 0.000000 0.000000 1.000000
vn 0.000000 0.000000 -1.000000
vn 0.000000 0.000000 -1.000000
vn 0.000000 0.000000 -1.000000
vn 0.000000 0.000000 -1.000000
vn 0.000000 -1.000000 0.000000
vn 0.000000 -1.000000 0.000000
vn 0.000000 -1.000000 0.000000
vn 0.000000 -1.000000 0.000000
vn 0.000000 -1.000000 0.000000
vn 0.000000 -1.000000 0.000000
vn 0.000000 -1.000000 0.000000
vn 0.000000 -1.000000 0.000000
vn 0.000000 -1.000000 0.000000
vn 0.000000 -1.000000 0.000000
vn 0.000000 -1.000000 0.000000
vn 0.000000 -1.000000 0.000000
vn 0.000000 -1.000000 0.000000
vn 0.000000 -1.000000 0.000000
vn 0.000000 -1.000000 0.000000
vn 0.000000 -1.000000 0.000000
vn 0.000000 1.000000 0.000000
vn 0.000000 1.000000 0.000000
vn 0.000000 1.000000 0.000000
vn 0.000000 1.000000 0.000000
vn 0.000000 1.000000 0.000000
vn 0.000000 1.000000 0.000000
vn 0.000000 1.000000 0.000000
vn 0.000000 1.000000 0.000000
vn 0.000000 0.000000 1.000000
vn 0.000000 0.000000 1.000000
vn 0.000000 0.000000 1.000000
vn 0.000000 0.000000 1.000000
vn 0.000000 0.000000 1.000000
vn 0.000000 0.000000 1.000000
vn 0.000000 0.000000 1.000000
vn 0.000000 0.000000 1.000000
vn 0.000000 -1.000000 0.000000
vn 0.000000 -1.000000 0.000000
vn 0.000000 -1.000000 0.000000
vn 0.000000 -1.000000 0.000000
vn 0.000000 -1.000000 0.000000
vn 0.000000 -1.000000 0.000000
vn 0.000000 -1.000000 0.000000
vn 0.000000 -1.000000 0.000000
vn 0.000000 -1.000000 0.000000
vn 0.000000 -1.000000 0.000000
vn 0.000000 -1.000000 0.000000
vn 0.000000 -1.000000 0.000000
vn 0.000000 0.000000 1.000000
vn 0.000000 0.000000 1.000000
vn 0.000000 0.000000 1.000000
vn 0.000000 0.000000 1.000000
vn 0.000000 0.000000 1.000000
vn 0.000000 0.000000 1.000000
vn 0.000000 0.000000 1.000000
vn 0.000000 0.000000 1.000000
f 1/1/1 2/2/2 3/3/3
f 1/1/1 3/3/3 4/4/4
f 5/5/5 6/6/6 7/7/7
f 5/5/5 8/8/8 6/6/6
f 5/5/5 9/9/9 8/8/8
f 5/5/5 10/10/10 9/9/9
f 9/9/9 11/11/11 8/8/8
f 9/9/9 12/12/12 11/11/11
f 9/9/9 13/13/13 12/12/12
f 9/9/9 14/14/14 13/13/13
f 9/9/9 15/15/15 14/14/14
f 9/9/9 16/16/16 15/15/15
f 16/16/16 17/17/17 15/15/15
f 18/18/18 17/17/17 16/16/16
f 17/17/17 19/19/19 15/15/15
f 19/19/19 20/20/20 15/15/15
f 21/21/21 22/22/22 23/23/23
f 21/21/21 23/23/23 24/24/24
f 25/25/25 26/26/26 27/27/27
f 25/25/25 27/27/27 28/28/28
f 29/29/29 30/30/30 31/31/31
f 29/29/29 31/31/31 32/32/32
f 33/33/33 34/34/34 35/35/35
f 33/33/33 35/35/35 36/36/36
f 37/37/37 38/38/38 39/39/39
f 39/39/39 38/38/38 40/40/40
f 41/41/41 39/39/39 40/40/40
f 41/41/41 40/40/40 42/42/42
f 43/43/43 42/42/42 44/44/44
f 43/43/43 44/44/44 45/45/45
f 46/46/46 45/45/45 47/47/47
f 46/46/46 47/47/47 48/48/48
f 47/47/47 45/45/45 49/49/49
f 47/47/47 49/49/49 50/50/50
f 51/51/51 50/50/50 52/52/52
f 51/51/51 52/52/52 53/53/53
f 51/51/51 53/53/53 54/54/54
f 51/51/51 54/54/54 55/55/55
f 56/56/56 51/51/51 55/55/55
f 56/56/56 57/57/57 51/51/51
f 56/56/56 48/48/48 58/58/58
f 56/56/56 58/58/58 57/57/57
f 59/59/59 57/57/57 58/58/58
f 59/59/59 58/58/58 60/60/60
f 59/59/59 61/61/61 62/62/62
f 59/59/59 62/62/62 63/63/63
f 64/64/64 65/65/65 66/66/66
f 64/64/64 66/66/66 67/67/67
f 66/66/66 68/68/68 67/67/67
f 67/67/67 68/68/68 69/69/69
f 69/69/69 70/70/70 71/71/71
f 69/69/69 71/71/71 72/72/72
f 71/71/71 73/73/73 74/74/74
f 71/71/71 75/75/75 73/73/73
f 74/74/74 73/73/73 76/76/76
f 73/73/73 75/75/75 77/77/77
f 76/76/76 78/78/78 79/79/79
f 79/79/79 78/78/78 80/80/80
f 80/80/80 78/78/78 81/81/81
f 81/81/81 78/78/78 82/82/82
f 78/78/78 83/83/83 82/82/82
f 84/84/84 83/83/83 78/78/78
f 77/77/77 83/83/83 85/85/85
f 85/85/85 83/83/83 84/84/84
f 86/86/86 85/85/85 84/84/84
f 86/86/86 87/87/87 85/85/85
f 88/88/88 86/86/86 89/89/89
f 88/88/88 89/89/89 90/90/90
f 91/91/91 92/92/92 93/93/93
f 92/92/92 94/94/94 93/93/93
f 94/94/94 95/95/95 93/93/93
f 94/94/94 96/96/96 95/95/95
f 95/95/95 97/97/97 93/93/93
f 93/93/93 97/97/97 98/98/98
f 98/98/98 97/97/97 99/99/99
f 99/99/99 97/97/97 100/100/100
f 100/100/100 97/97/97 101/101/101
f 100/100/100 101/101/101 102/102/102
f 97/97/97 103/103/103 101/101/101
f 104/104/104 103/103/103 97/97/97
f 101/101/101 103/103/103 105/105/105
f 105/105/105 103/103/103 106/106/106
f 107/107/107 108/108/108 109/109/109
f 107/107/107 109/109/109 110/110/110
f 111/111/111 112/112/112 113/113/113
f 111/111/111 113/113/113 114/114/114
f 115/115/115 116/116/116 117/117/117
f 115/115/115 117/117/117 118/118/118
f 119/119/119 120/120/120 121/121/121
f 119/119/119 121/121/121 122/122/122
f 123/123/123 124/124/124 125/125/125
f 123/123/123 125/125/125 126/126/126
f 127/127/127 128/128/128 129/129/129
f 127/127/127 129/129/129 130/130/130
f 131/131/131 132/132/132 133/133/133
f 131/131/131 133/133/133 134/134/134
f 135/135/135 136/136/136 137/137/137
f 135/135/135 137/137/137 138/138/138
f 139/139/139 140/140/140 141/141/141
f 139/139/139 141/141/141 142/142/142
f 143/143/143 144/144/144 145/145/145
f 143/143/143 145/145/145 146/146/146
f 147/147/147 148/148/148 149/149/149
f 147/147/147 149/149/149 150/150/150
f 151/151/151 152/152/152 153/153/153
f 151/151/151 153/153/153 154/154/154
f 155/155/155 156/156/156 157/157/157
f 155/155/155 157/157/157 158/158/158
f 159/159/159 160/160/160 161/161/161
f 159/159/159 161/161/161 162/162/162
f 163/163/163 164/164/164 165/165/165
f 163/163/163 165/165/165 166/166/166
f 167/167/167 168/168/168 169/169/169
f 167/167/167 169/169/169 170/170/170
f 171/171/171 172/172/172 173/173/173
f 171/171/171 173/173/173 174/174/174
f 175/175/175 176/176/176 177/177/177
f 175/175/175 177/177/177 178/178/178
f 179/179/179 180/180/180 181/181/181
f 179/179/179 181/181/181 182/182/182
f 183/183/183 184/184/184 185/185/185
f 183/183/183 185/185/185 186/186/186
f 187/187/187 188/188/188 189/189/189
f 187/187/187 189/189/189 190/190/190
f 191/191/191 192/192/192 193/193/193
f 191/191/191 193/193/193 194/194/194
f 195/195/195 196/196/196 197/197/197
f 195/195/195 197/197/197 198/198/198
f 199/199/199 200/200/200 201/201/201
f 199/199/199 201/201/201 202/202/202
f 203/203/203 204/204/204 205/205/205
f 203/203/203 205/205/205 206/206/206
f 207/207/207 208/208/208 209/209/209
f 207/207/207 209/209/209 210/210/210
f 211/211/211 212/212/212 213/213/213
f 211/211/211 213/213/213 214/214/214
f 215/215/215 216/216/216 217/217/217
f 215/215/215 217/217/217 218/218/218
f 219/219/219 220/220/220 221/221/221
f 219/219/219 221/221/221 222/222/222
f 223/223/223 224/224/224 225/225/225
f 223/223/223 225/225/225 226/226/226
f 227/227/227 228/228/228 229/229/229
f 227/227/227 229/229/229 230/230/230
f 231/231/231 232/232/232 233/233/233
f 231/231/231 233/233/233 234/234/234
f 235/235/235 236/236/236 237/237/237
f 235/235/235 237/237/237 238/238/238
f 239/239/239 240/240/240 241/241/241
f 239/239/239 241/241/241 242/242/242
f 243/243/243 244/244/244 245/245/245
f 243/243/243 245/245/245 246/246/246
f 247/247/247 248/248/248 249/249/249
f 247/247/247 249/249/249 250/250/250
f 251/251/251 252/252/252 253/253/253
f 251/251/251 253/253/253 254/254/254
f 255/255/255 256/256/256 257/257/257
f 255/255/255 257/257/257 258/258/258
f 259/259/259 260/260/260 261/261/261
f 259/259/259 261/261/261 262/262/262
f 263/263/263 264/264/264 265/265/265
f 263/263/263 265/265/265 266/266/266
f 267/267/267 268/268/268 269/269/269
f 267/267/267 269/269/269 270/270/270