# Object002
v -0.011250 0.112500 0.255000
v -0.011250 0.097500 0.240000
v -0.011250 0.112500 0.405000
v -0.011250 0.112500 0.435000
v -0.011250 0.127500 0.420000
v -0.011250 0.127500 0.405000
v -0.011250 0.127500 0.435000
v -0.011250 0.112500 0.585000
v -0.011250 0.112500 0.615000
v -0.011250 0.127500 0.585000
v -0.011250 0.127500 0.615000
v -0.011250 0.097500 0.675000
v -0.011250 0.112500 0.675000
v -0.007500 0.127500 0.390000
v -0.007500 0.112500 0.255000
v -0.007500 0.112500 0.405000
v -0.007500 0.127500 0.405000
v 0.007500 0.112500 0.405000
v 0.007500 0.127500 0.390000
v 0.007500 0.127500 0.405000
v 0.007500 0.112500 0.255000
v 0.011250 0.112500 0.405000
v 0.011250 0.127500 0.405000
v 0.011250 0.127500 0.420000
v 0.011250 0.112500 0.435000
v 0.011250 0.127500 0.435000
v 0.011250 0.097500 0.240000
v 0.011250 0.112500 0.255000
v 0.011250 0.112500 0.585000
v 0.011250 0.112500 0.615000
v 0.011250 0.097500 0.675000
v 0.011250 0.112500 0.675000
v 0.011250 0.127500 0.615000
v 0.011250 0.127500 0.585000
v -0.007500 0.097500 0.675000
v -0.007500 0.112500 0.675000
v -0.011250 0.112500 0.675000
v -0.011250 0.097500 0.675000
v -0.007500 0.127500 0.405000
v -0.007500 0.112500 0.405000
v -0.011250 0.112500 0.405000
v -0.011250 0.127500 0.405000
v -0.007500 0.112500 0.435000
v -0.007500 0.127500 0.435000
v -0.011250 0.127500 0.435000
v -0.011250 0.112500 0.435000
v 0.011250 0.097500 0.240000
v 0.011250 0.097500 0.675000
v 0.007500 0.097500 0.675000
v 0.007500 0.097500 0.240000
v -0.007500 0.127500 0.435000
v -0.007500 0.112500 0.435000
v -0.007500 0.127500 0.570000
v -0.007500 0.112500 0.585000
v -0.007500 0.157500 0.570000
v -0.007500 0.127500 0.585000
v -0.007500 0.142500 0.585000
v -0.007500 0.157500 0.585000
v -0.007500 0.157500 0.600000
v -0.007500 0.187500 0.585000
v -0.007500 0.187500 0.600000
v -0.007500 0.187500 0.615000
v -0.007500 0.217500 0.600000
v -0.007500 0.217500 0.630000
v -0.007500 0.127500 0.630000
v -0.007500 0.142500 0.615000
v -0.007500 0.127500 0.615000
v -0.007500 0.112500 0.615000
v -0.007500 0.112500 0.675000
v -0.007500 0.127500 0.690000
v -0.007500 0.082500 0.690000
v -0.007500 0.097500 0.675000
v -0.007500 0.082500 0.240000
v -0.007500 0.097500 0.240000
v -0.011250 0.157500 0.585000
v -0.011250 0.142500 0.585000
v -0.011250 0.157500 0.600000
v -0.011250 0.142500 0.615000
v -0.011250 0.187500 0.600000
v -0.011250 0.187500 0.615000
v -0.007500 0.142500 0.585000
v 0.007500 0.142500 0.585000
v 0.007500 0.142500 0.615000
v -0.007500 0.142500 0.615000
v -0.011250 0.142500 0.585000
v -0.011250 0.142500 0.615000
v 0.007500 0.082500 0.240000
v 0.007500 0.097500 0.240000
v 0.007500 0.097500 0.675000
v 0.007500 0.082500 0.690000
v 0.007500 0.112500 0.675000
v 0.007500 0.127500 0.690000
v 0.007500 0.127500 0.630000
v 0.007500 0.112500 0.615000
v 0.007500 0.127500 0.615000
v 0.007500 0.142500 0.615000
v 0.007500 0.187500 0.615000
v 0.007500 0.217500 0.630000
v 0.007500 0.217500 0.600000
v 0.007500 0.187500 0.600000
v 0.007500 0.157500 0.600000
v 0.007500 0.187500 0.585000
v 0.007500 0.157500 0.585000
v 0.007500 0.142500 0.585000
v 0.007500 0.157500 0.570000
v 0.007500 0.127500 0.585000
v 0.007500 0.112500 0.585000
v 0.007500 0.127500 0.570000
v 0.007500 0.112500 0.435000
v 0.007500 0.127500 0.435000
v 0.007500 0.217500 0.600000
v 0.007500 0.187500 0.600000
v -0.007500 0.187500 0.600000
v -0.007500 0.217500 0.600000
v 0.011250 0.142500 0.615000
v 0.011250 0.187500 0.600000
v 0.011250 0.187500 0.615000
v 0.011250 0.157500 0.600000
v 0.011250 0.142500 0.585000
v 0.011250 0.157500 0.585000
v 0.007500 0.127500 0.585000
v 0.007500 0.142500 0.585000
v -0.007500 0.142500 0.585000
v -0.007500 0.127500 0.585000
v 0.007500 0.112500 0.585000
v 0.011250 0.112500 0.585000
v 0.011250 0.112500 0.435000
v 0.007500 0.112500 0.435000
v -0.007500 0.127500 0.585000
v -0.011250 0.127500 0.585000
v -0.011250 0.127500 0.615000
v -0.007500 0.127500 0.615000
v -0.007500 0.187500 0.600000
v -0.011250 0.187500 0.600000
v -0.011250 0.187500 0.615000
v -0.007500 0.187500 0.615000
v 0.007500 0.112500 0.405000
v 0.011250 0.112500 0.405000
v 0.011250 0.112500 0.255000
v 0.007500 0.112500 0.255000
v 0.007500 0.127500 0.585000
v 0.011250 0.127500 0.585000
v 0.011250 0.112500 0.585000
v 0.007500 0.112500 0.585000
v 0.011250 0.112500 0.435000
v 0.011250 0.127500 0.435000
v 0.007500 0.127500 0.435000
v 0.007500 0.112500 0.435000
v 0.007500 0.187500 0.615000
v 0.011250 0.187500 0.615000
v 0.011250 0.187500 0.600000
v 0.007500 0.187500 0.600000
v -0.011250 0.097500 0.240000
v -0.007500 0.097500 0.240000
v -0.007500 0.097500 0.675000
v -0.011250 0.097500 0.675000
v -0.007500 0.127500 0.585000
v -0.007500 0.112500 0.585000
v -0.011250 0.112500 0.585000
v -0.011250 0.127500 0.585000
v -0.007500 0.112500 0.615000
v -0.011250 0.112500 0.615000
v -0.011250 0.112500 0.675000
v -0.007500 0.112500 0.675000
v 0.007500 0.127500 0.405000
v 0.011250 0.127500 0.405000
v 0.011250 0.112500 0.405000
v 0.007500 0.112500 0.405000
v 0.007500 0.127500 0.585000
v -0.007500 0.127500 0.585000
v -0.007500 0.127500 0.615000
v 0.007500 0.127500 0.615000
v 0.007500 0.157500 0.585000
v 0.011250 0.157500 0.585000
v 0.011250 0.142500 0.585000
v 0.007500 0.142500 0.585000
v 0.007500 0.127500 0.630000
v 0.007500 0.217500 0.630000
v -0.007500 0.217500 0.630000
v -0.007500 0.127500 0.630000
v -0.007500 0.142500 0.615000
v -0.007500 0.187500 0.615000
v -0.011250 0.187500 0.615000
v -0.011250 0.142500 0.615000
v 0.007500 0.082500 0.690000
v 0.007500 0.127500 0.690000
v -0.007500 0.127500 0.690000
v -0.007500 0.082500 0.690000
v 0.007500 0.127500 0.435000
v -0.007500 0.127500 0.435000
v -0.007500 0.127500 0.570000
v 0.007500 0.127500 0.570000
v -0.007500 0.112500 0.255000
v -0.011250 0.112500 0.255000
v -0.011250 0.112500 0.405000
v -0.007500 0.112500 0.405000
v 0.007500 0.187500 0.585000
v -0.007500 0.187500 0.585000
v -0.007500 0.187500 0.600000
v 0.007500 0.187500 0.600000
v 0.007500 0.157500 0.570000
v -0.007500 0.157500 0.570000
v -0.007500 0.157500 0.585000
v 0.007500 0.157500 0.585000
v 0.011250 0.097500 0.675000
v 0.011250 0.112500 0.675000
v 0.007500 0.112500 0.675000
v 0.007500 0.097500 0.675000
v 0.011250 0.112500 0.615000
v 0.011250 0.127500 0.615000
v 0.007500 0.127500 0.615000
v 0.007500 0.112500 0.615000
v 0.007500 0.187500 0.600000
v 0.011250 0.187500 0.600000
v 0.011250 0.157500 0.600000
v 0.007500 0.157500 0.600000
v 0.007500 0.157500 0.600000
v 0.011250 0.157500 0.600000
v 0.011250 0.157500 0.585000
v 0.007500 0.157500 0.585000
v -0.007500 0.187500 0.600000
v -0.007500 0.157500 0.600000
v -0.011250 0.157500 0.600000
v -0.011250 0.187500 0.600000
v 0.007500 0.112500 0.675000
v 0.011250 0.112500 0.675000
v 0.011250 0.112500 0.615000
v 0.007500 0.112500 0.615000
v 0.007500 0.142500 0.615000
v 0.007500 0.127500 0.615000
v -0.007500 0.127500 0.615000
v -0.007500 0.142500 0.615000
v 0.007500 0.127500 0.615000
v 0.011250 0.127500 0.615000
v 0.011250 0.127500 0.585000
v 0.007500 0.127500 0.585000
v -0.007500 0.112500 0.615000
v -0.007500 0.127500 0.615000
v -0.011250 0.127500 0.615000
v -0.011250 0.112500 0.615000
v -0.007500 0.112500 0.435000
v -0.011250 0.112500 0.435000
v -0.011250 0.112500 0.585000
v -0.007500 0.112500 0.585000
v -0.007500 0.157500 0.585000
v -0.007500 0.142500 0.585000
v -0.011250 0.142500 0.585000
v -0.011250 0.157500 0.585000
v -0.007500 0.157500 0.585000
v -0.011250 0.157500 0.585000
v -0.011250 0.157500 0.600000
v -0.007500 0.157500 0.600000
v 0.007500 0.217500 0.600000
v -0.007500 0.217500 0.600000
v -0.007500 0.217500 0.630000
v 0.007500 0.217500 0.630000
v -0.007500 0.082500 0.240000
v 0.007500 0.082500 0.240000
v 0.007500 0.082500 0.690000
v -0.007500 0.082500 0.690000
v 0.011250 0.142500 0.615000
v 0.011250 0.187500 0.615000
v 0.007500 0.187500 0.615000
v 0.007500 0.142500 0.615000
v 0.007500 0.187500 0.585000
v 0.007500 0.157500 0.585000
v -0.007500 0.157500 0.585000
v -0.007500 0.187500 0.585000
v 0.007500 0.157500 0.570000
v 0.007500 0.127500 0.570000
v -0.007500 0.127500 0.570000
v -0.007500 0.157500 0.570000
v 0.007500 0.127500 0.630000
v -0.007500 0.127500 0.630000
v -0.007500 0.127500 0.690000
v 0.007500 0.127500 0.690000
v 0.011250 0.142500 0.585000
v 0.011250 0.142500 0.615000
v 0.007500 0.142500 0.615000
v 0.007500 0.142500 0.585000
vt 0.515600 0.171900
vt 0.507800 0.164100
vt 0.593800 0.171900
vt 0.609400 0.171900
vt 0.601600 0.179700
vt 0.593800 0.179700
vt 0.609400 0.179700
vt 0.687500 0.171900
vt 0.703100 0.171900
vt 0.687500 0.179700
vt 0.703100 0.179700
vt 0.734400 0.164100
vt 0.734400 0.171900
vt 0.585900 0.179700
vt 0.515600 0.171900
vt 0.593800 0.171900
vt 0.593800 0.179700
vt 0.593800 0.171900
vt 0.585900 0.179700
vt 0.593800 0.179700
vt 0.515600 0.171900
vt 0.593800 0.171900
vt 0.593800 0.179700
vt 0.601600 0.179700
vt 0.609400 0.171900
vt 0.609400 0.179700
vt 0.507800 0.164100
vt 0.515600 0.171900
vt 0.687500 0.171900
vt 0.703100 0.171900
vt 0.734400 0.164100
vt 0.734400 0.171900
vt 0.703100 0.179700
vt 0.687500 0.179700
vt 0.729600 0.164100
vt 0.729600 0.171900
vt 0.731500 0.171900
vt 0.731500 0.164100
vt 0.598600 0.179700
vt 0.598600 0.171900
vt 0.596700 0.171900
vt 0.596700 0.179700
vt 0.604500 0.171900
vt 0.604500 0.179700
vt 0.606400 0.179700
vt 0.606400 0.171900
vt 0.507800 0.168900
vt 0.734400 0.168900
vt 0.734400 0.167000
vt 0.507800 0.167000
vt 0.609400 0.179700
vt 0.609400 0.171900
vt 0.679700 0.179700
vt 0.687500 0.171900
vt 0.679700 0.195300
vt 0.687500 0.179700
vt 0.687500 0.187500
vt 0.687500 0.195300
vt 0.695300 0.195300
vt 0.687500 0.210900
vt 0.695300 0.210900
vt 0.703100 0.210900
vt 0.695300 0.226600
vt 0.710900 0.226600
vt 0.710900 0.179700
vt 0.703100 0.187500
vt 0.703100 0.179700
vt 0.703100 0.171900
vt 0.734400 0.171900
vt 0.742200 0.179700
vt 0.742200 0.156300
vt 0.734400 0.164100
vt 0.507800 0.156300
vt 0.507800 0.164100
vt 0.687500 0.195300
vt 0.687500 0.187500
vt 0.695300 0.195300
vt 0.703100 0.187500
vt 0.695300 0.210900
vt 0.703100 0.210900
vt 0.687500 0.191400
vt 0.687500 0.192400
vt 0.703200 0.192400
vt 0.703200 0.191400
vt 0.687500 0.190400
vt 0.703200 0.190400
vt 0.507800 0.156300
vt 0.507800 0.164100
vt 0.734400 0.164100
vt 0.742200 0.156300
vt 0.734400 0.171900
vt 0.742200 0.179700
vt 0.710900 0.179700
vt 0.703100 0.171900
vt 0.703100 0.179700
vt 0.703100 0.187500
vt 0.703100 0.210900
vt 0.710900 0.226600
vt 0.695300 0.226600
vt 0.695300 0.210900
vt 0.695300 0.195300
vt 0.687500 0.210900
vt 0.687500 0.195300
vt 0.687500 0.187500
vt 0.679700 0.195300
vt 0.687500 0.179700
vt 0.687500 0.171900
vt 0.679700 0.179700
vt 0.609400 0.171900
vt 0.609400 0.179700
vt 0.702700 0.225700
vt 0.702700 0.211800
vt 0.695700 0.211800
vt 0.695700 0.225700
vt 0.703100 0.187500
vt 0.695300 0.210900
vt 0.703100 0.210900
vt 0.695300 0.195300
vt 0.687500 0.187500
vt 0.687500 0.195300
vt 0.680100 0.180100
vt 0.680100 0.187100
vt 0.687100 0.187100
vt 0.687100 0.180100
vt 0.687600 0.167000
vt 0.687600 0.168900
vt 0.609400 0.168900
vt 0.609400 0.167000
vt 0.703100 0.176800
vt 0.703100 0.174800
vt 0.687500 0.174800
vt 0.687500 0.176800
vt 0.703100 0.208000
vt 0.703100 0.206100
vt 0.695300 0.206100
vt 0.695300 0.208000
vt 0.593800 0.167000
vt 0.593800 0.168900
vt 0.515600 0.168900
vt 0.515600 0.167000
vt 0.690400 0.179700
vt 0.692400 0.179700
vt 0.692400 0.171900
vt 0.690400 0.171900
vt 0.604500 0.171900
vt 0.604500 0.179700
vt 0.606400 0.179700
vt 0.606400 0.171900
vt 0.703100 0.206100
vt 0.703100 0.208000
vt 0.695300 0.208000
vt 0.695300 0.206100
vt 0.507800 0.167000
vt 0.507800 0.168900
vt 0.734400 0.168900
vt 0.734400 0.167000
vt 0.692400 0.179700
vt 0.692400 0.171900
vt 0.690400 0.171900
vt 0.690400 0.179700
vt 0.734400 0.168900
vt 0.734400 0.167000
vt 0.703100 0.167000
vt 0.703100 0.168900
vt 0.596700 0.179700
vt 0.598600 0.179700
vt 0.598600 0.171900
vt 0.596700 0.171900
vt 0.703100 0.176800
vt 0.703100 0.175800
vt 0.687500 0.175800
vt 0.687500 0.176800
vt 0.690400 0.195300
vt 0.692400 0.195300
vt 0.692400 0.187500
vt 0.690400 0.187500
vt 0.703500 0.182100
vt 0.703500 0.224100
vt 0.710500 0.224100
vt 0.710500 0.182100
vt 0.698200 0.187500
vt 0.698200 0.210900
vt 0.700200 0.210900
vt 0.700200 0.187500
vt 0.734700 0.157500
vt 0.734700 0.178500
vt 0.741700 0.178500
vt 0.741700 0.157500
vt 0.676000 0.179300
vt 0.676000 0.172300
vt 0.613000 0.172300
vt 0.613000 0.179300
vt 0.593800 0.168900
vt 0.593800 0.167000
vt 0.515600 0.167000
vt 0.515600 0.168900
vt 0.257400 0.132400
vt 0.257400 0.125400
vt 0.250400 0.125400
vt 0.250400 0.132400
vt 0.257400 0.132400
vt 0.257400 0.125400
vt 0.250400 0.125400
vt 0.250400 0.132400
vt 0.729600 0.164100
vt 0.729600 0.171900
vt 0.731500 0.171900
vt 0.731500 0.164100
vt 0.698200 0.171900
vt 0.698200 0.179700
vt 0.700200 0.179700
vt 0.700200 0.171900
vt 0.698200 0.210900
vt 0.700200 0.210900
vt 0.700200 0.195300
vt 0.698200 0.195300
vt 0.695300 0.190400
vt 0.695300 0.192400
vt 0.687500 0.192400
vt 0.687500 0.190400
vt 0.700200 0.210900
vt 0.700200 0.195300
vt 0.698200 0.195300
vt 0.698200 0.210900
vt 0.734400 0.167000
vt 0.734400 0.168900
vt 0.703100 0.168900
vt 0.703100 0.167000
vt 0.710500 0.187100
vt 0.710500 0.180100
vt 0.703500 0.180100
vt 0.703500 0.187100
vt 0.703100 0.174800
vt 0.703100 0.176800
vt 0.687500 0.176800
vt 0.687500 0.174800
vt 0.698200 0.171900
vt 0.698200 0.179700
vt 0.700200 0.179700
vt 0.700200 0.171900
vt 0.687600 0.168900
vt 0.687600 0.167000
vt 0.609400 0.167000
vt 0.609400 0.168900
vt 0.692400 0.195300
vt 0.692400 0.187500
vt 0.690400 0.187500
vt 0.690400 0.195300
vt 0.695300 0.192400
vt 0.695300 0.190400
vt 0.687500 0.190400
vt 0.687500 0.192400
vt 0.710100 0.226200
vt 0.710100 0.219200
vt 0.696100 0.219200
vt 0.696100 0.226200
vt 0.523900 0.156700
vt 0.523900 0.163700
vt 0.733900 0.163700
vt 0.733900 0.156700
vt 0.698200 0.187500
vt 0.698200 0.210900
vt 0.700200 0.210900
vt 0.700200 0.187500
vt 0.694900 0.210100
vt 0.694900 0.196100
vt 0.687900 0.196100
vt 0.687900 0.210100
vt 0.687100 0.194600
vt 0.687100 0.180600
vt 0.680100 0.180600
vt 0.680100 0.194600
vt 0.740600 0.179300
vt 0.740600 0.172300
vt 0.712600 0.172300
vt 0.712600 0.179300
vt 0.687500 0.192400
vt 0.703200 0.192400
vt 0.703200 0.190400
vt 0.687500 0.190400
vn -1.000000 0.000000 0.000000
vn -1.000000 0.000000 0.000000
vn -1.000000 0.000000 0.000000
vn -1.000000 0.000000 0.000000
vn -1.000000 0.000000 0.000000
vn -1.000000 0.000000 0.000000
vn -1.000000 0.000000 0.000000
vn -1.000000 0.000000 0.000000
vn -1.000000 0.000000 0.000000
vn -1.000000 0.000000 0.000000
vn -1.000000 0.000000 0.000000
vn -1.000000 0.000000 0.000000
vn -1.000000 0.000000 0.000000
vn -1.000000 0.000000 0.000000
vn -1.000000 0.000000 0.000000
vn -1.000000 0.000000 0.000000
vn -1.000000 0.000000 0.000000
vn 1.000000 0.000000 0.000000
vn 1.000000 0.000000 0.000000
vn 1.000000 0.000000 0.000000
vn 1.000000 0.000000 0.000000
vn 1.000000 0.000000 0.000000
vn 1.000000 0.000000 0.000000
vn 1.000000 0.000000 0.000000
vn 1.000000 0.000000 0.000000
vn 1.000000 0.000000 0.000000
vn 1.000000 0.000000 0.000000
vn 1.000000 0.000000 0.000000
vn 1.000000 0.000000 0.000000
vn 1.000000 0.000000 0.000000
vn 1.000000 0.000000 0.000000
vn 1.000000 0.000000 0.000000
vn 1.000000 0.000000 0.000000
vn 1.000000 0.000000 0.000000
vn 0.000000 0.000000 1.000000
vn 0.000000 0.000000 1.000000
vn 0.000000 0.000000 1.000000
vn 0.000000 0.000000 1.000000
vn 0.000000 0.000000 -1.000000
vn 0.000000 0.000000 -1.000000
vn 0.000000 0.000000 -1.000000
vn 0.000000 0.000000 -1.000000
vn 0.000000 0.000000 1.000000
vn 0.000000 0.000000 1.000000
vn 0.000000 0.000000 1.000000
vn 0.000000 0.000000 1.000000
vn 0.000000 -1.000000 0.000000
vn 0.000000 -1.000000 0.000000
vn 0.000000 -1.000000 0.000000
vn 0.000000 -1.000000 0.000000
vn -1.000000 0.000000 0.000000
vn -1.000000 0.000000 0.000000
vn -1.000000 0.000000 0.000000
vn -1.000000 0.000000 0.000000
vn -1.000000 0.000000 0.000000
vn -1.000000 0.000000 0.000000
vn -1.000000 0.000000 0.000000
vn -1.000000 0.000000 0.000000
vn -1.000000 0.000000 0.000000
vn -1.000000 0.000000 0.000000
vn -1.000000 0.000000 0.000000
vn -1.000000 0.000000 0.000000
vn -1.000000 0.000000 0.000000
vn -1.000000 0.000000 0.000000
vn -1.000000 0.000000 0.000000
vn -1.000000 0.000000 0.000000
vn -1.000000 0.000000 0.000000
vn -1.000000 0.000000 0.000000
vn -1.000000 0.000000 0.000000
vn -1.000000 0.000000 0.000000
vn -1.000000 0.000000 0.000000
vn -1.000000 0.000000 0.000000
vn -1.000000 0.000000 0.000000
vn -1.000000 0.000000 0.000000
vn -1.000000 0.000000 0.000000
vn -1.000000 0.000000 0.000000
vn -1.000000 0.000000 0.000000
vn -1.000000 0.000000 0.000000
vn -1.000000 0.000000 0.000000
vn -1.000000 0.000000 0.000000
vn 0.000000 -1.000000 0.000000
vn 0.000000 -1.000000 0.000000
vn 0.000000 -1.000000 0.000000
vn 0.000000 -1.000000 0.000000
vn 0.000000 -1.000000 0.000000
vn 0.000000 -1.000000 0.000000
vn 1.000000 0.000000 0.000000
vn 1.000000 0.000000 0.000000
vn 1.000000 0.000000 0.000000
vn 1.000000 0.000000 0.000000
vn 1.000000 0.000000 0.000000
vn 1.000000 0.000000 0.000000
vn 1.000000 0.000000 0.000000
vn 1.000000 0.000000 0.000000
vn 1.000000 0.000000 0.000000
vn 1.000000 0.000000 0.000000
vn 1.000000 0.000000 0.000000
vn 1.000000 0.000000 0.000000
vn 1.000000 0.000000 0.000000
vn 1.000000 0.000000 0.000000
vn 1.000000 0.000000 0.000000
vn 1.000000 0.000000 0.000000
vn 1.000000 0.000000 0.000000
vn 1.000000 0.000000 0.000000
vn 1.000000 0.000000 0.000000
vn 1.000000 0.000000 0.000000
vn 1.000000 0.000000 0.000000
vn 1.000000 0.000000 0.000000
vn 1.000000 0.000000 0.000000
vn 1.000000 0.000000 0.000000
vn 0.000000 0.000000 -1.000000
vn 0.000000 0.000000 -1.000000
vn 0.000000 0.000000 -1.000000
vn 0.000000 0.000000 -1.000000
vn 1.000000 0.000000 0.000000
vn 1.000000 0.000000 0.000000
vn 1.000000 0.000000 0.000000
vn 1.000000 0.000000 0.000000
vn 1.000000 0.000000 0.000000
vn 1.000000 0.000000 0.000000
vn 0.000000 0.000000 1.000000
vn 0.000000 0.000000 1.000000
vn 0.000000 0.000000 1.000000
vn 0.000000 0.000000 1.000000
vn 0.000000 1.000000 0.000000
vn 0.000000 1.000000 0.000000
vn 0.000000 1.000000 0.000000
vn 0.000000 1.000000 0.000000
vn 0.000000 1.000000 0.000000
vn 0.000000 1.000000 0.000000
vn 0.000000 1.000000 0.000000
vn 0.000000 1.000000 0.000000
vn 0.000000 1.000000 0.000000
vn 0.000000 1.000000 0.000000
vn 0.000000 1.000000 0.000000
vn 0.000000 1.000000 0.000000
vn 0.000000 1.000000 0.000000
vn 0.000000 1.000000 0.000000
vn 0.000000 1.000000 0.000000
vn 0.000000 1.000000 0.000000
vn 0.000000 0.000000 -1.000000
vn 0.000000 0.000000 -1.000000
vn 0.000000 0.000000 -1.000000
vn 0.000000 0.000000 -1.000000
vn 0.000000 0.000000 1.000000
vn 0.000000 0.000000 1.000000
vn 0.000000 0.000000 1.000000
vn 0.000000 0.000000 1.000000
vn 0.000000 1.000000 0.000000
vn 0.000000 1.000000 0.000000
vn 0.000000 1.000000 0.000000
vn 0.000000 1.000000 0.000000
vn 0.000000 -1.000000 0.000000
vn 0.000000 -1.000000 0.000000
vn 0.000000 -1.000000 0.000000
vn 0.000000 -1.000000 0.000000
vn 0.000000 0.000000 -1.000000
vn 0.000000 0.000000 -1.000000
vn 0.000000 0.000000 -1.000000
vn 0.000000 0.000000 -1.000000
vn 0.000000 1.000000 0.000000
vn 0.000000 1.000000 0.000000
vn 0.000000 1.000000 0.000000
vn 0.000000 1.000000 0.000000
vn 0.000000 0.000000 -1.000000
vn 0.000000 0.000000 -1.000000
vn 0.000000 0.000000 -1.000000
vn 0.000000 0.000000 -1.000000
vn 0.000000 1.000000 0.000000
vn 0.000000 1.000000 0.000000
vn 0.000000 1.000000 0.000000
vn 0.000000 1.000000 0.000000
vn 0.000000 0.000000 -1.000000
vn 0.000000 0.000000 -1.000000
vn 0.000000 0.000000 -1.000000
vn 0.000000 0.000000 -1.000000
vn 0.000000 0.000000 1.000000
vn 0.000000 0.000000 1.000000
vn 0.000000 0.000000 1.000000
vn 0.000000 0.000000 1.000000
vn 0.000000 0.000000 1.000000
vn 0.000000 0.000000 1.000000
vn 0.000000 0.000000 1.000000
vn 0.000000 0.000000 1.000000
vn 0.000000 0.000000 1.000000
vn 0.000000 0.000000 1.000000
vn 0.000000 0.000000 1.000000
vn 0.000000 0.000000 1.000000
vn 0.000000 1.000000 0.000000
vn 0.000000 1.000000 0.000000
vn 0.000000 1.000000 0.000000
vn 0.000000 1.000000 0.000000
vn 0.000000 1.000000 0.000000
vn 0.000000 1.000000 0.000000
vn 0.000000 1.000000 0.000000
vn 0.000000 1.000000 0.000000
vn 0.000000 1.000000 0.000000
vn 0.000000 1.000000 0.000000
vn 0.000000 1.000000 0.000000
vn 0.000000 1.000000 0.000000
vn 0.000000 1.000000 0.000000
vn 0.000000 1.000000 0.000000
vn 0.000000 1.000000 0.000000
vn 0.000000 1.000000 0.000000
vn 0.000000 0.000000 1.000000
vn 0.000000 0.000000 1.000000
vn 0.000000 0.000000 1.000000
vn 0.000000 0.000000 1.000000
vn 0.000000 0.000000 1.000000
vn 0.000000 0.000000 1.000000
vn 0.000000 0.000000 1.000000
vn 0.000000 0.000000 1.000000
vn 0.000000 0.000000 -1.000000
vn 0.000000 0.000000 -1.000000
vn 0.000000 0.000000 -1.000000
vn 0.000000 0.000000 -1.000000
vn 0.000000 1.000000 0.000000
vn 0.000000 1.000000 0.000000
vn 0.000000 1.000000 0.000000
vn 0.000000 1.000000 0.000000
vn 0.000000 0.000000 -1.000000
vn 0.000000 0.000000 -1.000000
vn 0.000000 0.000000 -1.000000
vn 0.000000 0.000000 -1.000000
vn 0.000000 1.000000 0.000000
vn 0.000000 1.000000 0.000000
vn 0.000000 1.000000 0.000000
vn 0.000000 1.000000 0.000000
vn 0.000000 0.000000 -1.000000
vn 0.000000 0.000000 -1.000000
vn 0.000000 0.000000 -1.000000
vn 0.000000 0.000000 -1.000000
vn 0.000000 1.000000 0.000000
vn 0.000000 1.000000 0.000000
vn 0.000000 1.000000 0.000000
vn 0.000000 1.000000 0.000000
vn 0.000000 0.000000 1.000000
vn 0.000000 0.000000 1.000000
vn 0.000000 0.000000 1.000000
vn 0.000000 0.000000 1.000000
vn 0.000000 1.000000 0.000000
vn 0.000000 1.000000 0.000000
vn 0.000000 1.000000 0.000000
vn 0.000000 1.000000 0.000000
vn 0.000000 0.000000 -1.000000
vn 0.000000 0.000000 -1.000000
vn 0.000000 0.000000 -1.000000
vn 0.000000 0.000000 -1.000000
vn 0.000000 1.000000 0.000000
vn 0.000000 1.000000 0.000000
vn 0.000000 1.000000 0.000000
vn 0.000000 1.000000 0.000000
vn 0.000000 1.000000 0.000000
vn 0.000000 1.000000 0.000000
vn 0.000000 1.000000 0.000000
vn 0.000000 1.000000 0.000000
vn 0.000000 -1.000000 0.000000
vn 0.000000 -1.000000 0.000000
vn 0.000000 -1.000000 0.000000
vn 0.000000 -1.000000 0.000000
vn 0.000000 0.000000 1.000000
vn 0.000000 0.000000 1.000000
vn 0.000000 0.000000 1.000000
vn 0.000000 0.000000 1.000000
vn 0.000000 0.000000 -1.000000
vn 0.000000 0.000000 -1.000000
vn 0.000000 0.000000 -1.000000
vn 0.000000 0.000000 -1.000000
vn 0.000000 0.000000 -1.000000
vn 0.000000 0.000000 -1.000000
vn 0.000000 0.000000 -1.000000
vn 0.000000 0.000000 -1.000000
vn 0.000000 1.000000 0.000000
vn 0.000000 1.000000 0.000000
vn 0.000000 1.000000 0.000000
vn 0.000000 1.000000 0.000000
vn 0.000000 -1.000000 0.000000
vn 0.000000 -1.000000 0.000000
vn 0.000000 -1.000000 0.000000
vn 0.000000 -1.000000 0.000000
f 1/1/1 2/2/2 3/3/3
f 3/3/3 2/2/2 4/4/4
f 5/5/5 3/3/3 4/4/4
f 6/6/6 3/3/3 5/5/5
f 5/5/5 4/4/4 7/7/7
f 4/4/4 2/2/2 8/8/8
f 8/8/8 2/2/2 9/9/9
f 10/10/10 8/8/8 9/9/9
f 10/10/10 9/9/9 11/11/11
f 9/9/9 2/2/2 12/12/12
f 9/9/9 12/12/12 13/13/13
f 14/14/14 15/15/15 16/16/16
f 14/14/14 16/16/16 17/17/17
f 18/18/18 19/19/19 20/20/20
f 21/21/21 19/19/19 18/18/18
f 22/22/22 23/23/23 24/24/24
f 22/22/22 24/24/24 25/25/25
f 25/25/25 24/24/24 26/26/26
f 27/27/27 22/22/22 25/25/25
f 27/27/27 28/28/28 22/22/22
f 27/27/27 25/25/25 29/29/29
f 27/27/27 29/29/29 30/30/30
f 27/27/27 30/30/30 31/31/31
f 31/31/31 30/30/30 32/32/32
f 29/29/29 33/33/33 30/30/30
f 29/29/29 34/34/34 33/33/33
f 35/35/35 36/36/36 37/37/37
f 35/35/35 37/37/37 38/38/38
f 39/39/39 40/40/40 41/41/41
f 39/39/39 41/41/41 42/42/42
f 43/43/43 44/44/44 45/45/45
f 43/43/43 45/45/45 46/46/46
f 47/47/47 48/48/48 49/49/49
f 47/47/47 49/49/49 50/50/50
f 51/51/51 52/52/52 53/53/53
f 53/53/53 52/52/52 54/54/54
f 55/55/55 53/53/53 54/54/54
f 55/55/55 54/54/54 56/56/56
f 55/55/55 56/56/56 57/57/57
f 55/55/55 57/57/57 58/58/58
f 59/59/59 60/60/60 58/58/58
f 59/59/59 61/61/61 60/60/60
f 62/62/62 63/63/63 61/61/61
f 62/62/62 64/64/64 63/63/63
f 62/62/62 65/65/65 64/64/64
f 62/62/62 66/66/66 65/65/65
f 66/66/66 67/67/67 65/65/65
f 67/67/67 68/68/68 65/65/65
f 65/65/65 68/68/68 69/69/69
f 65/65/65 69/69/69 70/70/70
f 69/69/69 71/71/71 70/70/70
f 69/69/69 72/72/72 71/71/71
f 72/72/72 73/73/73 71/71/71
f 74/74/74 73/73/73 72/72/72
f 75/75/75 76/76/76 77/77/77
f 77/77/77 76/76/76 78/78/78
f 79/79/79 77/77/77 78/78/78
f 79/79/79 78/78/78 80/80/80
f 81/81/81 82/82/82 83/83/83
f 81/81/81 83/83/83 84/84/84
f 85/85/85 81/81/81 84/84/84
f 85/85/85 84/84/84 86/86/86
f 87/87/87 88/88/88 89/89/89
f 87/87/87 89/89/89 90/90/90
f 89/89/89 91/91/91 90/90/90
f 90/90/90 91/91/91 92/92/92
f 91/91/91 93/93/93 92/92/92
f 94/94/94 93/93/93 91/91/91
f 94/94/94 95/95/95 93/93/93
f 95/95/95 96/96/96 93/93/93
f 96/96/96 97/97/97 93/93/93
f 93/93/93 97/97/97 98/98/98
f 97/97/97 99/99/99 98/98/98
f 97/97/97 100/100/100 99/99/99
f 101/101/101 102/102/102 100/100/100
f 101/101/101 103/103/103 102/102/102
f 104/104/104 105/105/105 103/103/103
f 106/106/106 105/105/105 104/104/104
f 107/107/107 105/105/105 106/106/106
f 108/108/108 105/105/105 107/107/107
f 109/109/109 108/108/108 107/107/107
f 109/109/109 110/110/110 108/108/108
f 111/111/111 112/112/112 113/113/113
f 111/111/111 113/113/113 114/114/114
f 115/115/115 116/116/116 117/117/117
f 118/118/118 116/116/116 115/115/115
f 119/119/119 118/118/118 115/115/115
f 119/119/119 120/120/120 118/118/118
f 121/121/121 122/122/122 123/123/123
f 121/121/121 123/123/123 124/124/124
f 125/125/125 126/126/126 127/127/127
f 125/125/125 127/127/127 128/128/128
f 129/129/129 130/130/130 131/131/131
f 129/129/129 131/131/131 132/132/132
f 133/133/133 134/134/134 135/135/135
f 133/133/133 135/135/135 136/136/136
f 137/137/137 138/138/138 139/139/139
f 137/137/137 139/139/139 140/140/140
f 141/141/141 142/142/142 143/143/143
f 141/141/141 143/143/143 144/144/144
f 145/145/145 146/146/146 147/147/147
f 145/145/145 147/147/147 148/148/148
f 149/149/149 150/150/150 151/151/151
f 149/149/149 151/151/151 152/152/152
f 153/153/153 154/154/154 155/155/155
f 153/153/153 155/155/155 156/156/156
f 157/157/157 158/158/158 159/159/159
f 157/157/157 159/159/159 160/160/160
f 161/161/161 162/162/162 163/163/163
f 161/161/161 163/163/163 164/164/164
f 165/165/165 166/166/166 167/167/167
f 165/165/165 167/167/167 168/168/168
f 169/169/169 170/170/170 171/171/171
f 169/169/169 171/171/171 172/172/172
f 173/173/173 174/174/174 175/175/175
f 173/173/173 175/175/175 176/176/176
f 177/177/177 178/178/178 179/179/179
f 177/177/177 179/179/179 180/180/180
f 181/181/181 182/182/182 183/183/183
f 181/181/181 183/183/183 184/184/184
f 185/185/185 186/186/186 187/187/187
f 185/185/185 187/187/187 188/188/188
f 189/189/189 190/190/190 191/191/191
f 189/189/189 191/191/191 192/192/192
f 193/193/193 194/194/194 195/195/195
f 193/193/193 195/195/195 196/196/196
f 197/197/197 198/198/198 199/199/199
f 197/197/197 199/199/199 200/200/200
f 201/201/201 202/202/202 203/203/203
f 201/201/201 203/203/203 204/204/204
f 205/205/205 206/206/206 207/207/207
f 205/205/205 207/207/207 208/208/208
f 209/209/209 210/210/210 211/211/211
f 209/209/209 211/211/211 212/212/212
f 213/213/213 214/214/214 215/215/215
f 213/213/213 215/215/215 216/216/216
f 217/217/217 218/218/218 219/219/219
f 217/217/217 219/219/219 220/220/220
f 221/221/221 222/222/222 223/223/223
f 221/221/221 223/223/223 224/224/224
f 225/225/225 226/226/226 227/227/227
f 225/225/225 227/227/227 228/228/228
f 229/229/229 230/230/230 231/231/231
f 229/229/229 231/231/231 232/232/232
f 233/233/233 234/234/234 235/235/235
f 233/233/233 235/235/235 236/236/236
f 237/237/237 238/238/238 239/239/239
f 237/237/237 239/239/239 240/240/240
f 241/241/241 242/242/242 243/243/243
f 241/241/241 243/243/243 244/244/244
f 245/245/245 246/246/246 247/247/247
f 245/245/245 247/247/247 248/248/248
f 249/249/249 250/250/250 251/251/251
f 249/249/249 251/251/251 252/252/252
f 253/253/253 254/254/254 255/255/255
f 253/253/253 255/255/255 256/256/256
f 257/257/257 258/258/258 259/259/259
f 257/257/257 259/259/259 260/260/260
f 261/261/261 262/262/262 263/263/263
f 261/261/261 263/263/263 264/264/264
f 265/265/265 266/266/266 267/267/267
f 265/265/265 267/267/267 268/268/268
f 269/269/269 270/270/270 271/271/271
f 269/269/269 271/271/271 272/272/272
f 273/273/273 274/274/274 275/275/275
f 273/273/273 275/275/275 276/276/276
f 277/277/277 278/278/278 279/279/279
f 277/277/277 279/279/279 280/280/280