# Object005
v -0.011250 -0.157500 -0.060000
v -0.011250 -0.172500 -0.060000
v -0.011250 -0.172500 -0.045000
v -0.011250 -0.007500 -0.060000
v -0.011250 -0.037500 -0.045000
v -0.011250 -0.187500 -0.030000
v -0.011250 -0.187500 -0.045000
v -0.011250 -0.067500 -0.030000
v -0.011250 -0.097500 -0.015000
v -0.011250 -0.202500 -0.030000
v -0.011250 -0.112500 0.000000
v -0.011250 -0.202500 0.015000
v -0.011250 -0.187500 0.015000
v -0.011250 -0.127500 0.015000
v -0.011250 -0.112500 0.015000
v -0.011250 -0.187500 0.030000
v -0.011250 -0.172500 0.030000
v -0.011250 -0.142500 0.030000
v -0.011250 -0.127500 0.030000
v -0.011250 -0.172500 0.045000
v -0.011250 -0.142500 0.045000
v -0.007500 -0.142500 0.045000
v -0.007500 -0.172500 0.060000
v -0.007500 -0.142500 0.060000
v -0.007500 -0.172500 0.045000
v -0.007500 -0.172500 0.030000
v -0.007500 -0.187500 0.045000
v -0.007500 -0.187500 0.030000
v -0.007500 -0.187500 0.015000
v -0.007500 -0.202500 0.030000
v -0.007500 -0.202500 0.015000
v -0.007500 -0.127500 0.030000
v -0.007500 -0.142500 0.030000
v -0.007500 -0.127500 0.045000
v -0.007500 -0.112500 0.015000
v -0.007500 -0.127500 0.015000
v -0.007500 -0.112500 0.030000
v -0.007500 -0.202500 -0.030000
v -0.007500 -0.217500 0.015000
v -0.007500 -0.217500 -0.030000
v -0.007500 -0.187500 -0.045000
v -0.007500 -0.202500 -0.045000
v -0.007500 -0.187500 -0.030000
v -0.007500 -0.172500 -0.060000
v -0.007500 -0.187500 -0.060000
v -0.007500 -0.172500 -0.045000
v 0.011250 -0.187500 -0.045000
v 0.011250 -0.187500 -0.030000
v 0.007500 -0.187500 -0.030000
v 0.007500 -0.187500 -0.045000
v -0.007500 -0.187500 0.030000
v -0.007500 -0.172500 0.030000
v -0.011250 -0.172500 0.030000
v -0.011250 -0.187500 0.030000
v -0.007500 -0.187500 -0.030000
v -0.007500 -0.202500 -0.030000
v -0.011250 -0.202500 -0.030000
v -0.011250 -0.187500 -0.030000
v -0.007500 -0.127500 0.015000
v -0.007500 -0.112500 0.015000
v -0.011250 -0.112500 0.015000
v -0.011250 -0.127500 0.015000
v 0.011250 -0.142500 0.030000
v 0.011250 -0.127500 0.015000
v 0.011250 -0.127500 0.030000
v 0.011250 -0.172500 0.030000
v 0.011250 -0.142500 0.045000
v 0.011250 -0.172500 0.045000
v 0.011250 -0.187500 0.030000
v 0.011250 -0.187500 0.015000
v 0.011250 -0.112500 0.000000
v 0.011250 -0.112500 0.015000
v 0.011250 -0.202500 0.015000
v 0.011250 -0.202500 -0.030000
v 0.011250 -0.097500 -0.015000
v 0.011250 -0.187500 -0.030000
v 0.011250 -0.067500 -0.030000
v 0.011250 -0.037500 -0.045000
v 0.011250 -0.172500 -0.045000
v 0.011250 -0.187500 -0.045000
v 0.011250 -0.007500 -0.060000
v 0.011250 -0.157500 -0.060000
v 0.011250 -0.172500 -0.060000
v 0.007500 -0.142500 0.045000
v -0.007500 -0.142500 0.045000
v -0.007500 -0.142500 0.060000
v 0.007500 -0.142500 0.060000
v -0.007500 -0.172500 0.045000
v 0.007500 -0.172500 0.045000
v 0.007500 -0.172500 0.060000
v -0.007500 -0.172500 0.060000
v 0.007500 -0.217500 0.015000
v 0.007500 -0.202500 0.015000
v -0.007500 -0.202500 0.015000
v -0.007500 -0.217500 0.015000
v 0.011250 -0.172500 0.045000
v 0.011250 -0.142500 0.045000
v 0.007500 -0.142500 0.045000
v 0.007500 -0.172500 0.045000
v 0.007500 -0.187500 -0.045000
v 0.007500 -0.202500 -0.045000
v -0.007500 -0.202500 -0.045000
v -0.007500 -0.187500 -0.045000
v 0.007500 -0.112500 0.015000
v -0.007500 -0.112500 0.015000
v -0.007500 -0.112500 0.030000
v 0.007500 -0.112500 0.030000
v 0.007500 -0.112500 0.015000
v 0.007500 -0.097500 0.015000
v -0.007500 -0.097500 0.015000
v -0.007500 -0.112500 0.015000
v 0.007500 -0.187500 -0.060000
v 0.007500 -0.172500 -0.060000
v 0.007500 -0.172500 -0.045000
v 0.007500 -0.187500 -0.045000
v 0.007500 -0.202500 -0.045000
v 0.007500 -0.187500 -0.030000
v 0.007500 -0.202500 -0.030000
v 0.007500 -0.217500 -0.030000
v 0.007500 -0.202500 0.015000
v 0.007500 -0.217500 0.015000
v 0.007500 -0.187500 0.015000
v 0.007500 -0.187500 0.030000
v 0.007500 -0.202500 0.030000
v 0.007500 -0.172500 0.030000
v 0.007500 -0.172500 0.045000
v 0.007500 -0.187500 0.045000
v 0.007500 -0.142500 0.060000
v 0.007500 -0.172500 0.060000
v 0.007500 -0.142500 0.045000
v 0.007500 -0.142500 0.030000
v 0.007500 -0.127500 0.045000
v 0.007500 -0.127500 0.030000
v 0.007500 -0.127500 0.015000
v 0.007500 -0.112500 0.030000
v 0.007500 -0.112500 0.015000
v -0.011250 -0.187500 -0.045000
v -0.007500 -0.187500 -0.045000
v -0.007500 -0.187500 -0.030000
v -0.011250 -0.187500 -0.030000
v -0.011250 -0.172500 -0.060000
v -0.007500 -0.172500 -0.060000
v -0.007500 -0.172500 -0.045000
v -0.011250 -0.172500 -0.045000
v 0.011250 -0.187500 0.015000
v 0.011250 -0.187500 0.030000
v 0.007500 -0.187500 0.030000
v 0.007500 -0.187500 0.015000
v -0.011250 -0.202500 -0.030000
v -0.007500 -0.202500 -0.030000
v -0.007500 -0.202500 0.015000
v -0.011250 -0.202500 0.015000
v -0.007500 -0.142500 0.030000
v -0.011250 -0.142500 0.030000
v -0.011250 -0.142500 0.045000
v -0.007500 -0.142500 0.045000
v -0.007500 -0.172500 0.045000
v -0.007500 -0.142500 0.045000
v -0.011250 -0.142500 0.045000
v -0.011250 -0.172500 0.045000
v 0.011250 -0.202500 0.015000
v 0.011250 -0.187500 0.015000
v 0.007500 -0.187500 0.015000
v 0.007500 -0.202500 0.015000
v 0.007500 -0.127500 0.030000
v 0.007500 -0.112500 0.030000
v -0.007500 -0.112500 0.030000
v -0.007500 -0.127500 0.030000
v -0.007500 -0.187500 0.030000
v 0.007500 -0.187500 0.030000
v 0.007500 -0.187500 0.045000
v -0.007500 -0.187500 0.045000
v 0.007500 -0.142500 0.045000
v 0.011250 -0.142500 0.045000
v 0.011250 -0.142500 0.030000
v 0.007500 -0.142500 0.030000
v 0.007500 -0.202500 -0.030000
v 0.007500 -0.217500 -0.030000
v -0.007500 -0.217500 -0.030000
v -0.007500 -0.202500 -0.030000
v -0.007500 -0.202500 0.015000
v 0.007500 -0.202500 0.015000
v 0.007500 -0.202500 0.030000
v -0.007500 -0.202500 0.030000
v -0.007500 -0.172500 -0.045000
v -0.007500 -0.187500 -0.045000
v -0.011250 -0.187500 -0.045000
v -0.011250 -0.172500 -0.045000
v 0.007500 -0.127500 0.030000
v 0.011250 -0.127500 0.030000
v 0.011250 -0.127500 0.015000
v 0.007500 -0.127500 0.015000
v 0.007500 -0.202500 0.030000
v 0.007500 -0.187500 0.030000
v -0.007500 -0.187500 0.030000
v -0.007500 -0.202500 0.030000
v -0.007500 -0.142500 0.030000
v -0.007500 -0.127500 0.030000
v -0.011250 -0.127500 0.030000
v -0.011250 -0.142500 0.030000
v 0.007500 -0.187500 0.045000
v 0.007500 -0.172500 0.045000
v -0.007500 -0.172500 0.045000
v -0.007500 -0.187500 0.045000
v 0.011250 -0.202500 -0.030000
v 0.011250 -0.202500 0.015000
v 0.007500 -0.202500 0.015000
v 0.007500 -0.202500 -0.030000
v 0.007500 -0.172500 0.060000
v 0.007500 -0.142500 0.060000
v -0.007500 -0.142500 0.060000
v -0.007500 -0.172500 0.060000
v -0.011250 -0.172500 0.030000
v -0.007500 -0.172500 0.030000
v -0.007500 -0.172500 0.045000
v -0.011250 -0.172500 0.045000
v 0.007500 -0.142500 0.045000
v 0.007500 -0.127500 0.045000
v -0.007500 -0.127500 0.045000
v -0.007500 -0.142500 0.045000
v 0.007500 -0.187500 -0.030000
v 0.011250 -0.187500 -0.030000
v 0.011250 -0.202500 -0.030000
v 0.007500 -0.202500 -0.030000
v -0.007500 -0.202500 0.015000
v -0.007500 -0.187500 0.015000
v -0.011250 -0.187500 0.015000
v -0.011250 -0.202500 0.015000
v -0.007500 -0.187500 -0.060000
v 0.007500 -0.187500 -0.060000
v 0.007500 -0.187500 -0.045000
v -0.007500 -0.187500 -0.045000
v -0.007500 -0.112500 0.000000
v -0.011250 -0.112500 0.000000
v -0.011250 -0.112500 0.015000
v -0.007500 -0.112500 0.015000
v -0.011250 -0.187500 0.015000
v -0.007500 -0.187500 0.015000
v -0.007500 -0.187500 0.030000
v -0.011250 -0.187500 0.030000
v 0.007500 -0.112500 0.015000
v 0.011250 -0.112500 0.015000
v 0.011250 -0.112500 0.000000
v 0.007500 -0.112500 0.000000
v -0.007500 -0.127500 0.015000
v -0.011250 -0.127500 0.015000
v -0.011250 -0.127500 0.030000
v -0.007500 -0.127500 0.030000
v 0.011250 -0.172500 -0.060000
v 0.011250 -0.172500 -0.045000
v 0.007500 -0.172500 -0.045000
v 0.007500 -0.172500 -0.060000
v -0.007500 -0.217500 -0.030000
v 0.007500 -0.217500 -0.030000
v 0.007500 -0.217500 0.015000
v -0.007500 -0.217500 0.015000
v 0.007500 -0.127500 0.030000
v -0.007500 -0.127500 0.030000
v -0.007500 -0.127500 0.045000
v 0.007500 -0.127500 0.045000
v 0.011250 -0.142500 0.030000
v 0.011250 -0.127500 0.030000
v 0.007500 -0.127500 0.030000
v 0.007500 -0.142500 0.030000
v 0.007500 -0.172500 -0.045000
v 0.011250 -0.172500 -0.045000
v 0.011250 -0.187500 -0.045000
v 0.007500 -0.187500 -0.045000
v 0.011250 -0.187500 0.030000
v 0.011250 -0.172500 0.030000
v 0.007500 -0.172500 0.030000
v 0.007500 -0.187500 0.030000
v 0.011250 -0.127500 0.015000
v 0.011250 -0.112500 0.015000
v 0.007500 -0.112500 0.015000
v 0.007500 -0.127500 0.015000
v -0.007500 -0.202500 -0.045000
v 0.007500 -0.202500 -0.045000
v 0.007500 -0.202500 -0.030000
v -0.007500 -0.202500 -0.030000
v 0.011250 -0.172500 0.030000
v 0.011250 -0.172500 0.045000
v 0.007500 -0.172500 0.045000
v 0.007500 -0.172500 0.030000
vt 0.351600 0.031300
vt 0.351600 0.023400
vt 0.359400 0.023400
vt 0.351600 0.109400
vt 0.359400 0.093800
vt 0.367200 0.015600
vt 0.359400 0.015600
vt 0.367200 0.078100
vt 0.375000 0.062500
vt 0.367200 0.007800
vt 0.382800 0.054700
vt 0.390600 0.007800
vt 0.390600 0.015600
vt 0.390600 0.046900
vt 0.390600 0.054700
vt 0.398400 0.015600
vt 0.398400 0.023400
vt 0.398400 0.039100
vt 0.398400 0.046900
vt 0.406300 0.023400
vt 0.406300 0.039100
vt 0.406300 0.039100
vt 0.414100 0.023400
vt 0.414100 0.039100
vt 0.406300 0.023400
vt 0.398400 0.023400
vt 0.406300 0.015600
vt 0.398400 0.015600
vt 0.390600 0.015600
vt 0.398400 0.007800
vt 0.390600 0.007800
vt 0.398400 0.046900
vt 0.398400 0.039100
vt 0.406300 0.046900
vt 0.390600 0.054700
vt 0.390600 0.046900
vt 0.398400 0.054700
vt 0.367200 0.007800
vt 0.390600 0.000000
vt 0.367200 0.000000
vt 0.359400 0.015600
vt 0.359400 0.007800
vt 0.367200 0.015600
vt 0.351600 0.023400
vt 0.351600 0.015600
vt 0.359400 0.023400
vt 0.359400 0.020500
vt 0.367200 0.020500
vt 0.367200 0.018600
vt 0.359400 0.018600
vt 0.393600 0.015600
vt 0.393600 0.023400
vt 0.395500 0.023400
vt 0.395500 0.015600
vt 0.372100 0.015600
vt 0.372100 0.007800
vt 0.370100 0.007800
vt 0.370100 0.015600
vt 0.385700 0.046900
vt 0.385700 0.054700
vt 0.387700 0.054700
vt 0.387700 0.046900
vt 0.398400 0.039100
vt 0.390600 0.046900
vt 0.398400 0.046900
vt 0.398400 0.023400
vt 0.406300 0.039100
vt 0.406300 0.023400
vt 0.398400 0.015600
vt 0.390600 0.015600
vt 0.382800 0.054700
vt 0.390600 0.054700
vt 0.390600 0.007800
vt 0.367200 0.007800
vt 0.375000 0.062500
vt 0.367200 0.015600
vt 0.367200 0.078100
vt 0.359400 0.093800
vt 0.359400 0.023400
vt 0.359400 0.015600
vt 0.351600 0.109400
vt 0.351600 0.031300
vt 0.351600 0.023400
vt 0.257400 0.132400
vt 0.257400 0.125400
vt 0.250400 0.125400
vt 0.250400 0.132400
vt 0.250400 0.125400
vt 0.250400 0.132400
vt 0.257400 0.132400
vt 0.257400 0.125400
vt 0.250400 0.125400
vt 0.250400 0.132400
vt 0.257400 0.132400
vt 0.257400 0.125400
vt 0.401400 0.023400
vt 0.401400 0.039100
vt 0.403300 0.039100
vt 0.403300 0.023400
vt 0.257400 0.132400
vt 0.257400 0.125400
vt 0.250400 0.125400
vt 0.250400 0.132400
vt 0.257400 0.132400
vt 0.257400 0.125400
vt 0.250400 0.125400
vt 0.250400 0.132400
vt 0.250400 0.125400
vt 0.250400 0.132400
vt 0.257400 0.132400
vt 0.257400 0.125400
vt 0.351600 0.015600
vt 0.351600 0.023400
vt 0.359400 0.023400
vt 0.359400 0.015600
vt 0.359400 0.007800
vt 0.367200 0.015600
vt 0.367200 0.007800
vt 0.367200 0.000000
vt 0.390600 0.007800
vt 0.390600 0.000000
vt 0.390600 0.015600
vt 0.398400 0.015600
vt 0.398400 0.007800
vt 0.398400 0.023400
vt 0.406300 0.023400
vt 0.406300 0.015600
vt 0.414100 0.039100
vt 0.414100 0.023400
vt 0.406300 0.039100
vt 0.398400 0.039100
vt 0.406300 0.046900
vt 0.398400 0.046900
vt 0.390600 0.046900
vt 0.398400 0.054700
vt 0.390600 0.054700
vt 0.359400 0.018600
vt 0.359400 0.020500
vt 0.367200 0.020500
vt 0.367200 0.018600
vt 0.351600 0.026400
vt 0.351600 0.028300
vt 0.359400 0.028300
vt 0.359400 0.026400
vt 0.390600 0.020500
vt 0.398400 0.020500
vt 0.398400 0.018600
vt 0.390600 0.018600
vt 0.367100 0.010700
vt 0.367100 0.012700
vt 0.390600 0.012700
vt 0.390600 0.010700
vt 0.406300 0.036100
vt 0.406300 0.034200
vt 0.398400 0.034200
vt 0.398400 0.036100
vt 0.401400 0.023400
vt 0.401400 0.039100
vt 0.403300 0.039100
vt 0.403300 0.023400
vt 0.385700 0.007800
vt 0.385700 0.015600
vt 0.387700 0.015600
vt 0.387700 0.007800
vt 0.250400 0.125400
vt 0.250400 0.132400
vt 0.257400 0.132400
vt 0.257400 0.125400
vt 0.250400 0.125400
vt 0.250400 0.132400
vt 0.257400 0.132400
vt 0.257400 0.125400
vt 0.406300 0.034200
vt 0.406300 0.036100
vt 0.398400 0.036100
vt 0.398400 0.034200
vt 0.257400 0.132400
vt 0.257400 0.125400
vt 0.250400 0.125400
vt 0.250400 0.132400
vt 0.250400 0.125400
vt 0.250400 0.132400
vt 0.257400 0.132400
vt 0.257400 0.125400
vt 0.364300 0.023400
vt 0.364300 0.015600
vt 0.362300 0.015600
vt 0.362300 0.023400
vt 0.398400 0.042000
vt 0.398400 0.043900
vt 0.390600 0.043900
vt 0.390600 0.042000
vt 0.250400 0.125400
vt 0.250400 0.132400
vt 0.257400 0.132400
vt 0.257400 0.125400
vt 0.393600 0.039100
vt 0.393600 0.046900
vt 0.395500 0.046900
vt 0.395500 0.039100
vt 0.250400 0.125400
vt 0.250400 0.132400
vt 0.257400 0.132400
vt 0.257400 0.125400
vt 0.367100 0.012700
vt 0.390600 0.012700
vt 0.390600 0.010700
vt 0.367100 0.010700
vt 0.406700 0.024300
vt 0.406700 0.038200
vt 0.413700 0.038200
vt 0.413700 0.024300
vt 0.398400 0.026400
vt 0.398400 0.028300
vt 0.406300 0.028300
vt 0.406300 0.026400
vt 0.250400 0.125400
vt 0.250400 0.132400
vt 0.257400 0.132400
vt 0.257400 0.125400
vt 0.370100 0.015600
vt 0.372100 0.015600
vt 0.372100 0.007800
vt 0.370100 0.007800
vt 0.385700 0.007800
vt 0.385700 0.015600
vt 0.387700 0.015600
vt 0.387700 0.007800
vt 0.250400 0.125400
vt 0.250400 0.132400
vt 0.257400 0.132400
vt 0.257400 0.125400
vt 0.390600 0.051800
vt 0.390600 0.049800
vt 0.382800 0.049800
vt 0.382800 0.051800
vt 0.390600 0.018600
vt 0.390600 0.020500
vt 0.398400 0.020500
vt 0.398400 0.018600
vt 0.390600 0.049800
vt 0.390600 0.051800
vt 0.382800 0.051800
vt 0.382800 0.049800
vt 0.398400 0.043900
vt 0.398400 0.042000
vt 0.390600 0.042000
vt 0.390600 0.043900
vt 0.351600 0.028300
vt 0.359400 0.028300
vt 0.359400 0.026400
vt 0.351600 0.026400
vt 0.368400 0.000400
vt 0.368400 0.007400
vt 0.389400 0.007400
vt 0.389400 0.000400
vt 0.257400 0.132400
vt 0.257400 0.125400
vt 0.250400 0.125400
vt 0.250400 0.132400
vt 0.393600 0.039100
vt 0.393600 0.046900
vt 0.395500 0.046900
vt 0.395500 0.039100
vt 0.362300 0.023400
vt 0.364300 0.023400
vt 0.364300 0.015600
vt 0.362300 0.015600
vt 0.393600 0.015600
vt 0.393600 0.023400
vt 0.395500 0.023400
vt 0.395500 0.015600
vt 0.385700 0.046900
vt 0.385700 0.054700
vt 0.387700 0.054700
vt 0.387700 0.046900
vt 0.250400 0.125400
vt 0.250400 0.132400
vt 0.257400 0.132400
vt 0.257400 0.125400
vt 0.398400 0.028300
vt 0.406300 0.028300
vt 0.406300 0.026400
vt 0.398400 0.026400
vn -1.000000 0.000000 0.000000
vn -1.000000 0.000000 0.000000
vn -1.000000 0.000000 0.000000
vn -1.000000 0.000000 0.000000
vn -1.000000 0.000000 0.000000
vn -1.000000 0.000000 0.000000
vn -1.000000 0.000000 0.000000
vn -1.000000 0.000000 0.000000
vn -1.000000 0.000000 0.000000
vn -1.000000 0.000000 0.000000
vn -1.000000 0.000000 0.000000
vn -1.000000 0.000000 0.000000
vn -1.000000 0.000000 0.000000
vn -1.000000 0.000000 0.000000
vn -1.000000 0.000000 0.000000
vn -1.000000 0.000000 0.000000
vn -1.000000 0.000000 0.000000
vn -1.000000 0.000000 0.000000
vn -1.000000 0.000000 0.000000
vn -1.000000 0.000000 0.000000
vn -1.000000 0.000000 0.000000
vn -1.000000 0.000000 0.000000
vn -1.000000 0.000000 0.000000
vn -1.000000 0.000000 0.000000
vn -1.000000 0.000000 0.000000
vn -1.000000 0.000000 0.000000
vn -1.000000 0.000000 0.000000
vn -1.000000 0.000000 0.000000
vn -1.000000 0.000000 0.000000
vn -1.000000 0.000000 0.000000
vn -1.000000 0.000000 0.000000
vn -1.000000 0.000000 0.000000
vn -1.000000 0.000000 0.000000
vn -1.000000 0.000000 0.000000
vn -1.000000 0.000000 0.000000
vn -1.000000 0.000000 0.000000
vn -1.000000 0.000000 0.000000
vn -1.000000 0.000000 0.000000
vn -1.000000 0.000000 0.000000
vn -1.000000 0.000000 0.000000
vn -1.000000 0.000000 0.000000
vn -1.000000 0.000000 0.000000
vn -1.000000 0.000000 0.000000
vn -1.000000 0.000000 0.000000
vn -1.000000 0.000000 0.000000
vn -1.000000 0.000000 0.000000
vn 0.000000 -1.000000 0.000000
vn 0.000000 -1.000000 0.000000
vn 0.000000 -1.000000 0.000000
vn 0.000000 -1.000000 0.000000
vn 0.000000 0.000000 1.000000
vn 0.000000 0.000000 1.000000
vn 0.000000 0.000000 1.000000
vn 0.000000 0.000000 1.000000
vn 0.000000 0.000000 -1.000000
vn 0.000000 0.000000 -1.000000
vn 0.000000 0.000000 -1.000000
vn 0.000000 0.000000 -1.000000
vn 0.000000 0.000000 1.000000
vn 0.000000 0.000000 1.000000
vn 0.000000 0.000000 1.000000
vn 0.000000 0.000000 1.000000
vn 1.000000 0.000000 0.000000
vn 1.000000 0.000000 0.000000
vn 1.000000 0.000000 0.000000
vn 1.000000 0.000000 0.000000
vn 1.000000 0.000000 0.000000
vn 1.000000 0.000000 0.000000
vn 1.000000 0.000000 0.000000
vn 1.000000 0.000000 0.000000
vn 1.000000 0.000000 0.000000
vn 1.000000 0.000000 0.000000
vn 1.000000 0.000000 0.000000
vn 1.000000 0.000000 0.000000
vn 1.000000 0.000000 0.000000
vn 1.000000 0.000000 0.000000
vn 1.000000 0.000000 0.000000
vn 1.000000 0.000000 0.000000
vn 1.000000 0.000000 0.000000
vn 1.000000 0.000000 0.000000
vn 1.000000 0.000000 0.000000
vn 1.000000 0.000000 0.000000
vn 1.000000 0.000000 0.000000
vn 0.000000 1.000000 0.000000
vn 0.000000 1.000000 0.000000
vn 0.000000 1.000000 0.000000
vn 0.000000 1.000000 0.000000
vn 0.000000 -1.000000 0.000000
vn 0.000000 -1.000000 0.000000
vn 0.000000 -1.000000 0.000000
vn 0.000000 -1.000000 0.000000
vn 0.000000 0.000000 1.000000
vn 0.000000 0.000000 1.000000
vn 0.000000 0.000000 1.000000
vn 0.000000 0.000000 1.000000
vn 0.000000 0.000000 1.000000
vn 0.000000 0.000000 1.000000
vn 0.000000 0.000000 1.000000
vn 0.000000 0.000000 1.000000
vn 0.000000 0.000000 -1.000000
vn 0.000000 0.000000 -1.000000
vn 0.000000 0.000000 -1.000000
vn 0.000000 0.000000 -1.000000
vn 0.000000 1.000000 0.000000
vn 0.000000 1.000000 0.000000
vn 0.000000 1.000000 0.000000
vn 0.000000 1.000000 0.000000
vn 0.000000 0.000000 1.000000
vn 0.000000 0.000000 1.000000
vn 0.000000 0.000000 1.000000
vn 0.000000 0.000000 1.000000
vn 1.000000 0.000000 0.000000
vn 1.000000 0.000000 0.000000
vn 1.000000 0.000000 0.000000
vn 1.000000 0.000000 0.000000
vn 1.000000 0.000000 0.000000
vn 1.000000 0.000000 0.000000
vn 1.000000 0.000000 0.000000
vn 1.000000 0.000000 0.000000
vn 1.000000 0.000000 0.000000
vn 1.000000 0.000000 0.000000
vn 1.000000 0.000000 0.000000
vn 1.000000 0.000000 0.000000
vn 1.000000 0.000000 0.000000
vn 1.000000 0.000000 0.000000
vn 1.000000 0.000000 0.000000
vn 1.000000 0.000000 0.000000
vn 1.000000 0.000000 0.000000
vn 1.000000 0.000000 0.000000
vn 1.000000 0.000000 0.000000
vn 1.000000 0.000000 0.000000
vn 1.000000 0.000000 0.000000
vn 1.000000 0.000000 0.000000
vn 1.000000 0.000000 0.000000
vn 1.000000 0.000000 0.000000
vn 1.000000 0.000000 0.000000
vn 0.000000 -1.000000 0.000000
vn 0.000000 -1.000000 0.000000
vn 0.000000 -1.000000 0.000000
vn 0.000000 -1.000000 0.000000
vn 0.000000 -1.000000 0.000000
vn 0.000000 -1.000000 0.000000
vn 0.000000 -1.000000 0.000000
vn 0.000000 -1.000000 0.000000
vn 0.000000 -1.000000 0.000000
vn 0.000000 -1.000000 0.000000
vn 0.000000 -1.000000 0.000000
vn 0.000000 -1.000000 0.000000
vn 0.000000 -1.000000 0.000000
vn 0.000000 -1.000000 0.000000
vn 0.000000 -1.000000 0.000000
vn 0.000000 -1.000000 0.000000
vn 0.000000 1.000000 0.000000
vn 0.000000 1.000000 0.000000
vn 0.000000 1.000000 0.000000
vn 0.000000 1.000000 0.000000
vn 0.000000 0.000000 1.000000
vn 0.000000 0.000000 1.000000
vn 0.000000 0.000000 1.000000
vn 0.000000 0.000000 1.000000
vn 0.000000 0.000000 1.000000
vn 0.000000 0.000000 1.000000
vn 0.000000 0.000000 1.000000
vn 0.000000 0.000000 1.000000
vn 0.000000 0.000000 1.000000
vn 0.000000 0.000000 1.000000
vn 0.000000 0.000000 1.000000
vn 0.000000 0.000000 1.000000
vn 0.000000 -1.000000 0.000000
vn 0.000000 -1.000000 0.000000
vn 0.000000 -1.000000 0.000000
vn 0.000000 -1.000000 0.000000
vn 0.000000 1.000000 0.000000
vn 0.000000 1.000000 0.000000
vn 0.000000 1.000000 0.000000
vn 0.000000 1.000000 0.000000
vn 0.000000 0.000000 -1.000000
vn 0.000000 0.000000 -1.000000
vn 0.000000 0.000000 -1.000000
vn 0.000000 0.000000 -1.000000
vn 0.000000 -1.000000 0.000000
vn 0.000000 -1.000000 0.000000
vn 0.000000 -1.000000 0.000000
vn 0.000000 -1.000000 0.000000
vn 0.000000 0.000000 -1.000000
vn 0.000000 0.000000 -1.000000
vn 0.000000 0.000000 -1.000000
vn 0.000000 0.000000 -1.000000
vn 0.000000 1.000000 0.000000
vn 0.000000 1.000000 0.000000
vn 0.000000 1.000000 0.000000
vn 0.000000 1.000000 0.000000
vn 0.000000 0.000000 1.000000
vn 0.000000 0.000000 1.000000
vn 0.000000 0.000000 1.000000
vn 0.000000 0.000000 1.000000
vn 0.000000 0.000000 1.000000
vn 0.000000 0.000000 1.000000
vn 0.000000 0.000000 1.000000
vn 0.000000 0.000000 1.000000
vn 0.000000 0.000000 1.000000
vn 0.000000 0.000000 1.000000
vn 0.000000 0.000000 1.000000
vn 0.000000 0.000000 1.000000
vn 0.000000 -1.000000 0.000000
vn 0.000000 -1.000000 0.000000
vn 0.000000 -1.000000 0.000000
vn 0.000000 -1.000000 0.000000
vn 0.000000 0.000000 1.000000
vn 0.000000 0.000000 1.000000
vn 0.000000 0.000000 1.000000
vn 0.000000 0.000000 1.000000
vn 0.000000 -1.000000 0.000000
vn 0.000000 -1.000000 0.000000
vn 0.000000 -1.000000 0.000000
vn 0.000000 -1.000000 0.000000
vn 0.000000 0.000000 1.000000
vn 0.000000 0.000000 1.000000
vn 0.000000 0.000000 1.000000
vn 0.000000 0.000000 1.000000
vn 0.000000 0.000000 -1.000000
vn 0.000000 0.000000 -1.000000
vn 0.000000 0.000000 -1.000000
vn 0.000000 0.000000 -1.000000
vn 0.000000 0.000000 1.000000
vn 0.000000 0.000000 1.000000
vn 0.000000 0.000000 1.000000
vn 0.000000 0.000000 1.000000
vn 0.000000 -1.000000 0.000000
vn 0.000000 -1.000000 0.000000
vn 0.000000 -1.000000 0.000000
vn 0.000000 -1.000000 0.000000
vn 0.000000 1.000000 0.000000
vn 0.000000 1.000000 0.000000
vn 0.000000 1.000000 0.000000
vn 0.000000 1.000000 0.000000
vn 0.000000 -1.000000 0.000000
vn 0.000000 -1.000000 0.000000
vn 0.000000 -1.000000 0.000000
vn 0.000000 -1.000000 0.000000
vn 0.000000 1.000000 0.000000
vn 0.000000 1.000000 0.000000
vn 0.000000 1.000000 0.000000
vn 0.000000 1.000000 0.000000
vn 0.000000 1.000000 0.000000
vn 0.000000 1.000000 0.000000
vn 0.000000 1.000000 0.000000
vn 0.000000 1.000000 0.000000
vn 0.000000 -1.000000 0.000000
vn 0.000000 -1.000000 0.000000
vn 0.000000 -1.000000 0.000000
vn 0.000000 -1.000000 0.000000
vn 0.000000 -1.000000 0.000000
vn 0.000000 -1.000000 0.000000
vn 0.000000 -1.000000 0.000000
vn 0.000000 -1.000000 0.000000
vn 0.000000 1.000000 0.000000
vn 0.000000 1.000000 0.000000
vn 0.000000 1.000000 0.000000
vn 0.000000 1.000000 0.000000
vn 0.000000 0.000000 1.000000
vn 0.000000 0.000000 1.000000
vn 0.000000 0.000000 1.000000
vn 0.000000 0.000000 1.000000
vn 0.000000 0.000000 -1.000000
vn 0.000000 0.000000 -1.000000
vn 0.000000 0.000000 -1.000000
vn 0.000000 0.000000 -1.000000
vn 0.000000 0.000000 1.000000
vn 0.000000 0.000000 1.000000
vn 0.000000 0.000000 1.000000
vn 0.000000 0.000000 1.000000
vn 0.000000 0.000000 1.000000
vn 0.000000 0.000000 1.000000
vn 0.000000 0.000000 1.000000
vn 0.000000 0.000000 1.000000
vn 0.000000 -1.000000 0.000000
vn 0.000000 -1.000000 0.000000
vn 0.000000 -1.000000 0.000000
vn 0.000000 -1.000000 0.000000
vn 0.000000 -1.000000 0.000000
vn 0.000000 -1.000000 0.000000
vn 0.000000 -1.000000 0.000000
vn 0.000000 -1.000000 0.000000
f 1/1/1 2/2/2 3/3/3
f 4/4/4 1/1/1 3/3/3
f 4/4/4 3/3/3 5/5/5
f 5/5/5 3/3/3 6/6/6
f 3/3/3 7/7/7 6/6/6
f 5/5/5 6/6/6 8/8/8
f 8/8/8 6/6/6 9/9/9
f 6/6/6 10/10/10 9/9/9
f 9/9/9 10/10/10 11/11/11
f 11/11/11 10/10/10 12/12/12
f 11/11/11 12/12/12 13/13/13
f 11/11/11 13/13/13 14/14/14
f 11/11/11 14/14/14 15/15/15
f 14/14/14 13/13/13 16/16/16
f 14/14/14 16/16/16 17/17/17
f 14/14/14 17/17/17 18/18/18
f 14/14/14 18/18/18 19/19/19
f 18/18/18 17/17/17 20/20/20
f 18/18/18 20/20/20 21/21/21
f 22/22/22 23/23/23 24/24/24
f 22/22/22 25/25/25 23/23/23
f 26/26/26 27/27/27 25/25/25
f 26/26/26 28/28/28 27/27/27
f 29/29/29 30/30/30 28/28/28
f 29/29/29 31/31/31 30/30/30
f 32/32/32 33/33/33 22/22/22
f 32/32/32 22/22/22 34/34/34
f 35/35/35 36/36/36 32/32/32
f 35/35/35 32/32/32 37/37/37
f 38/38/38 39/39/39 31/31/31
f 38/38/38 40/40/40 39/39/39
f 41/41/41 42/42/42 38/38/38
f 41/41/41 38/38/38 43/43/43
f 44/44/44 45/45/45 41/41/41
f 44/44/44 41/41/41 46/46/46
f 47/47/47 48/48/48 49/49/49
f 47/47/47 49/49/49 50/50/50
f 51/51/51 52/52/52 53/53/53
f 51/51/51 53/53/53 54/54/54
f 55/55/55 56/56/56 57/57/57
f 55/55/55 57/57/57 58/58/58
f 59/59/59 60/60/60 61/61/61
f 59/59/59 61/61/61 62/62/62
f 63/63/63 64/64/64 65/65/65
f 66/66/66 64/64/64 63/63/63
f 66/66/66 63/63/63 67/67/67
f 66/66/66 67/67/67 68/68/68
f 69/69/69 64/64/64 66/66/66
f 70/70/70 64/64/64 69/69/69
f 70/70/70 71/71/71 64/64/64
f 64/64/64 71/71/71 72/72/72
f 73/73/73 71/71/71 70/70/70
f 74/74/74 71/71/71 73/73/73
f 74/74/74 75/75/75 71/71/71
f 74/74/74 76/76/76 75/75/75
f 76/76/76 77/77/77 75/75/75
f 76/76/76 78/78/78 77/77/77
f 79/79/79 78/78/78 76/76/76
f 80/80/80 79/79/79 76/76/76
f 79/79/79 81/81/81 78/78/78
f 82/82/82 81/81/81 79/79/79
f 83/83/83 82/82/82 79/79/79
f 84/84/84 85/85/85 86/86/86
f 84/84/84 86/86/86 87/87/87
f 88/88/88 89/89/89 90/90/90
f 88/88/88 90/90/90 91/91/91
f 92/92/92 93/93/93 94/94/94
f 92/92/92 94/94/94 95/95/95
f 96/96/96 97/97/97 98/98/98
f 96/96/96 98/98/98 99/99/99
f 100/100/100 101/101/101 102/102/102
f 100/100/100 102/102/102 103/103/103
f 104/104/104 105/105/105 106/106/106
f 104/104/104 106/106/106 107/107/107
f 108/108/108 109/109/109 110/110/110
f 108/108/108 110/110/110 111/111/111
f 112/112/112 113/113/113 114/114/114
f 112/112/112 114/114/114 115/115/115
f 116/116/116 115/115/115 117/117/117
f 116/116/116 117/117/117 118/118/118
f 119/119/119 118/118/118 120/120/120
f 119/119/119 120/120/120 121/121/121
f 120/120/120 122/122/122 123/123/123
f 120/120/120 123/123/123 124/124/124
f 123/123/123 125/125/125 126/126/126
f 123/123/123 126/126/126 127/127/127
f 126/126/126 128/128/128 129/129/129
f 126/126/126 130/130/130 128/128/128
f 131/131/131 132/132/132 130/130/130
f 131/131/131 133/133/133 132/132/132
f 134/134/134 135/135/135 133/133/133
f 134/134/134 136/136/136 135/135/135
f 137/137/137 138/138/138 139/139/139
f 137/137/137 139/139/139 140/140/140
f 141/141/141 142/142/142 143/143/143
f 141/141/141 143/143/143 144/144/144
f 145/145/145 146/146/146 147/147/147
f 145/145/145 147/147/147 148/148/148
f 149/149/149 150/150/150 151/151/151
f 149/149/149 151/151/151 152/152/152
f 153/153/153 154/154/154 155/155/155
f 153/153/153 155/155/155 156/156/156
f 157/157/157 158/158/158 159/159/159
f 157/157/157 159/159/159 160/160/160
f 161/161/161 162/162/162 163/163/163
f 161/161/161 163/163/163 164/164/164
f 165/165/165 166/166/166 167/167/167
f 165/165/165 167/167/167 168/168/168
f 169/169/169 170/170/170 171/171/171
f 169/169/169 171/171/171 172/172/172
f 173/173/173 174/174/174 175/175/175
f 173/173/173 175/175/175 176/176/176
f 177/177/177 178/178/178 179/179/179
f 177/177/177 179/179/179 180/180/180
f 181/181/181 182/182/182 183/183/183
f 181/181/181 183/183/183 184/184/184
f 185/185/185 186/186/186 187/187/187
f 185/185/185 187/187/187 188/188/188
f 189/189/189 190/190/190 191/191/191
f 189/189/189 191/191/191 192/192/192
f 193/193/193 194/194/194 195/195/195
f 193/193/193 195/195/195 196/196/196
f 197/197/197 198/198/198 199/199/199
f 197/197/197 199/199/199 200/200/200
f 201/201/201 202/202/202 203/203/203
f 201/201/201 203/203/203 204/204/204
f 205/205/205 206/206/206 207/207/207
f 205/205/205 207/207/207 208/208/208
f 209/209/209 210/210/210 211/211/211
f 209/209/209 211/211/211 212/212/212
f 213/213/213 214/214/214 215/215/215
f 213/213/213 215/215/215 216/216/216
f 217/217/217 218/218/218 219/219/219
f 217/217/217 219/219/219 220/220/220
f 221/221/221 222/222/222 223/223/223
f 221/221/221 223/223/223 224/224/224
f 225/225/225 226/226/226 227/227/227
f 225/225/225 227/227/227 228/228/228
f 229/229/229 230/230/230 231/231/231
f 229/229/229 231/231/231 232/232/232
f 233/233/233 234/234/234 235/235/235
f 233/233/233 235/235/235 236/236/236
f 237/237/237 238/238/238 239/239/239
f 237/237/237 239/239/239 240/240/240
f 241/241/241 242/242/242 243/243/243
f 241/241/241 243/243/243 244/244/244
f 245/245/245 246/246/246 247/247/247
f 245/245/245 247/247/247 248/248/248
f 249/249/249 250/250/250 251/251/251
f 249/249/249 251/251/251 252/252/252
f 253/253/253 254/254/254 255/255/255
f 253/253/253 255/255/255 256/256/256
f 257/257/257 258/258/258 259/259/259
f 257/257/257 259/259/259 260/260/260
f 261/261/261 262/262/262 263/263/263
f 261/261/261 263/263/263 264/264/264
f 265/265/265 266/266/266 267/267/267
f 265/265/265 267/267/267 268/268/268
f 269/269/269 270/270/270 271/271/271
f 269/269/269 271/271/271 272/272/272
f 273/273/273 274/274/274 275/275/275
f 273/273/273 275/275/275 276/276/276
f 277/277/277 278/278/278 279/279/279
f 277/277/277 279/279/279 280/280/280
f 281/281/281 282/282/282 283/283/283
f 281/281/281 283/283/283 284/284/284