# Desert_Eagle
v -0.187500 0.022500 0.015000
v -0.187500 0.022500 0.011250
v -0.187500 0.007500 0.011250
v -0.082500 0.022500 0.011250
v -0.127500 0.022500 0.015000
v -0.127500 0.022500 0.011250
v -0.187500 0.022500 -0.011250
v -0.187500 0.022500 -0.015000
v -0.187500 0.007500 -0.011250
v -0.127500 0.022500 -0.015000
v -0.082500 0.022500 -0.011250
v -0.127500 0.022500 -0.011250
v -0.187500 0.112500 0.015000
v -0.022500 0.067500 0.015000
v -0.022500 0.112500 0.015000
v -0.127500 0.022500 0.015000
v -0.187500 0.022500 0.015000
v -0.187500 0.097500 0.015000
v -0.202500 0.037500 0.015000
v -0.202500 0.097500 0.015000
v -0.217500 0.022500 0.015000
v -0.217500 0.037500 0.015000
v -0.187500 0.127500 0.007500
v -0.022500 0.112500 0.007500
v -0.022500 0.127500 0.007500
v -0.187500 0.112500 0.007500
v -0.232500 0.112500 0.007500
v -0.187500 0.097500 0.007500
v -0.217500 0.097500 0.007500
v -0.217500 0.082500 0.007500
v -0.232500 0.082500 0.007500
v -0.202500 0.037500 0.007500
v -0.202500 0.082500 0.007500
v -0.217500 0.052500 0.007500
v -0.232500 0.037500 0.007500
v -0.247500 0.052500 0.007500
v -0.232500 0.022500 0.007500
v -0.247500 0.022500 0.007500
v -0.232500 0.007500 0.007500
v -0.202500 0.007500 0.007500
v -0.202500 0.022500 0.007500
v -0.217500 0.097500 0.011250
v -0.217500 0.082500 0.011250
v -0.202500 0.082500 0.011250
v -0.202500 0.097500 0.011250
v -0.232500 0.037500 0.011250
v -0.232500 0.022500 0.011250
v -0.217500 0.022500 0.011250
v -0.217500 0.037500 0.011250
v -0.202500 0.022500 0.011250
v -0.187500 0.007500 0.011250
v -0.187500 0.022500 0.011250
v -0.202500 0.007500 0.011250
v -0.187500 0.022500 0.011250
v -0.187500 0.022500 0.015000
v -0.217500 0.022500 0.015000
v -0.202500 0.022500 0.011250
v -0.217500 0.022500 0.011250
v -0.202500 0.022500 0.007500
v -0.232500 0.022500 0.011250
v -0.232500 0.022500 0.007500
v -0.202500 0.037500 0.007500
v -0.232500 0.037500 0.007500
v -0.232500 0.037500 0.011250
v -0.217500 0.037500 0.011250
v -0.217500 0.037500 0.015000
v -0.202500 0.037500 0.015000
v -0.202500 0.037500 0.015000
v -0.202500 0.082500 0.007500
v -0.202500 0.037500 0.007500
v -0.202500 0.082500 0.011250
v -0.202500 0.097500 0.011250
v -0.202500 0.097500 0.015000
v -0.187500 0.097500 0.007500
v -0.217500 0.097500 0.007500
v -0.217500 0.097500 0.011250
v -0.202500 0.097500 0.011250
v -0.202500 0.097500 0.015000
v -0.187500 0.097500 0.015000
v -0.022500 0.067500 0.015000
v -0.022500 0.067500 0.011250
v -0.022500 0.097500 0.011250
v -0.022500 0.112500 0.015000
v -0.022500 0.112500 0.007500
v -0.022500 0.097500 0.007500
v -0.202500 0.007500 -0.011250
v -0.202500 0.022500 -0.011250
v -0.187500 0.007500 -0.011250
v -0.187500 0.022500 -0.011250
v -0.217500 0.022500 -0.015000
v -0.217500 0.037500 -0.015000
v -0.202500 0.037500 -0.015000
v -0.187500 0.022500 -0.015000
v -0.187500 0.097500 -0.015000
v -0.202500 0.097500 -0.015000
v -0.187500 0.112500 -0.015000
v -0.127500 0.022500 -0.015000
v -0.022500 0.067500 -0.015000
v -0.022500 0.112500 -0.015000
v -0.202500 0.007500 -0.007500
v -0.232500 0.022500 -0.007500
v -0.202500 0.022500 -0.007500
v -0.232500 0.007500 -0.007500
v -0.247500 0.022500 -0.007500
v -0.247500 0.052500 -0.007500
v -0.232500 0.037500 -0.007500
v -0.217500 0.052500 -0.007500
v -0.202500 0.037500 -0.007500
v -0.217500 0.082500 -0.007500
v -0.202500 0.082500 -0.007500
v -0.232500 0.082500 -0.007500
v -0.232500 0.112500 -0.007500
v -0.217500 0.097500 -0.007500
v -0.187500 0.097500 -0.007500
v -0.187500 0.112500 -0.007500
v -0.187500 0.127500 -0.007500
v -0.022500 0.112500 -0.007500
v -0.022500 0.127500 -0.007500
v -0.217500 0.022500 -0.011250
v -0.232500 0.037500 -0.011250
v -0.217500 0.037500 -0.011250
v -0.232500 0.022500 -0.011250
v -0.202500 0.082500 -0.011250
v -0.217500 0.097500 -0.011250
v -0.202500 0.097500 -0.011250
v -0.217500 0.082500 -0.011250
v -0.232500 0.022500 -0.011250
v -0.202500 0.022500 -0.007500
v -0.232500 0.022500 -0.007500
v -0.217500 0.022500 -0.011250
v -0.202500 0.022500 -0.011250
v -0.217500 0.022500 -0.015000
v -0.187500 0.022500 -0.011250
v -0.187500 0.022500 -0.015000
v -0.217500 0.037500 -0.015000
v -0.202500 0.037500 -0.007500
v -0.202500 0.037500 -0.015000
v -0.217500 0.037500 -0.011250
v -0.232500 0.037500 -0.011250
v -0.232500 0.037500 -0.007500
v -0.202500 0.097500 -0.015000
v -0.202500 0.037500 -0.015000
v -0.202500 0.097500 -0.011250
v -0.202500 0.082500 -0.011250
v -0.202500 0.082500 -0.007500
v -0.202500 0.037500 -0.007500
v -0.202500 0.097500 -0.015000
v -0.187500 0.097500 -0.007500
v -0.187500 0.097500 -0.015000
v -0.202500 0.097500 -0.011250
v -0.217500 0.097500 -0.011250
v -0.217500 0.097500 -0.007500
v -0.022500 0.097500 -0.007500
v -0.022500 0.097500 -0.011250
v -0.022500 0.112500 -0.007500
v -0.022500 0.112500 -0.015000
v -0.022500 0.067500 -0.015000
v -0.022500 0.067500 -0.011250
v -0.247500 0.022500 0.007500
v -0.247500 0.052500 -0.007500
v -0.247500 0.022500 -0.007500
v -0.247500 0.052500 0.007500
v -0.232500 0.007500 0.007500
v -0.232500 0.022500 -0.007500
v -0.232500 0.007500 -0.007500
v -0.232500 0.022500 0.007500
v -0.232500 0.022500 0.011250
v -0.232500 0.037500 0.007500
v -0.232500 0.022500 0.007500
v -0.232500 0.037500 0.011250
v -0.232500 0.082500 0.007500
v -0.232500 0.112500 -0.007500
v -0.232500 0.082500 -0.007500
v -0.232500 0.112500 0.007500
v -0.217500 0.022500 0.015000
v -0.217500 0.037500 0.011250
v -0.217500 0.022500 0.011250
v -0.217500 0.037500 0.015000
v -0.217500 0.052500 0.007500
v -0.217500 0.082500 -0.007500
v -0.217500 0.052500 -0.007500
v -0.217500 0.082500 0.007500
v -0.217500 0.082500 0.011250
v -0.217500 0.097500 0.007500
v -0.217500 0.082500 0.007500
v -0.217500 0.097500 0.011250
v -0.202500 0.007500 0.011250
v -0.202500 0.022500 0.007500
v -0.202500 0.007500 0.007500
v -0.202500 0.022500 0.011250
v -0.187500 0.097500 0.015000
v -0.187500 0.112500 0.007500
v -0.187500 0.097500 0.007500
v -0.187500 0.112500 0.015000
v -0.187500 0.112500 0.007500
v -0.187500 0.127500 -0.007500
v -0.187500 0.112500 -0.007500
v -0.187500 0.127500 0.007500
v -0.022500 0.127500 0.007500
v -0.022500 0.112500 -0.007500
v -0.022500 0.127500 -0.007500
v -0.022500 0.112500 0.007500
v -0.202500 0.007500 -0.007500
v -0.232500 0.007500 0.007500
v -0.232500 0.007500 -0.007500
v -0.202500 0.007500 0.007500
v -0.187500 0.007500 0.007500
v -0.202500 0.007500 0.011250
v -0.202500 0.007500 0.007500
v -0.187500 0.007500 0.011250
v -0.232500 0.022500 -0.007500
v -0.247500 0.022500 0.007500
v -0.247500 0.022500 -0.007500
v -0.232500 0.022500 0.007500
v -0.217500 0.082500 -0.007500
v -0.232500 0.082500 0.007500
v -0.232500 0.082500 -0.007500
v -0.217500 0.082500 0.007500
v -0.202500 0.082500 0.007500
v -0.217500 0.082500 0.011250
v -0.217500 0.082500 0.007500
v -0.202500 0.082500 0.011250
v -0.217500 0.052500 0.007500
v -0.247500 0.052500 -0.007500
v -0.247500 0.052500 0.007500
v -0.217500 0.052500 -0.007500
v -0.187500 0.112500 0.007500
v -0.232500 0.112500 -0.007500
v -0.232500 0.112500 0.007500
v -0.187500 0.112500 -0.007500
v -0.022500 0.112500 0.015000
v -0.187500 0.112500 0.007500
v -0.187500 0.112500 0.015000
v -0.022500 0.112500 0.007500
v -0.022500 0.127500 0.007500
v -0.187500 0.127500 -0.007500
v -0.187500 0.127500 0.007500
v -0.022500 0.127500 -0.007500
v -0.232500 0.022500 -0.011250
v -0.232500 0.037500 -0.007500
v -0.232500 0.037500 -0.011250
v -0.232500 0.022500 -0.007500
v -0.217500 0.022500 -0.015000
v -0.217500 0.037500 -0.011250
v -0.217500 0.037500 -0.015000
v -0.217500 0.022500 -0.011250
v -0.217500 0.082500 -0.011250
v -0.217500 0.097500 -0.007500
v -0.217500 0.097500 -0.011250
v -0.217500 0.082500 -0.007500
v -0.202500 0.007500 -0.011250
v -0.202500 0.022500 -0.007500
v -0.202500 0.022500 -0.011250
v -0.202500 0.007500 -0.007500
v -0.187500 0.097500 -0.015000
v -0.187500 0.112500 -0.007500
v -0.187500 0.112500 -0.015000
v -0.187500 0.097500 -0.007500
v -0.187500 0.007500 -0.007500
v -0.202500 0.007500 -0.011250
v -0.187500 0.007500 -0.011250
v -0.202500 0.007500 -0.007500
v -0.202500 0.082500 -0.007500
v -0.217500 0.082500 -0.011250
v -0.202500 0.082500 -0.011250
v -0.217500 0.082500 -0.007500
v -0.187500 0.112500 -0.015000
v -0.022500 0.112500 -0.007500
v -0.022500 0.112500 -0.015000
v -0.187500 0.112500 -0.007500
vt 0.074200 0.171900
vt 0.070300 0.171900
vt 0.070300 0.156200
vt 0.171900 0.179700
vt 0.125000 0.183600
vt 0.125000 0.179700
vt 0.070300 0.171900
vt 0.074200 0.171900
vt 0.070300 0.156200
vt 0.125000 0.183600
vt 0.171900 0.179700
vt 0.125000 0.179700
vt 0.062500 0.265600
vt 0.234400 0.218700
vt 0.234400 0.265600
vt 0.125000 0.171900
vt 0.062500 0.171900
vt 0.062500 0.250000
vt 0.046900 0.187500
vt 0.046900 0.250000
vt 0.031300 0.171900
vt 0.031300 0.187500
vt 0.062500 0.281300
vt 0.234400 0.265600
vt 0.234400 0.281200
vt 0.062500 0.265600
vt 0.015700 0.265600
vt 0.062500 0.250000
vt 0.031300 0.250000
vt 0.031300 0.234400
vt 0.015700 0.234400
vt 0.046900 0.187500
vt 0.046900 0.234400
vt 0.031300 0.203100
vt 0.015700 0.187500
vt 0.000000 0.203100
vt 0.015700 0.171900
vt 0.000000 0.171900
vt 0.015700 0.156300
vt 0.046900 0.156300
vt 0.046900 0.171900
vt 0.031300 0.250000
vt 0.031300 0.234400
vt 0.046900 0.234400
vt 0.046900 0.250000
vt 0.015700 0.187500
vt 0.015700 0.171900
vt 0.031300 0.171900
vt 0.031300 0.187500
vt 0.046900 0.171900
vt 0.062500 0.156300
vt 0.062500 0.171900
vt 0.046900 0.156300
vt 0.062500 0.175800
vt 0.062500 0.179700
vt 0.031200 0.179700
vt 0.046900 0.175800
vt 0.031200 0.175800
vt 0.046900 0.171900
vt 0.015600 0.175800
vt 0.015700 0.171900
vt 0.046900 0.175800
vt 0.015600 0.175800
vt 0.015600 0.179700
vt 0.031200 0.179700
vt 0.031200 0.183600
vt 0.046900 0.183600
vt 0.058600 0.187500
vt 0.050800 0.234400
vt 0.050800 0.187500
vt 0.054700 0.234400
vt 0.054700 0.250000
vt 0.058600 0.250000
vt 0.062600 0.240200
vt 0.031300 0.240200
vt 0.031300 0.244100
vt 0.047000 0.244100
vt 0.047000 0.248000
vt 0.062600 0.248000
vt 0.222700 0.218800
vt 0.226600 0.218800
vt 0.226600 0.250000
vt 0.222700 0.265600
vt 0.230500 0.265600
vt 0.230500 0.250000
vt 0.046900 0.156300
vt 0.046900 0.171900
vt 0.062500 0.156300
vt 0.062500 0.171900
vt 0.031300 0.171900
vt 0.031300 0.187500
vt 0.046900 0.187500
vt 0.062500 0.171900
vt 0.062500 0.250000
vt 0.046900 0.250000
vt 0.062500 0.265600
vt 0.125000 0.171900
vt 0.234400 0.218700
vt 0.234400 0.265600
vt 0.046900 0.156300
vt 0.015700 0.171900
vt 0.046900 0.171900
vt 0.015700 0.156300
vt 0.000000 0.171900
vt 0.000000 0.203100
vt 0.015700 0.187500
vt 0.031300 0.203100
vt 0.046900 0.187500
vt 0.031300 0.234400
vt 0.046900 0.234400
vt 0.015700 0.234400
vt 0.015700 0.265600
vt 0.031300 0.250000
vt 0.062500 0.250000
vt 0.062500 0.265600
vt 0.062500 0.281300
vt 0.234400 0.265600
vt 0.234400 0.281200
vt 0.031300 0.171900
vt 0.015700 0.187500
vt 0.031300 0.187500
vt 0.015700 0.171900
vt 0.046900 0.234400
vt 0.031300 0.250000
vt 0.046900 0.250000
vt 0.031300 0.234400
vt 0.015600 0.175800
vt 0.046900 0.171900
vt 0.015700 0.171900
vt 0.031200 0.175800
vt 0.046900 0.175800
vt 0.031200 0.179700
vt 0.062500 0.175800
vt 0.062500 0.179700
vt 0.031200 0.183600
vt 0.046900 0.175800
vt 0.046900 0.183600
vt 0.031200 0.179700
vt 0.015600 0.179700
vt 0.015600 0.175800
vt 0.058600 0.250000
vt 0.058600 0.187500
vt 0.054700 0.250000
vt 0.054700 0.234400
vt 0.050800 0.234400
vt 0.050800 0.187500
vt 0.047000 0.248000
vt 0.062600 0.240200
vt 0.062600 0.248000
vt 0.047000 0.244100
vt 0.031300 0.244100
vt 0.031300 0.240200
vt 0.230500 0.250000
vt 0.226600 0.250000
vt 0.230500 0.265600
vt 0.222700 0.265600
vt 0.222700 0.218800
vt 0.226600 0.218800
vt 0.000300 0.172500
vt 0.015300 0.202500
vt 0.015300 0.172500
vt 0.000300 0.202500
vt 0.047200 0.250300
vt 0.062200 0.265300
vt 0.062200 0.250300
vt 0.047200 0.265300
vt 0.021500 0.171900
vt 0.025400 0.187500
vt 0.025400 0.171900
vt 0.021500 0.187500
vt 0.015900 0.235000
vt 0.030900 0.265000
vt 0.030900 0.235000
vt 0.015900 0.265000
vt 0.037100 0.171900
vt 0.041000 0.187500
vt 0.041000 0.171900
vt 0.037100 0.187500
vt 0.031600 0.203800
vt 0.046600 0.233700
vt 0.046600 0.203800
vt 0.031600 0.233700
vt 0.037200 0.234400
vt 0.041100 0.250000
vt 0.041100 0.234400
vt 0.037200 0.250000
vt 0.052700 0.156200
vt 0.056600 0.171800
vt 0.056600 0.156200
vt 0.052700 0.171800
vt 0.066400 0.250000
vt 0.074200 0.265600
vt 0.074200 0.250000
vt 0.066400 0.265600
vt 0.047200 0.250300
vt 0.062200 0.265300
vt 0.062200 0.250300
vt 0.047200 0.265300
vt 0.062200 0.265300
vt 0.047200 0.250300
vt 0.047200 0.265300
vt 0.062200 0.250300
vt 0.016200 0.156600
vt 0.046300 0.171600
vt 0.046300 0.156600
vt 0.016200 0.171600
vt 0.046900 0.162100
vt 0.062500 0.166000
vt 0.062500 0.162100
vt 0.046900 0.166000
vt 0.047200 0.250300
vt 0.062200 0.265300
vt 0.062200 0.250300
vt 0.047200 0.265300
vt 0.047200 0.250300
vt 0.062200 0.265300
vt 0.062200 0.250300
vt 0.047200 0.265300
vt 0.031300 0.240200
vt 0.047000 0.244100
vt 0.047000 0.240200
vt 0.031300 0.244100
vt 0.030600 0.202800
vt 0.000600 0.187800
vt 0.000600 0.202800
vt 0.030600 0.187800
vt 0.061600 0.265300
vt 0.016600 0.250300
vt 0.016600 0.265300
vt 0.061600 0.250300
vt 0.234400 0.261700
vt 0.062500 0.253900
vt 0.062500 0.261700
vt 0.234400 0.253900
vt 0.230900 0.280900
vt 0.065900 0.265900
vt 0.065900 0.280900
vt 0.230900 0.265900
vt 0.021500 0.171900
vt 0.025400 0.187500
vt 0.021500 0.187500
vt 0.025400 0.171900
vt 0.037100 0.171900
vt 0.041000 0.187500
vt 0.037100 0.187500
vt 0.041000 0.171900
vt 0.037200 0.234400
vt 0.041100 0.250000
vt 0.037200 0.250000
vt 0.041100 0.234400
vt 0.052700 0.156200
vt 0.056600 0.171800
vt 0.052700 0.171800
vt 0.056600 0.156200
vt 0.066400 0.250000
vt 0.074200 0.265600
vt 0.066400 0.265600
vt 0.074200 0.250000
vt 0.046900 0.162100
vt 0.062500 0.166000
vt 0.046900 0.166000
vt 0.062500 0.162100
vt 0.031300 0.240200
vt 0.047000 0.244100
vt 0.031300 0.244100
vt 0.047000 0.240200
vt 0.062500 0.261700
vt 0.234400 0.253900
vt 0.234400 0.261700
vt 0.062500 0.253900
vn -1.000000 0.000000 0.000000
vn -1.000000 0.000000 0.000000
vn -1.000000 0.000000 0.000000
vn 0.000000 -1.000000 0.000000
vn 0.000000 -1.000000 0.000000
vn 0.000000 -1.000000 0.000000
vn -1.000000 0.000000 0.000000
vn -1.000000 0.000000 0.000000
vn -1.000000 0.000000 0.000000
vn 0.000000 -1.000000 0.000000
vn 0.000000 -1.000000 0.000000
vn 0.000000 -1.000000 0.000000
vn 0.000000 0.000000 1.000000
vn 0.000000 0.000000 1.000000
vn 0.000000 0.000000 1.000000
vn 0.000000 0.000000 1.000000
vn 0.000000 0.000000 1.000000
vn 0.000000 0.000000 1.000000
vn 0.000000 0.000000 1.000000
vn 0.000000 0.000000 1.000000
vn 0.000000 0.000000 1.000000
vn 0.000000 0.000000 1.000000
vn 0.000000 0.000000 1.000000
vn 0.000000 0.000000 1.000000
vn 0.000000 0.000000 1.000000
vn 0.000000 0.000000 1.000000
vn 0.000000 0.000000 1.000000
vn 0.000000 0.000000 1.000000
vn 0.000000 0.000000 1.000000
vn 0.000000 0.000000 1.000000
vn 0.000000 0.000000 1.000000
vn 0.000000 0.000000 1.000000
vn 0.000000 0.000000 1.000000
vn 0.000000 0.000000 1.000000
vn 0.000000 0.000000 1.000000
vn 0.000000 0.000000 1.000000
vn 0.000000 0.000000 1.000000
vn 0.000000 0.000000 1.000000
vn 0.000000 0.000000 1.000000
vn 0.000000 0.000000 1.000000
vn 0.000000 0.000000 1.000000
vn 0.000000 0.000000 1.000000
vn 0.000000 0.000000 1.000000
vn 0.000000 0.000000 1.000000
vn 0.000000 0.000000 1.000000
vn 0.000000 0.000000 1.000000
vn 0.000000 0.000000 1.000000
vn 0.000000 0.000000 1.000000
vn 0.000000 0.000000 1.000000
vn 0.000000 0.000000 1.000000
vn 0.000000 0.000000 1.000000
vn 0.000000 0.000000 1.000000
vn 0.000000 0.000000 1.000000
vn 0.000000 -1.000000 0.000000
vn 0.000000 -1.000000 0.000000
vn 0.000000 -1.000000 0.000000
vn 0.000000 -1.000000 0.000000
vn 0.000000 -1.000000 0.000000
vn 0.000000 -1.000000 0.000000
vn 0.000000 -1.000000 0.000000
vn 0.000000 -1.000000 0.000000
vn 0.000000 1.000000 0.000000
vn 0.000000 1.000000 0.000000
vn 0.000000 1.000000 0.000000
vn 0.000000 1.000000 0.000000
vn 0.000000 1.000000 0.000000
vn 0.000000 1.000000 0.000000
vn -1.000000 0.000000 0.000000
vn -1.000000 0.000000 0.000000
vn -1.000000 0.000000 0.000000
vn -1.000000 0.000000 0.000000
vn -1.000000 0.000000 0.000000
vn -1.000000 0.000000 0.000000
vn 0.000000 1.000000 0.000000
vn 0.000000 1.000000 0.000000
vn 0.000000 1.000000 0.000000
vn 0.000000 1.000000 0.000000
vn 0.000000 1.000000 0.000000
vn 0.000000 1.000000 0.000000
vn 1.000000 0.000000 0.000000
vn 1.000000 0.000000 0.000000
vn 1.000000 0.000000 0.000000
vn 1.000000 0.000000 0.000000
vn 1.000000 0.000000 0.000000
vn 1.000000 0.000000 0.000000
vn 0.000000 0.000000 -1.000000
vn 0.000000 0.000000 -1.000000
vn 0.000000 0.000000 -1.000000
vn 0.000000 0.000000 -1.000000
vn 0.000000 0.000000 -1.000000
vn 0.000000 0.000000 -1.000000
vn 0.000000 0.000000 -1.000000
vn 0.000000 0.000000 -1.000000
vn 0.000000 0.000000 -1.000000
vn 0.000000 0.000000 -1.000000
vn 0.000000 0.000000 -1.000000
vn 0.000000 0.000000 -1.000000
vn 0.000000 0.000000 -1.000000
vn 0.000000 0.000000 -1.000000
vn 0.000000 0.000000 -1.000000
vn 0.000000 0.000000 -1.000000
vn 0.000000 0.000000 -1.000000
vn 0.000000 0.000000 -1.000000
vn 0.000000 0.000000 -1.000000
vn 0.000000 0.000000 -1.000000
vn 0.000000 0.000000 -1.000000
vn 0.000000 0.000000 -1.000000
vn 0.000000 0.000000 -1.000000
vn 0.000000 0.000000 -1.000000
vn 0.000000 0.000000 -1.000000
vn 0.000000 0.000000 -1.000000
vn 0.000000 0.000000 -1.000000
vn 0.000000 0.000000 -1.000000
vn 0.000000 0.000000 -1.000000
vn 0.000000 0.000000 -1.000000
vn 0.000000 0.000000 -1.000000
vn 0.000000 0.000000 -1.000000
vn 0.000000 0.000000 -1.000000
vn 0.000000 0.000000 -1.000000
vn 0.000000 0.000000 -1.000000
vn 0.000000 0.000000 -1.000000
vn 0.000000 0.000000 -1.000000
vn 0.000000 0.000000 -1.000000
vn 0.000000 0.000000 -1.000000
vn 0.000000 0.000000 -1.000000
vn 0.000000 0.000000 -1.000000
vn 0.000000 -1.000000 0.000000
vn 0.000000 -1.000000 0.000000
vn 0.000000 -1.000000 0.000000
vn 0.000000 -1.000000 0.000000
vn 0.000000 -1.000000 0.000000
vn 0.000000 -1.000000 0.000000
vn 0.000000 -1.000000 0.000000
vn 0.000000 -1.000000 0.000000
vn 0.000000 1.000000 0.000000
vn 0.000000 1.000000 0.000000
vn 0.000000 1.000000 0.000000
vn 0.000000 1.000000 0.000000
vn 0.000000 1.000000 0.000000
vn 0.000000 1.000000 0.000000
vn -1.000000 0.000000 0.000000
vn -1.000000 0.000000 0.000000
vn -1.000000 0.000000 0.000000
vn -1.000000 0.000000 0.000000
vn -1.000000 0.000000 0.000000
vn -1.000000 0.000000 0.000000
vn 0.000000 1.000000 0.000000
vn 0.000000 1.000000 0.000000
vn 0.000000 1.000000 0.000000
vn 0.000000 1.000000 0.000000
vn 0.000000 1.000000 0.000000
vn 0.000000 1.000000 0.000000
vn 1.000000 0.000000 0.000000
vn 1.000000 0.000000 0.000000
vn 1.000000 0.000000 0.000000
vn 1.000000 0.000000 0.000000
vn 1.000000 0.000000 0.000000
vn 1.000000 0.000000 0.000000
vn -1.000000 0.000000 0.000000
vn -1.000000 0.000000 0.000000
vn -1.000000 0.000000 0.000000
vn -1.000000 0.000000 0.000000
vn -1.000000 0.000000 0.000000
vn -1.000000 0.000000 0.000000
vn -1.000000 0.000000 0.000000
vn -1.000000 0.000000 0.000000
vn -1.000000 0.000000 0.000000
vn -1.000000 0.000000 0.000000
vn -1.000000 0.000000 0.000000
vn -1.000000 0.000000 0.000000
vn -1.000000 0.000000 0.000000
vn -1.000000 0.000000 0.000000
vn -1.000000 0.000000 0.000000
vn -1.000000 0.000000 0.000000
vn -1.000000 0.000000 0.000000
vn -1.000000 0.000000 0.000000
vn -1.000000 0.000000 0.000000
vn -1.000000 0.000000 0.000000
vn -1.000000 0.000000 0.000000
vn -1.000000 0.000000 0.000000
vn -1.000000 0.000000 0.000000
vn -1.000000 0.000000 0.000000
vn -1.000000 0.000000 0.000000
vn -1.000000 0.000000 0.000000
vn -1.000000 0.000000 0.000000
vn -1.000000 0.000000 0.000000
vn -1.000000 0.000000 0.000000
vn -1.000000 0.000000 0.000000
vn -1.000000 0.000000 0.000000
vn -1.000000 0.000000 0.000000
vn -1.000000 0.000000 0.000000
vn -1.000000 0.000000 0.000000
vn -1.000000 0.000000 0.000000
vn -1.000000 0.000000 0.000000
vn -1.000000 0.000000 0.000000
vn -1.000000 0.000000 0.000000
vn -1.000000 0.000000 0.000000
vn -1.000000 0.000000 0.000000
vn 1.000000 0.000000 0.000000
vn 1.000000 0.000000 0.000000
vn 1.000000 0.000000 0.000000
vn 1.000000 0.000000 0.000000
vn 0.000000 -1.000000 0.000000
vn 0.000000 -1.000000 0.000000
vn 0.000000 -1.000000 0.000000
vn 0.000000 -1.000000 0.000000
vn 0.000000 -1.000000 0.000000
vn 0.000000 -1.000000 0.000000
vn 0.000000 -1.000000 0.000000
vn 0.000000 -1.000000 0.000000
vn 0.000000 -1.000000 0.000000
vn 0.000000 -1.000000 0.000000
vn 0.000000 -1.000000 0.000000
vn 0.000000 -1.000000 0.000000
vn 0.000000 -1.000000 0.000000
vn 0.000000 -1.000000 0.000000
vn 0.000000 -1.000000 0.000000
vn 0.000000 -1.000000 0.000000
vn 0.000000 -1.000000 0.000000
vn 0.000000 -1.000000 0.000000
vn 0.000000 -1.000000 0.000000
vn 0.000000 -1.000000 0.000000
vn 0.000000 1.000000 0.000000
vn 0.000000 1.000000 0.000000
vn 0.000000 1.000000 0.000000
vn 0.000000 1.000000 0.000000
vn 0.000000 1.000000 0.000000
vn 0.000000 1.000000 0.000000
vn 0.000000 1.000000 0.000000
vn 0.000000 1.000000 0.000000
vn 0.000000 1.000000 0.000000
vn 0.000000 1.000000 0.000000
vn 0.000000 1.000000 0.000000
vn 0.000000 1.000000 0.000000
vn 0.000000 1.000000 0.000000
vn 0.000000 1.000000 0.000000
vn 0.000000 1.000000 0.000000
vn 0.000000 1.000000 0.000000
vn -1.000000 0.000000 0.000000
vn -1.000000 0.000000 0.000000
vn -1.000000 0.000000 0.000000
vn -1.000000 0.000000 0.000000
vn -1.000000 0.000000 0.000000
vn -1.000000 0.000000 0.000000
vn -1.000000 0.000000 0.000000
vn -1.000000 0.000000 0.000000
vn -1.000000 0.000000 0.000000
vn -1.000000 0.000000 0.000000
vn -1.000000 0.000000 0.000000
vn -1.000000 0.000000 0.000000
vn -1.000000 0.000000 0.000000
vn -1.000000 0.000000 0.000000
vn -1.000000 0.000000 0.000000
vn -1.000000 0.000000 0.000000
vn -1.000000 0.000000 0.000000
vn -1.000000 0.000000 0.000000
vn -1.000000 0.000000 0.000000
vn -1.000000 0.000000 0.000000
vn 0.000000 -1.000000 0.000000
vn 0.000000 -1.000000 0.000000
vn 0.000000 -1.000000 0.000000
vn 0.000000 -1.000000 0.000000
vn 0.000000 -1.000000 0.000000
vn 0.000000 -1.000000 0.000000
vn 0.000000 -1.000000 0.000000
vn 0.000000 -1.000000 0.000000
vn 0.000000 1.000000 0.000000
vn 0.000000 1.000000 0.000000
vn 0.000000 1.000000 0.000000
vn 0.000000 1.000000 0.000000
f 1/1/1 2/2/2 3/3/3
f 4/4/4 5/5/5 6/6/6
f 7/7/7 8/8/8 9/9/9
f 10/10/10 11/11/11 12/12/12
f 13/13/13 14/14/14 15/15/15
f 13/13/13 16/16/16 14/14/14
f 13/13/13 17/17/17 16/16/16
f 18/18/18 19/19/19 17/17/17
f 20/20/20 19/19/19 18/18/18
f 19/19/19 21/21/21 17/17/17
f 22/22/22 21/21/21 19/19/19
f 23/23/23 24/24/24 25/25/25
f 23/23/23 26/26/26 24/24/24
f 27/27/27 28/28/28 26/26/26
f 27/27/27 29/29/29 28/28/28
f 27/27/27 30/30/30 29/29/29
f 27/27/27 31/31/31 30/30/30
f 30/30/30 32/32/32 33/33/33
f 30/30/30 34/34/34 32/32/32
f 34/34/34 35/35/35 32/32/32
f 36/36/36 35/35/35 34/34/34
f 36/36/36 37/37/37 35/35/35
f 36/36/36 38/38/38 37/37/37
f 37/37/37 39/39/39 40/40/40
f 37/37/37 40/40/40 41/41/41
f 42/42/42 43/43/43 44/44/44
f 42/42/42 44/44/44 45/45/45
f 46/46/46 47/47/47 48/48/48
f 46/46/46 48/48/48 49/49/49
f 50/50/50 51/51/51 52/52/52
f 50/50/50 53/53/53 51/51/51
f 54/54/54 55/55/55 56/56/56
f 54/54/54 56/56/56 57/57/57
f 57/57/57 56/56/56 58/58/58
f 59/59/59 57/57/57 58/58/58
f 59/59/59 58/58/58 60/60/60
f 59/59/59 60/60/60 61/61/61
f 62/62/62 63/63/63 64/64/64
f 62/62/62 64/64/64 65/65/65
f 62/62/62 65/65/65 66/66/66
f 62/62/62 66/66/66 67/67/67
f 68/68/68 69/69/69 70/70/70
f 68/68/68 71/71/71 69/69/69
f 68/68/68 72/72/72 71/71/71
f 68/68/68 73/73/73 72/72/72
f 74/74/74 75/75/75 76/76/76
f 74/74/74 76/76/76 77/77/77
f 74/74/74 77/77/77 78/78/78
f 74/74/74 78/78/78 79/79/79
f 80/80/80 81/81/81 82/82/82
f 80/80/80 82/82/82 83/83/83
f 82/82/82 84/84/84 83/83/83
f 82/82/82 85/85/85 84/84/84
f 86/86/86 87/87/87 88/88/88
f 88/88/88 87/87/87 89/89/89
f 90/90/90 91/91/91 92/92/92
f 90/90/90 92/92/92 93/93/93
f 92/92/92 94/94/94 93/93/93
f 92/92/92 95/95/95 94/94/94
f 93/93/93 96/96/96 97/97/97
f 97/97/97 96/96/96 98/98/98
f 98/98/98 96/96/96 99/99/99
f 100/100/100 101/101/101 102/102/102
f 103/103/103 101/101/101 100/100/100
f 104/104/104 105/105/105 101/101/101
f 101/101/101 105/105/105 106/106/106
f 106/106/106 105/105/105 107/107/107
f 106/106/106 107/107/107 108/108/108
f 107/107/107 109/109/109 108/108/108
f 108/108/108 109/109/109 110/110/110
f 111/111/111 112/112/112 109/109/109
f 109/109/109 112/112/112 113/113/113
f 113/113/113 112/112/112 114/114/114
f 114/114/114 112/112/112 115/115/115
f 115/115/115 116/116/116 117/117/117
f 117/117/117 116/116/116 118/118/118
f 119/119/119 120/120/120 121/121/121
f 122/122/122 120/120/120 119/119/119
f 123/123/123 124/124/124 125/125/125
f 126/126/126 124/124/124 123/123/123
f 127/127/127 128/128/128 129/129/129
f 130/130/130 128/128/128 127/127/127
f 131/131/131 128/128/128 130/130/130
f 132/132/132 131/131/131 130/130/130
f 132/132/132 133/133/133 131/131/131
f 134/134/134 133/133/133 132/132/132
f 135/135/135 136/136/136 137/137/137
f 138/138/138 136/136/136 135/135/135
f 139/139/139 136/136/136 138/138/138
f 140/140/140 136/136/136 139/139/139
f 141/141/141 142/142/142 143/143/143
f 143/143/143 142/142/142 144/144/144
f 144/144/144 142/142/142 145/145/145
f 145/145/145 142/142/142 146/146/146
f 147/147/147 148/148/148 149/149/149
f 150/150/150 148/148/148 147/147/147
f 151/151/151 148/148/148 150/150/150
f 152/152/152 148/148/148 151/151/151
f 153/153/153 154/154/154 155/155/155
f 155/155/155 154/154/154 156/156/156
f 154/154/154 157/157/157 156/156/156
f 158/158/158 157/157/157 154/154/154
f 159/159/159 160/160/160 161/161/161
f 160/160/160 159/159/159 162/162/162
f 163/163/163 164/164/164 165/165/165
f 164/164/164 163/163/163 166/166/166
f 167/167/167 168/168/168 169/169/169
f 168/168/168 167/167/167 170/170/170
f 171/171/171 172/172/172 173/173/173
f 172/172/172 171/171/171 174/174/174
f 175/175/175 176/176/176 177/177/177
f 176/176/176 175/175/175 178/178/178
f 179/179/179 180/180/180 181/181/181
f 180/180/180 179/179/179 182/182/182
f 183/183/183 184/184/184 185/185/185
f 184/184/184 183/183/183 186/186/186
f 187/187/187 188/188/188 189/189/189
f 188/188/188 187/187/187 190/190/190
f 191/191/191 192/192/192 193/193/193
f 192/192/192 191/191/191 194/194/194
f 195/195/195 196/196/196 197/197/197
f 196/196/196 195/195/195 198/198/198
f 199/199/199 200/200/200 201/201/201
f 200/200/200 199/199/199 202/202/202
f 203/203/203 204/204/204 205/205/205
f 204/204/204 203/203/203 206/206/206
f 207/207/207 208/208/208 209/209/209
f 208/208/208 207/207/207 210/210/210
f 211/211/211 212/212/212 213/213/213
f 212/212/212 211/211/211 214/214/214
f 215/215/215 216/216/216 217/217/217
f 216/216/216 215/215/215 218/218/218
f 219/219/219 220/220/220 221/221/221
f 220/220/220 219/219/219 222/222/222
f 223/223/223 224/224/224 225/225/225
f 224/224/224 223/223/223 226/226/226
f 227/227/227 228/228/228 229/229/229
f 228/228/228 227/227/227 230/230/230
f 231/231/231 232/232/232 233/233/233
f 232/232/232 231/231/231 234/234/234
f 235/235/235 236/236/236 237/237/237
f 236/236/236 235/235/235 238/238/238
f 239/239/239 240/240/240 241/241/241
f 240/240/240 239/239/239 242/242/242
f 243/243/243 244/244/244 245/245/245
f 244/244/244 243/243/243 246/246/246
f 247/247/247 248/248/248 249/249/249
f 248/248/248 247/247/247 250/250/250
f 251/251/251 252/252/252 253/253/253
f 252/252/252 251/251/251 254/254/254
f 255/255/255 256/256/256 257/257/257
f 256/256/256 255/255/255 258/258/258
f 259/259/259 260/260/260 261/261/261
f 260/260/260 259/259/259 262/262/262
f 263/263/263 264/264/264 265/265/265
f 264/264/264 263/263/263 266/266/266
f 267/267/267 268/268/268 269/269/269
f 268/268/268 267/267/267 270/270/270