# Object002
v -0.187500 0.022500 0.015000
v -0.127500 0.007500 0.015000
v -0.127500 0.022500 0.015000
v -0.022500 0.067500 0.015000
v 0.202500 0.022500 0.015000
v 0.202500 0.067500 0.015000
v -0.127500 0.007500 -0.015000
v -0.187500 0.022500 -0.015000
v -0.127500 0.022500 -0.015000
v -0.022500 0.067500 -0.015000
v 0.202500 0.022500 -0.015000
v 0.202500 0.067500 -0.015000
v -0.127500 0.022500 0.011250
v -0.127500 0.007500 0.011250
v -0.112500 0.007500 0.011250
v -0.097500 0.007500 0.011250
v -0.082500 0.007500 0.011250
v -0.082500 0.022500 0.011250
v -0.097500 0.007500 0.007500
v -0.082500 -0.022500 0.007500
v -0.082500 -0.007500 0.007500
v -0.082500 0.007500 0.007500
v -0.067500 -0.007500 0.007500
v -0.082500 0.022500 0.007500
v -0.067500 0.007500 0.007500
v -0.022500 0.007500 0.007500
v -0.007500 0.007500 0.007500
v 0.202500 0.022500 0.007500
v -0.007500 -0.022500 0.007500
v -0.022500 -0.022500 0.007500
v 0.232500 0.007500 0.007500
v 0.232500 0.022500 0.007500
v 0.232500 0.052500 0.007500
v 0.247500 0.022500 0.007500
v 0.247500 0.052500 0.007500
v 0.247500 0.097500 0.007500
v 0.262500 0.052500 0.007500
v 0.262500 0.112500 0.007500
v -0.022500 0.112500 0.007500
v -0.022500 0.097500 0.007500
v 0.202500 0.067500 0.011250
v 0.202500 0.022500 0.011250
v 0.232500 0.022500 0.011250
v 0.232500 0.052500 0.011250
v 0.247500 0.052500 0.011250
v 0.247500 0.097500 0.011250
v -0.022500 0.097500 0.011250
v -0.022500 0.067500 0.011250
v 0.202500 0.022500 0.007500
v -0.082500 0.022500 0.011250
v -0.082500 0.022500 0.007500
v 0.202500 0.022500 0.011250
v 0.232500 0.022500 0.007500
v 0.232500 0.022500 0.011250
v -0.127500 0.022500 0.015000
v 0.202500 0.022500 0.015000
v -0.022500 0.097500 -0.007500
v -0.022500 0.112500 -0.007500
v 0.247500 0.097500 -0.007500
v 0.262500 0.112500 -0.007500
v 0.262500 0.052500 -0.007500
v 0.247500 0.052500 -0.007500
v 0.247500 0.022500 -0.007500
v 0.232500 0.052500 -0.007500
v 0.232500 0.022500 -0.007500
v 0.232500 0.007500 -0.007500
v 0.202500 0.022500 -0.007500
v -0.007500 0.007500 -0.007500
v -0.082500 0.022500 -0.007500
v -0.022500 0.007500 -0.007500
v -0.007500 -0.022500 -0.007500
v -0.022500 -0.022500 -0.007500
v -0.067500 0.007500 -0.007500
v -0.067500 -0.007500 -0.007500
v -0.082500 0.007500 -0.007500
v -0.082500 -0.007500 -0.007500
v -0.097500 0.007500 -0.007500
v -0.082500 -0.022500 -0.007500
v -0.022500 0.067500 -0.011250
v -0.022500 0.097500 -0.011250
v 0.202500 0.067500 -0.011250
v 0.247500 0.097500 -0.011250
v 0.247500 0.052500 -0.011250
v 0.232500 0.052500 -0.011250
v 0.232500 0.022500 -0.011250
v 0.202500 0.022500 -0.011250
v -0.082500 0.007500 -0.011250
v -0.127500 0.022500 -0.011250
v -0.082500 0.022500 -0.011250
v -0.097500 0.007500 -0.011250
v -0.112500 0.007500 -0.011250
v -0.127500 0.007500 -0.011250
v 0.202500 0.022500 -0.015000
v 0.202500 0.022500 -0.011250
v -0.127500 0.022500 -0.015000
v -0.082500 0.022500 -0.011250
v 0.202500 0.022500 -0.007500
v -0.082500 0.022500 -0.007500
v 0.232500 0.022500 -0.007500
v 0.232500 0.022500 -0.011250
v -0.022500 -0.022500 0.007500
v -0.022500 0.007500 -0.007500
v -0.022500 -0.022500 -0.007500
v -0.022500 0.007500 0.007500
v -0.127500 0.022500 0.015000
v -0.127500 0.007500 0.011250
v -0.127500 0.022500 0.011250
v -0.127500 0.007500 0.015000
v -0.082500 -0.007500 0.007500
v -0.082500 -0.022500 -0.007500
v -0.082500 -0.007500 -0.007500
v -0.082500 -0.022500 0.007500
v -0.082500 0.022500 0.011250
v -0.082500 0.007500 0.007500
v -0.082500 0.022500 0.007500
v -0.082500 0.007500 0.011250
v -0.067500 0.007500 0.007500
v -0.067500 -0.007500 -0.007500
v -0.067500 0.007500 -0.007500
v -0.067500 -0.007500 0.007500
v -0.007500 0.007500 0.007500
v -0.007500 -0.022500 -0.007500
v -0.007500 0.007500 -0.007500
v -0.007500 -0.022500 0.007500
v 0.202500 0.067500 0.015000
v 0.202500 0.022500 0.011250
v 0.202500 0.067500 0.011250
v 0.202500 0.022500 0.015000
v 0.232500 0.022500 0.007500
v 0.232500 0.007500 -0.007500
v 0.232500 0.022500 -0.007500
v 0.232500 0.007500 0.007500
v 0.232500 0.052500 0.011250
v 0.232500 0.022500 0.007500
v 0.232500 0.052500 0.007500
v 0.232500 0.022500 0.011250
v 0.247500 0.052500 0.007500
v 0.247500 0.022500 -0.007500
v 0.247500 0.052500 -0.007500
v 0.247500 0.022500 0.007500
v 0.247500 0.097500 0.011250
v 0.247500 0.052500 0.007500
v 0.247500 0.097500 0.007500
v 0.247500 0.052500 0.011250
v 0.262500 0.112500 0.007500
v 0.262500 0.052500 -0.007500
v 0.262500 0.112500 -0.007500
v 0.262500 0.052500 0.007500
v -0.007500 -0.022500 -0.007500
v -0.022500 -0.022500 0.007500
v -0.022500 -0.022500 -0.007500
v -0.007500 -0.022500 0.007500
v -0.067500 -0.007500 -0.007500
v -0.082500 -0.007500 0.007500
v -0.082500 -0.007500 -0.007500
v -0.067500 -0.007500 0.007500
v -0.022500 0.007500 -0.007500
v -0.067500 0.007500 0.007500
v -0.067500 0.007500 -0.007500
v -0.022500 0.007500 0.007500
v 0.232500 0.007500 -0.007500
v -0.007500 0.007500 0.007500
v -0.007500 0.007500 -0.007500
v 0.232500 0.007500 0.007500
v -0.082500 0.007500 0.007500
v -0.097500 0.007500 0.011250
v -0.097500 0.007500 0.007500
v -0.082500 0.007500 0.011250
v 0.247500 0.022500 -0.007500
v 0.232500 0.022500 0.007500
v 0.232500 0.022500 -0.007500
v 0.247500 0.022500 0.007500
v 0.262500 0.052500 -0.007500
v 0.247500 0.052500 0.007500
v 0.247500 0.052500 -0.007500
v 0.262500 0.052500 0.007500
v 0.247500 0.052500 0.007500
v 0.232500 0.052500 0.011250
v 0.232500 0.052500 0.007500
v 0.247500 0.052500 0.011250
v -0.022500 -0.022500 0.007500
v -0.082500 -0.022500 -0.007500
v -0.082500 -0.022500 0.007500
v -0.022500 -0.022500 -0.007500
v -0.112500 0.007500 0.015000
v -0.127500 0.007500 0.011250
v -0.127500 0.007500 0.015000
v -0.112500 0.007500 0.011250
v 0.202500 0.067500 0.015000
v -0.022500 0.067500 0.011250
v -0.022500 0.067500 0.015000
v 0.202500 0.067500 0.011250
v 0.247500 0.097500 0.011250
v -0.022500 0.097500 0.007500
v -0.022500 0.097500 0.011250
v 0.247500 0.097500 0.007500
v 0.262500 0.112500 0.007500
v -0.022500 0.112500 -0.007500
v -0.022500 0.112500 0.007500
v 0.262500 0.112500 -0.007500
v -0.127500 0.022500 -0.011250
v -0.127500 0.007500 -0.015000
v -0.127500 0.022500 -0.015000
v -0.127500 0.007500 -0.011250
v -0.082500 0.022500 -0.007500
v -0.082500 0.007500 -0.011250
v -0.082500 0.022500 -0.011250
v -0.082500 0.007500 -0.007500
v 0.202500 0.067500 -0.011250
v 0.202500 0.022500 -0.015000
v 0.202500 0.067500 -0.015000
v 0.202500 0.022500 -0.011250
v 0.232500 0.052500 -0.007500
v 0.232500 0.022500 -0.011250
v 0.232500 0.052500 -0.011250
v 0.232500 0.022500 -0.007500
v 0.247500 0.097500 -0.007500
v 0.247500 0.052500 -0.011250
v 0.247500 0.097500 -0.011250
v 0.247500 0.052500 -0.007500
v -0.082500 0.007500 -0.007500
v -0.097500 0.007500 -0.011250
v -0.082500 0.007500 -0.011250
v -0.097500 0.007500 -0.007500
v 0.247500 0.052500 -0.007500
v 0.232500 0.052500 -0.011250
v 0.247500 0.052500 -0.011250
v 0.232500 0.052500 -0.007500
v -0.127500 0.007500 -0.015000
v -0.112500 0.007500 -0.011250
v -0.112500 0.007500 -0.015000
v -0.127500 0.007500 -0.011250
v -0.022500 0.067500 -0.015000
v 0.202500 0.067500 -0.011250
v 0.202500 0.067500 -0.015000
v -0.022500 0.067500 -0.011250
v -0.022500 0.097500 -0.011250
v 0.247500 0.097500 -0.007500
v 0.247500 0.097500 -0.011250
v -0.022500 0.097500 -0.007500
vt 0.062500 0.171900
vt 0.125000 0.156200
vt 0.125000 0.171900
vt 0.234400 0.218700
vt 0.468800 0.171900
vt 0.468800 0.218700
vt 0.125000 0.156200
vt 0.062500 0.171900
vt 0.125000 0.171900
vt 0.234400 0.218700
vt 0.468800 0.171900
vt 0.468800 0.218700
vt 0.125000 0.171900
vt 0.125000 0.156200
vt 0.140700 0.156200
vt 0.156300 0.156300
vt 0.171900 0.156300
vt 0.171900 0.171900
vt 0.156300 0.156300
vt 0.171900 0.125000
vt 0.171900 0.140600
vt 0.171900 0.156300
vt 0.187500 0.140600
vt 0.171900 0.171900
vt 0.187500 0.156200
vt 0.234400 0.156200
vt 0.250000 0.156200
vt 0.468800 0.171900
vt 0.250000 0.125000
vt 0.234400 0.125000
vt 0.500000 0.156200
vt 0.500000 0.171900
vt 0.500000 0.203100
vt 0.515700 0.171900
vt 0.515700 0.203100
vt 0.515700 0.250000
vt 0.531300 0.203100
vt 0.531300 0.265600
vt 0.234400 0.265600
vt 0.234400 0.250000
vt 0.468800 0.218700
vt 0.468800 0.171900
vt 0.500000 0.171900
vt 0.500000 0.203100
vt 0.515700 0.203100
vt 0.515700 0.250000
vt 0.234400 0.250000
vt 0.234400 0.218700
vt 0.468800 0.175800
vt 0.171900 0.179700
vt 0.171900 0.175800
vt 0.468800 0.179700
vt 0.500000 0.175800
vt 0.500000 0.179700
vt 0.125000 0.183600
vt 0.468800 0.183600
vt 0.234400 0.250000
vt 0.234400 0.265600
vt 0.515700 0.250000
vt 0.531300 0.265600
vt 0.531300 0.203100
vt 0.515700 0.203100
vt 0.515700 0.171900
vt 0.500000 0.203100
vt 0.500000 0.171900
vt 0.500000 0.156200
vt 0.468800 0.171900
vt 0.250000 0.156200
vt 0.171900 0.171900
vt 0.234400 0.156200
vt 0.250000 0.125000
vt 0.234400 0.125000
vt 0.187500 0.156200
vt 0.187500 0.140600
vt 0.171900 0.156300
vt 0.171900 0.140600
vt 0.156300 0.156300
vt 0.171900 0.125000
vt 0.234400 0.218700
vt 0.234400 0.250000
vt 0.468800 0.218700
vt 0.515700 0.250000
vt 0.515700 0.203100
vt 0.500000 0.203100
vt 0.500000 0.171900
vt 0.468800 0.171900
vt 0.171900 0.156300
vt 0.125000 0.171900
vt 0.171900 0.171900
vt 0.156300 0.156300
vt 0.140700 0.156200
vt 0.125000 0.156200
vt 0.468800 0.183600
vt 0.468800 0.179700
vt 0.125000 0.183600
vt 0.171900 0.179700
vt 0.468800 0.175800
vt 0.171900 0.175800
vt 0.500000 0.175800
vt 0.500000 0.179700
vt 0.234700 0.125600
vt 0.249700 0.155600
vt 0.249700 0.125600
vt 0.234700 0.155600
vt 0.119100 0.171900
vt 0.115200 0.156300
vt 0.115200 0.171900
vt 0.119100 0.156300
vt 0.062200 0.265300
vt 0.047200 0.250300
vt 0.047200 0.265300
vt 0.062200 0.250300
vt 0.166000 0.171900
vt 0.162100 0.156300
vt 0.162100 0.171900
vt 0.166000 0.156300
vt 0.062200 0.265300
vt 0.047200 0.250300
vt 0.047200 0.265300
vt 0.062200 0.250300
vt 0.249700 0.155600
vt 0.234700 0.125600
vt 0.234700 0.155600
vt 0.249700 0.125600
vt 0.462900 0.218700
vt 0.459000 0.171900
vt 0.459000 0.218700
vt 0.462900 0.171900
vt 0.062200 0.265300
vt 0.047200 0.250300
vt 0.047200 0.265300
vt 0.062200 0.250300
vt 0.494100 0.203100
vt 0.490200 0.171900
vt 0.490200 0.203100
vt 0.494100 0.171900
vt 0.515300 0.202500
vt 0.500300 0.172500
vt 0.500300 0.202500
vt 0.515300 0.172500
vt 0.509800 0.250000
vt 0.505900 0.203100
vt 0.505900 0.250000
vt 0.509800 0.203100
vt 0.530900 0.264400
vt 0.515900 0.204400
vt 0.515900 0.264400
vt 0.530900 0.204400
vt 0.047200 0.250300
vt 0.062200 0.265300
vt 0.062200 0.250300
vt 0.047200 0.265300
vt 0.047200 0.250300
vt 0.062200 0.265300
vt 0.062200 0.250300
vt 0.047200 0.265300
vt 0.188400 0.156600
vt 0.233400 0.171600
vt 0.233400 0.156600
vt 0.188400 0.171600
vt 0.255000 0.156600
vt 0.495000 0.171600
vt 0.495000 0.156600
vt 0.255000 0.171600
vt 0.156300 0.162100
vt 0.171900 0.166000
vt 0.171900 0.162100
vt 0.156300 0.166000
vt 0.047200 0.250300
vt 0.062200 0.265300
vt 0.062200 0.250300
vt 0.047200 0.265300
vt 0.047200 0.250300
vt 0.062200 0.265300
vt 0.062200 0.250300
vt 0.047200 0.265300
vt 0.500000 0.209000
vt 0.515600 0.212900
vt 0.515600 0.209000
vt 0.500000 0.212900
vt 0.233100 0.124700
vt 0.173100 0.109700
vt 0.173100 0.124700
vt 0.233100 0.109700
vt 0.140600 0.150400
vt 0.125000 0.146500
vt 0.125000 0.150400
vt 0.140600 0.146500
vt 0.468800 0.212900
vt 0.234400 0.209000
vt 0.234400 0.212900
vt 0.468800 0.209000
vt 0.515600 0.244100
vt 0.234400 0.240200
vt 0.234400 0.244100
vt 0.515600 0.240200
vt 0.529200 0.265400
vt 0.244200 0.250400
vt 0.244200 0.265400
vt 0.529200 0.250400
vt 0.115200 0.171900
vt 0.119100 0.156300
vt 0.119100 0.171900
vt 0.115200 0.156300
vt 0.162100 0.171900
vt 0.166000 0.156300
vt 0.166000 0.171900
vt 0.162100 0.156300
vt 0.459000 0.218700
vt 0.462900 0.171900
vt 0.462900 0.218700
vt 0.459000 0.171900
vt 0.490200 0.203100
vt 0.494100 0.171900
vt 0.494100 0.203100
vt 0.490200 0.171900
vt 0.505900 0.250000
vt 0.509800 0.203100
vt 0.509800 0.250000
vt 0.505900 0.203100
vt 0.156300 0.162100
vt 0.171900 0.166000
vt 0.156300 0.166000
vt 0.171900 0.162100
vt 0.500000 0.209000
vt 0.515600 0.212900
vt 0.500000 0.212900
vt 0.515600 0.209000
vt 0.125000 0.150400
vt 0.140600 0.146500
vt 0.140600 0.150400
vt 0.125000 0.146500
vt 0.234400 0.212900
vt 0.468800 0.209000
vt 0.468800 0.212900
vt 0.234400 0.209000
vt 0.234400 0.244100
vt 0.515600 0.240200
vt 0.515600 0.244100
vt 0.234400 0.240200
vn 0.000000 0.000000 1.000000
vn 0.000000 0.000000 1.000000
vn 0.000000 0.000000 1.000000
vn 0.000000 0.000000 1.000000
vn 0.000000 0.000000 1.000000
vn 0.000000 0.000000 1.000000
vn 0.000000 0.000000 -1.000000
vn 0.000000 0.000000 -1.000000
vn 0.000000 0.000000 -1.000000
vn 0.000000 0.000000 -1.000000
vn 0.000000 0.000000 -1.000000
vn 0.000000 0.000000 -1.000000
vn 0.000000 0.000000 1.000000
vn 0.000000 0.000000 1.000000
vn 0.000000 0.000000 1.000000
vn 0.000000 0.000000 1.000000
vn 0.000000 0.000000 1.000000
vn 0.000000 0.000000 1.000000
vn 0.000000 0.000000 1.000000
vn 0.000000 0.000000 1.000000
vn 0.000000 0.000000 1.000000
vn 0.000000 0.000000 1.000000
vn 0.000000 0.000000 1.000000
vn 0.000000 0.000000 1.000000
vn 0.000000 0.000000 1.000000
vn 0.000000 0.000000 1.000000
vn 0.000000 0.000000 1.000000
vn 0.000000 0.000000 1.000000
vn 0.000000 0.000000 1.000000
vn 0.000000 0.000000 1.000000
vn 0.000000 0.000000 1.000000
vn 0.000000 0.000000 1.000000
vn 0.000000 0.000000 1.000000
vn 0.000000 0.000000 1.000000
vn 0.000000 0.000000 1.000000
vn 0.000000 0.000000 1.000000
vn 0.000000 0.000000 1.000000
vn 0.000000 0.000000 1.000000
vn 0.000000 0.000000 1.000000
vn 0.000000 0.000000 1.000000
vn 0.000000 0.000000 1.000000
vn 0.000000 0.000000 1.000000
vn 0.000000 0.000000 1.000000
vn 0.000000 0.000000 1.000000
vn 0.000000 0.000000 1.000000
vn 0.000000 0.000000 1.000000
vn 0.000000 0.000000 1.000000
vn 0.000000 0.000000 1.000000
vn 0.000000 -1.000000 0.000000
vn 0.000000 -1.000000 0.000000
vn 0.000000 -1.000000 0.000000
vn 0.000000 -1.000000 0.000000
vn 0.000000 -1.000000 0.000000
vn 0.000000 -1.000000 0.000000
vn 0.000000 -1.000000 0.000000
vn 0.000000 -1.000000 0.000000
vn 0.000000 0.000000 -1.000000
vn 0.000000 0.000000 -1.000000
vn 0.000000 0.000000 -1.000000
vn 0.000000 0.000000 -1.000000
vn 0.000000 0.000000 -1.000000
vn 0.000000 0.000000 -1.000000
vn 0.000000 0.000000 -1.000000
vn 0.000000 0.000000 -1.000000
vn 0.000000 0.000000 -1.000000
vn 0.000000 0.000000 -1.000000
vn 0.000000 0.000000 -1.000000
vn 0.000000 0.000000 -1.000000
vn 0.000000 0.000000 -1.000000
vn 0.000000 0.000000 -1.000000
vn 0.000000 0.000000 -1.000000
vn 0.000000 0.000000 -1.000000
vn 0.000000 0.000000 -1.000000
vn 0.000000 0.000000 -1.000000
vn 0.000000 0.000000 -1.000000
vn 0.000000 0.000000 -1.000000
vn 0.000000 0.000000 -1.000000
vn 0.000000 0.000000 -1.000000
vn 0.000000 0.000000 -1.000000
vn 0.000000 0.000000 -1.000000
vn 0.000000 0.000000 -1.000000
vn 0.000000 0.000000 -1.000000
vn 0.000000 0.000000 -1.000000
vn 0.000000 0.000000 -1.000000
vn 0.000000 0.000000 -1.000000
vn 0.000000 0.000000 -1.000000
vn 0.000000 0.000000 -1.000000
vn 0.000000 0.000000 -1.000000
vn 0.000000 0.000000 -1.000000
vn 0.000000 0.000000 -1.000000
vn 0.000000 0.000000 -1.000000
vn 0.000000 0.000000 -1.000000
vn 0.000000 -1.000000 0.000000
vn 0.000000 -1.000000 0.000000
vn 0.000000 -1.000000 0.000000
vn 0.000000 -1.000000 0.000000
vn 0.000000 -1.000000 0.000000
vn 0.000000 -1.000000 0.000000
vn 0.000000 -1.000000 0.000000
vn 0.000000 -1.000000 0.000000
vn -1.000000 0.000000 0.000000
vn -1.000000 0.000000 0.000000
vn -1.000000 0.000000 0.000000
vn -1.000000 0.000000 0.000000
vn 1.000000 0.000000 0.000000
vn 1.000000 0.000000 0.000000
vn 1.000000 0.000000 0.000000
vn 1.000000 0.000000 0.000000
vn 1.000000 0.000000 0.000000
vn 1.000000 0.000000 0.000000
vn 1.000000 0.000000 0.000000
vn 1.000000 0.000000 0.000000
vn 1.000000 0.000000 0.000000
vn 1.000000 0.000000 0.000000
vn 1.000000 0.000000 0.000000
vn 1.000000 0.000000 0.000000
vn 1.000000 0.000000 0.000000
vn 1.000000 0.000000 0.000000
vn 1.000000 0.000000 0.000000
vn 1.000000 0.000000 0.000000
vn 1.000000 0.000000 0.000000
vn 1.000000 0.000000 0.000000
vn 1.000000 0.000000 0.000000
vn 1.000000 0.000000 0.000000
vn 1.000000 0.000000 0.000000
vn 1.000000 0.000000 0.000000
vn 1.000000 0.000000 0.000000
vn 1.000000 0.000000 0.000000
vn 1.000000 0.000000 0.000000
vn 1.000000 0.000000 0.000000
vn 1.000000 0.000000 0.000000
vn 1.000000 0.000000 0.000000
vn 1.000000 0.000000 0.000000
vn 1.000000 0.000000 0.000000
vn 1.000000 0.000000 0.000000
vn 1.000000 0.000000 0.000000
vn 1.000000 0.000000 0.000000
vn 1.000000 0.000000 0.000000
vn 1.000000 0.000000 0.000000
vn 1.000000 0.000000 0.000000
vn 1.000000 0.000000 0.000000
vn 1.000000 0.000000 0.000000
vn 1.000000 0.000000 0.000000
vn 1.000000 0.000000 0.000000
vn 1.000000 0.000000 0.000000
vn 1.000000 0.000000 0.000000
vn 1.000000 0.000000 0.000000
vn 1.000000 0.000000 0.000000
vn 0.000000 -1.000000 0.000000
vn 0.000000 -1.000000 0.000000
vn 0.000000 -1.000000 0.000000
vn 0.000000 -1.000000 0.000000
vn 0.000000 -1.000000 0.000000
vn 0.000000 -1.000000 0.000000
vn 0.000000 -1.000000 0.000000
vn 0.000000 -1.000000 0.000000
vn 0.000000 -1.000000 0.000000
vn 0.000000 -1.000000 0.000000
vn 0.000000 -1.000000 0.000000
vn 0.000000 -1.000000 0.000000
vn 0.000000 -1.000000 0.000000
vn 0.000000 -1.000000 0.000000
vn 0.000000 -1.000000 0.000000
vn 0.000000 -1.000000 0.000000
vn 0.000000 -1.000000 0.000000
vn 0.000000 -1.000000 0.000000
vn 0.000000 -1.000000 0.000000
vn 0.000000 -1.000000 0.000000
vn 0.000000 -1.000000 0.000000
vn 0.000000 -1.000000 0.000000
vn 0.000000 -1.000000 0.000000
vn 0.000000 -1.000000 0.000000
vn 0.000000 -1.000000 0.000000
vn 0.000000 -1.000000 0.000000
vn 0.000000 -1.000000 0.000000
vn 0.000000 -1.000000 0.000000
vn 0.000000 -1.000000 0.000000
vn 0.000000 -1.000000 0.000000
vn 0.000000 -1.000000 0.000000
vn 0.000000 -1.000000 0.000000
vn 0.000000 1.000000 0.000000
vn 0.000000 1.000000 0.000000
vn 0.000000 1.000000 0.000000
vn 0.000000 1.000000 0.000000
vn 0.000000 1.000000 0.000000
vn 0.000000 1.000000 0.000000
vn 0.000000 1.000000 0.000000
vn 0.000000 1.000000 0.000000
vn 0.000000 1.000000 0.000000
vn 0.000000 1.000000 0.000000
vn 0.000000 1.000000 0.000000
vn 0.000000 1.000000 0.000000
vn 0.000000 1.000000 0.000000
vn 0.000000 1.000000 0.000000
vn 0.000000 1.000000 0.000000
vn 0.000000 1.000000 0.000000
vn 0.000000 1.000000 0.000000
vn 0.000000 1.000000 0.000000
vn 0.000000 1.000000 0.000000
vn 0.000000 1.000000 0.000000
vn 1.000000 0.000000 0.000000
vn 1.000000 0.000000 0.000000
vn 1.000000 0.000000 0.000000
vn 1.000000 0.000000 0.000000
vn 1.000000 0.000000 0.000000
vn 1.000000 0.000000 0.000000
vn 1.000000 0.000000 0.000000
vn 1.000000 0.000000 0.000000
vn 1.000000 0.000000 0.000000
vn 1.000000 0.000000 0.000000
vn 1.000000 0.000000 0.000000
vn 1.000000 0.000000 0.000000
vn 1.000000 0.000000 0.000000
vn 1.000000 0.000000 0.000000
vn 1.000000 0.000000 0.000000
vn 1.000000 0.000000 0.000000
vn 1.000000 0.000000 0.000000
vn 1.000000 0.000000 0.000000
vn 1.000000 0.000000 0.000000
vn 1.000000 0.000000 0.000000
vn 0.000000 -1.000000 0.000000
vn 0.000000 -1.000000 0.000000
vn 0.000000 -1.000000 0.000000
vn 0.000000 -1.000000 0.000000
vn 0.000000 -1.000000 0.000000
vn 0.000000 -1.000000 0.000000
vn 0.000000 -1.000000 0.000000
vn 0.000000 -1.000000 0.000000
vn 0.000000 1.000000 0.000000
vn 0.000000 1.000000 0.000000
vn 0.000000 1.000000 0.000000
vn 0.000000 1.000000 0.000000
vn 0.000000 1.000000 0.000000
vn 0.000000 1.000000 0.000000
vn 0.000000 1.000000 0.000000
vn 0.000000 1.000000 0.000000
vn 0.000000 1.000000 0.000000
vn 0.000000 1.000000 0.000000
vn 0.000000 1.000000 0.000000
vn 0.000000 1.000000 0.000000
f 1/1/1 2/2/2 3/3/3
f 4/4/4 3/3/3 5/5/5
f 4/4/4 5/5/5 6/6/6
f 7/7/7 8/8/8 9/9/9
f 9/9/9 10/10/10 11/11/11
f 11/11/11 10/10/10 12/12/12
f 13/13/13 14/14/14 15/15/15
f 13/13/13 15/15/15 16/16/16
f 13/13/13 16/16/16 17/17/17
f 13/13/13 17/17/17 18/18/18
f 19/19/19 20/20/20 21/21/21
f 19/19/19 21/21/21 22/22/22
f 22/22/22 21/21/21 23/23/23
f 24/24/24 22/22/22 23/23/23
f 24/24/24 23/23/23 25/25/25
f 24/24/24 25/25/25 26/26/26
f 24/24/24 26/26/26 27/27/27
f 24/24/24 27/27/27 28/28/28
f 26/26/26 29/29/29 27/27/27
f 26/26/26 30/30/30 29/29/29
f 28/28/28 27/27/27 31/31/31
f 28/28/28 31/31/31 32/32/32
f 33/33/33 32/32/32 34/34/34
f 33/33/33 34/34/34 35/35/35
f 36/36/36 35/35/35 37/37/37
f 36/36/36 37/37/37 38/38/38
f 39/39/39 36/36/36 38/38/38
f 39/39/39 40/40/40 36/36/36
f 41/41/41 42/42/42 43/43/43
f 41/41/41 43/43/43 44/44/44
f 41/41/41 44/44/44 45/45/45
f 41/41/41 45/45/45 46/46/46
f 47/47/47 41/41/41 46/46/46
f 47/47/47 48/48/48 41/41/41
f 49/49/49 50/50/50 51/51/51
f 49/49/49 52/52/52 50/50/50
f 53/53/53 52/52/52 49/49/49
f 53/53/53 54/54/54 52/52/52
f 52/52/52 55/55/55 50/50/50
f 52/52/52 56/56/56 55/55/55
f 57/57/57 58/58/58 59/59/59
f 59/59/59 58/58/58 60/60/60
f 61/61/61 59/59/59 60/60/60
f 62/62/62 59/59/59 61/61/61
f 63/63/63 64/64/64 62/62/62
f 65/65/65 64/64/64 63/63/63
f 66/66/66 67/67/67 65/65/65
f 68/68/68 67/67/67 66/66/66
f 68/68/68 69/69/69 67/67/67
f 70/70/70 69/69/69 68/68/68
f 71/71/71 70/70/70 68/68/68
f 72/72/72 70/70/70 71/71/71
f 73/73/73 69/69/69 70/70/70
f 74/74/74 69/69/69 73/73/73
f 75/75/75 69/69/69 74/74/74
f 76/76/76 75/75/75 74/74/74
f 76/76/76 77/77/77 75/75/75
f 78/78/78 77/77/77 76/76/76
f 79/79/79 80/80/80 81/81/81
f 81/81/81 80/80/80 82/82/82
f 83/83/83 81/81/81 82/82/82
f 84/84/84 81/81/81 83/83/83
f 85/85/85 81/81/81 84/84/84
f 86/86/86 81/81/81 85/85/85
f 87/87/87 88/88/88 89/89/89
f 90/90/90 88/88/88 87/87/87
f 91/91/91 88/88/88 90/90/90
f 92/92/92 88/88/88 91/91/91
f 93/93/93 94/94/94 95/95/95
f 95/95/95 94/94/94 96/96/96
f 94/94/94 97/97/97 96/96/96
f 96/96/96 97/97/97 98/98/98
f 94/94/94 99/99/99 97/97/97
f 100/100/100 99/99/99 94/94/94
f 101/101/101 102/102/102 103/103/103
f 102/102/102 101/101/101 104/104/104
f 105/105/105 106/106/106 107/107/107
f 106/106/106 105/105/105 108/108/108
f 109/109/109 110/110/110 111/111/111
f 110/110/110 109/109/109 112/112/112
f 113/113/113 114/114/114 115/115/115
f 114/114/114 113/113/113 116/116/116
f 117/117/117 118/118/118 119/119/119
f 118/118/118 117/117/117 120/120/120
f 121/121/121 122/122/122 123/123/123
f 122/122/122 121/121/121 124/124/124
f 125/125/125 126/126/126 127/127/127
f 126/126/126 125/125/125 128/128/128
f 129/129/129 130/130/130 131/131/131
f 130/130/130 129/129/129 132/132/132
f 133/133/133 134/134/134 135/135/135
f 134/134/134 133/133/133 136/136/136
f 137/137/137 138/138/138 139/139/139
f 138/138/138 137/137/137 140/140/140
f 141/141/141 142/142/142 143/143/143
f 142/142/142 141/141/141 144/144/144
f 145/145/145 146/146/146 147/147/147
f 146/146/146 145/145/145 148/148/148
f 149/149/149 150/150/150 151/151/151
f 150/150/150 149/149/149 152/152/152
f 153/153/153 154/154/154 155/155/155
f 154/154/154 153/153/153 156/156/156
f 157/157/157 158/158/158 159/159/159
f 158/158/158 157/157/157 160/160/160
f 161/161/161 162/162/162 163/163/163
f 162/162/162 161/161/161 164/164/164
f 165/165/165 166/166/166 167/167/167
f 166/166/166 165/165/165 168/168/168
f 169/169/169 170/170/170 171/171/171
f 170/170/170 169/169/169 172/172/172
f 173/173/173 174/174/174 175/175/175
f 174/174/174 173/173/173 176/176/176
f 177/177/177 178/178/178 179/179/179
f 178/178/178 177/177/177 180/180/180
f 181/181/181 182/182/182 183/183/183
f 182/182/182 181/181/181 184/184/184
f 185/185/185 186/186/186 187/187/187
f 186/186/186 185/185/185 188/188/188
f 189/189/189 190/190/190 191/191/191
f 190/190/190 189/189/189 192/192/192
f 193/193/193 194/194/194 195/195/195
f 194/194/194 193/193/193 196/196/196
f 197/197/197 198/198/198 199/199/199
f 198/198/198 197/197/197 200/200/200
f 201/201/201 202/202/202 203/203/203
f 202/202/202 201/201/201 204/204/204
f 205/205/205 206/206/206 207/207/207
f 206/206/206 205/205/205 208/208/208
f 209/209/209 210/210/210 211/211/211
f 210/210/210 209/209/209 212/212/212
f 213/213/213 214/214/214 215/215/215
f 214/214/214 213/213/213 216/216/216
f 217/217/217 218/218/218 219/219/219
f 218/218/218 217/217/217 220/220/220
f 221/221/221 222/222/222 223/223/223
f 222/222/222 221/221/221 224/224/224
f 225/225/225 226/226/226 227/227/227
f 226/226/226 225/225/225 228/228/228
f 229/229/229 230/230/230 231/231/231
f 230/230/230 229/229/229 232/232/232
f 233/233/233 234/234/234 235/235/235
f 234/234/234 233/233/233 236/236/236
f 237/237/237 238/238/238 239/239/239
f 238/238/238 237/237/237 240/240/240