# Object001
v -0.202500 0.007500 0.007500
v -0.187500 -0.037500 0.007500
v -0.187500 0.007500 0.007500
v -0.202500 -0.037500 0.007500
v -0.217500 -0.037500 0.007500
v -0.202500 -0.082500 0.007500
v -0.217500 -0.082500 0.007500
v -0.232500 -0.082500 0.007500
v -0.217500 -0.127500 0.007500
v -0.232500 -0.142500 0.007500
v -0.142500 -0.127500 0.007500
v -0.127500 -0.127500 0.007500
v -0.112500 -0.142500 0.007500
v -0.127500 -0.082500 0.007500
v -0.112500 -0.082500 0.007500
v -0.112500 -0.037500 0.007500
v -0.097500 -0.082500 0.007500
v -0.097500 -0.037500 0.007500
v -0.097500 0.007500 0.007500
v -0.082500 -0.022500 0.007500
v -0.022500 -0.037500 0.007500
v -0.022500 -0.022500 0.007500
v -0.127500 0.007500 0.015000
v -0.112500 -0.037500 0.015000
v -0.112500 0.007500 0.015000
v -0.127500 -0.037500 0.015000
v -0.187500 0.022500 0.015000
v -0.127500 -0.082500 0.015000
v -0.142500 -0.082500 0.015000
v -0.142500 -0.127500 0.015000
v -0.187500 -0.037500 0.015000
v -0.202500 -0.082500 0.015000
v -0.202500 -0.037500 0.015000
v -0.217500 -0.127500 0.015000
v -0.217500 -0.082500 0.015000
v -0.112500 0.007500 0.011250
v -0.097500 -0.037500 0.011250
v -0.097500 0.007500 0.011250
v -0.112500 -0.037500 0.011250
v -0.127500 -0.037500 0.011250
v -0.112500 -0.082500 0.011250
v -0.127500 -0.082500 0.011250
v -0.142500 -0.082500 0.011250
v -0.127500 -0.127500 0.011250
v -0.142500 -0.127500 0.011250
v -0.187500 -0.037500 0.015000
v -0.187500 0.007500 0.007500
v -0.187500 -0.037500 0.007500
v -0.187500 0.007500 0.011250
v -0.187500 0.022500 0.015000
v -0.142500 -0.127500 0.011250
v -0.142500 -0.127500 0.015000
v -0.217500 -0.127500 0.015000
v -0.217500 -0.127500 0.007500
v -0.142500 -0.127500 0.007500
v -0.127500 -0.127500 0.007500
v -0.127500 -0.127500 0.011250
v -0.022500 -0.037500 -0.007500
v -0.082500 -0.022500 -0.007500
v -0.022500 -0.022500 -0.007500
v -0.097500 -0.037500 -0.007500
v -0.097500 0.007500 -0.007500
v -0.097500 -0.082500 -0.007500
v -0.112500 -0.037500 -0.007500
v -0.112500 -0.082500 -0.007500
v -0.112500 -0.142500 -0.007500
v -0.127500 -0.082500 -0.007500
v -0.127500 -0.127500 -0.007500
v -0.232500 -0.142500 -0.007500
v -0.142500 -0.127500 -0.007500
v -0.217500 -0.127500 -0.007500
v -0.232500 -0.082500 -0.007500
v -0.217500 -0.082500 -0.007500
v -0.217500 -0.037500 -0.007500
v -0.202500 -0.082500 -0.007500
v -0.202500 -0.037500 -0.007500
v -0.202500 0.007500 -0.007500
v -0.187500 -0.037500 -0.007500
v -0.187500 0.007500 -0.007500
v -0.142500 -0.127500 -0.011250
v -0.142500 -0.082500 -0.011250
v -0.127500 -0.127500 -0.011250
v -0.127500 -0.082500 -0.011250
v -0.127500 -0.037500 -0.011250
v -0.112500 -0.082500 -0.011250
v -0.112500 -0.037500 -0.011250
v -0.112500 0.007500 -0.011250
v -0.097500 -0.037500 -0.011250
v -0.097500 0.007500 -0.011250
v -0.217500 -0.127500 -0.015000
v -0.217500 -0.082500 -0.015000
v -0.202500 -0.082500 -0.015000
v -0.142500 -0.127500 -0.015000
v -0.187500 -0.037500 -0.015000
v -0.202500 -0.037500 -0.015000
v -0.187500 0.022500 -0.015000
v -0.142500 -0.082500 -0.015000
v -0.127500 -0.082500 -0.015000
v -0.127500 -0.037500 -0.015000
v -0.127500 0.007500 -0.015000
v -0.112500 -0.037500 -0.015000
v -0.112500 0.007500 -0.015000
v -0.187500 0.022500 -0.015000
v -0.187500 -0.037500 -0.015000
v -0.187500 0.007500 -0.011250
v -0.187500 0.007500 -0.007500
v -0.187500 -0.037500 -0.007500
v -0.127500 -0.127500 -0.011250
v -0.127500 -0.127500 -0.007500
v -0.142500 -0.127500 -0.011250
v -0.142500 -0.127500 -0.007500
v -0.217500 -0.127500 -0.007500
v -0.217500 -0.127500 -0.015000
v -0.142500 -0.127500 -0.015000
v -0.232500 -0.142500 0.007500
v -0.232500 -0.082500 -0.007500
v -0.232500 -0.142500 -0.007500
v -0.232500 -0.082500 0.007500
v -0.217500 -0.127500 0.015000
v -0.217500 -0.082500 0.007500
v -0.217500 -0.127500 0.007500
v -0.217500 -0.082500 0.015000
v -0.217500 -0.082500 0.007500
v -0.217500 -0.037500 -0.007500
v -0.217500 -0.082500 -0.007500
v -0.217500 -0.037500 0.007500
v -0.202500 -0.082500 0.015000
v -0.202500 -0.037500 0.007500
v -0.202500 -0.082500 0.007500
v -0.202500 -0.037500 0.015000
v -0.202500 -0.037500 0.007500
v -0.202500 0.007500 -0.007500
v -0.202500 -0.037500 -0.007500
v -0.202500 0.007500 0.007500
v -0.142500 -0.082500 0.015000
v -0.142500 -0.127500 0.011250
v -0.142500 -0.082500 0.011250
v -0.142500 -0.127500 0.015000
v -0.127500 -0.082500 0.011250
v -0.127500 -0.127500 0.007500
v -0.127500 -0.082500 0.007500
v -0.127500 -0.127500 0.011250
v -0.127500 -0.037500 0.015000
v -0.127500 -0.082500 0.011250
v -0.127500 -0.037500 0.011250
v -0.127500 -0.082500 0.015000
v -0.112500 -0.082500 0.007500
v -0.112500 -0.142500 -0.007500
v -0.112500 -0.082500 -0.007500
v -0.112500 -0.142500 0.007500
v -0.112500 -0.037500 0.011250
v -0.112500 -0.082500 0.007500
v -0.112500 -0.037500 0.007500
v -0.112500 -0.082500 0.011250
v -0.112500 0.007500 0.015000
v -0.112500 -0.037500 0.011250
v -0.112500 0.007500 0.011250
v -0.112500 -0.037500 0.015000
v -0.097500 -0.037500 0.007500
v -0.097500 -0.082500 -0.007500
v -0.097500 -0.037500 -0.007500
v -0.097500 -0.082500 0.007500
v -0.097500 0.007500 0.011250
v -0.097500 -0.037500 0.007500
v -0.097500 0.007500 0.007500
v -0.097500 -0.037500 0.011250
v -0.022500 -0.022500 0.007500
v -0.022500 -0.037500 -0.007500
v -0.022500 -0.022500 -0.007500
v -0.022500 -0.037500 0.007500
v -0.112500 -0.142500 -0.007500
v -0.232500 -0.142500 0.007500
v -0.232500 -0.142500 -0.007500
v -0.112500 -0.142500 0.007500
v -0.097500 -0.082500 -0.007500
v -0.112500 -0.082500 0.007500
v -0.112500 -0.082500 -0.007500
v -0.097500 -0.082500 0.007500
v -0.112500 -0.082500 0.007500
v -0.127500 -0.082500 0.011250
v -0.127500 -0.082500 0.007500
v -0.112500 -0.082500 0.011250
v -0.127500 -0.082500 0.011250
v -0.142500 -0.082500 0.015000
v -0.142500 -0.082500 0.011250
v -0.127500 -0.082500 0.015000
v -0.022500 -0.037500 -0.007500
v -0.097500 -0.037500 0.007500
v -0.097500 -0.037500 -0.007500
v -0.022500 -0.037500 0.007500
v -0.097500 -0.037500 0.007500
v -0.112500 -0.037500 0.011250
v -0.112500 -0.037500 0.007500
v -0.097500 -0.037500 0.011250
v -0.112500 -0.037500 0.011250
v -0.127500 -0.037500 0.015000
v -0.127500 -0.037500 0.011250
v -0.112500 -0.037500 0.015000
v -0.217500 -0.082500 0.007500
v -0.232500 -0.082500 -0.007500
v -0.232500 -0.082500 0.007500
v -0.217500 -0.082500 -0.007500
v -0.202500 -0.082500 0.015000
v -0.217500 -0.082500 0.007500
v -0.217500 -0.082500 0.015000
v -0.202500 -0.082500 0.007500
v -0.202500 -0.037500 0.007500
v -0.217500 -0.037500 -0.007500
v -0.217500 -0.037500 0.007500
v -0.202500 -0.037500 -0.007500
v -0.187500 -0.037500 0.015000
v -0.202500 -0.037500 0.007500
v -0.202500 -0.037500 0.015000
v -0.187500 -0.037500 0.007500
v -0.217500 -0.127500 -0.015000
v -0.217500 -0.082500 -0.007500
v -0.217500 -0.082500 -0.015000
v -0.217500 -0.127500 -0.007500
v -0.202500 -0.082500 -0.015000
v -0.202500 -0.037500 -0.007500
v -0.202500 -0.037500 -0.015000
v -0.202500 -0.082500 -0.007500
v -0.142500 -0.082500 -0.011250
v -0.142500 -0.127500 -0.015000
v -0.142500 -0.082500 -0.015000
v -0.142500 -0.127500 -0.011250
v -0.127500 -0.082500 -0.007500
v -0.127500 -0.127500 -0.011250
v -0.127500 -0.082500 -0.011250
v -0.127500 -0.127500 -0.007500
v -0.127500 -0.037500 -0.011250
v -0.127500 -0.082500 -0.015000
v -0.127500 -0.037500 -0.015000
v -0.127500 -0.082500 -0.011250
v -0.112500 -0.037500 -0.007500
v -0.112500 -0.082500 -0.011250
v -0.112500 -0.037500 -0.011250
v -0.112500 -0.082500 -0.007500
v -0.112500 0.007500 -0.011250
v -0.112500 -0.037500 -0.015000
v -0.112500 0.007500 -0.015000
v -0.112500 -0.037500 -0.011250
v -0.097500 0.007500 -0.007500
v -0.097500 -0.037500 -0.011250
v -0.097500 0.007500 -0.011250
v -0.097500 -0.037500 -0.007500
v -0.112500 -0.082500 -0.007500
v -0.127500 -0.082500 -0.011250
v -0.112500 -0.082500 -0.011250
v -0.127500 -0.082500 -0.007500
v -0.127500 -0.082500 -0.011250
v -0.142500 -0.082500 -0.015000
v -0.127500 -0.082500 -0.015000
v -0.142500 -0.082500 -0.011250
v -0.097500 -0.037500 -0.007500
v -0.112500 -0.037500 -0.011250
v -0.097500 -0.037500 -0.011250
v -0.112500 -0.037500 -0.007500
v -0.112500 -0.037500 -0.011250
v -0.127500 -0.037500 -0.015000
v -0.112500 -0.037500 -0.015000
v -0.127500 -0.037500 -0.011250
v -0.217500 -0.082500 -0.015000
v -0.202500 -0.082500 -0.007500
v -0.202500 -0.082500 -0.015000
v -0.217500 -0.082500 -0.007500
v -0.202500 -0.037500 -0.015000
v -0.187500 -0.037500 -0.007500
v -0.187500 -0.037500 -0.015000
v -0.202500 -0.037500 -0.007500
vt 0.046900 0.156300
vt 0.062500 0.109400
vt 0.062500 0.156300
vt 0.046900 0.109400
vt 0.031300 0.109400
vt 0.046900 0.062500
vt 0.031300 0.062500
vt 0.015700 0.062500
vt 0.031300 0.015600
vt 0.015700 0.000000
vt 0.109400 0.015600
vt 0.125000 0.015600
vt 0.140700 0.000000
vt 0.125000 0.062500
vt 0.140700 0.062500
vt 0.140700 0.109400
vt 0.156300 0.062500
vt 0.156300 0.109400
vt 0.156300 0.156300
vt 0.171900 0.125000
vt 0.234400 0.109400
vt 0.234400 0.125000
vt 0.125000 0.156200
vt 0.140700 0.109400
vt 0.140700 0.156200
vt 0.125000 0.109400
vt 0.062500 0.171900
vt 0.125000 0.062500
vt 0.109400 0.062500
vt 0.109400 0.015600
vt 0.062500 0.109400
vt 0.046900 0.062500
vt 0.046900 0.109400
vt 0.031300 0.015600
vt 0.031300 0.062500
vt 0.140700 0.156200
vt 0.156300 0.109400
vt 0.156300 0.156300
vt 0.140700 0.109400
vt 0.125000 0.109400
vt 0.140700 0.062500
vt 0.125000 0.062500
vt 0.109400 0.062500
vt 0.125000 0.015600
vt 0.109400 0.015600
vt 0.074200 0.109400
vt 0.066400 0.156200
vt 0.066400 0.109400
vt 0.070300 0.156200
vt 0.074200 0.171900
vt 0.109400 0.019500
vt 0.109400 0.023400
vt 0.031300 0.023400
vt 0.031300 0.015600
vt 0.109400 0.015600
vt 0.125000 0.015600
vt 0.125000 0.019500
vt 0.234400 0.109400
vt 0.171900 0.125000
vt 0.234400 0.125000
vt 0.156300 0.109400
vt 0.156300 0.156300
vt 0.156300 0.062500
vt 0.140700 0.109400
vt 0.140700 0.062500
vt 0.140700 0.000000
vt 0.125000 0.062500
vt 0.125000 0.015600
vt 0.015700 0.000000
vt 0.109400 0.015600
vt 0.031300 0.015600
vt 0.015700 0.062500
vt 0.031300 0.062500
vt 0.031300 0.109400
vt 0.046900 0.062500
vt 0.046900 0.109400
vt 0.046900 0.156300
vt 0.062500 0.109400
vt 0.062500 0.156300
vt 0.109400 0.015600
vt 0.109400 0.062500
vt 0.125000 0.015600
vt 0.125000 0.062500
vt 0.125000 0.109400
vt 0.140700 0.062500
vt 0.140700 0.109400
vt 0.140700 0.156200
vt 0.156300 0.109400
vt 0.156300 0.156300
vt 0.031300 0.015600
vt 0.031300 0.062500
vt 0.046900 0.062500
vt 0.109400 0.015600
vt 0.062500 0.109400
vt 0.046900 0.109400
vt 0.062500 0.171900
vt 0.109400 0.062500
vt 0.125000 0.062500
vt 0.125000 0.109400
vt 0.125000 0.156200
vt 0.140700 0.109400
vt 0.140700 0.156200
vt 0.074200 0.171900
vt 0.074200 0.109400
vt 0.070300 0.156200
vt 0.066400 0.156200
vt 0.066400 0.109400
vt 0.125000 0.019500
vt 0.125000 0.015600
vt 0.109400 0.019500
vt 0.109400 0.015600
vt 0.031300 0.015600
vt 0.031300 0.023400
vt 0.109400 0.023400
vt 0.015900 0.001200
vt 0.030900 0.061300
vt 0.030900 0.001200
vt 0.015900 0.061300
vt 0.035200 0.015600
vt 0.043000 0.062500
vt 0.043000 0.015600
vt 0.035200 0.062500
vt 0.031600 0.063400
vt 0.046600 0.108400
vt 0.046600 0.063400
vt 0.031600 0.108400
vt 0.050800 0.062500
vt 0.058600 0.109400
vt 0.058600 0.062500
vt 0.050800 0.109400
vt 0.047200 0.110300
vt 0.062200 0.155300
vt 0.062200 0.110300
vt 0.047200 0.155300
vt 0.103500 0.062500
vt 0.099600 0.015600
vt 0.099600 0.062500
vt 0.103500 0.015600
vt 0.119100 0.062500
vt 0.115200 0.015600
vt 0.115200 0.062500
vt 0.119100 0.015600
vt 0.119100 0.109400
vt 0.115200 0.062500
vt 0.115200 0.109400
vt 0.119100 0.062500
vt 0.140300 0.061300
vt 0.125300 0.001200
vt 0.125300 0.061300
vt 0.140300 0.001200
vt 0.134800 0.109400
vt 0.130900 0.062500
vt 0.130900 0.109400
vt 0.134800 0.062500
vt 0.134800 0.156300
vt 0.130900 0.109400
vt 0.130900 0.156300
vt 0.134800 0.109400
vt 0.155900 0.108400
vt 0.140900 0.063400
vt 0.140900 0.108400
vt 0.155900 0.063400
vt 0.150400 0.156300
vt 0.146500 0.109400
vt 0.146500 0.156300
vt 0.150400 0.109400
vt 0.062200 0.265300
vt 0.047200 0.250300
vt 0.047200 0.265300
vt 0.062200 0.250300
vt 0.018100 0.000300
vt 0.138100 0.015300
vt 0.138100 0.000300
vt 0.018100 0.015300
vt 0.047200 0.250300
vt 0.062200 0.265300
vt 0.062200 0.250300
vt 0.047200 0.265300
vt 0.125000 0.068400
vt 0.140600 0.072300
vt 0.140600 0.068400
vt 0.125000 0.072300
vt 0.109400 0.068400
vt 0.125000 0.072300
vt 0.125000 0.068400
vt 0.109400 0.072300
vt 0.157800 0.109600
vt 0.232800 0.124600
vt 0.232800 0.109600
vt 0.157800 0.124600
vt 0.140600 0.115200
vt 0.156300 0.119100
vt 0.156300 0.115200
vt 0.140600 0.119100
vt 0.125000 0.115200
vt 0.140600 0.119100
vt 0.140600 0.115200
vt 0.125000 0.119100
vt 0.062200 0.265300
vt 0.047200 0.250300
vt 0.047200 0.265300
vt 0.062200 0.250300
vt 0.046900 0.058600
vt 0.031300 0.050800
vt 0.031300 0.058600
vt 0.046900 0.050800
vt 0.062200 0.265300
vt 0.047200 0.250300
vt 0.047200 0.265300
vt 0.062200 0.250300
vt 0.062500 0.105500
vt 0.046900 0.097700
vt 0.046900 0.105500
vt 0.062500 0.097700
vt 0.035200 0.015600
vt 0.043000 0.062500
vt 0.035200 0.062500
vt 0.043000 0.015600
vt 0.050800 0.062500
vt 0.058600 0.109400
vt 0.050800 0.109400
vt 0.058600 0.062500
vt 0.099600 0.062500
vt 0.103500 0.015600
vt 0.103500 0.062500
vt 0.099600 0.015600
vt 0.115200 0.062500
vt 0.119100 0.015600
vt 0.119100 0.062500
vt 0.115200 0.015600
vt 0.115200 0.109400
vt 0.119100 0.062500
vt 0.119100 0.109400
vt 0.115200 0.062500
vt 0.130900 0.109400
vt 0.134800 0.062500
vt 0.134800 0.109400
vt 0.130900 0.062500
vt 0.130900 0.156300
vt 0.134800 0.109400
vt 0.134800 0.156300
vt 0.130900 0.109400
vt 0.146500 0.156300
vt 0.150400 0.109400
vt 0.150400 0.156300
vt 0.146500 0.109400
vt 0.125000 0.068400
vt 0.140600 0.072300
vt 0.125000 0.072300
vt 0.140600 0.068400
vt 0.109400 0.068400
vt 0.125000 0.072300
vt 0.109400 0.072300
vt 0.125000 0.068400
vt 0.140600 0.115200
vt 0.156300 0.119100
vt 0.140600 0.119100
vt 0.156300 0.115200
vt 0.125000 0.115200
vt 0.140600 0.119100
vt 0.125000 0.119100
vt 0.140600 0.115200
vt 0.031300 0.058600
vt 0.046900 0.050800
vt 0.046900 0.058600
vt 0.031300 0.050800
vt 0.046900 0.105500
vt 0.062500 0.097700
vt 0.062500 0.105500
vt 0.046900 0.097700
vn 0.000000 0.000000 1.000000
vn 0.000000 0.000000 1.000000
vn 0.000000 0.000000 1.000000
vn 0.000000 0.000000 1.000000
vn 0.000000 0.000000 1.000000
vn 0.000000 0.000000 1.000000
vn 0.000000 0.000000 1.000000
vn 0.000000 0.000000 1.000000
vn 0.000000 0.000000 1.000000
vn 0.000000 0.000000 1.000000
vn 0.000000 0.000000 1.000000
vn 0.000000 0.000000 1.000000
vn 0.000000 0.000000 1.000000
vn 0.000000 0.000000 1.000000
vn 0.000000 0.000000 1.000000
vn 0.000000 0.000000 1.000000
vn 0.000000 0.000000 1.000000
vn 0.000000 0.000000 1.000000
vn 0.000000 0.000000 1.000000
vn 0.000000 0.000000 1.000000
vn 0.000000 0.000000 1.000000
vn 0.000000 0.000000 1.000000
vn 0.000000 0.000000 1.000000
vn 0.000000 0.000000 1.000000
vn 0.000000 0.000000 1.000000
vn 0.000000 0.000000 1.000000
vn 0.000000 0.000000 1.000000
vn 0.000000 0.000000 1.000000
vn 0.000000 0.000000 1.000000
vn 0.000000 0.000000 1.000000
vn 0.000000 0.000000 1.000000
vn 0.000000 0.000000 1.000000
vn 0.000000 0.000000 1.000000
vn 0.000000 0.000000 1.000000
vn 0.000000 0.000000 1.000000
vn 0.000000 0.000000 1.000000
vn 0.000000 0.000000 1.000000
vn 0.000000 0.000000 1.000000
vn 0.000000 0.000000 1.000000
vn 0.000000 0.000000 1.000000
vn 0.000000 0.000000 1.000000
vn 0.000000 0.000000 1.000000
vn 0.000000 0.000000 1.000000
vn 0.000000 0.000000 1.000000
vn 0.000000 0.000000 1.000000
vn -1.000000 0.000000 0.000000
vn -1.000000 0.000000 0.000000
vn -1.000000 0.000000 0.000000
vn -1.000000 0.000000 0.000000
vn -1.000000 0.000000 0.000000
vn 0.000000 -1.000000 0.000000
vn 0.000000 -1.000000 0.000000
vn 0.000000 -1.000000 0.000000
vn 0.000000 -1.000000 0.000000
vn 0.000000 -1.000000 0.000000
vn 0.000000 -1.000000 0.000000
vn 0.000000 -1.000000 0.000000
vn 0.000000 0.000000 -1.000000
vn 0.000000 0.000000 -1.000000
vn 0.000000 0.000000 -1.000000
vn 0.000000 0.000000 -1.000000
vn 0.000000 0.000000 -1.000000
vn 0.000000 0.000000 -1.000000
vn 0.000000 0.000000 -1.000000
vn 0.000000 0.000000 -1.000000
vn 0.000000 0.000000 -1.000000
vn 0.000000 0.000000 -1.000000
vn 0.000000 0.000000 -1.000000
vn 0.000000 0.000000 -1.000000
vn 0.000000 0.000000 -1.000000
vn 0.000000 0.000000 -1.000000
vn 0.000000 0.000000 -1.000000
vn 0.000000 0.000000 -1.000000
vn 0.000000 0.000000 -1.000000
vn 0.000000 0.000000 -1.000000
vn 0.000000 0.000000 -1.000000
vn 0.000000 0.000000 -1.000000
vn 0.000000 0.000000 -1.000000
vn 0.000000 0.000000 -1.000000
vn 0.000000 0.000000 -1.000000
vn 0.000000 0.000000 -1.000000
vn 0.000000 0.000000 -1.000000
vn 0.000000 0.000000 -1.000000
vn 0.000000 0.000000 -1.000000
vn 0.000000 0.000000 -1.000000
vn 0.000000 0.000000 -1.000000
vn 0.000000 0.000000 -1.000000
vn 0.000000 0.000000 -1.000000
vn 0.000000 0.000000 -1.000000
vn 0.000000 0.000000 -1.000000
vn 0.000000 0.000000 -1.000000
vn 0.000000 0.000000 -1.000000
vn 0.000000 0.000000 -1.000000
vn 0.000000 0.000000 -1.000000
vn 0.000000 0.000000 -1.000000
vn 0.000000 0.000000 -1.000000
vn 0.000000 0.000000 -1.000000
vn 0.000000 0.000000 -1.000000
vn 0.000000 0.000000 -1.000000
vn 0.000000 0.000000 -1.000000
vn 0.000000 0.000000 -1.000000
vn 0.000000 0.000000 -1.000000
vn -1.000000 0.000000 0.000000
vn -1.000000 0.000000 0.000000
vn -1.000000 0.000000 0.000000
vn -1.000000 0.000000 0.000000
vn -1.000000 0.000000 0.000000
vn 0.000000 -1.000000 0.000000
vn 0.000000 -1.000000 0.000000
vn 0.000000 -1.000000 0.000000
vn 0.000000 -1.000000 0.000000
vn 0.000000 -1.000000 0.000000
vn 0.000000 -1.000000 0.000000
vn 0.000000 -1.000000 0.000000
vn -1.000000 0.000000 0.000000
vn -1.000000 0.000000 0.000000
vn -1.000000 0.000000 0.000000
vn -1.000000 0.000000 0.000000
vn -1.000000 0.000000 0.000000
vn -1.000000 0.000000 0.000000
vn -1.000000 0.000000 0.000000
vn -1.000000 0.000000 0.000000
vn -1.000000 0.000000 0.000000
vn -1.000000 0.000000 0.000000
vn -1.000000 0.000000 0.000000
vn -1.000000 0.000000 0.000000
vn -1.000000 0.000000 0.000000
vn -1.000000 0.000000 0.000000
vn -1.000000 0.000000 0.000000
vn -1.000000 0.000000 0.000000
vn -1.000000 0.000000 0.000000
vn -1.000000 0.000000 0.000000
vn -1.000000 0.000000 0.000000
vn -1.000000 0.000000 0.000000
vn 1.000000 0.000000 0.000000
vn 1.000000 0.000000 0.000000
vn 1.000000 0.000000 0.000000
vn 1.000000 0.000000 0.000000
vn 1.000000 0.000000 0.000000
vn 1.000000 0.000000 0.000000
vn 1.000000 0.000000 0.000000
vn 1.000000 0.000000 0.000000
vn 1.000000 0.000000 0.000000
vn 1.000000 0.000000 0.000000
vn 1.000000 0.000000 0.000000
vn 1.000000 0.000000 0.000000
vn 1.000000 0.000000 0.000000
vn 1.000000 0.000000 0.000000
vn 1.000000 0.000000 0.000000
vn 1.000000 0.000000 0.000000
vn 1.000000 0.000000 0.000000
vn 1.000000 0.000000 0.000000
vn 1.000000 0.000000 0.000000
vn 1.000000 0.000000 0.000000
vn 1.000000 0.000000 0.000000
vn 1.000000 0.000000 0.000000
vn 1.000000 0.000000 0.000000
vn 1.000000 0.000000 0.000000
vn 1.000000 0.000000 0.000000
vn 1.000000 0.000000 0.000000
vn 1.000000 0.000000 0.000000
vn 1.000000 0.000000 0.000000
vn 1.000000 0.000000 0.000000
vn 1.000000 0.000000 0.000000
vn 1.000000 0.000000 0.000000
vn 1.000000 0.000000 0.000000
vn 1.000000 0.000000 0.000000
vn 1.000000 0.000000 0.000000
vn 1.000000 0.000000 0.000000
vn 1.000000 0.000000 0.000000
vn 0.000000 -1.000000 0.000000
vn 0.000000 -1.000000 0.000000
vn 0.000000 -1.000000 0.000000
vn 0.000000 -1.000000 0.000000
vn 0.000000 -1.000000 0.000000
vn 0.000000 -1.000000 0.000000
vn 0.000000 -1.000000 0.000000
vn 0.000000 -1.000000 0.000000
vn 0.000000 -1.000000 0.000000
vn 0.000000 -1.000000 0.000000
vn 0.000000 -1.000000 0.000000
vn 0.000000 -1.000000 0.000000
vn 0.000000 -1.000000 0.000000
vn 0.000000 -1.000000 0.000000
vn 0.000000 -1.000000 0.000000
vn 0.000000 -1.000000 0.000000
vn 0.000000 -1.000000 0.000000
vn 0.000000 -1.000000 0.000000
vn 0.000000 -1.000000 0.000000
vn 0.000000 -1.000000 0.000000
vn 0.000000 -1.000000 0.000000
vn 0.000000 -1.000000 0.000000
vn 0.000000 -1.000000 0.000000
vn 0.000000 -1.000000 0.000000
vn 0.000000 -1.000000 0.000000
vn 0.000000 -1.000000 0.000000
vn 0.000000 -1.000000 0.000000
vn 0.000000 -1.000000 0.000000
vn 0.000000 1.000000 0.000000
vn 0.000000 1.000000 0.000000
vn 0.000000 1.000000 0.000000
vn 0.000000 1.000000 0.000000
vn 0.000000 1.000000 0.000000
vn 0.000000 1.000000 0.000000
vn 0.000000 1.000000 0.000000
vn 0.000000 1.000000 0.000000
vn 0.000000 1.000000 0.000000
vn 0.000000 1.000000 0.000000
vn 0.000000 1.000000 0.000000
vn 0.000000 1.000000 0.000000
vn 0.000000 1.000000 0.000000
vn 0.000000 1.000000 0.000000
vn 0.000000 1.000000 0.000000
vn 0.000000 1.000000 0.000000
vn -1.000000 0.000000 0.000000
vn -1.000000 0.000000 0.000000
vn -1.000000 0.000000 0.000000
vn -1.000000 0.000000 0.000000
vn -1.000000 0.000000 0.000000
vn -1.000000 0.000000 0.000000
vn -1.000000 0.000000 0.000000
vn -1.000000 0.000000 0.000000
vn 1.000000 0.000000 0.000000
vn 1.000000 0.000000 0.000000
vn 1.000000 0.000000 0.000000
vn 1.000000 0.000000 0.000000
vn 1.000000 0.000000 0.000000
vn 1.000000 0.000000 0.000000
vn 1.000000 0.000000 0.000000
vn 1.000000 0.000000 0.000000
vn 1.000000 0.000000 0.000000
vn 1.000000 0.000000 0.000000
vn 1.000000 0.000000 0.000000
vn 1.000000 0.000000 0.000000
vn 1.000000 0.000000 0.000000
vn 1.000000 0.000000 0.000000
vn 1.000000 0.000000 0.000000
vn 1.000000 0.000000 0.000000
vn 1.000000 0.000000 0.000000
vn 1.000000 0.000000 0.000000
vn 1.000000 0.000000 0.000000
vn 1.000000 0.000000 0.000000
vn 1.000000 0.000000 0.000000
vn 1.000000 0.000000 0.000000
vn 1.000000 0.000000 0.000000
vn 1.000000 0.000000 0.000000
vn 0.000000 -1.000000 0.000000
vn 0.000000 -1.000000 0.000000
vn 0.000000 -1.000000 0.000000
vn 0.000000 -1.000000 0.000000
vn 0.000000 -1.000000 0.000000
vn 0.000000 -1.000000 0.000000
vn 0.000000 -1.000000 0.000000
vn 0.000000 -1.000000 0.000000
vn 0.000000 -1.000000 0.000000
vn 0.000000 -1.000000 0.000000
vn 0.000000 -1.000000 0.000000
vn 0.000000 -1.000000 0.000000
vn 0.000000 -1.000000 0.000000
vn 0.000000 -1.000000 0.000000
vn 0.000000 -1.000000 0.000000
vn 0.000000 -1.000000 0.000000
vn 0.000000 1.000000 0.000000
vn 0.000000 1.000000 0.000000
vn 0.000000 1.000000 0.000000
vn 0.000000 1.000000 0.000000
vn 0.000000 1.000000 0.000000
vn 0.000000 1.000000 0.000000
vn 0.000000 1.000000 0.000000
vn 0.000000 1.000000 0.000000
f 1/1/1 2/2/2 3/3/3
f 1/1/1 4/4/4 2/2/2
f 5/5/5 6/6/6 4/4/4
f 5/5/5 7/7/7 6/6/6
f 8/8/8 9/9/9 7/7/7
f 8/8/8 10/10/10 9/9/9
f 9/9/9 10/10/10 11/11/11
f 11/11/11 10/10/10 12/12/12
f 12/12/12 10/10/10 13/13/13
f 14/14/14 12/12/12 13/13/13
f 14/14/14 13/13/13 15/15/15
f 16/16/16 15/15/15 17/17/17
f 16/16/16 17/17/17 18/18/18
f 19/19/19 18/18/18 20/20/20
f 20/20/20 18/18/18 21/21/21
f 20/20/20 21/21/21 22/22/22
f 23/23/23 24/24/24 25/25/25
f 23/23/23 26/26/26 24/24/24
f 27/27/27 26/26/26 23/23/23
f 27/27/27 28/28/28 26/26/26
f 27/27/27 29/29/29 28/28/28
f 27/27/27 30/30/30 29/29/29
f 27/27/27 31/31/31 30/30/30
f 31/31/31 32/32/32 30/30/30
f 33/33/33 32/32/32 31/31/31
f 32/32/32 34/34/34 30/30/30
f 35/35/35 34/34/34 32/32/32
f 36/36/36 37/37/37 38/38/38
f 36/36/36 39/39/39 37/37/37
f 40/40/40 41/41/41 39/39/39
f 40/40/40 42/42/42 41/41/41
f 43/43/43 44/44/44 42/42/42
f 43/43/43 45/45/45 44/44/44
f 46/46/46 47/47/47 48/48/48
f 46/46/46 49/49/49 47/47/47
f 46/46/46 50/50/50 49/49/49
f 51/51/51 52/52/52 53/53/53
f 51/51/51 53/53/53 54/54/54
f 55/55/55 51/51/51 54/54/54
f 56/56/56 51/51/51 55/55/55
f 56/56/56 57/57/57 51/51/51
f 58/58/58 59/59/59 60/60/60
f 61/61/61 59/59/59 58/58/58
f 61/61/61 62/62/62 59/59/59
f 63/63/63 64/64/64 61/61/61
f 65/65/65 64/64/64 63/63/63
f 66/66/66 67/67/67 65/65/65
f 68/68/68 67/67/67 66/66/66
f 69/69/69 68/68/68 66/66/66
f 69/69/69 70/70/70 68/68/68
f 69/69/69 71/71/71 70/70/70
f 69/69/69 72/72/72 71/71/71
f 71/71/71 72/72/72 73/73/73
f 73/73/73 74/74/74 75/75/75
f 75/75/75 74/74/74 76/76/76
f 76/76/76 77/77/77 78/78/78
f 78/78/78 77/77/77 79/79/79
f 80/80/80 81/81/81 82/82/82
f 82/82/82 81/81/81 83/83/83
f 83/83/83 84/84/84 85/85/85
f 85/85/85 84/84/84 86/86/86
f 86/86/86 87/87/87 88/88/88
f 88/88/88 87/87/87 89/89/89
f 90/90/90 91/91/91 92/92/92
f 90/90/90 92/92/92 93/93/93
f 92/92/92 94/94/94 93/93/93
f 92/92/92 95/95/95 94/94/94
f 94/94/94 96/96/96 93/93/93
f 93/93/93 96/96/96 97/97/97
f 97/97/97 96/96/96 98/98/98
f 98/98/98 96/96/96 99/99/99
f 99/99/99 96/96/96 100/100/100
f 99/99/99 100/100/100 101/101/101
f 101/101/101 100/100/100 102/102/102
f 103/103/103 104/104/104 105/105/105
f 105/105/105 104/104/104 106/106/106
f 106/106/106 104/104/104 107/107/107
f 108/108/108 109/109/109 110/110/110
f 110/110/110 109/109/109 111/111/111
f 110/110/110 111/111/111 112/112/112
f 113/113/113 110/110/110 112/112/112
f 114/114/114 110/110/110 113/113/113
f 115/115/115 116/116/116 117/117/117
f 116/116/116 115/115/115 118/118/118
f 119/119/119 120/120/120 121/121/121
f 120/120/120 119/119/119 122/122/122
f 123/123/123 124/124/124 125/125/125
f 124/124/124 123/123/123 126/126/126
f 127/127/127 128/128/128 129/129/129
f 128/128/128 127/127/127 130/130/130
f 131/131/131 132/132/132 133/133/133
f 132/132/132 131/131/131 134/134/134
f 135/135/135 136/136/136 137/137/137
f 136/136/136 135/135/135 138/138/138
f 139/139/139 140/140/140 141/141/141
f 140/140/140 139/139/139 142/142/142
f 143/143/143 144/144/144 145/145/145
f 144/144/144 143/143/143 146/146/146
f 147/147/147 148/148/148 149/149/149
f 148/148/148 147/147/147 150/150/150
f 151/151/151 152/152/152 153/153/153
f 152/152/152 151/151/151 154/154/154
f 155/155/155 156/156/156 157/157/157
f 156/156/156 155/155/155 158/158/158
f 159/159/159 160/160/160 161/161/161
f 160/160/160 159/159/159 162/162/162
f 163/163/163 164/164/164 165/165/165
f 164/164/164 163/163/163 166/166/166
f 167/167/167 168/168/168 169/169/169
f 168/168/168 167/167/167 170/170/170
f 171/171/171 172/172/172 173/173/173
f 172/172/172 171/171/171 174/174/174
f 175/175/175 176/176/176 177/177/177
f 176/176/176 175/175/175 178/178/178
f 179/179/179 180/180/180 181/181/181
f 180/180/180 179/179/179 182/182/182
f 183/183/183 184/184/184 185/185/185
f 184/184/184 183/183/183 186/186/186
f 187/187/187 188/188/188 189/189/189
f 188/188/188 187/187/187 190/190/190
f 191/191/191 192/192/192 193/193/193
f 192/192/192 191/191/191 194/194/194
f 195/195/195 196/196/196 197/197/197
f 196/196/196 195/195/195 198/198/198
f 199/199/199 200/200/200 201/201/201
f 200/200/200 199/199/199 202/202/202
f 203/203/203 204/204/204 205/205/205
f 204/204/204 203/203/203 206/206/206
f 207/207/207 208/208/208 209/209/209
f 208/208/208 207/207/207 210/210/210
f 211/211/211 212/212/212 213/213/213
f 212/212/212 211/211/211 214/214/214
f 215/215/215 216/216/216 217/217/217
f 216/216/216 215/215/215 218/218/218
f 219/219/219 220/220/220 221/221/221
f 220/220/220 219/219/219 222/222/222
f 223/223/223 224/224/224 225/225/225
f 224/224/224 223/223/223 226/226/226
f 227/227/227 228/228/228 229/229/229
f 228/228/228 227/227/227 230/230/230
f 231/231/231 232/232/232 233/233/233
f 232/232/232 231/231/231 234/234/234
f 235/235/235 236/236/236 237/237/237
f 236/236/236 235/235/235 238/238/238
f 239/239/239 240/240/240 241/241/241
f 240/240/240 239/239/239 242/242/242
f 243/243/243 244/244/244 245/245/245
f 244/244/244 243/243/243 246/246/246
f 247/247/247 248/248/248 249/249/249
f 248/248/248 247/247/247 250/250/250
f 251/251/251 252/252/252 253/253/253
f 252/252/252 251/251/251 254/254/254
f 255/255/255 256/256/256 257/257/257
f 256/256/256 255/255/255 258/258/258
f 259/259/259 260/260/260 261/261/261
f 260/260/260 259/259/259 262/262/262
f 263/263/263 264/264/264 265/265/265
f 264/264/264 263/263/263 266/266/266
f 267/267/267 268/268/268 269/269/269
f 268/268/268 267/267/267 270/270/270