# Glock
v 0.015000 0.030000 0.000000
v 0.015000 0.000000 0.000000
v 0.000000 0.030000 0.000000
v 0.000000 0.000000 0.000000
v 0.000000 0.030000 0.000000
v 0.000000 -0.015000 0.000000
v -0.195000 0.000000 0.000000
v -0.120000 -0.015000 0.000000
v -0.135000 -0.015000 0.000000
v -0.120000 -0.045000 0.000000
v -0.135000 -0.045000 0.000000
v -0.180000 -0.015000 0.000000
v -0.180000 -0.030000 0.000000
v -0.195000 -0.015000 0.000000
v -0.195000 -0.030000 0.000000
v -0.210000 -0.015000 0.000000
v -0.285000 0.000000 -0.003750
v -0.285000 0.015000 -0.003750
v -0.270000 0.000000 -0.003750
v -0.195000 -0.015000 -0.003750
v -0.210000 -0.015000 -0.003750
v -0.195000 0.000000 -0.003750
v 0.000000 0.000000 -0.003750
v 0.000000 0.030000 -0.003750
v -0.300000 0.030000 -0.003750
v -0.300000 0.015000 -0.003750
v -0.285000 0.015000 0.018750
v -0.300000 0.030000 0.018750
v -0.300000 0.015000 0.018750
v 0.000000 0.000000 0.018750
v 0.000000 0.030000 0.018750
v -0.195000 0.000000 0.018750
v -0.195000 -0.015000 0.018750
v -0.270000 0.000000 0.018750
v -0.210000 -0.015000 0.018750
v -0.285000 0.000000 0.018750
v 0.000000 0.000000 0.000000
v 0.000000 0.030000 -0.003750
v 0.000000 0.030000 0.000000
v 0.000000 0.000000 -0.003750
v -0.300000 0.015000 0.000000
v -0.285000 0.000000 0.000000
v -0.300000 0.000000 0.000000
v -0.285000 0.015000 0.000000
v -0.300000 0.030000 0.000000
v -0.315000 0.015000 0.000000
v -0.315000 0.030000 0.000000
v -0.285000 0.000000 0.015000
v -0.300000 0.015000 0.015000
v -0.300000 0.000000 0.015000
v -0.285000 0.015000 0.015000
v -0.300000 0.030000 0.015000
v -0.315000 0.030000 0.015000
v -0.315000 0.015000 0.015000
v 0.015000 0.000000 0.015000
v 0.015000 0.030000 0.015000
v 0.000000 0.030000 0.015000
v 0.000000 0.000000 0.015000
v -0.195000 0.000000 0.015000
v 0.000000 -0.015000 0.015000
v -0.120000 -0.015000 0.015000
v -0.135000 -0.015000 0.015000
v -0.120000 -0.045000 0.015000
v -0.135000 -0.045000 0.015000
v -0.180000 -0.015000 0.015000
v -0.180000 -0.030000 0.015000
v -0.195000 -0.015000 0.015000
v -0.195000 -0.030000 0.015000
v -0.210000 -0.015000 0.015000
v 0.000000 0.000000 0.018750
v 0.000000 0.030000 0.015000
v 0.000000 0.030000 0.018750
v 0.000000 0.000000 0.015000
v -0.300000 0.015000 0.015000
v -0.300000 0.030000 0.018750
v -0.300000 0.030000 0.015000
v -0.300000 0.015000 0.018750
v -0.300000 0.015000 0.000000
v -0.300000 0.030000 -0.003750
v -0.300000 0.015000 -0.003750
v -0.300000 0.030000 0.000000
v -0.315000 0.015000 0.015000
v -0.315000 0.030000 0.015000
v -0.315000 0.030000 0.000000
v -0.315000 0.015000 0.000000
v -0.300000 0.000000 0.015000
v -0.300000 0.015000 0.000000
v -0.300000 0.000000 0.000000
v -0.300000 0.015000 0.015000
v -0.285000 0.000000 0.000000
v -0.285000 0.015000 -0.003750
v -0.285000 0.000000 -0.003750
v -0.285000 0.015000 0.000000
v -0.285000 0.000000 0.018750
v -0.285000 0.015000 0.015000
v -0.285000 0.000000 0.015000
v -0.285000 0.015000 0.018750
v -0.135000 -0.045000 0.015000
v -0.135000 -0.015000 0.000000
v -0.135000 -0.045000 0.000000
v -0.135000 -0.015000 0.015000
v -0.195000 0.000000 0.000000
v -0.195000 -0.015000 -0.003750
v -0.195000 0.000000 -0.003750
v -0.195000 -0.015000 0.000000
v -0.195000 0.000000 0.018750
v -0.195000 -0.015000 0.015000
v -0.195000 0.000000 0.015000
v -0.195000 -0.015000 0.018750
v -0.180000 -0.015000 0.015000
v -0.180000 -0.030000 0.000000
v -0.180000 -0.015000 0.000000
v -0.180000 -0.030000 0.015000
v -0.120000 -0.015000 0.015000
v -0.120000 -0.045000 0.000000
v -0.120000 -0.015000 0.000000
v -0.120000 -0.045000 0.015000
v 0.000000 0.000000 0.015000
v 0.000000 -0.015000 0.000000
v 0.000000 0.000000 0.000000
v 0.000000 -0.015000 0.015000
v 0.015000 0.000000 0.000000
v 0.015000 0.030000 0.015000
v 0.015000 0.000000 0.015000
v 0.015000 0.030000 0.000000
v -0.120000 -0.045000 0.000000
v -0.135000 -0.045000 0.015000
v -0.135000 -0.045000 0.000000
v -0.120000 -0.045000 0.015000
v -0.180000 -0.030000 0.000000
v -0.195000 -0.030000 0.015000
v -0.195000 -0.030000 0.000000
v -0.180000 -0.030000 0.015000
v -0.195000 -0.015000 -0.003750
v -0.210000 -0.015000 0.000000
v -0.210000 -0.015000 -0.003750
v -0.195000 -0.015000 0.000000
v -0.135000 -0.015000 0.000000
v -0.180000 -0.015000 0.015000
v -0.180000 -0.015000 0.000000
v -0.135000 -0.015000 0.015000
v 0.000000 -0.015000 0.000000
v -0.120000 -0.015000 0.015000
v -0.120000 -0.015000 0.000000
v 0.000000 -0.015000 0.015000
v -0.195000 -0.015000 0.015000
v -0.210000 -0.015000 0.018750
v -0.210000 -0.015000 0.015000
v -0.195000 -0.015000 0.018750
v -0.270000 0.000000 -0.003750
v -0.285000 0.000000 0.000000
v -0.285000 0.000000 -0.003750
v -0.270000 0.000000 0.000000
v 0.000000 0.000000 -0.003750
v -0.195000 0.000000 0.000000
v -0.195000 0.000000 -0.003750
v 0.000000 0.000000 0.000000
v -0.285000 0.000000 0.000000
v -0.300000 0.000000 0.015000
v -0.300000 0.000000 0.000000
v -0.285000 0.000000 0.015000
v 0.015000 0.000000 0.000000
v 0.000000 0.000000 0.015000
v 0.000000 0.000000 0.000000
v 0.015000 0.000000 0.015000
v -0.270000 0.000000 0.015000
v -0.285000 0.000000 0.018750
v -0.285000 0.000000 0.015000
v -0.270000 0.000000 0.018750
v 0.000000 0.000000 0.015000
v -0.195000 0.000000 0.018750
v -0.195000 0.000000 0.015000
v 0.000000 0.000000 0.018750
v -0.285000 0.015000 -0.003750
v -0.300000 0.015000 0.000000
v -0.300000 0.015000 -0.003750
v -0.285000 0.015000 0.000000
v -0.300000 0.015000 0.000000
v -0.315000 0.015000 0.015000
v -0.315000 0.015000 0.000000
v -0.300000 0.015000 0.015000
v -0.285000 0.015000 0.015000
v -0.300000 0.015000 0.018750
v -0.300000 0.015000 0.015000
v -0.285000 0.015000 0.018750
v -0.135000 -0.045000 0.015000
v -0.195000 -0.045000 0.000000
v -0.195000 -0.045000 0.015000
v -0.135000 -0.045000 0.000000
v -0.180000 0.059832 -0.003750
v -0.120000 0.045000 -0.003750
v -0.180000 0.045000 -0.003750
v -0.120000 0.059832 -0.003750
v -0.120000 0.059832 0.018750
v -0.180000 0.045000 0.018750
v -0.120000 0.045000 0.018750
v -0.180000 0.059832 0.018750
v -0.179975 0.060000 0.015000
v -0.180000 0.059832 0.018750
v -0.120000 0.059832 0.018750
v -0.119955 0.060000 0.015000
v -0.120000 0.060000 0.000000
v -0.120000 0.059832 -0.003750
v -0.180000 0.059832 -0.003750
v -0.180000 0.060000 0.000000
v -0.315000 0.030000 0.000000
v -0.315000 0.030000 0.015000
v -0.300000 0.030000 0.015000
v -0.300000 0.030000 0.000000
v 0.015000 0.030000 0.015000
v 0.015000 0.030000 0.000000
v 0.000000 0.030000 0.000000
v 0.000000 0.030000 0.015000
v 0.000000 0.030000 -0.003750
v -0.300000 0.030000 -0.003750
v -0.300000 0.030000 0.000000
v 0.000000 0.030000 0.000000
v -0.300000 0.030000 0.015000
v 0.000000 0.030000 0.015000
v 0.000000 0.030000 0.018750
v -0.300000 0.030000 0.018750
v -0.180000 0.045000 0.000000
v -0.240233 0.045000 0.000000
v -0.240233 0.060000 0.000000
v -0.180000 0.060000 0.000000
v -0.180000 0.060000 0.015000
v -0.240233 0.060000 0.015000
v -0.240233 0.045000 0.015000
v -0.180000 0.045000 0.015000
v -0.180000 0.059832 0.018750
v -0.179975 0.060000 0.015000
v -0.180000 0.045000 0.015000
v -0.180000 0.045000 0.018750
v -0.180000 0.045000 -0.003750
v -0.180000 0.045000 0.000000
v -0.180000 0.060000 0.000000
v -0.180000 0.059832 -0.003750
vt 0.706462 0.374112
vt 0.718800 0.312500
vt 0.703347 0.374213
vt 0.687500 0.312500
vt 0.687500 0.375000
vt 0.687500 0.281300
vt 0.281300 0.312500
vt 0.437500 0.281300
vt 0.406300 0.281300
vt 0.437500 0.218800
vt 0.406300 0.218800
vt 0.312500 0.281300
vt 0.312500 0.250000
vt 0.281300 0.281300
vt 0.281300 0.250000
vt 0.250000 0.281300
vt 0.093800 0.312500
vt 0.093800 0.343800
vt 0.125000 0.312500
vt 0.281300 0.281300
vt 0.250000 0.281300
vt 0.281300 0.312500
vt 0.687500 0.312500
vt 0.687500 0.375000
vt 0.062500 0.375000
vt 0.062500 0.343800
vt 0.093800 0.343800
vt 0.062500 0.375000
vt 0.062500 0.343800
vt 0.687500 0.312500
vt 0.687500 0.375000
vt 0.281300 0.312500
vt 0.281300 0.281300
vt 0.125000 0.312500
vt 0.250000 0.281300
vt 0.093800 0.312500
vt 0.687500 0.312500
vt 0.671900 0.375000
vt 0.687500 0.375000
vt 0.671900 0.312500
vt 0.062500 0.343800
vt 0.093800 0.312500
vt 0.062500 0.312500
vt 0.093800 0.343800
vt 0.054843 0.374475
vt 0.031300 0.343800
vt 0.031300 0.372862
vt 0.093800 0.312500
vt 0.062500 0.343800
vt 0.062500 0.312500
vt 0.093800 0.343800
vt 0.054875 0.374350
vt 0.031300 0.373156
vt 0.031300 0.343800
vt 0.718800 0.312500
vt 0.706411 0.374368
vt 0.703275 0.374499
vt 0.687500 0.312500
vt 0.281300 0.312500
vt 0.687500 0.281300
vt 0.437500 0.281300
vt 0.406300 0.281300
vt 0.437500 0.218800
vt 0.406300 0.218800
vt 0.312500 0.281300
vt 0.312500 0.250000
vt 0.281300 0.281300
vt 0.281300 0.250000
vt 0.250000 0.281300
vt 0.671900 0.312500
vt 0.687500 0.375000
vt 0.671900 0.375000
vt 0.687500 0.312500
vt 0.062500 0.343800
vt 0.078100 0.375000
vt 0.062500 0.374983
vt 0.078100 0.343800
vt 0.062500 0.343800
vt 0.078100 0.375000
vt 0.078100 0.343800
vt 0.062500 0.374983
vt 0.397800 0.456900
vt 0.404900 0.455119
vt 0.404845 0.449300
vt 0.397800 0.449300
vt 0.390200 0.456900
vt 0.397800 0.449300
vt 0.390200 0.449300
vt 0.397800 0.456900
vt 0.093800 0.312500
vt 0.109400 0.343800
vt 0.109400 0.312500
vt 0.093800 0.343800
vt 0.093800 0.312500
vt 0.109400 0.343800
vt 0.109400 0.312500
vt 0.093800 0.343800
vt 0.367400 0.456900
vt 0.382600 0.449300
vt 0.367400 0.449300
vt 0.382600 0.456900
vt 0.281300 0.312500
vt 0.265600 0.281300
vt 0.265600 0.312500
vt 0.281300 0.281300
vt 0.281300 0.312500
vt 0.265600 0.281300
vt 0.265600 0.312500
vt 0.281300 0.281300
vt 0.382600 0.449300
vt 0.375000 0.456900
vt 0.382600 0.456900
vt 0.375000 0.449300
vt 0.382600 0.449300
vt 0.367400 0.456900
vt 0.382600 0.456900
vt 0.367400 0.449300
vt 0.390200 0.449300
vt 0.382600 0.456900
vt 0.390200 0.456900
vt 0.382600 0.449300
vt 0.390200 0.456900
vt 0.405037 0.453925
vt 0.390200 0.449300
vt 0.405024 0.456900
vt 0.481200 0.456900
vt 0.473600 0.449300
vt 0.473600 0.456900
vt 0.481200 0.449300
vt 0.450900 0.456900
vt 0.443300 0.449300
vt 0.443300 0.456900
vt 0.450900 0.449300
vt 0.281300 0.296900
vt 0.250000 0.281300
vt 0.250000 0.296900
vt 0.281300 0.281300
vt 0.473600 0.456900
vt 0.450900 0.449300
vt 0.450900 0.456900
vt 0.473600 0.449300
vt 0.541900 0.456900
vt 0.481200 0.449300
vt 0.481200 0.456900
vt 0.541900 0.449300
vt 0.281300 0.296900
vt 0.250000 0.281300
vt 0.250000 0.296900
vt 0.281300 0.281300
vt 0.125000 0.328100
vt 0.093800 0.312500
vt 0.093700 0.328100
vt 0.125000 0.312500
vt 0.687500 0.328100
vt 0.281300 0.312500
vt 0.281300 0.328100
vt 0.687500 0.312500
vt 0.397800 0.456900
vt 0.390200 0.449300
vt 0.390200 0.456900
vt 0.397800 0.449300
vt 0.549500 0.456900
vt 0.541900 0.449300
vt 0.541900 0.456900
vt 0.549500 0.449300
vt 0.125000 0.328100
vt 0.093800 0.312500
vt 0.093700 0.328100
vt 0.125000 0.312500
vt 0.687500 0.328100
vt 0.281300 0.312500
vt 0.281300 0.328100
vt 0.687500 0.312500
vt 0.093700 0.359400
vt 0.062500 0.343800
vt 0.062500 0.359400
vt 0.093800 0.343800
vt 0.390200 0.456900
vt 0.382600 0.449300
vt 0.382600 0.456900
vt 0.390200 0.449300
vt 0.093700 0.359400
vt 0.062500 0.343800
vt 0.062500 0.359400
vt 0.093800 0.343800
vt 0.276400 0.449300
vt 0.306700 0.456900
vt 0.306700 0.449300
vt 0.276400 0.456900
vt 0.312500 0.437500
vt 0.437500 0.406300
vt 0.312500 0.406300
vt 0.437500 0.437500
vt 0.437500 0.437500
vt 0.312552 0.406300
vt 0.437500 0.406300
vt 0.312552 0.437500
vt 0.312552 0.437500
vt 0.312552 0.427101
vt 0.437531 0.427101
vt 0.437531 0.437500
vt 0.437500 0.437500
vt 0.437500 0.427099
vt 0.312549 0.427099
vt 0.312549 0.437500
vt 0.713930 0.316282
vt 0.713930 0.337427
vt 0.692785 0.337427
vt 0.692785 0.316282
vt 0.692785 0.337427
vt 0.692785 0.316282
vt 0.713930 0.316282
vt 0.713930 0.337427
vt 0.062500 0.350401
vt 0.687500 0.350401
vt 0.687500 0.354017
vt 0.062500 0.354017
vt 0.687500 0.368483
vt 0.062500 0.368483
vt 0.062500 0.372099
vt 0.687500 0.372099
vt 0.692278 0.320527
vt 0.715495 0.320527
vt 0.715495 0.336198
vt 0.692278 0.336198
vt 0.692278 0.336198
vt 0.715495 0.336198
vt 0.715495 0.320527
vt 0.692278 0.320527
vt 0.333341 0.427796
vt 0.333341 0.417732
vt 0.320071 0.417732
vt 0.320071 0.427796
vt 0.320071 0.417732
vt 0.320071 0.427796
vt 0.333341 0.427796
vt 0.333341 0.417732
vn 0.000000 0.000000 -1.000000
vn 0.000000 0.000000 -1.000000
vn 0.000000 0.000000 -1.000000
vn 0.000000 0.000000 -1.000000
vn 0.000000 0.000000 -1.000000
vn 0.000000 0.000000 -1.000000
vn 0.000000 0.000000 -1.000000
vn 0.000000 0.000000 -1.000000
vn 0.000000 0.000000 -1.000000
vn 0.000000 0.000000 -1.000000
vn 0.000000 0.000000 -1.000000
vn 0.000000 0.000000 -1.000000
vn 0.000000 0.000000 -1.000000
vn 0.000000 0.000000 -1.000000
vn 0.000000 0.000000 -1.000000
vn 0.000000 0.000000 -1.000000
vn 0.000000 0.000000 -1.000000
vn 0.000000 0.000000 -1.000000
vn 0.000000 0.000000 -1.000000
vn 0.000000 0.000000 -1.000000
vn 0.000000 0.000000 -1.000000
vn 0.000000 0.000000 -1.000000
vn 0.000000 0.000000 -1.000000
vn 0.000000 0.000000 -1.000000
vn 0.000000 0.000000 -1.000000
vn 0.000000 0.000000 -1.000000
vn 0.000000 0.000000 1.000000
vn 0.000000 0.000000 1.000000
vn 0.000000 0.000000 1.000000
vn 0.000000 0.000000 1.000000
vn 0.000000 0.000000 1.000000
vn 0.000000 0.000000 1.000000
vn 0.000000 0.000000 1.000000
vn 0.000000 0.000000 1.000000
vn 0.000000 0.000000 1.000000
vn 0.000000 0.000000 1.000000
vn 1.000000 0.000000 0.000000
vn 1.000000 0.000000 0.000000
vn 1.000000 0.000000 0.000000
vn 1.000000 0.000000 0.000000
vn 0.000000 0.000000 -1.000000
vn 0.000000 0.000000 -1.000000
vn 0.000000 0.000000 -1.000000
vn 0.000000 0.000000 -1.000000
vn 0.000000 0.000000 -1.000000
vn 0.000000 0.000000 -1.000000
vn 0.000000 0.000000 -1.000000
vn 0.000000 0.000000 1.000000
vn 0.000000 0.000000 1.000000
vn 0.000000 0.000000 1.000000
vn 0.000000 0.000000 1.000000
vn 0.000000 0.000000 1.000000
vn 0.000000 0.000000 1.000000
vn 0.000000 0.000000 1.000000
vn 0.000000 0.000000 1.000000
vn 0.000000 0.000000 1.000000
vn 0.000000 0.000000 1.000000
vn 0.000000 0.000000 1.000000
vn 0.000000 0.000000 1.000000
vn 0.000000 0.000000 1.000000
vn 0.000000 0.000000 1.000000
vn 0.000000 0.000000 1.000000
vn 0.000000 0.000000 1.000000
vn 0.000000 0.000000 1.000000
vn 0.000000 0.000000 1.000000
vn 0.000000 0.000000 1.000000
vn 0.000000 0.000000 1.000000
vn 0.000000 0.000000 1.000000
vn 0.000000 0.000000 1.000000
vn 1.000000 0.000000 0.000000
vn 1.000000 0.000000 0.000000
vn 1.000000 0.000000 0.000000
vn 1.000000 0.000000 0.000000
vn -1.000000 0.000000 0.000000
vn -1.000000 0.000000 0.000000
vn -1.000000 0.000000 0.000000
vn -1.000000 0.000000 0.000000
vn -1.000000 0.000000 0.000000
vn -1.000000 0.000000 0.000000
vn -1.000000 0.000000 0.000000
vn -1.000000 0.000000 0.000000
vn -1.000000 0.000000 0.000000
vn -1.000000 0.000000 0.000000
vn -1.000000 0.000000 0.000000
vn -1.000000 0.000000 0.000000
vn -1.000000 0.000000 0.000000
vn -1.000000 0.000000 0.000000
vn -1.000000 0.000000 0.000000
vn -1.000000 0.000000 0.000000
vn -1.000000 0.000000 0.000000
vn -1.000000 0.000000 0.000000
vn -1.000000 0.000000 0.000000
vn -1.000000 0.000000 0.000000
vn -1.000000 0.000000 0.000000
vn -1.000000 0.000000 0.000000
vn -1.000000 0.000000 0.000000
vn -1.000000 0.000000 0.000000
vn -1.000000 0.000000 0.000000
vn -1.000000 0.000000 0.000000
vn -1.000000 0.000000 0.000000
vn -1.000000 0.000000 0.000000
vn 1.000000 0.000000 0.000000
vn 1.000000 0.000000 0.000000
vn 1.000000 0.000000 0.000000
vn 1.000000 0.000000 0.000000
vn 1.000000 0.000000 0.000000
vn 1.000000 0.000000 0.000000
vn 1.000000 0.000000 0.000000
vn 1.000000 0.000000 0.000000
vn 1.000000 0.000000 0.000000
vn 1.000000 0.000000 0.000000
vn 1.000000 0.000000 0.000000
vn 1.000000 0.000000 0.000000
vn 1.000000 0.000000 0.000000
vn 1.000000 0.000000 0.000000
vn 1.000000 0.000000 0.000000
vn 1.000000 0.000000 0.000000
vn 1.000000 0.000000 0.000000
vn 1.000000 0.000000 0.000000
vn 1.000000 0.000000 0.000000
vn 1.000000 0.000000 0.000000
vn 1.000000 0.000000 0.000000
vn 1.000000 0.000000 0.000000
vn 1.000000 0.000000 0.000000
vn 1.000000 0.000000 0.000000
vn 0.000000 -1.000000 0.000000
vn 0.000000 -1.000000 0.000000
vn 0.000000 -1.000000 0.000000
vn 0.000000 -1.000000 0.000000
vn 0.000000 -1.000000 0.000000
vn 0.000000 -1.000000 0.000000
vn 0.000000 -1.000000 0.000000
vn 0.000000 -1.000000 0.000000
vn 0.000000 -1.000000 0.000000
vn 0.000000 -1.000000 0.000000
vn 0.000000 -1.000000 0.000000
vn 0.000000 -1.000000 0.000000
vn 0.000000 -1.000000 0.000000
vn 0.000000 -1.000000 0.000000
vn 0.000000 -1.000000 0.000000
vn 0.000000 -1.000000 0.000000
vn 0.000000 -1.000000 0.000000
vn 0.000000 -1.000000 0.000000
vn 0.000000 -1.000000 0.000000
vn 0.000000 -1.000000 0.000000
vn 0.000000 -1.000000 0.000000
vn 0.000000 -1.000000 0.000000
vn 0.000000 -1.000000 0.000000
vn 0.000000 -1.000000 0.000000
vn 0.000000 -1.000000 0.000000
vn 0.000000 -1.000000 0.000000
vn 0.000000 -1.000000 0.000000
vn 0.000000 -1.000000 0.000000
vn 0.000000 -1.000000 0.000000
vn 0.000000 -1.000000 0.000000
vn 0.000000 -1.000000 0.000000
vn 0.000000 -1.000000 0.000000
vn 0.000000 -1.000000 0.000000
vn 0.000000 -1.000000 0.000000
vn 0.000000 -1.000000 0.000000
vn 0.000000 -1.000000 0.000000
vn 0.000000 -1.000000 0.000000
vn 0.000000 -1.000000 0.000000
vn 0.000000 -1.000000 0.000000
vn 0.000000 -1.000000 0.000000
vn 0.000000 -1.000000 0.000000
vn 0.000000 -1.000000 0.000000
vn 0.000000 -1.000000 0.000000
vn 0.000000 -1.000000 0.000000
vn 0.000000 -1.000000 0.000000
vn 0.000000 -1.000000 0.000000
vn 0.000000 -1.000000 0.000000
vn 0.000000 -1.000000 0.000000
vn 0.000000 -1.000000 0.000000
vn 0.000000 -1.000000 0.000000
vn 0.000000 -1.000000 0.000000
vn 0.000000 -1.000000 0.000000
vn 0.000000 -1.000000 0.000000
vn 0.000000 -1.000000 0.000000
vn 0.000000 -1.000000 0.000000
vn 0.000000 -1.000000 0.000000
vn 0.000000 -1.000000 0.000000
vn 0.000000 -1.000000 0.000000
vn 0.000000 -1.000000 0.000000
vn 0.000000 -1.000000 0.000000
vn 0.000000 1.000000 0.000000
vn 0.000000 1.000000 0.000000
vn 0.000000 1.000000 0.000000
vn 0.000000 1.000000 0.000000
vn 0.000000 0.000000 -1.000000
vn 0.000000 0.000000 -1.000000
vn 0.000000 0.000000 -1.000000
vn 0.000000 0.000000 -1.000000
vn 0.000000 0.000000 1.000000
vn 0.000000 0.000000 1.000000
vn 0.000000 0.000000 1.000000
vn 0.000000 0.000000 1.000000
vn 0.000000 0.998996 0.044803
vn 0.000000 0.998996 0.044803
vn 0.000000 0.998996 0.044803
vn 0.000000 0.998996 0.044803
vn 0.000000 0.998996 -0.044803
vn 0.000000 0.998996 -0.044803
vn 0.000000 0.998996 -0.044803
vn 0.000000 0.998996 -0.044803
vn 0.000000 1.000000 0.000000
vn 0.000000 1.000000 0.000000
vn 0.000000 1.000000 0.000000
vn 0.000000 1.000000 0.000000
vn 0.000000 1.000000 0.000000
vn 0.000000 1.000000 0.000000
vn 0.000000 1.000000 0.000000
vn 0.000000 1.000000 0.000000
vn 0.000000 1.000000 0.000000
vn 0.000000 1.000000 0.000000
vn 0.000000 1.000000 0.000000
vn 0.000000 1.000000 0.000000
vn 0.000000 1.000000 0.000000
vn 0.000000 1.000000 0.000000
vn 0.000000 1.000000 0.000000
vn 0.000000 1.000000 0.000000
vn 0.000000 0.000000 -1.000000
vn 0.000000 0.000000 -1.000000
vn 0.000000 0.000000 -1.000000
vn 0.000000 0.000000 -1.000000
vn 0.000000 0.000000 1.000000
vn 0.000000 0.000000 1.000000
vn 0.000000 0.000000 1.000000
vn 0.000000 0.000000 1.000000
vn -0.999994 0.000832 -0.003292
vn -0.999994 0.000832 -0.003292
vn -0.999994 0.000832 -0.003292
vn -0.999994 0.000832 -0.003292
vn -1.000000 0.000000 0.000000
vn -1.000000 0.000000 0.000000
vn -1.000000 0.000000 0.000000
vn -1.000000 0.000000 0.000000
f 1/1/1 2/2/2 3/3/3
f 4/4/4 5/5/5 2/2/2
f 6/6/6 7/7/7 4/4/4
f 7/7/7 6/6/6 8/8/8
f 9/9/9 7/7/7 8/8/8
f 10/10/10 9/9/9 8/8/8
f 9/9/9 10/10/10 11/11/11
f 7/7/7 9/9/9 12/12/12
f 13/13/13 7/7/7 12/12/12
f 7/7/7 13/13/13 14/14/14
f 15/15/15 14/14/14 13/13/13
f 14/14/14 15/15/15 16/16/16
f 17/17/17 18/18/18 19/19/19
f 18/18/18 20/20/20 19/19/19
f 21/21/21 19/19/19 20/20/20
f 20/20/20 18/18/18 22/22/22
f 22/22/22 18/18/18 23/23/23
f 18/18/18 24/24/24 23/23/23
f 24/24/24 18/18/18 25/25/25
f 26/26/26 25/25/25 18/18/18
f 27/27/27 28/28/28 29/29/29
f 30/30/30 28/28/28 27/27/27
f 28/28/28 30/30/30 31/31/31
f 30/30/30 27/27/27 32/32/32
f 27/27/27 33/33/33 32/32/32
f 33/33/33 27/27/27 34/34/34
f 33/33/33 34/34/34 35/35/35
f 34/34/34 27/27/27 36/36/36
f 37/37/37 38/38/38 39/39/39
f 38/38/38 37/37/37 40/40/40
f 41/41/41 42/42/42 43/43/43
f 42/42/42 41/41/41 44/44/44
f 45/45/45 41/41/41 46/46/46
f 45/45/45 46/46/46 47/47/47
f 48/48/48 49/49/49 50/50/50
f 49/49/49 48/48/48 51/51/51
f 49/49/49 52/52/52 53/53/53
f 49/49/49 53/53/53 54/54/54
f 55/55/55 56/56/56 57/57/57
f 55/55/55 57/57/57 58/58/58
f 59/59/59 60/60/60 58/58/58
f 60/60/60 59/59/59 61/61/61
f 59/59/59 62/62/62 61/61/61
f 62/62/62 63/63/63 61/61/61
f 63/63/63 62/62/62 64/64/64
f 62/62/62 59/59/59 65/65/65
f 59/59/59 66/66/66 65/65/65
f 66/66/66 59/59/59 67/67/67
f 67/67/67 68/68/68 66/66/66
f 68/68/68 67/67/67 69/69/69
f 70/70/70 71/71/71 72/72/72
f 71/71/71 70/70/70 73/73/73
f 74/74/74 75/75/75 76/76/76
f 75/75/75 74/74/74 77/77/77
f 78/78/78 79/79/79 80/80/80
f 81/81/81 79/79/79 78/78/78
f 82/82/82 83/83/83 84/84/84
f 82/82/82 84/84/84 85/85/85
f 86/86/86 87/87/87 88/88/88
f 87/87/87 86/86/86 89/89/89
f 90/90/90 91/91/91 92/92/92
f 91/91/91 90/90/90 93/93/93
f 94/94/94 95/95/95 96/96/96
f 95/95/95 94/94/94 97/97/97
f 98/98/98 99/99/99 100/100/100
f 99/99/99 98/98/98 101/101/101
f 102/102/102 103/103/103 104/104/104
f 103/103/103 102/102/102 105/105/105
f 106/106/106 107/107/107 108/108/108
f 107/107/107 106/106/106 109/109/109
f 110/110/110 111/111/111 112/112/112
f 111/111/111 110/110/110 113/113/113
f 114/114/114 115/115/115 116/116/116
f 115/115/115 114/114/114 117/117/117
f 118/118/118 119/119/119 120/120/120
f 119/119/119 118/118/118 121/121/121
f 122/122/122 123/123/123 124/124/124
f 123/123/123 122/122/122 125/125/125
f 126/126/126 127/127/127 128/128/128
f 127/127/127 126/126/126 129/129/129
f 130/130/130 131/131/131 132/132/132
f 131/131/131 130/130/130 133/133/133
f 134/134/134 135/135/135 136/136/136
f 135/135/135 134/134/134 137/137/137
f 138/138/138 139/139/139 140/140/140
f 139/139/139 138/138/138 141/141/141
f 142/142/142 143/143/143 144/144/144
f 143/143/143 142/142/142 145/145/145
f 146/146/146 147/147/147 148/148/148
f 147/147/147 146/146/146 149/149/149
f 150/150/150 151/151/151 152/152/152
f 151/151/151 150/150/150 153/153/153
f 154/154/154 155/155/155 156/156/156
f 155/155/155 154/154/154 157/157/157
f 158/158/158 159/159/159 160/160/160
f 159/159/159 158/158/158 161/161/161
f 162/162/162 163/163/163 164/164/164
f 163/163/163 162/162/162 165/165/165
f 166/166/166 167/167/167 168/168/168
f 167/167/167 166/166/166 169/169/169
f 170/170/170 171/171/171 172/172/172
f 171/171/171 170/170/170 173/173/173
f 174/174/174 175/175/175 176/176/176
f 175/175/175 174/174/174 177/177/177
f 178/178/178 179/179/179 180/180/180
f 179/179/179 178/178/178 181/181/181
f 182/182/182 183/183/183 184/184/184
f 183/183/183 182/182/182 185/185/185
f 186/186/186 187/187/187 188/188/188
f 187/187/187 186/186/186 189/189/189
f 190/190/190 191/191/191 192/192/192
f 191/191/191 190/190/190 193/193/193
f 194/194/194 195/195/195 196/196/196
f 195/195/195 194/194/194 197/197/197
f 198/198/198 199/199/199 200/200/200
f 198/198/198 200/200/200 201/201/201
f 202/202/202 203/203/203 204/204/204
f 202/202/202 204/204/204 205/205/205
f 206/206/206 207/207/207 208/208/208
f 206/206/206 208/208/208 209/209/209
f 210/210/210 211/211/211 212/212/212
f 210/210/210 212/212/212 213/213/213
f 214/214/214 215/215/215 216/216/216
f 214/214/214 216/216/216 217/217/217
f 218/218/218 217/217/217 216/216/216
f 218/218/218 219/219/219 217/217/217
f 220/220/220 219/219/219 218/218/218
f 220/220/220 218/218/218 221/221/221
f 222/222/222 223/223/223 224/224/224
f 222/222/222 224/224/224 225/225/225
f 226/226/226 227/227/227 228/228/228
f 226/226/226 228/228/228 229/229/229
f 230/230/230 231/231/231 232/232/232
f 230/230/230 232/232/232 233/233/233
f 234/234/234 235/235/235 236/236/236
f 234/234/234 236/236/236 237/237/237