# Object001
v -0.210000 -0.060000 -0.003750
v -0.270000 0.000000 -0.003750
v -0.210000 -0.015000 -0.003750
v -0.225000 -0.060000 -0.003750
v -0.225000 -0.090000 -0.003750
v -0.240000 -0.090000 -0.003750
v -0.240000 -0.135000 -0.003750
v -0.270000 -0.030000 -0.003750
v -0.285000 -0.060000 -0.003750
v -0.285000 -0.030000 -0.003750
v -0.300000 -0.090000 -0.003750
v -0.300000 -0.060000 -0.003750
v -0.315000 -0.135000 -0.003750
v -0.315000 -0.090000 -0.003750
v -0.315000 -0.135000 0.000000
v -0.240000 -0.150000 0.000000
v -0.315000 -0.150000 0.000000
v -0.240000 -0.135000 0.000000
v -0.330000 -0.090000 0.000000
v -0.330000 -0.135000 0.000000
v -0.315000 -0.090000 0.000000
v -0.240000 -0.090000 0.000000
v -0.225000 -0.135000 0.000000
v -0.225000 -0.090000 0.000000
v -0.315000 -0.060000 0.000000
v -0.300000 -0.090000 0.000000
v -0.300000 -0.060000 0.000000
v -0.225000 -0.060000 0.000000
v -0.210000 -0.090000 0.000000
v -0.210000 -0.060000 0.000000
v -0.300000 -0.030000 0.000000
v -0.285000 -0.060000 0.000000
v -0.285000 -0.030000 0.000000
v -0.285000 0.000000 0.000000
v -0.270000 -0.030000 0.000000
v -0.270000 0.000000 0.000000
v -0.210000 -0.015000 0.000000
v -0.195000 -0.045000 0.000000
v -0.195000 -0.030000 0.000000
v -0.135000 -0.060000 0.000000
v -0.135000 -0.045000 0.000000
v -0.270000 0.000000 0.018750
v -0.210000 -0.060000 0.018750
v -0.210000 -0.015000 0.018750
v -0.225000 -0.060000 0.018750
v -0.225000 -0.090000 0.018750
v -0.240000 -0.090000 0.018750
v -0.240000 -0.135000 0.018750
v -0.270000 -0.030000 0.018750
v -0.285000 -0.060000 0.018750
v -0.285000 -0.030000 0.018750
v -0.300000 -0.090000 0.018750
v -0.300000 -0.060000 0.018750
v -0.315000 -0.135000 0.018750
v -0.315000 -0.090000 0.018750
v -0.285000 0.000000 0.015000
v -0.270000 -0.030000 0.015000
v -0.270000 0.000000 0.015000
v -0.285000 -0.030000 0.015000
v -0.300000 -0.030000 0.015000
v -0.285000 -0.060000 0.015000
v -0.300000 -0.060000 0.015000
v -0.315000 -0.060000 0.015000
v -0.300000 -0.090000 0.015000
v -0.315000 -0.090000 0.015000
v -0.330000 -0.090000 0.015000
v -0.315000 -0.135000 0.015000
v -0.330000 -0.135000 0.015000
v -0.240000 -0.150000 0.015000
v -0.315000 -0.150000 0.015000
v -0.240000 -0.135000 0.015000
v -0.225000 -0.135000 0.015000
v -0.240000 -0.090000 0.015000
v -0.225000 -0.090000 0.015000
v -0.210000 -0.090000 0.015000
v -0.225000 -0.060000 0.015000
v -0.210000 -0.060000 0.015000
v -0.195000 -0.045000 0.015000
v -0.210000 -0.015000 0.015000
v -0.195000 -0.030000 0.015000
v -0.135000 -0.060000 0.015000
v -0.135000 -0.045000 0.015000
v -0.330000 -0.135000 0.015000
v -0.330000 -0.090000 0.000000
v -0.330000 -0.135000 0.000000
v -0.330000 -0.090000 0.015000
v -0.315000 -0.150000 0.015000
v -0.315000 -0.135000 0.000000
v -0.315000 -0.150000 0.000000
v -0.315000 -0.135000 0.015000
v -0.315000 -0.135000 0.000000
v -0.315000 -0.090000 -0.003750
v -0.315000 -0.135000 -0.003750
v -0.315000 -0.090000 0.000000
v -0.315000 -0.135000 0.018750
v -0.315000 -0.090000 0.015000
v -0.315000 -0.135000 0.015000
v -0.315000 -0.090000 0.018750
v -0.315000 -0.090000 0.015000
v -0.315000 -0.060000 0.000000
v -0.315000 -0.090000 0.000000
v -0.315000 -0.060000 0.015000
v -0.300000 -0.090000 0.000000
v -0.300000 -0.060000 -0.003750
v -0.300000 -0.090000 -0.003750
v -0.300000 -0.060000 0.000000
v -0.300000 -0.090000 0.018750
v -0.300000 -0.060000 0.015000
v -0.300000 -0.090000 0.015000
v -0.300000 -0.060000 0.018750
v -0.300000 -0.060000 0.015000
v -0.300000 -0.030000 0.000000
v -0.300000 -0.060000 0.000000
v -0.300000 -0.030000 0.015000
v -0.285000 -0.060000 0.000000
v -0.285000 -0.030000 -0.003750
v -0.285000 -0.060000 -0.003750
v -0.285000 -0.030000 0.000000
v -0.285000 -0.060000 0.018750
v -0.285000 -0.030000 0.015000
v -0.285000 -0.060000 0.015000
v -0.285000 -0.030000 0.018750
v -0.285000 -0.030000 0.015000
v -0.285000 0.000000 0.000000
v -0.285000 -0.030000 0.000000
v -0.285000 0.000000 0.015000
v -0.270000 -0.030000 0.000000
v -0.270000 0.000000 -0.003750
v -0.270000 -0.030000 -0.003750
v -0.270000 0.000000 0.000000
v -0.270000 -0.030000 0.018750
v -0.270000 0.000000 0.015000
v -0.270000 -0.030000 0.015000
v -0.270000 0.000000 0.018750
v -0.240000 -0.135000 0.015000
v -0.240000 -0.150000 0.000000
v -0.240000 -0.135000 0.000000
v -0.240000 -0.150000 0.015000
v -0.240000 -0.090000 0.000000
v -0.240000 -0.135000 -0.003750
v -0.240000 -0.090000 -0.003750
v -0.240000 -0.135000 0.000000
v -0.240000 -0.090000 0.018750
v -0.240000 -0.135000 0.015000
v -0.240000 -0.090000 0.015000
v -0.240000 -0.135000 0.018750
v -0.225000 -0.090000 0.015000
v -0.225000 -0.135000 0.000000
v -0.225000 -0.090000 0.000000
v -0.225000 -0.135000 0.015000
v -0.225000 -0.060000 0.000000
v -0.225000 -0.090000 -0.003750
v -0.225000 -0.060000 -0.003750
v -0.225000 -0.090000 0.000000
v -0.225000 -0.060000 0.018750
v -0.225000 -0.090000 0.015000
v -0.225000 -0.060000 0.015000
v -0.225000 -0.090000 0.018750
v -0.210000 -0.060000 0.015000
v -0.210000 -0.090000 0.000000
v -0.210000 -0.060000 0.000000
v -0.210000 -0.090000 0.015000
v -0.210000 -0.015000 0.000000
v -0.210000 -0.060000 -0.003750
v -0.210000 -0.015000 -0.003750
v -0.210000 -0.060000 0.000000
v -0.210000 -0.015000 0.018750
v -0.210000 -0.060000 0.015000
v -0.210000 -0.015000 0.015000
v -0.210000 -0.060000 0.018750
v -0.195000 -0.030000 0.015000
v -0.195000 -0.045000 0.000000
v -0.195000 -0.030000 0.000000
v -0.195000 -0.045000 0.015000
v -0.135000 -0.045000 0.015000
v -0.135000 -0.060000 0.000000
v -0.135000 -0.045000 0.000000
v -0.135000 -0.060000 0.015000
v -0.240000 -0.150000 0.000000
v -0.315000 -0.150000 0.015000
v -0.315000 -0.150000 0.000000
v -0.240000 -0.150000 0.015000
v -0.240000 -0.135000 -0.003750
v -0.315000 -0.135000 0.000000
v -0.315000 -0.135000 -0.003750
v -0.240000 -0.135000 0.000000
v -0.315000 -0.135000 0.000000
v -0.330000 -0.135000 0.015000
v -0.330000 -0.135000 0.000000
v -0.315000 -0.135000 0.015000
v -0.225000 -0.135000 0.000000
v -0.240000 -0.135000 0.015000
v -0.240000 -0.135000 0.000000
v -0.225000 -0.135000 0.015000
v -0.240000 -0.135000 0.015000
v -0.315000 -0.135000 0.018750
v -0.315000 -0.135000 0.015000
v -0.240000 -0.135000 0.018750
v -0.225000 -0.090000 -0.003750
v -0.240000 -0.090000 0.000000
v -0.240000 -0.090000 -0.003750
v -0.225000 -0.090000 0.000000
v -0.210000 -0.090000 0.000000
v -0.225000 -0.090000 0.015000
v -0.225000 -0.090000 0.000000
v -0.210000 -0.090000 0.015000
v -0.225000 -0.090000 0.015000
v -0.240000 -0.090000 0.018750
v -0.240000 -0.090000 0.015000
v -0.225000 -0.090000 0.018750
v -0.210000 -0.060000 -0.003750
v -0.225000 -0.060000 0.000000
v -0.225000 -0.060000 -0.003750
v -0.210000 -0.060000 0.000000
v -0.135000 -0.060000 0.000000
v -0.210000 -0.060000 0.015000
v -0.210000 -0.060000 0.000000
v -0.135000 -0.060000 0.015000
v -0.210000 -0.060000 0.015000
v -0.225000 -0.060000 0.018750
v -0.225000 -0.060000 0.015000
v -0.210000 -0.060000 0.018750
v -0.300000 -0.090000 0.000000
v -0.315000 -0.090000 -0.003750
v -0.315000 -0.090000 0.000000
v -0.300000 -0.090000 -0.003750
v -0.315000 -0.090000 0.015000
v -0.330000 -0.090000 0.000000
v -0.330000 -0.090000 0.015000
v -0.315000 -0.090000 0.000000
v -0.300000 -0.090000 0.018750
v -0.315000 -0.090000 0.015000
v -0.315000 -0.090000 0.018750
v -0.300000 -0.090000 0.015000
v -0.285000 -0.060000 0.000000
v -0.300000 -0.060000 -0.003750
v -0.300000 -0.060000 0.000000
v -0.285000 -0.060000 -0.003750
v -0.300000 -0.060000 0.015000
v -0.315000 -0.060000 0.000000
v -0.315000 -0.060000 0.015000
v -0.300000 -0.060000 0.000000
v -0.285000 -0.060000 0.018750
v -0.300000 -0.060000 0.015000
v -0.300000 -0.060000 0.018750
v -0.285000 -0.060000 0.015000
v -0.270000 -0.030000 0.000000
v -0.285000 -0.030000 -0.003750
v -0.285000 -0.030000 0.000000
v -0.270000 -0.030000 -0.003750
v -0.285000 -0.030000 0.015000
v -0.300000 -0.030000 0.000000
v -0.300000 -0.030000 0.015000
v -0.285000 -0.030000 0.000000
v -0.270000 -0.030000 0.018750
v -0.285000 -0.030000 0.015000
v -0.285000 -0.030000 0.018750
v -0.270000 -0.030000 0.015000
vt 0.250000 0.187500
vt 0.125000 0.312500
vt 0.250000 0.281300
vt 0.218800 0.187500
vt 0.218800 0.125000
vt 0.187500 0.125000
vt 0.187500 0.031300
vt 0.125000 0.250000
vt 0.093800 0.187500
vt 0.093800 0.250000
vt 0.062500 0.125000
vt 0.062500 0.187500
vt 0.031300 0.031300
vt 0.031300 0.125000
vt 0.031300 0.031300
vt 0.187500 0.000000
vt 0.031300 0.000000
vt 0.187500 0.031300
vt 0.000000 0.125000
vt 0.000000 0.031300
vt 0.031300 0.125000
vt 0.187500 0.125000
vt 0.218800 0.031300
vt 0.218800 0.125000
vt 0.031300 0.187500
vt 0.062500 0.125000
vt 0.062500 0.187500
vt 0.218800 0.187500
vt 0.250000 0.125000
vt 0.250000 0.187500
vt 0.062500 0.250000
vt 0.093800 0.187500
vt 0.093800 0.250000
vt 0.093800 0.312500
vt 0.125000 0.250000
vt 0.125000 0.312500
vt 0.250000 0.281300
vt 0.281300 0.218800
vt 0.281300 0.250000
vt 0.406300 0.187500
vt 0.406300 0.218800
vt 0.125000 0.312500
vt 0.250000 0.187500
vt 0.250000 0.281300
vt 0.218800 0.187500
vt 0.218800 0.125000
vt 0.187500 0.125000
vt 0.187500 0.031300
vt 0.125000 0.250000
vt 0.093800 0.187500
vt 0.093800 0.250000
vt 0.062500 0.125000
vt 0.062500 0.187500
vt 0.031300 0.031300
vt 0.031300 0.125000
vt 0.093800 0.312500
vt 0.125000 0.250000
vt 0.125000 0.312500
vt 0.093800 0.250000
vt 0.062500 0.250000
vt 0.093800 0.187500
vt 0.062500 0.187500
vt 0.031300 0.187500
vt 0.062500 0.125000
vt 0.031300 0.125000
vt 0.000000 0.125000
vt 0.031300 0.031300
vt 0.000000 0.031300
vt 0.187500 0.000000
vt 0.031300 0.000000
vt 0.187500 0.031300
vt 0.218800 0.031300
vt 0.187500 0.125000
vt 0.218800 0.125000
vt 0.250000 0.125000
vt 0.218800 0.187500
vt 0.250000 0.187500
vt 0.281300 0.218800
vt 0.250000 0.281300
vt 0.281300 0.250000
vt 0.406300 0.187500
vt 0.406300 0.218800
vt 0.321900 0.456900
vt 0.344700 0.449300
vt 0.321900 0.449300
vt 0.344700 0.456900
vt 0.314300 0.456900
vt 0.321900 0.449300
vt 0.314300 0.449300
vt 0.321900 0.456900
vt 0.031300 0.031300
vt 0.046900 0.125000
vt 0.046900 0.031300
vt 0.031300 0.125000
vt 0.031300 0.031300
vt 0.046900 0.125000
vt 0.046900 0.031300
vt 0.031300 0.125000
vt 0.344700 0.456900
vt 0.359800 0.449300
vt 0.344700 0.449300
vt 0.359800 0.456900
vt 0.062500 0.125000
vt 0.078100 0.187500
vt 0.078100 0.125000
vt 0.062500 0.187500
vt 0.062500 0.125000
vt 0.078100 0.187500
vt 0.078100 0.125000
vt 0.062500 0.187500
vt 0.359800 0.456900
vt 0.375000 0.449300
vt 0.359800 0.449300
vt 0.375000 0.456900
vt 0.093800 0.187500
vt 0.109400 0.250000
vt 0.109400 0.187500
vt 0.093800 0.250000
vt 0.093800 0.187500
vt 0.109400 0.250000
vt 0.109400 0.187500
vt 0.093800 0.250000
vt 0.375000 0.456900
vt 0.390200 0.449300
vt 0.375000 0.449300
vt 0.390200 0.456900
vt 0.125000 0.250000
vt 0.140600 0.312500
vt 0.140600 0.250000
vt 0.125000 0.312500
vt 0.125000 0.250000
vt 0.140600 0.312500
vt 0.140600 0.250000
vt 0.125000 0.312500
vt 0.321900 0.449300
vt 0.314300 0.456900
vt 0.321900 0.456900
vt 0.314300 0.449300
vt 0.187500 0.125000
vt 0.171900 0.031300
vt 0.171900 0.125000
vt 0.187500 0.031300
vt 0.187500 0.125000
vt 0.171900 0.031300
vt 0.171900 0.125000
vt 0.187500 0.031300
vt 0.344700 0.449300
vt 0.321900 0.456900
vt 0.344700 0.456900
vt 0.321900 0.449300
vt 0.218800 0.187500
vt 0.203100 0.125000
vt 0.203100 0.187500
vt 0.218800 0.125000
vt 0.218800 0.187500
vt 0.203100 0.125000
vt 0.203100 0.187500
vt 0.218800 0.125000
vt 0.359800 0.449300
vt 0.344700 0.456900
vt 0.359800 0.456900
vt 0.344700 0.449300
vt 0.250000 0.281300
vt 0.234400 0.187500
vt 0.234400 0.281300
vt 0.250000 0.187500
vt 0.250000 0.281300
vt 0.234400 0.187500
vt 0.234400 0.281300
vt 0.250000 0.187500
vt 0.375000 0.449300
vt 0.367400 0.456900
vt 0.375000 0.456900
vt 0.367400 0.449300
vt 0.367400 0.449300
vt 0.359800 0.456900
vt 0.367400 0.456900
vt 0.359800 0.449300
vt 0.420500 0.456900
vt 0.382600 0.449300
vt 0.382600 0.456900
vt 0.420500 0.449300
vt 0.187500 0.046900
vt 0.031300 0.031300
vt 0.031200 0.046900
vt 0.187500 0.031300
vt 0.382600 0.456900
vt 0.375000 0.449300
vt 0.375000 0.456900
vt 0.382600 0.449300
vt 0.428100 0.456900
vt 0.420500 0.449300
vt 0.420500 0.456900
vt 0.428100 0.449300
vt 0.187500 0.046900
vt 0.031300 0.031300
vt 0.031200 0.046900
vt 0.187500 0.031300
vt 0.218800 0.140600
vt 0.187500 0.125000
vt 0.187500 0.140600
vt 0.218800 0.125000
vt 0.435700 0.456900
vt 0.428100 0.449300
vt 0.428100 0.456900
vt 0.435700 0.449300
vt 0.218800 0.140600
vt 0.187500 0.125000
vt 0.187500 0.140600
vt 0.218800 0.125000
vt 0.250000 0.203100
vt 0.218800 0.187500
vt 0.218800 0.203100
vt 0.250000 0.187500
vt 0.473600 0.456900
vt 0.435700 0.449300
vt 0.435700 0.456900
vt 0.473600 0.449300
vt 0.250000 0.203100
vt 0.218800 0.187500
vt 0.218800 0.203100
vt 0.250000 0.187500
vt 0.031300 0.109400
vt 0.062500 0.125000
vt 0.062500 0.109400
vt 0.031300 0.125000
vt 0.367400 0.449300
vt 0.375000 0.456900
vt 0.375000 0.449300
vt 0.367400 0.456900
vt 0.031300 0.109400
vt 0.062500 0.125000
vt 0.062500 0.109400
vt 0.031300 0.125000
vt 0.062500 0.171900
vt 0.093800 0.187500
vt 0.093800 0.171900
vt 0.062500 0.187500
vt 0.359800 0.449300
vt 0.367400 0.456900
vt 0.367400 0.449300
vt 0.359800 0.456900
vt 0.062500 0.171900
vt 0.093800 0.187500
vt 0.093800 0.171900
vt 0.062500 0.187500
vt 0.093800 0.234400
vt 0.125000 0.250000
vt 0.125000 0.234400
vt 0.093800 0.250000
vt 0.352200 0.449300
vt 0.359800 0.456900
vt 0.359800 0.449300
vt 0.352200 0.456900
vt 0.093800 0.234400
vt 0.125000 0.250000
vt 0.125000 0.234400
vt 0.093800 0.250000
vn 0.000000 0.000000 -1.000000
vn 0.000000 0.000000 -1.000000
vn 0.000000 0.000000 -1.000000
vn 0.000000 0.000000 -1.000000
vn 0.000000 0.000000 -1.000000
vn 0.000000 0.000000 -1.000000
vn 0.000000 0.000000 -1.000000
vn 0.000000 0.000000 -1.000000
vn 0.000000 0.000000 -1.000000
vn 0.000000 0.000000 -1.000000
vn 0.000000 0.000000 -1.000000
vn 0.000000 0.000000 -1.000000
vn 0.000000 0.000000 -1.000000
vn 0.000000 0.000000 -1.000000
vn 0.000000 0.000000 -1.000000
vn 0.000000 0.000000 -1.000000
vn 0.000000 0.000000 -1.000000
vn 0.000000 0.000000 -1.000000
vn 0.000000 0.000000 -1.000000
vn 0.000000 0.000000 -1.000000
vn 0.000000 0.000000 -1.000000
vn 0.000000 0.000000 -1.000000
vn 0.000000 0.000000 -1.000000
vn 0.000000 0.000000 -1.000000
vn 0.000000 0.000000 -1.000000
vn 0.000000 0.000000 -1.000000
vn 0.000000 0.000000 -1.000000
vn 0.000000 0.000000 -1.000000
vn 0.000000 0.000000 -1.000000
vn 0.000000 0.000000 -1.000000
vn 0.000000 0.000000 -1.000000
vn 0.000000 0.000000 -1.000000
vn 0.000000 0.000000 -1.000000
vn 0.000000 0.000000 -1.000000
vn 0.000000 0.000000 -1.000000
vn 0.000000 0.000000 -1.000000
vn 0.000000 0.000000 -1.000000
vn 0.000000 0.000000 -1.000000
vn 0.000000 0.000000 -1.000000
vn 0.000000 0.000000 -1.000000
vn 0.000000 0.000000 -1.000000
vn 0.000000 0.000000 1.000000
vn 0.000000 0.000000 1.000000
vn 0.000000 0.000000 1.000000
vn 0.000000 0.000000 1.000000
vn 0.000000 0.000000 1.000000
vn 0.000000 0.000000 1.000000
vn 0.000000 0.000000 1.000000
vn 0.000000 0.000000 1.000000
vn 0.000000 0.000000 1.000000
vn 0.000000 0.000000 1.000000
vn 0.000000 0.000000 1.000000
vn 0.000000 0.000000 1.000000
vn 0.000000 0.000000 1.000000
vn 0.000000 0.000000 1.000000
vn 0.000000 0.000000 1.000000
vn 0.000000 0.000000 1.000000
vn 0.000000 0.000000 1.000000
vn 0.000000 0.000000 1.000000
vn 0.000000 0.000000 1.000000
vn 0.000000 0.000000 1.000000
vn 0.000000 0.000000 1.000000
vn 0.000000 0.000000 1.000000
vn 0.000000 0.000000 1.000000
vn 0.000000 0.000000 1.000000
vn 0.000000 0.000000 1.000000
vn 0.000000 0.000000 1.000000
vn 0.000000 0.000000 1.000000
vn 0.000000 0.000000 1.000000
vn 0.000000 0.000000 1.000000
vn 0.000000 0.000000 1.000000
vn 0.000000 0.000000 1.000000
vn 0.000000 0.000000 1.000000
vn 0.000000 0.000000 1.000000
vn 0.000000 0.000000 1.000000
vn 0.000000 0.000000 1.000000
vn 0.000000 0.000000 1.000000
vn 0.000000 0.000000 1.000000
vn 0.000000 0.000000 1.000000
vn 0.000000 0.000000 1.000000
vn 0.000000 0.000000 1.000000
vn 0.000000 0.000000 1.000000
vn -1.000000 0.000000 0.000000
vn -1.000000 0.000000 0.000000
vn -1.000000 0.000000 0.000000
vn -1.000000 0.000000 0.000000
vn -1.000000 0.000000 0.000000
vn -1.000000 0.000000 0.000000
vn -1.000000 0.000000 0.000000
vn -1.000000 0.000000 0.000000
vn -1.000000 0.000000 0.000000
vn -1.000000 0.000000 0.000000
vn -1.000000 0.000000 0.000000
vn -1.000000 0.000000 0.000000
vn -1.000000 0.000000 0.000000
vn -1.000000 0.000000 0.000000
vn -1.000000 0.000000 0.000000
vn -1.000000 0.000000 0.000000
vn -1.000000 0.000000 0.000000
vn -1.000000 0.000000 0.000000
vn -1.000000 0.000000 0.000000
vn -1.000000 0.000000 0.000000
vn -1.000000 0.000000 0.000000
vn -1.000000 0.000000 0.000000
vn -1.000000 0.000000 0.000000
vn -1.000000 0.000000 0.000000
vn -1.000000 0.000000 0.000000
vn -1.000000 0.000000 0.000000
vn -1.000000 0.000000 0.000000
vn -1.000000 0.000000 0.000000
vn -1.000000 0.000000 0.000000
vn -1.000000 0.000000 0.000000
vn -1.000000 0.000000 0.000000
vn -1.000000 0.000000 0.000000
vn -1.000000 0.000000 0.000000
vn -1.000000 0.000000 0.000000
vn -1.000000 0.000000 0.000000
vn -1.000000 0.000000 0.000000
vn -1.000000 0.000000 0.000000
vn -1.000000 0.000000 0.000000
vn -1.000000 0.000000 0.000000
vn -1.000000 0.000000 0.000000
vn -1.000000 0.000000 0.000000
vn -1.000000 0.000000 0.000000
vn -1.000000 0.000000 0.000000
vn -1.000000 0.000000 0.000000
vn -1.000000 0.000000 0.000000
vn -1.000000 0.000000 0.000000
vn -1.000000 0.000000 0.000000
vn -1.000000 0.000000 0.000000
vn -1.000000 0.000000 0.000000
vn -1.000000 0.000000 0.000000
vn -1.000000 0.000000 0.000000
vn -1.000000 0.000000 0.000000
vn 1.000000 0.000000 0.000000
vn 1.000000 0.000000 0.000000
vn 1.000000 0.000000 0.000000
vn 1.000000 0.000000 0.000000
vn 1.000000 0.000000 0.000000
vn 1.000000 0.000000 0.000000
vn 1.000000 0.000000 0.000000
vn 1.000000 0.000000 0.000000
vn 1.000000 0.000000 0.000000
vn 1.000000 0.000000 0.000000
vn 1.000000 0.000000 0.000000
vn 1.000000 0.000000 0.000000
vn 1.000000 0.000000 0.000000
vn 1.000000 0.000000 0.000000
vn 1.000000 0.000000 0.000000
vn 1.000000 0.000000 0.000000
vn 1.000000 0.000000 0.000000
vn 1.000000 0.000000 0.000000
vn 1.000000 0.000000 0.000000
vn 1.000000 0.000000 0.000000
vn 1.000000 0.000000 0.000000
vn 1.000000 0.000000 0.000000
vn 1.000000 0.000000 0.000000
vn 1.000000 0.000000 0.000000
vn 1.000000 0.000000 0.000000
vn 1.000000 0.000000 0.000000
vn 1.000000 0.000000 0.000000
vn 1.000000 0.000000 0.000000
vn 1.000000 0.000000 0.000000
vn 1.000000 0.000000 0.000000
vn 1.000000 0.000000 0.000000
vn 1.000000 0.000000 0.000000
vn 1.000000 0.000000 0.000000
vn 1.000000 0.000000 0.000000
vn 1.000000 0.000000 0.000000
vn 1.000000 0.000000 0.000000
vn 1.000000 0.000000 0.000000
vn 1.000000 0.000000 0.000000
vn 1.000000 0.000000 0.000000
vn 1.000000 0.000000 0.000000
vn 1.000000 0.000000 0.000000
vn 1.000000 0.000000 0.000000
vn 1.000000 0.000000 0.000000
vn 1.000000 0.000000 0.000000
vn 0.000000 -1.000000 0.000000
vn 0.000000 -1.000000 0.000000
vn 0.000000 -1.000000 0.000000
vn 0.000000 -1.000000 0.000000
vn 0.000000 -1.000000 0.000000
vn 0.000000 -1.000000 0.000000
vn 0.000000 -1.000000 0.000000
vn 0.000000 -1.000000 0.000000
vn 0.000000 -1.000000 0.000000
vn 0.000000 -1.000000 0.000000
vn 0.000000 -1.000000 0.000000
vn 0.000000 -1.000000 0.000000
vn 0.000000 -1.000000 0.000000
vn 0.000000 -1.000000 0.000000
vn 0.000000 -1.000000 0.000000
vn 0.000000 -1.000000 0.000000
vn 0.000000 -1.000000 0.000000
vn 0.000000 -1.000000 0.000000
vn 0.000000 -1.000000 0.000000
vn 0.000000 -1.000000 0.000000
vn 0.000000 -1.000000 0.000000
vn 0.000000 -1.000000 0.000000
vn 0.000000 -1.000000 0.000000
vn 0.000000 -1.000000 0.000000
vn 0.000000 -1.000000 0.000000
vn 0.000000 -1.000000 0.000000
vn 0.000000 -1.000000 0.000000
vn 0.000000 -1.000000 0.000000
vn 0.000000 -1.000000 0.000000
vn 0.000000 -1.000000 0.000000
vn 0.000000 -1.000000 0.000000
vn 0.000000 -1.000000 0.000000
vn 0.000000 -1.000000 0.000000
vn 0.000000 -1.000000 0.000000
vn 0.000000 -1.000000 0.000000
vn 0.000000 -1.000000 0.000000
vn 0.000000 -1.000000 0.000000
vn 0.000000 -1.000000 0.000000
vn 0.000000 -1.000000 0.000000
vn 0.000000 -1.000000 0.000000
vn 0.000000 -1.000000 0.000000
vn 0.000000 -1.000000 0.000000
vn 0.000000 -1.000000 0.000000
vn 0.000000 -1.000000 0.000000
vn 0.000000 1.000000 0.000000
vn 0.000000 1.000000 0.000000
vn 0.000000 1.000000 0.000000
vn 0.000000 1.000000 0.000000
vn 0.000000 1.000000 0.000000
vn 0.000000 1.000000 0.000000
vn 0.000000 1.000000 0.000000
vn 0.000000 1.000000 0.000000
vn 0.000000 1.000000 0.000000
vn 0.000000 1.000000 0.000000
vn 0.000000 1.000000 0.000000
vn 0.000000 1.000000 0.000000
vn 0.000000 1.000000 0.000000
vn 0.000000 1.000000 0.000000
vn 0.000000 1.000000 0.000000
vn 0.000000 1.000000 0.000000
vn 0.000000 1.000000 0.000000
vn 0.000000 1.000000 0.000000
vn 0.000000 1.000000 0.000000
vn 0.000000 1.000000 0.000000
vn 0.000000 1.000000 0.000000
vn 0.000000 1.000000 0.000000
vn 0.000000 1.000000 0.000000
vn 0.000000 1.000000 0.000000
vn 0.000000 1.000000 0.000000
vn 0.000000 1.000000 0.000000
vn 0.000000 1.000000 0.000000
vn 0.000000 1.000000 0.000000
vn 0.000000 1.000000 0.000000
vn 0.000000 1.000000 0.000000
vn 0.000000 1.000000 0.000000
vn 0.000000 1.000000 0.000000
vn 0.000000 1.000000 0.000000
vn 0.000000 1.000000 0.000000
vn 0.000000 1.000000 0.000000
vn 0.000000 1.000000 0.000000
f 1/1/1 2/2/2 3/3/3
f 2/2/2 1/1/1 4/4/4
f 5/5/5 2/2/2 4/4/4
f 2/2/2 5/5/5 6/6/6
f 7/7/7 2/2/2 6/6/6
f 2/2/2 7/7/7 8/8/8
f 9/9/9 8/8/8 7/7/7
f 8/8/8 9/9/9 10/10/10
f 11/11/11 9/9/9 7/7/7
f 9/9/9 11/11/11 12/12/12
f 13/13/13 11/11/11 7/7/7
f 11/11/11 13/13/13 14/14/14
f 15/15/15 16/16/16 17/17/17
f 16/16/16 15/15/15 18/18/18
f 19/19/19 15/15/15 20/20/20
f 15/15/15 19/19/19 21/21/21
f 22/22/22 23/23/23 18/18/18
f 23/23/23 22/22/22 24/24/24
f 25/25/25 26/26/26 21/21/21
f 26/26/26 25/25/25 27/27/27
f 28/28/28 29/29/29 24/24/24
f 29/29/29 28/28/28 30/30/30
f 31/31/31 32/32/32 27/27/27
f 32/32/32 31/31/31 33/33/33
f 34/34/34 35/35/35 33/33/33
f 35/35/35 34/34/34 36/36/36
f 37/37/37 38/38/38 30/30/30
f 38/38/38 37/37/37 39/39/39
f 38/38/38 40/40/40 30/30/30
f 40/40/40 38/38/38 41/41/41
f 42/42/42 43/43/43 44/44/44
f 43/43/43 42/42/42 45/45/45
f 42/42/42 46/46/46 45/45/45
f 46/46/46 42/42/42 47/47/47
f 42/42/42 48/48/48 47/47/47
f 48/48/48 42/42/42 49/49/49
f 49/49/49 50/50/50 48/48/48
f 50/50/50 49/49/49 51/51/51
f 50/50/50 52/52/52 48/48/48
f 52/52/52 50/50/50 53/53/53
f 52/52/52 54/54/54 48/48/48
f 54/54/54 52/52/52 55/55/55
f 56/56/56 57/57/57 58/58/58
f 57/57/57 56/56/56 59/59/59
f 60/60/60 61/61/61 59/59/59
f 61/61/61 60/60/60 62/62/62
f 63/63/63 64/64/64 62/62/62
f 64/64/64 63/63/63 65/65/65
f 66/66/66 67/67/67 65/65/65
f 67/67/67 66/66/66 68/68/68
f 69/69/69 67/67/67 70/70/70
f 67/67/67 69/69/69 71/71/71
f 72/72/72 73/73/73 71/71/71
f 73/73/73 72/72/72 74/74/74
f 75/75/75 76/76/76 74/74/74
f 76/76/76 75/75/75 77/77/77
f 78/78/78 79/79/79 77/77/77
f 79/79/79 78/78/78 80/80/80
f 81/81/81 78/78/78 77/77/77
f 78/78/78 81/81/81 82/82/82
f 83/83/83 84/84/84 85/85/85
f 84/84/84 83/83/83 86/86/86
f 87/87/87 88/88/88 89/89/89
f 88/88/88 87/87/87 90/90/90
f 91/91/91 92/92/92 93/93/93
f 92/92/92 91/91/91 94/94/94
f 95/95/95 96/96/96 97/97/97
f 96/96/96 95/95/95 98/98/98
f 99/99/99 100/100/100 101/101/101
f 100/100/100 99/99/99 102/102/102
f 103/103/103 104/104/104 105/105/105
f 104/104/104 103/103/103 106/106/106
f 107/107/107 108/108/108 109/109/109
f 108/108/108 107/107/107 110/110/110
f 111/111/111 112/112/112 113/113/113
f 112/112/112 111/111/111 114/114/114
f 115/115/115 116/116/116 117/117/117
f 116/116/116 115/115/115 118/118/118
f 119/119/119 120/120/120 121/121/121
f 120/120/120 119/119/119 122/122/122
f 123/123/123 124/124/124 125/125/125
f 124/124/124 123/123/123 126/126/126
f 127/127/127 128/128/128 129/129/129
f 128/128/128 127/127/127 130/130/130
f 131/131/131 132/132/132 133/133/133
f 132/132/132 131/131/131 134/134/134
f 135/135/135 136/136/136 137/137/137
f 136/136/136 135/135/135 138/138/138
f 139/139/139 140/140/140 141/141/141
f 140/140/140 139/139/139 142/142/142
f 143/143/143 144/144/144 145/145/145
f 144/144/144 143/143/143 146/146/146
f 147/147/147 148/148/148 149/149/149
f 148/148/148 147/147/147 150/150/150
f 151/151/151 152/152/152 153/153/153
f 152/152/152 151/151/151 154/154/154
f 155/155/155 156/156/156 157/157/157
f 156/156/156 155/155/155 158/158/158
f 159/159/159 160/160/160 161/161/161
f 160/160/160 159/159/159 162/162/162
f 163/163/163 164/164/164 165/165/165
f 164/164/164 163/163/163 166/166/166
f 167/167/167 168/168/168 169/169/169
f 168/168/168 167/167/167 170/170/170
f 171/171/171 172/172/172 173/173/173
f 172/172/172 171/171/171 174/174/174
f 175/175/175 176/176/176 177/177/177
f 176/176/176 175/175/175 178/178/178
f 179/179/179 180/180/180 181/181/181
f 180/180/180 179/179/179 182/182/182
f 183/183/183 184/184/184 185/185/185
f 184/184/184 183/183/183 186/186/186
f 187/187/187 188/188/188 189/189/189
f 188/188/188 187/187/187 190/190/190
f 191/191/191 192/192/192 193/193/193
f 192/192/192 191/191/191 194/194/194
f 195/195/195 196/196/196 197/197/197
f 196/196/196 195/195/195 198/198/198
f 199/199/199 200/200/200 201/201/201
f 200/200/200 199/199/199 202/202/202
f 203/203/203 204/204/204 205/205/205
f 204/204/204 203/203/203 206/206/206
f 207/207/207 208/208/208 209/209/209
f 208/208/208 207/207/207 210/210/210
f 211/211/211 212/212/212 213/213/213
f 212/212/212 211/211/211 214/214/214
f 215/215/215 216/216/216 217/217/217
f 216/216/216 215/215/215 218/218/218
f 219/219/219 220/220/220 221/221/221
f 220/220/220 219/219/219 222/222/222
f 223/223/223 224/224/224 225/225/225
f 224/224/224 223/223/223 226/226/226
f 227/227/227 228/228/228 229/229/229
f 228/228/228 227/227/227 230/230/230
f 231/231/231 232/232/232 233/233/233
f 232/232/232 231/231/231 234/234/234
f 235/235/235 236/236/236 237/237/237
f 236/236/236 235/235/235 238/238/238
f 239/239/239 240/240/240 241/241/241
f 240/240/240 239/239/239 242/242/242
f 243/243/243 244/244/244 245/245/245
f 244/244/244 243/243/243 246/246/246
f 247/247/247 248/248/248 249/249/249
f 248/248/248 247/247/247 250/250/250
f 251/251/251 252/252/252 253/253/253
f 252/252/252 251/251/251 254/254/254
f 255/255/255 256/256/256 257/257/257
f 256/256/256 255/255/255 258/258/258