# Object002
v -0.315000 0.075000 0.000000
v -0.300000 0.030000 0.000000
v -0.315000 0.030000 0.000000
v -0.300000 0.030000 0.000000
v -0.300000 0.060000 0.000000
v -0.285000 0.075000 0.000000
v -0.180000 0.060000 0.000000
v 0.000000 0.060000 0.000000
v -0.015000 0.075000 0.000000
v -0.015000 0.090000 0.000000
v 0.000000 0.075000 0.000000
v 0.000000 0.090000 0.000000
v 0.015000 0.030000 0.000000
v 0.015000 0.075000 0.000000
v -0.300000 0.090000 0.000000
v -0.300000 0.075000 0.000000
v -0.285000 0.090000 0.000000
v 0.015000 0.030000 0.000000
v 0.000000 0.030000 0.000000
v 0.000000 0.060000 0.000000
v -0.285000 0.075000 0.000000
v -0.315000 0.075000 0.000000
v -0.300000 0.075000 0.000000
v 0.000000 0.060000 0.000000
v -0.120000 0.060000 0.000000
v -0.180000 0.060000 0.000000
v 0.000000 0.060000 -0.007500
v -0.120000 0.060000 0.000000
v -0.120000 0.060000 -0.007500
v -0.315000 0.075000 0.015000
v -0.285000 0.075000 0.015000
v -0.300000 0.075000 0.015000
v -0.179975 0.060000 0.015000
v -0.119955 0.060000 0.015000
v 0.000000 0.060000 0.015000
v 0.000000 0.030062 0.015000
v 0.000000 0.030000 0.015000
v 0.000000 0.090000 0.015000
v -0.015000 0.090000 0.015000
v 0.000000 0.075000 0.015000
v 0.000000 0.060000 0.015000
v -0.015000 0.075000 0.015000
v -0.285000 0.075000 0.015000
v 0.015000 0.030000 0.015000
v 0.015000 0.075000 0.015000
v 0.000000 0.030000 0.015000
v -0.179975 0.060000 0.015000
v -0.300000 0.060000 0.015000
v -0.315000 0.075000 0.015000
v -0.300000 0.030000 0.015000
v -0.315000 0.030000 0.015000
v -0.300000 0.090000 0.015000
v -0.300000 0.075000 0.015000
v -0.285000 0.090000 0.015000
v 0.000000 0.030000 -0.007500
v -0.120000 0.060000 -0.007500
v 0.000000 0.060000 -0.007500
v -0.120000 0.045000 -0.007500
v -0.300000 0.030000 -0.007500
v -0.180000 0.045000 -0.007500
v -0.300000 0.060000 -0.007500
v -0.180000 0.060000 -0.007500
v 0.000000 0.060000 -0.007500
v 0.000000 0.030000 0.000000
v 0.000000 0.030000 -0.007500
v 0.000000 0.060000 0.000000
v -0.300000 0.060000 0.022500
v -0.180000 0.045000 0.022500
v -0.180000 0.060000 0.022500
v -0.300000 0.030000 0.022500
v 0.000000 0.030000 0.022500
v -0.120000 0.045000 0.022500
v -0.120000 0.060000 0.022500
v 0.000000 0.060000 0.022500
v 0.000000 0.060000 0.015000
v 0.000000 0.030000 0.022500
v 0.000000 0.030000 0.015000
v 0.000000 0.060000 0.022500
v -0.300000 0.060000 0.015000
v -0.300000 0.030000 0.022500
v -0.300000 0.060000 0.022500
v -0.300000 0.030000 0.015000
v -0.300000 0.030000 0.000000
v -0.300000 0.060000 -0.007500
v -0.300000 0.030000 -0.007500
v -0.300000 0.060000 0.000000
v -0.180000 0.060000 0.000000
v -0.300000 0.060000 -0.007500
v -0.300000 0.060000 0.000000
v -0.180000 0.060000 -0.007500
v -0.179975 0.060000 0.015000
v -0.300000 0.060000 0.022500
v -0.180000 0.060000 0.022500
v -0.300000 0.060000 0.015000
v -0.120000 0.045000 0.022500
v -0.120000 0.045000 -0.007500
v -0.180000 0.045000 -0.007500
v -0.180000 0.045000 0.022500
v -0.120000 0.060000 0.022500
v 0.000000 0.060000 0.015000
v -0.119955 0.060000 0.015000
v 0.000000 0.060000 0.022500
v -0.315000 0.075000 0.000000
v -0.315000 0.030000 0.015000
v -0.315000 0.075000 0.015000
v -0.315000 0.030000 0.000000
v -0.300000 0.075000 0.015000
v -0.300000 0.090000 0.000000
v -0.300000 0.075000 0.000000
v -0.300000 0.090000 0.015000
v -0.120000 0.060000 -0.007500
v -0.120000 0.045000 -0.007500
v -0.120000 0.060000 0.000000
v -0.120000 0.045000 0.022500
v -0.119955 0.060000 0.015000
v -0.120000 0.060000 0.022500
v -0.015000 0.075000 0.015000
v -0.015000 0.090000 0.000000
v -0.015000 0.075000 0.000000
v -0.015000 0.090000 0.015000
v -0.285000 0.090000 0.015000
v -0.285000 0.075000 0.000000
v -0.285000 0.090000 0.000000
v -0.285000 0.075000 0.015000
v -0.180000 0.060000 0.000000
v -0.180000 0.045000 -0.007500
v -0.180000 0.060000 -0.007500
v -0.179975 0.060000 0.015000
v -0.180000 0.045000 0.022500
v -0.180000 0.060000 0.022500
v 0.000000 0.090000 0.015000
v 0.000000 0.075000 0.000000
v 0.000000 0.090000 0.000000
v 0.000000 0.075000 0.015000
v 0.015000 0.075000 0.015000
v 0.015000 0.030000 0.015000
v 0.015000 0.030000 0.000000
v 0.015000 0.075000 0.000000
v 0.000000 0.030000 -0.007500
v -0.300000 0.030000 0.000000
v -0.300000 0.030000 -0.007500
v 0.000000 0.030000 0.000000
v 0.000000 0.030000 0.015000
v -0.300000 0.030000 0.022500
v -0.300000 0.030000 0.015000
v 0.000000 0.030000 0.022500
v -0.300000 0.075000 0.015000
v -0.315000 0.075000 0.000000
v -0.315000 0.075000 0.015000
v -0.300000 0.075000 0.000000
v -0.015000 0.075000 0.015000
v -0.285000 0.075000 0.000000
v -0.285000 0.075000 0.015000
v -0.015000 0.075000 0.000000
v 0.015000 0.075000 0.015000
v 0.000000 0.075000 0.000000
v 0.000000 0.075000 0.015000
v 0.015000 0.075000 0.000000
v -0.285000 0.090000 0.015000
v -0.300000 0.090000 0.000000
v -0.300000 0.090000 0.015000
v -0.285000 0.090000 0.000000
v 0.000000 0.090000 0.015000
v -0.015000 0.090000 0.000000
v -0.015000 0.090000 0.015000
v 0.000000 0.090000 0.000000
v -0.300000 0.030000 0.000000
v -0.300000 0.030000 0.015000
v -0.315000 0.030000 0.015000
v -0.315000 0.030000 0.000000
v 0.015000 0.030000 0.015000
v 0.000000 0.030000 0.015000
v 0.000000 0.030000 0.000000
v 0.015000 0.030000 0.000000
v 0.000000 0.030000 0.015000
v -0.300000 0.030000 0.015000
v -0.300000 0.030000 0.000000
v 0.000000 0.030000 0.000000
vt 0.031300 0.468800
vt 0.054843 0.374475
vt 0.031300 0.372862
vt 0.062500 0.375000
vt 0.062500 0.437500
vt 0.093800 0.468800
vt 0.312549 0.437500
vt 0.687500 0.437500
vt 0.656300 0.468800
vt 0.656300 0.500000
vt 0.687500 0.468800
vt 0.687500 0.500000
vt 0.718800 0.373635
vt 0.718800 0.468800
vt 0.062500 0.500000
vt 0.062500 0.468800
vt 0.093800 0.500000
vt 0.706462 0.374112
vt 0.703347 0.374213
vt 0.687500 0.437500
vt 0.093800 0.468800
vt 0.031300 0.468800
vt 0.062500 0.468800
vt 0.687500 0.437500
vt 0.437482 0.437500
vt 0.312549 0.437500
vt 0.687500 0.406300
vt 0.437500 0.421900
vt 0.437500 0.406300
vt 0.031300 0.468800
vt 0.093800 0.468800
vt 0.062500 0.468800
vt 0.312552 0.437500
vt 0.437594 0.437500
vt 0.687500 0.437500
vt 0.679716 0.375130
vt 0.671900 0.375000
vt 0.687500 0.500000
vt 0.656300 0.500000
vt 0.687500 0.468800
vt 0.687500 0.437500
vt 0.656300 0.468800
vt 0.093800 0.468800
vt 0.706411 0.374368
vt 0.718800 0.468800
vt 0.703275 0.374499
vt 0.312552 0.437500
vt 0.062500 0.437500
vt 0.031300 0.468800
vt 0.054875 0.374350
vt 0.031300 0.373156
vt 0.062500 0.500000
vt 0.062500 0.468800
vt 0.093800 0.500000
vt 0.687500 0.375000
vt 0.437500 0.437500
vt 0.687500 0.437500
vt 0.437500 0.406300
vt 0.062500 0.375000
vt 0.312500 0.406300
vt 0.062500 0.437500
vt 0.312500 0.437500
vt 0.656300 0.437500
vt 0.687500 0.375000
vt 0.656300 0.375000
vt 0.687500 0.437500
vt 0.062500 0.437500
vt 0.312500 0.406300
vt 0.312500 0.437500
vt 0.062500 0.375000
vt 0.687500 0.375000
vt 0.437500 0.406300
vt 0.437500 0.437500
vt 0.687500 0.437500
vt 0.687500 0.437500
vt 0.656300 0.375000
vt 0.687500 0.375000
vt 0.656300 0.437500
vt 0.062500 0.437500
vt 0.093800 0.375000
vt 0.093800 0.437500
vt 0.078100 0.375000
vt 0.078100 0.375000
vt 0.093800 0.437500
vt 0.093800 0.375000
vt 0.062500 0.437500
vt 0.312500 0.421900
vt 0.062500 0.406300
vt 0.062500 0.437500
vt 0.312500 0.406300
vt 0.312500 0.421900
vt 0.062500 0.406300
vt 0.312500 0.406300
vt 0.062500 0.437500
vt 0.437500 0.380017
vt 0.437500 0.389810
vt 0.312500 0.389810
vt 0.312500 0.380017
vt 0.437500 0.406300
vt 0.687500 0.437500
vt 0.437500 0.437500
vt 0.687500 0.406300
vt 0.428100 0.449300
vt 0.404900 0.455119
vt 0.428100 0.456900
vt 0.404845 0.449300
vt 0.428100 0.456900
vt 0.435700 0.449300
vt 0.428100 0.449300
vt 0.435700 0.456900
vt 0.455438 0.409054
vt 0.442373 0.409054
vt 0.455438 0.415586
vt 0.442373 0.435183
vt 0.455438 0.428650
vt 0.455438 0.435183
vt 0.428100 0.456900
vt 0.435700 0.449300
vt 0.428100 0.449300
vt 0.435700 0.456900
vt 0.435700 0.449300
vt 0.428100 0.456900
vt 0.435700 0.456900
vt 0.428100 0.449300
vt 0.302362 0.415651
vt 0.291330 0.410135
vt 0.302362 0.410135
vt 0.302362 0.426682
vt 0.291330 0.432198
vt 0.302362 0.432198
vt 0.435700 0.449300
vt 0.428100 0.456900
vt 0.435700 0.456900
vt 0.428100 0.449300
vt 0.428100 0.449300
vt 0.405037 0.453925
vt 0.405024 0.456900
vt 0.428100 0.456900
vt 0.687500 0.390600
vt 0.062500 0.375000
vt 0.062500 0.390600
vt 0.687500 0.375000
vt 0.687500 0.390600
vt 0.062500 0.375000
vt 0.062500 0.390600
vt 0.687500 0.375000
vt 0.359800 0.449300
vt 0.367400 0.456900
vt 0.367400 0.449300
vt 0.359800 0.456900
vt 0.215700 0.449300
vt 0.352200 0.456900
vt 0.352200 0.449300
vt 0.215700 0.456900
vt 0.200500 0.449300
vt 0.208100 0.456900
vt 0.208100 0.449300
vt 0.200500 0.456900
vt 0.352200 0.449300
vt 0.359800 0.456900
vt 0.359800 0.449300
vt 0.352200 0.456900
vt 0.208100 0.449300
vt 0.215700 0.456900
vt 0.215700 0.449300
vt 0.208100 0.456900
vt 0.691652 0.319173
vt 0.691652 0.341918
vt 0.714397 0.341918
vt 0.714397 0.319173
vt 0.691652 0.341918
vt 0.714397 0.341918
vt 0.714397 0.319173
vt 0.691652 0.319173
vt 0.687500 0.375000
vt 0.062500 0.375000
vt 0.062500 0.390600
vt 0.687500 0.390600
vn 0.000000 0.000000 -1.000000
vn 0.000000 0.000000 -1.000000
vn 0.000000 0.000000 -1.000000
vn 0.000000 0.000000 -1.000000
vn 0.000000 0.000000 -1.000000
vn 0.000000 0.000000 -1.000000
vn 0.000000 0.000000 -1.000000
vn 0.000000 0.000000 -1.000000
vn 0.000000 0.000000 -1.000000
vn 0.000000 0.000000 -1.000000
vn 0.000000 0.000000 -1.000000
vn 0.000000 0.000000 -1.000000
vn 0.000000 0.000000 -1.000000
vn 0.000000 0.000000 -1.000000
vn 0.000000 0.000000 -1.000000
vn 0.000000 0.000000 -1.000000
vn 0.000000 0.000000 -1.000000
vn 0.000000 0.000000 -1.000000
vn 0.000000 0.000000 -1.000000
vn 0.000000 0.000000 -1.000000
vn 0.000000 1.000000 0.000000
vn 0.000000 1.000000 0.000000
vn 0.000000 1.000000 0.000000
vn 0.000000 1.000000 0.000000
vn 0.000000 1.000000 0.000000
vn 0.000000 1.000000 0.000000
vn 0.000000 1.000000 0.000000
vn 0.000000 1.000000 0.000000
vn 0.000000 1.000000 0.000000
vn 0.000000 1.000000 0.000000
vn 0.000000 1.000000 0.000000
vn 0.000000 1.000000 0.000000
vn 0.000000 1.000000 0.000000
vn 0.000000 1.000000 0.000000
vn 0.000000 1.000000 0.000000
vn 0.000000 1.000000 0.000000
vn 0.000000 1.000000 0.000000
vn 0.000000 0.000000 1.000000
vn 0.000000 0.000000 1.000000
vn 0.000000 0.000000 1.000000
vn 0.000000 0.000000 1.000000
vn 0.000000 0.000000 1.000000
vn 0.000000 0.000000 1.000000
vn 0.000000 0.000000 1.000000
vn 0.000000 0.000000 1.000000
vn 0.000000 0.000000 1.000000
vn 0.000000 0.000000 1.000000
vn 0.000000 0.000000 1.000000
vn 0.000000 0.000000 1.000000
vn 0.000000 0.000000 1.000000
vn 0.000000 0.000000 1.000000
vn 0.000000 0.000000 1.000000
vn 0.000000 0.000000 1.000000
vn 0.000000 0.000000 1.000000
vn 0.000000 0.000000 -1.000000
vn 0.000000 0.000000 -1.000000
vn 0.000000 0.000000 -1.000000
vn 0.000000 0.000000 -1.000000
vn 0.000000 0.000000 -1.000000
vn 0.000000 0.000000 -1.000000
vn 0.000000 0.000000 -1.000000
vn 0.000000 0.000000 -1.000000
vn 1.000000 0.000000 0.000000
vn 1.000000 0.000000 0.000000
vn 1.000000 0.000000 0.000000
vn 1.000000 0.000000 0.000000
vn 0.000000 0.000000 1.000000
vn 0.000000 0.000000 1.000000
vn 0.000000 0.000000 1.000000
vn 0.000000 0.000000 1.000000
vn 0.000000 0.000000 1.000000
vn 0.000000 0.000000 1.000000
vn 0.000000 0.000000 1.000000
vn 0.000000 0.000000 1.000000
vn 1.000000 0.000000 0.000000
vn 1.000000 0.000000 0.000000
vn 1.000000 0.000000 0.000000
vn 1.000000 0.000000 0.000000
vn -1.000000 0.000000 0.000000
vn -1.000000 0.000000 0.000000
vn -1.000000 0.000000 0.000000
vn -1.000000 0.000000 0.000000
vn -1.000000 0.000000 0.000000
vn -1.000000 0.000000 0.000000
vn -1.000000 0.000000 0.000000
vn -1.000000 0.000000 0.000000
vn 0.000000 1.000000 0.000000
vn 0.000000 1.000000 0.000000
vn 0.000000 1.000000 0.000000
vn 0.000000 1.000000 0.000000
vn 0.000000 1.000000 0.000000
vn 0.000000 1.000000 0.000000
vn 0.000000 1.000000 0.000000
vn 0.000000 1.000000 0.000000
vn 0.000000 1.000000 0.000000
vn 0.000000 1.000000 0.000000
vn 0.000000 1.000000 0.000000
vn 0.000000 1.000000 0.000000
vn 0.000000 1.000000 0.000000
vn 0.000000 1.000000 0.000000
vn 0.000000 1.000000 0.000000
vn 0.000000 1.000000 0.000000
vn -1.000000 0.000000 0.000000
vn -1.000000 0.000000 0.000000
vn -1.000000 0.000000 0.000000
vn -1.000000 0.000000 0.000000
vn -1.000000 0.000000 0.000000
vn -1.000000 0.000000 0.000000
vn -1.000000 0.000000 0.000000
vn -1.000000 0.000000 0.000000
vn -1.000000 0.000000 0.000000
vn -1.000000 0.000752 0.000501
vn -1.000000 0.000752 0.000501
vn -0.999997 0.000752 -0.002506
vn -0.999997 0.000752 -0.002506
vn -0.999982 0.000000 -0.006014
vn -1.000000 0.000000 0.000000
vn -1.000000 0.000000 0.000000
vn -1.000000 0.000000 0.000000
vn -1.000000 0.000000 0.000000
vn 1.000000 0.000000 0.000000
vn 1.000000 0.000000 0.000000
vn 1.000000 0.000000 0.000000
vn 1.000000 0.000000 0.000000
vn 1.000000 -0.000414 -0.000276
vn 1.000000 -0.000414 -0.000276
vn 1.000000 0.000000 0.000000
vn 0.999999 -0.000414 0.001380
vn 0.999999 -0.000414 0.001380
vn 0.999995 0.000000 0.003311
vn 1.000000 0.000000 0.000000
vn 1.000000 0.000000 0.000000
vn 1.000000 0.000000 0.000000
vn 1.000000 0.000000 0.000000
vn 1.000000 0.000000 0.000000
vn 1.000000 0.000000 0.000000
vn 1.000000 0.000000 0.000000
vn 1.000000 0.000000 0.000000
vn 0.000000 -1.000000 0.000000
vn 0.000000 -1.000000 0.000000
vn 0.000000 -1.000000 0.000000
vn 0.000000 -1.000000 0.000000
vn 0.000000 -1.000000 0.000000
vn 0.000000 -1.000000 0.000000
vn 0.000000 -1.000000 0.000000
vn 0.000000 -1.000000 0.000000
vn 0.000000 1.000000 0.000000
vn 0.000000 1.000000 0.000000
vn 0.000000 1.000000 0.000000
vn 0.000000 1.000000 0.000000
vn 0.000000 1.000000 0.000000
vn 0.000000 1.000000 0.000000
vn 0.000000 1.000000 0.000000
vn 0.000000 1.000000 0.000000
vn 0.000000 1.000000 0.000000
vn 0.000000 1.000000 0.000000
vn 0.000000 1.000000 0.000000
vn 0.000000 1.000000 0.000000
vn 0.000000 1.000000 0.000000
vn 0.000000 1.000000 0.000000
vn 0.000000 1.000000 0.000000
vn 0.000000 1.000000 0.000000
vn 0.000000 1.000000 0.000000
vn 0.000000 1.000000 0.000000
vn 0.000000 1.000000 0.000000
vn 0.000000 1.000000 0.000000
vn 0.000000 -1.000000 0.000000
vn 0.000000 -1.000000 0.000000
vn 0.000000 -1.000000 0.000000
vn 0.000000 -1.000000 0.000000
vn 0.000000 -1.000000 0.000000
vn 0.000000 -1.000000 0.000000
vn 0.000000 -1.000000 0.000000
vn 0.000000 -1.000000 0.000000
vn 0.000000 -1.000000 0.000000
vn 0.000000 -1.000000 0.000000
vn 0.000000 -1.000000 0.000000
vn 0.000000 -1.000000 0.000000
f 1/1/1 2/2/2 3/3/3
f 4/4/4 1/1/1 5/5/5
f 1/1/1 6/6/6 5/5/5
f 7/7/7 5/5/5 6/6/6
f 6/6/6 8/8/8 7/7/7
f 8/8/8 6/6/6 9/9/9
f 10/10/10 8/8/8 9/9/9
f 8/8/8 10/10/10 11/11/11
f 11/11/11 10/10/10 12/12/12
f 13/13/13 11/11/11 14/14/14
f 15/15/15 6/6/6 16/16/16
f 6/6/6 15/15/15 17/17/17
f 11/11/11 18/18/18 19/19/19
f 11/11/11 19/19/19 20/20/20
f 21/21/21 22/22/22 23/23/23
f 24/24/24 25/25/25 26/26/26
f 27/27/27 28/28/28 24/24/24
f 28/28/28 27/27/27 29/29/29
f 30/30/30 31/31/31 32/32/32
f 33/33/33 34/34/34 35/35/35
f 36/36/36 35/35/35 37/37/37
f 38/38/38 39/39/39 40/40/40
f 39/39/39 41/41/41 40/40/40
f 41/41/41 39/39/39 42/42/42
f 43/43/43 41/41/41 42/42/42
f 44/44/44 40/40/40 41/41/41
f 40/40/40 44/44/44 45/45/45
f 44/44/44 41/41/41 46/46/46
f 47/47/47 41/41/41 43/43/43
f 43/43/43 48/48/48 47/47/47
f 43/43/43 49/49/49 48/48/48
f 49/49/49 50/50/50 48/48/48
f 50/50/50 49/49/49 51/51/51
f 43/43/43 52/52/52 53/53/53
f 52/52/52 43/43/43 54/54/54
f 55/55/55 56/56/56 57/57/57
f 56/56/56 55/55/55 58/58/58
f 59/59/59 58/58/58 55/55/55
f 58/58/58 59/59/59 60/60/60
f 61/61/61 60/60/60 59/59/59
f 60/60/60 61/61/61 62/62/62
f 63/63/63 64/64/64 65/65/65
f 64/64/64 63/63/63 66/66/66
f 67/67/67 68/68/68 69/69/69
f 68/68/68 67/67/67 70/70/70
f 71/71/71 68/68/68 70/70/70
f 68/68/68 71/71/71 72/72/72
f 71/71/71 73/73/73 72/72/72
f 73/73/73 71/71/71 74/74/74
f 75/75/75 76/76/76 77/77/77
f 76/76/76 75/75/75 78/78/78
f 79/79/79 80/80/80 81/81/81
f 80/80/80 79/79/79 82/82/82
f 83/83/83 84/84/84 85/85/85
f 84/84/84 83/83/83 86/86/86
f 87/87/87 88/88/88 89/89/89
f 88/88/88 87/87/87 90/90/90
f 91/91/91 92/92/92 93/93/93
f 92/92/92 91/91/91 94/94/94
f 95/95/95 96/96/96 97/97/97
f 95/95/95 97/97/97 98/98/98
f 99/99/99 100/100/100 101/101/101
f 100/100/100 99/99/99 102/102/102
f 103/103/103 104/104/104 105/105/105
f 104/104/104 103/103/103 106/106/106
f 107/107/107 108/108/108 109/109/109
f 108/108/108 107/107/107 110/110/110
f 111/111/111 112/112/112 113/113/113
f 114/114/114 113/113/113 112/112/112
f 114/114/114 115/115/115 113/113/113
f 115/115/115 114/114/114 116/116/116
f 117/117/117 118/118/118 119/119/119
f 118/118/118 117/117/117 120/120/120
f 121/121/121 122/122/122 123/123/123
f 122/122/122 121/121/121 124/124/124
f 125/125/125 126/126/126 127/127/127
f 128/128/128 126/126/126 125/125/125
f 128/128/128 129/129/129 126/126/126
f 130/130/130 129/129/129 128/128/128
f 131/131/131 132/132/132 133/133/133
f 132/132/132 131/131/131 134/134/134
f 135/135/135 136/136/136 137/137/137
f 135/135/135 137/137/137 138/138/138
f 139/139/139 140/140/140 141/141/141
f 140/140/140 139/139/139 142/142/142
f 143/143/143 144/144/144 145/145/145
f 144/144/144 143/143/143 146/146/146
f 147/147/147 148/148/148 149/149/149
f 148/148/148 147/147/147 150/150/150
f 151/151/151 152/152/152 153/153/153
f 152/152/152 151/151/151 154/154/154
f 155/155/155 156/156/156 157/157/157
f 156/156/156 155/155/155 158/158/158
f 159/159/159 160/160/160 161/161/161
f 160/160/160 159/159/159 162/162/162
f 163/163/163 164/164/164 165/165/165
f 164/164/164 163/163/163 166/166/166
f 167/167/167 168/168/168 169/169/169
f 167/167/167 169/169/169 170/170/170
f 171/171/171 172/172/172 173/173/173
f 171/171/171 173/173/173 174/174/174
f 175/175/175 176/176/176 177/177/177
f 175/175/175 177/177/177 178/178/178