# Awp
v -0.105000 -0.060000 -0.007500
v -0.105000 -0.060000 0.007500
v -0.105000 -0.045000 0.007500
v -0.105000 -0.060000 -0.007500
v -0.105000 -0.045000 0.007500
v -0.105000 -0.045000 -0.007500
v -0.105000 -0.045000 -0.007500
v -0.090000 -0.060000 -0.007500
v -0.105000 -0.060000 -0.007500
v -0.090000 -0.045000 -0.007500
v -0.060000 -0.045000 -0.007500
v -0.090000 -0.030000 -0.007500
v -0.060000 -0.030000 -0.007500
v -0.060000 -0.015000 -0.007500
v 0.255000 -0.015000 -0.007500
v 0.270000 -0.030000 -0.007500
v 0.255000 0.000000 -0.007500
v 0.255000 0.045000 -0.007500
v 0.270000 0.030000 -0.007500
v 0.825000 0.045000 -0.007500
v 0.840000 0.030000 -0.007500
v 0.825000 0.060000 -0.007500
v 0.840000 0.075000 -0.007500
v -0.105000 0.075000 -0.007500
v -0.090000 0.060000 -0.007500
v -0.120000 0.060000 -0.007500
v -0.120000 0.105000 -0.007500
v -0.105000 0.105000 -0.007500
v 0.255000 0.000000 -0.007500
v 0.255000 0.045000 -0.011250
v 0.255000 0.045000 -0.007500
v 0.255000 0.000000 -0.011250
v 0.255000 -0.015000 -0.007500
v 0.255000 0.000000 -0.015000
v 0.255000 -0.015000 -0.015000
v -0.090000 0.045000 -0.015000
v -0.060000 -0.030000 -0.015000
v -0.090000 -0.030000 -0.015000
v -0.060000 -0.015000 -0.015000
v -0.045000 0.030000 -0.015000
v -0.045000 0.045000 -0.015000
v 0.195000 0.000000 -0.015000
v 0.195000 0.030000 -0.015000
v 0.255000 -0.015000 -0.015000
v 0.255000 0.000000 -0.015000
v -0.090000 0.060000 -0.011250
v -0.045000 0.045000 -0.011250
v -0.090000 0.045000 -0.011250
v 0.255000 0.045000 -0.011250
v 0.825000 0.045000 -0.011250
v 0.825000 0.060000 -0.011250
v 0.195000 0.030000 -0.011250
v -0.045000 0.030000 -0.011250
v 0.255000 0.000000 -0.011250
v 0.195000 0.000000 -0.011250
v 0.255000 -0.015000 0.015000
v 0.255000 0.000000 0.011250
v 0.255000 0.000000 0.015000
v 0.255000 -0.015000 0.007500
v 0.255000 0.000000 0.007500
v 0.255000 0.045000 0.007500
v 0.255000 0.045000 0.011250
v 0.825000 0.060000 -0.011250
v -0.090000 0.060000 -0.007500
v 0.825000 0.060000 -0.007500
v -0.090000 0.060000 -0.011250
v -0.120000 0.060000 -0.007500
v -0.120000 0.060000 -0.011250
v -0.090000 0.060000 -0.015000
v 0.195000 0.030000 0.015000
v 0.195000 0.030000 0.011250
v -0.045000 0.030000 0.011250
v -0.045000 0.030000 0.015000
v -0.090000 -0.045000 -0.015000
v -0.090000 -0.030000 -0.015000
v -0.090000 -0.030000 -0.007500
v -0.090000 -0.045000 -0.007500
v 0.255000 -0.015000 0.007500
v -0.060000 -0.015000 0.007500
v -0.060000 -0.030000 0.007500
v 0.270000 -0.030000 0.007500
v 0.255000 0.000000 0.007500
v 0.255000 0.045000 0.007500
v 0.270000 0.030000 0.007500
v 0.825000 0.045000 0.007500
v 0.840000 0.030000 0.007500
v 0.825000 0.060000 0.007500
v 0.840000 0.075000 0.007500
v -0.105000 0.075000 0.007500
v -0.090000 0.060000 0.007500
v -0.120000 0.060000 0.007500
v -0.120000 0.105000 0.007500
v -0.105000 0.105000 0.007500
v -0.060000 -0.045000 0.007500
v -0.090000 -0.030000 0.007500
v -0.090000 -0.045000 0.007500
v -0.105000 -0.045000 0.007500
v -0.090000 -0.060000 0.007500
v -0.105000 -0.060000 0.007500
v 0.195000 0.000000 0.015000
v 0.195000 0.030000 0.015000
v -0.045000 0.030000 0.015000
v -0.060000 -0.015000 0.015000
v 0.255000 -0.015000 0.015000
v 0.255000 0.000000 0.015000
v -0.090000 0.045000 0.015000
v -0.045000 0.045000 0.015000
v -0.060000 -0.030000 0.015000
v -0.090000 -0.030000 0.015000
v 0.195000 0.030000 0.011250
v -0.045000 0.045000 0.011250
v -0.045000 0.030000 0.011250
v 0.255000 0.045000 0.011250
v 0.195000 0.000000 0.011250
v 0.255000 0.000000 0.011250
v -0.090000 0.060000 0.011250
v -0.090000 0.045000 0.011250
v 0.825000 0.045000 0.011250
v 0.825000 0.060000 0.011250
v -0.120000 0.060000 0.011250
v -0.090000 0.060000 0.015000
v -0.090000 0.060000 0.011250
v -0.090000 0.060000 0.007500
v -0.120000 0.060000 0.007500
v 0.825000 0.060000 0.007500
v 0.825000 0.060000 0.011250
v -0.045000 0.030000 0.011250
v -0.045000 0.045000 0.011250
v -0.045000 0.045000 0.015000
v -0.045000 0.030000 0.015000
v -0.120000 0.060000 0.007500
v -0.120000 0.105000 0.007500
v -0.120000 0.105000 0.011250
v -0.120000 0.060000 0.011250
v -0.090000 -0.045000 0.007500
v -0.090000 -0.030000 0.007500
v -0.090000 -0.030000 0.015000
v -0.090000 -0.045000 0.015000
v 0.840000 0.030000 -0.007500
v 0.840000 0.075000 -0.007500
v 0.840000 0.075000 0.007500
v 0.840000 0.030000 0.007500
v -0.045000 0.030000 -0.015000
v -0.045000 0.045000 -0.015000
v -0.045000 0.045000 -0.011250
v -0.045000 0.030000 -0.011250
v 0.195000 0.000000 -0.015000
v 0.195000 0.000000 -0.011250
v 0.255000 0.000000 -0.011250
v 0.255000 0.000000 -0.015000
v -0.060000 -0.015000 -0.007500
v -0.060000 -0.030000 -0.007500
v -0.060000 -0.030000 -0.015000
v -0.060000 -0.015000 -0.015000
v -0.045000 0.045000 0.015000
v -0.045000 0.045000 0.011250
v -0.090000 0.045000 0.011250
v -0.090000 0.045000 0.015000
v -0.105000 0.075000 -0.007500
v -0.105000 0.075000 0.007500
v 0.840000 0.075000 0.007500
v 0.840000 0.075000 -0.007500
v -0.060000 -0.045000 -0.007500
v -0.060000 -0.030000 -0.007500
v -0.060000 -0.030000 0.007500
v -0.060000 -0.045000 0.007500
v -0.090000 0.045000 -0.015000
v -0.090000 0.045000 -0.011250
v -0.045000 0.045000 -0.011250
v -0.045000 0.045000 -0.015000
v 0.270000 -0.030000 -0.007500
v 0.270000 0.030000 -0.007500
v 0.270000 0.030000 0.007500
v 0.270000 -0.030000 0.007500
v 0.255000 0.045000 -0.007500
v 0.255000 0.045000 -0.011250
v 0.825000 0.045000 -0.011250
v 0.825000 0.045000 -0.007500
v -0.060000 -0.030000 -0.007500
v -0.090000 -0.030000 -0.007500
v -0.090000 -0.030000 -0.015000
v -0.060000 -0.030000 -0.015000
v 0.255000 -0.015000 -0.007500
v -0.060000 -0.015000 -0.007500
v -0.060000 -0.015000 -0.015000
v 0.255000 -0.015000 -0.015000
v -0.105000 -0.060000 0.007500
v -0.105000 -0.060000 -0.007500
v -0.090000 -0.060000 -0.007500
v -0.090000 -0.060000 0.007500
v -0.090000 -0.060000 -0.007500
v -0.090000 -0.045000 -0.007500
v -0.090000 -0.045000 0.007500
v -0.090000 -0.060000 0.007500
v 0.825000 0.045000 0.007500
v 0.825000 0.060000 0.007500
v 0.825000 0.060000 0.011250
v 0.825000 0.045000 0.011250
v 0.270000 0.030000 0.007500
v 0.270000 0.030000 -0.007500
v 0.840000 0.030000 -0.007500
v 0.840000 0.030000 0.007500
v -0.045000 0.030000 -0.015000
v -0.045000 0.030000 -0.011250
v 0.195000 0.030000 -0.011250
v 0.195000 0.030000 -0.015000
v -0.090000 0.045000 0.011250
v -0.090000 0.060000 0.011250
v -0.090000 0.060000 0.015000
v -0.090000 0.045000 0.015000
v 0.255000 -0.015000 0.007500
v 0.255000 -0.015000 0.015000
v -0.060000 -0.015000 0.015000
v -0.060000 -0.015000 0.007500
v 0.255000 0.045000 0.007500
v 0.825000 0.045000 0.007500
v 0.825000 0.045000 0.011250
v 0.255000 0.045000 0.011250
v 0.195000 0.000000 0.011250
v 0.195000 0.030000 0.011250
v 0.195000 0.030000 0.015000
v 0.195000 0.000000 0.015000
v -0.060000 -0.030000 0.007500
v -0.060000 -0.030000 0.015000
v -0.090000 -0.030000 0.015000
v -0.090000 -0.030000 0.007500
v -0.060000 -0.030000 0.007500
v -0.060000 -0.030000 -0.007500
v 0.270000 -0.030000 -0.007500
v 0.270000 -0.030000 0.007500
v -0.105000 0.075000 -0.007500
v -0.105000 0.105000 -0.007500
v -0.105000 0.105000 0.007500
v -0.105000 0.075000 0.007500
v -0.090000 -0.045000 0.007500
v -0.090000 -0.045000 -0.007500
v -0.060000 -0.045000 -0.007500
v -0.060000 -0.045000 0.007500
v -0.090000 0.045000 -0.015000
v -0.090000 0.060000 -0.015000
v -0.090000 0.060000 -0.011250
v -0.090000 0.045000 -0.011250
v 0.195000 0.000000 -0.015000
v 0.195000 0.030000 -0.015000
v 0.195000 0.030000 -0.011250
v 0.195000 0.000000 -0.011250
v 0.255000 0.000000 0.015000
v 0.255000 0.000000 0.011250
v 0.195000 0.000000 0.011250
v 0.195000 0.000000 0.015000
v 0.825000 0.045000 -0.011250
v 0.825000 0.060000 -0.011250
v 0.825000 0.060000 -0.007500
v 0.825000 0.045000 -0.007500
v -0.120000 0.060000 -0.011250
v -0.120000 0.105000 -0.011250
v -0.120000 0.105000 -0.007500
v -0.120000 0.060000 -0.007500
v -0.060000 -0.015000 0.007500
v -0.060000 -0.015000 0.015000
v -0.060000 -0.030000 0.015000
v -0.060000 -0.030000 0.007500
vt 0.383200 0.062100
vt 0.383200 0.055100
vt 0.375884 0.061808
vt 0.383200 0.062100
vt 0.375884 0.061808
vt 0.375884 0.061808
vt 0.375000 0.062500
vt 0.390600 0.054700
vt 0.382800 0.054700
vt 0.390600 0.062500
vt 0.406300 0.062500
vt 0.390600 0.070300
vt 0.406200 0.070300
vt 0.406200 0.078100
vt 0.570300 0.078100
vt 0.578100 0.070300
vt 0.570300 0.085900
vt 0.570300 0.109400
vt 0.578100 0.101600
vt 0.867200 0.109400
vt 0.875000 0.101600
vt 0.867200 0.117200
vt 0.875000 0.125000
vt 0.382800 0.125000
vt 0.390600 0.117200
vt 0.375000 0.117200
vt 0.375000 0.140600
vt 0.382800 0.140600
vt 0.568400 0.085900
vt 0.566400 0.109400
vt 0.568400 0.109400
vt 0.566400 0.085900
vt 0.568400 0.078100
vt 0.564500 0.085900
vt 0.564500 0.078100
vt 0.390600 0.109400
vt 0.406200 0.070300
vt 0.390600 0.070300
vt 0.406200 0.078100
vt 0.414100 0.101600
vt 0.414100 0.109400
vt 0.539100 0.085900
vt 0.539100 0.101600
vt 0.570300 0.078100
vt 0.570300 0.085900
vt 0.390600 0.117200
vt 0.414100 0.109400
vt 0.390600 0.109400
vt 0.570300 0.109400
vt 0.867200 0.109400
vt 0.867200 0.117200
vt 0.539100 0.101600
vt 0.414100 0.101600
vt 0.570300 0.085900
vt 0.539100 0.085900
vt 0.564500 0.078100
vt 0.566400 0.085900
vt 0.564500 0.085900
vt 0.568400 0.078100
vt 0.568400 0.085900
vt 0.568400 0.109400
vt 0.566400 0.109400
vt 0.867200 0.113700
vt 0.390600 0.111600
vt 0.867200 0.111700
vt 0.390600 0.113600
vt 0.375000 0.111600
vt 0.375000 0.113600
vt 0.390600 0.115500
vt 0.539100 0.098600
vt 0.539100 0.096700
vt 0.414100 0.096700
vt 0.414100 0.098600
vt 0.384800 0.062500
vt 0.384800 0.070300
vt 0.388700 0.070300
vt 0.388700 0.062500
vt 0.570300 0.078100
vt 0.406200 0.078100
vt 0.406200 0.070300
vt 0.578100 0.070300
vt 0.570300 0.085900
vt 0.570300 0.109400
vt 0.578100 0.101600
vt 0.867200 0.109400
vt 0.875000 0.101600
vt 0.867200 0.117200
vt 0.875000 0.125000
vt 0.382800 0.125000
vt 0.390600 0.117200
vt 0.375000 0.117200
vt 0.375000 0.140600
vt 0.382800 0.140600
vt 0.406300 0.062500
vt 0.390600 0.070300
vt 0.390600 0.062500
vt 0.375000 0.062500
vt 0.390600 0.054700
vt 0.382800 0.054700
vt 0.539100 0.085900
vt 0.539100 0.101600
vt 0.414100 0.101600
vt 0.406200 0.078100
vt 0.570300 0.078100
vt 0.570300 0.085900
vt 0.390600 0.109400
vt 0.414100 0.109400
vt 0.406200 0.070300
vt 0.390600 0.070300
vt 0.539100 0.101600
vt 0.414100 0.109400
vt 0.414100 0.101600
vt 0.570300 0.109400
vt 0.539100 0.085900
vt 0.570300 0.085900
vt 0.390600 0.117200
vt 0.390600 0.109400
vt 0.867200 0.109400
vt 0.867200 0.117200
vt 0.375000 0.113600
vt 0.390600 0.115500
vt 0.390600 0.113600
vt 0.390600 0.111600
vt 0.375000 0.111600
vt 0.867200 0.111700
vt 0.867200 0.113700
vt 0.409200 0.101600
vt 0.409200 0.109400
vt 0.411100 0.109400
vt 0.411100 0.101600
vt 0.372100 0.117200
vt 0.372100 0.140600
vt 0.370100 0.140600
vt 0.370100 0.117200
vt 0.388700 0.062500
vt 0.388700 0.070300
vt 0.384800 0.070300
vt 0.384800 0.062500
vt 0.867600 0.102800
vt 0.867600 0.123800
vt 0.874600 0.123800
vt 0.874600 0.102800
vt 0.411100 0.101600
vt 0.411100 0.109400
vt 0.409200 0.109400
vt 0.409200 0.101600
vt 0.539100 0.083000
vt 0.539100 0.081100
vt 0.570300 0.081100
vt 0.570300 0.083000
vt 0.404300 0.078100
vt 0.404300 0.070300
vt 0.400400 0.070300
vt 0.400400 0.078100
vt 0.414100 0.106400
vt 0.414100 0.104500
vt 0.390600 0.104500
vt 0.390600 0.106400
vt 0.829900 0.124600
vt 0.829900 0.117600
vt 0.388900 0.117600
vt 0.388900 0.124600
vt 0.398800 0.062900
vt 0.398800 0.069900
vt 0.405800 0.069900
vt 0.405800 0.062900
vt 0.390600 0.106400
vt 0.390600 0.104500
vt 0.414100 0.104500
vt 0.414100 0.106400
vt 0.570700 0.071900
vt 0.570700 0.099900
vt 0.577700 0.099900
vt 0.577700 0.071900
vt 0.570300 0.111700
vt 0.570300 0.113700
vt 0.867200 0.113700
vt 0.867200 0.111700
vt 0.406300 0.072300
vt 0.390600 0.072300
vt 0.390600 0.076200
vt 0.406300 0.076200
vt 0.570300 0.080100
vt 0.406300 0.080100
vt 0.406300 0.084000
vt 0.570300 0.084000
vt 0.383200 0.055100
vt 0.383200 0.062100
vt 0.390200 0.062100
vt 0.390200 0.055100
vt 0.383200 0.055100
vt 0.383200 0.062100
vt 0.390200 0.062100
vt 0.390200 0.055100
vt 0.864300 0.109400
vt 0.864300 0.117200
vt 0.862300 0.117200
vt 0.862300 0.109400
vt 0.593600 0.102000
vt 0.593600 0.109000
vt 0.859600 0.109000
vt 0.859600 0.102000
vt 0.414100 0.098600
vt 0.414100 0.096700
vt 0.539100 0.096700
vt 0.539100 0.098600
vt 0.387700 0.109400
vt 0.387700 0.117200
vt 0.385700 0.117200
vt 0.385700 0.109400
vt 0.570300 0.080100
vt 0.570300 0.084000
vt 0.406300 0.084000
vt 0.406300 0.080100
vt 0.570300 0.111700
vt 0.867200 0.111700
vt 0.867200 0.113700
vt 0.570300 0.113700
vt 0.534200 0.085900
vt 0.534200 0.101600
vt 0.536100 0.101600
vt 0.536100 0.085900
vt 0.406300 0.072300
vt 0.406300 0.076200
vt 0.390600 0.076200
vt 0.390600 0.072300
vt 0.415200 0.070700
vt 0.415200 0.077700
vt 0.569200 0.077700
vt 0.569200 0.070700
vt 0.375400 0.125800
vt 0.375400 0.139800
vt 0.382400 0.139800
vt 0.382400 0.125800
vt 0.391400 0.062900
vt 0.391400 0.069900
vt 0.405400 0.069900
vt 0.405400 0.062900
vt 0.385700 0.109400
vt 0.385700 0.117200
vt 0.387700 0.117200
vt 0.387700 0.109400
vt 0.536100 0.085900
vt 0.536100 0.101600
vt 0.534200 0.101600
vt 0.534200 0.085900
vt 0.570300 0.083000
vt 0.570300 0.081100
vt 0.539100 0.081100
vt 0.539100 0.083000
vt 0.862300 0.109400
vt 0.862300 0.117200
vt 0.864300 0.117200
vt 0.864300 0.109400
vt 0.370100 0.117200
vt 0.370100 0.140600
vt 0.372100 0.140600
vt 0.372100 0.117200
vt 0.404300 0.078100
vt 0.400400 0.078100
vt 0.400400 0.070300
vt 0.404300 0.070300
vn -1.000000 0.000000 0.000000
vn -1.000000 0.000000 0.000000
vn -1.000000 0.000000 0.000000
vn -1.000000 0.000000 0.000000
vn -1.000000 0.000000 0.000000
vn -1.000000 0.000000 0.000000
vn 0.000000 0.000000 -1.000000
vn 0.000000 0.000000 -1.000000
vn 0.000000 0.000000 -1.000000
vn 0.000000 0.000000 -1.000000
vn 0.000000 0.000000 -1.000000
vn 0.000000 0.000000 -1.000000
vn 0.000000 0.000000 -1.000000
vn 0.000000 0.000000 -1.000000
vn 0.000000 0.000000 -1.000000
vn 0.000000 0.000000 -1.000000
vn 0.000000 0.000000 -1.000000
vn 0.000000 0.000000 -1.000000
vn 0.000000 0.000000 -1.000000
vn 0.000000 0.000000 -1.000000
vn 0.000000 0.000000 -1.000000
vn 0.000000 0.000000 -1.000000
vn 0.000000 0.000000 -1.000000
vn 0.000000 0.000000 -1.000000
vn 0.000000 0.000000 -1.000000
vn 0.000000 0.000000 -1.000000
vn 0.000000 0.000000 -1.000000
vn 0.000000 0.000000 -1.000000
vn 1.000000 0.000000 0.000000
vn 1.000000 0.000000 0.000000
vn 1.000000 0.000000 0.000000
vn 1.000000 0.000000 0.000000
vn 1.000000 0.000000 0.000000
vn 1.000000 0.000000 0.000000
vn 1.000000 0.000000 0.000000
vn 0.000000 0.000000 -1.000000
vn 0.000000 0.000000 -1.000000
vn 0.000000 0.000000 -1.000000
vn 0.000000 0.000000 -1.000000
vn 0.000000 0.000000 -1.000000
vn 0.000000 0.000000 -1.000000
vn 0.000000 0.000000 -1.000000
vn 0.000000 0.000000 -1.000000
vn 0.000000 0.000000 -1.000000
vn 0.000000 0.000000 -1.000000
vn 0.000000 0.000000 -1.000000
vn 0.000000 0.000000 -1.000000
vn 0.000000 0.000000 -1.000000
vn 0.000000 0.000000 -1.000000
vn 0.000000 0.000000 -1.000000
vn 0.000000 0.000000 -1.000000
vn 0.000000 0.000000 -1.000000
vn 0.000000 0.000000 -1.000000
vn 0.000000 0.000000 -1.000000
vn 0.000000 0.000000 -1.000000
vn 1.000000 0.000000 0.000000
vn 1.000000 0.000000 0.000000
vn 1.000000 0.000000 0.000000
vn 1.000000 0.000000 0.000000
vn 1.000000 0.000000 0.000000
vn 1.000000 0.000000 0.000000
vn 1.000000 0.000000 0.000000
vn 0.000000 1.000000 0.000000
vn 0.000000 1.000000 0.000000
vn 0.000000 1.000000 0.000000
vn 0.000000 1.000000 0.000000
vn 0.000000 1.000000 0.000000
vn 0.000000 1.000000 0.000000
vn 0.000000 1.000000 0.000000
vn 0.000000 1.000000 0.000000
vn 0.000000 1.000000 0.000000
vn 0.000000 1.000000 0.000000
vn 0.000000 1.000000 0.000000
vn 1.000000 0.000000 0.000000
vn 1.000000 0.000000 0.000000
vn 1.000000 0.000000 0.000000
vn 1.000000 0.000000 0.000000
vn 0.000000 0.000000 1.000000
vn 0.000000 0.000000 1.000000
vn 0.000000 0.000000 1.000000
vn 0.000000 0.000000 1.000000
vn 0.000000 0.000000 1.000000
vn 0.000000 0.000000 1.000000
vn 0.000000 0.000000 1.000000
vn 0.000000 0.000000 1.000000
vn 0.000000 0.000000 1.000000
vn 0.000000 0.000000 1.000000
vn 0.000000 0.000000 1.000000
vn 0.000000 0.000000 1.000000
vn 0.000000 0.000000 1.000000
vn 0.000000 0.000000 1.000000
vn 0.000000 0.000000 1.000000
vn 0.000000 0.000000 1.000000
vn 0.000000 0.000000 1.000000
vn 0.000000 0.000000 1.000000
vn 0.000000 0.000000 1.000000
vn 0.000000 0.000000 1.000000
vn 0.000000 0.000000 1.000000
vn 0.000000 0.000000 1.000000
vn 0.000000 0.000000 1.000000
vn 0.000000 0.000000 1.000000
vn 0.000000 0.000000 1.000000
vn 0.000000 0.000000 1.000000
vn 0.000000 0.000000 1.000000
vn 0.000000 0.000000 1.000000
vn 0.000000 0.000000 1.000000
vn 0.000000 0.000000 1.000000
vn 0.000000 0.000000 1.000000
vn 0.000000 0.000000 1.000000
vn 0.000000 0.000000 1.000000
vn 0.000000 0.000000 1.000000
vn 0.000000 0.000000 1.000000
vn 0.000000 0.000000 1.000000
vn 0.000000 0.000000 1.000000
vn 0.000000 0.000000 1.000000
vn 0.000000 0.000000 1.000000
vn 0.000000 0.000000 1.000000
vn 0.000000 0.000000 1.000000
vn 0.000000 0.000000 1.000000
vn 0.000000 1.000000 0.000000
vn 0.000000 1.000000 0.000000
vn 0.000000 1.000000 0.000000
vn 0.000000 1.000000 0.000000
vn 0.000000 1.000000 0.000000
vn 0.000000 1.000000 0.000000
vn 0.000000 1.000000 0.000000
vn 1.000000 0.000000 0.000000
vn 1.000000 0.000000 0.000000
vn 1.000000 0.000000 0.000000
vn 1.000000 0.000000 0.000000
vn 1.000000 0.000000 0.000000
vn 1.000000 0.000000 0.000000
vn 1.000000 0.000000 0.000000
vn 1.000000 0.000000 0.000000
vn 1.000000 0.000000 0.000000
vn 1.000000 0.000000 0.000000
vn 1.000000 0.000000 0.000000
vn 1.000000 0.000000 0.000000
vn 1.000000 0.000000 0.000000
vn 1.000000 0.000000 0.000000
vn 1.000000 0.000000 0.000000
vn 1.000000 0.000000 0.000000
vn 1.000000 0.000000 0.000000
vn 1.000000 0.000000 0.000000
vn 1.000000 0.000000 0.000000
vn 1.000000 0.000000 0.000000
vn 0.000000 1.000000 0.000000
vn 0.000000 1.000000 0.000000
vn 0.000000 1.000000 0.000000
vn 0.000000 1.000000 0.000000
vn 1.000000 0.000000 0.000000
vn 1.000000 0.000000 0.000000
vn 1.000000 0.000000 0.000000
vn 1.000000 0.000000 0.000000
vn 0.000000 1.000000 0.000000
vn 0.000000 1.000000 0.000000
vn 0.000000 1.000000 0.000000
vn 0.000000 1.000000 0.000000
vn 0.000000 1.000000 0.000000
vn 0.000000 1.000000 0.000000
vn 0.000000 1.000000 0.000000
vn 0.000000 1.000000 0.000000
vn 1.000000 0.000000 0.000000
vn 1.000000 0.000000 0.000000
vn 1.000000 0.000000 0.000000
vn 1.000000 0.000000 0.000000
vn 0.000000 1.000000 0.000000
vn 0.000000 1.000000 0.000000
vn 0.000000 1.000000 0.000000
vn 0.000000 1.000000 0.000000
vn 1.000000 0.000000 0.000000
vn 1.000000 0.000000 0.000000
vn 1.000000 0.000000 0.000000
vn 1.000000 0.000000 0.000000
vn 0.000000 -1.000000 0.000000
vn 0.000000 -1.000000 0.000000
vn 0.000000 -1.000000 0.000000
vn 0.000000 -1.000000 0.000000
vn 0.000000 -1.000000 0.000000
vn 0.000000 -1.000000 0.000000
vn 0.000000 -1.000000 0.000000
vn 0.000000 -1.000000 0.000000
vn 0.000000 -1.000000 0.000000
vn 0.000000 -1.000000 0.000000
vn 0.000000 -1.000000 0.000000
vn 0.000000 -1.000000 0.000000
vn 0.000000 -1.000000 0.000000
vn 0.000000 -1.000000 0.000000
vn 0.000000 -1.000000 0.000000
vn 0.000000 -1.000000 0.000000
vn 1.000000 0.000000 0.000000
vn 1.000000 0.000000 0.000000
vn 1.000000 0.000000 0.000000
vn 1.000000 0.000000 0.000000
vn 1.000000 0.000000 0.000000
vn 1.000000 0.000000 0.000000
vn 1.000000 0.000000 0.000000
vn 1.000000 0.000000 0.000000
vn 0.000000 -1.000000 0.000000
vn 0.000000 -1.000000 0.000000
vn 0.000000 -1.000000 0.000000
vn 0.000000 -1.000000 0.000000
vn 0.000000 1.000000 0.000000
vn 0.000000 1.000000 0.000000
vn 0.000000 1.000000 0.000000
vn 0.000000 1.000000 0.000000
vn 1.000000 0.000000 0.000000
vn 1.000000 0.000000 0.000000
vn 1.000000 0.000000 0.000000
vn 1.000000 0.000000 0.000000
vn 0.000000 -1.000000 0.000000
vn 0.000000 -1.000000 0.000000
vn 0.000000 -1.000000 0.000000
vn 0.000000 -1.000000 0.000000
vn 0.000000 -1.000000 0.000000
vn 0.000000 -1.000000 0.000000
vn 0.000000 -1.000000 0.000000
vn 0.000000 -1.000000 0.000000
vn 1.000000 0.000000 0.000000
vn 1.000000 0.000000 0.000000
vn 1.000000 0.000000 0.000000
vn 1.000000 0.000000 0.000000
vn 0.000000 -1.000000 0.000000
vn 0.000000 -1.000000 0.000000
vn 0.000000 -1.000000 0.000000
vn 0.000000 -1.000000 0.000000
vn 0.000000 -1.000000 0.000000
vn 0.000000 -1.000000 0.000000
vn 0.000000 -1.000000 0.000000
vn 0.000000 -1.000000 0.000000
vn 1.000000 0.000000 0.000000
vn 1.000000 0.000000 0.000000
vn 1.000000 0.000000 0.000000
vn 1.000000 0.000000 0.000000
vn 0.000000 -1.000000 0.000000
vn 0.000000 -1.000000 0.000000
vn 0.000000 -1.000000 0.000000
vn 0.000000 -1.000000 0.000000
vn 1.000000 0.000000 0.000000
vn 1.000000 0.000000 0.000000
vn 1.000000 0.000000 0.000000
vn 1.000000 0.000000 0.000000
vn 1.000000 0.000000 0.000000
vn 1.000000 0.000000 0.000000
vn 1.000000 0.000000 0.000000
vn 1.000000 0.000000 0.000000
vn 0.000000 1.000000 0.000000
vn 0.000000 1.000000 0.000000
vn 0.000000 1.000000 0.000000
vn 0.000000 1.000000 0.000000
vn 1.000000 0.000000 0.000000
vn 1.000000 0.000000 0.000000
vn 1.000000 0.000000 0.000000
vn 1.000000 0.000000 0.000000
vn 1.000000 0.000000 0.000000
vn 1.000000 0.000000 0.000000
vn 1.000000 0.000000 0.000000
vn 1.000000 0.000000 0.000000
vn 1.000000 0.000000 0.000000
vn 1.000000 0.000000 0.000000
vn 1.000000 0.000000 0.000000
vn 1.000000 0.000000 0.000000
f 1/1/1 2/2/2 3/3/3
f 4/4/4 5/5/5 6/6/6
f 7/7/7 8/8/8 9/9/9
f 7/7/7 10/10/10 8/8/8
f 11/11/11 10/10/10 12/12/12
f 11/11/11 12/12/12 13/13/13
f 14/14/14 15/15/15 13/13/13
f 15/15/15 16/16/16 13/13/13
f 17/17/17 16/16/16 15/15/15
f 18/18/18 16/16/16 17/17/17
f 18/18/18 19/19/19 16/16/16
f 18/18/18 20/20/20 19/19/19
f 20/20/20 21/21/21 19/19/19
f 22/22/22 21/21/21 20/20/20
f 22/22/22 23/23/23 21/21/21
f 24/24/24 23/23/23 22/22/22
f 24/24/24 22/22/22 25/25/25
f 24/24/24 25/25/25 26/26/26
f 27/27/27 24/24/24 26/26/26
f 27/27/27 28/28/28 24/24/24
f 29/29/29 30/30/30 31/31/31
f 29/29/29 32/32/32 30/30/30
f 33/33/33 32/32/32 29/29/29
f 33/33/33 34/34/34 32/32/32
f 33/33/33 35/35/35 34/34/34
f 36/36/36 37/37/37 38/38/38
f 36/36/36 39/39/39 37/37/37
f 36/36/36 40/40/40 39/39/39
f 36/36/36 41/41/41 40/40/40
f 42/42/42 39/39/39 40/40/40
f 42/42/42 40/40/40 43/43/43
f 42/42/42 44/44/44 39/39/39
f 42/42/42 45/45/45 44/44/44
f 46/46/46 47/47/47 48/48/48
f 46/46/46 49/49/49 47/47/47
f 46/46/46 50/50/50 49/49/49
f 46/46/46 51/51/51 50/50/50
f 47/47/47 49/49/49 52/52/52
f 47/47/47 52/52/52 53/53/53
f 52/52/52 49/49/49 54/54/54
f 52/52/52 54/54/54 55/55/55
f 56/56/56 57/57/57 58/58/58
f 56/56/56 59/59/59 57/57/57
f 57/57/57 59/59/59 60/60/60
f 57/57/57 60/60/60 61/61/61
f 57/57/57 61/61/61 62/62/62
f 63/63/63 64/64/64 65/65/65
f 63/63/63 66/66/66 64/64/64
f 66/66/66 67/67/67 64/64/64
f 66/66/66 68/68/68 67/67/67
f 69/69/69 68/68/68 66/66/66
f 70/70/70 71/71/71 72/72/72
f 70/70/70 72/72/72 73/73/73
f 74/74/74 75/75/75 76/76/76
f 74/74/74 76/76/76 77/77/77
f 78/78/78 79/79/79 80/80/80
f 81/81/81 78/78/78 80/80/80
f 81/81/81 82/82/82 78/78/78
f 81/81/81 83/83/83 82/82/82
f 84/84/84 83/83/83 81/81/81
f 85/85/85 83/83/83 84/84/84
f 86/86/86 85/85/85 84/84/84
f 86/86/86 87/87/87 85/85/85
f 88/88/88 87/87/87 86/86/86
f 88/88/88 89/89/89 87/87/87
f 87/87/87 89/89/89 90/90/90
f 90/90/90 89/89/89 91/91/91
f 89/89/89 92/92/92 91/91/91
f 93/93/93 92/92/92 89/89/89
f 94/94/94 80/80/80 95/95/95
f 94/94/94 95/95/95 96/96/96
f 96/96/96 97/97/97 98/98/98
f 98/98/98 97/97/97 99/99/99
f 100/100/100 101/101/101 102/102/102
f 100/100/100 102/102/102 103/103/103
f 104/104/104 100/100/100 103/103/103
f 105/105/105 100/100/100 104/104/104
f 102/102/102 106/106/106 103/103/103
f 107/107/107 106/106/106 102/102/102
f 103/103/103 106/106/106 108/108/108
f 108/108/108 106/106/106 109/109/109
f 110/110/110 111/111/111 112/112/112
f 113/113/113 111/111/111 110/110/110
f 113/113/113 110/110/110 114/114/114
f 113/113/113 114/114/114 115/115/115
f 113/113/113 116/116/116 111/111/111
f 111/111/111 116/116/116 117/117/117
f 118/118/118 116/116/116 113/113/113
f 119/119/119 116/116/116 118/118/118
f 120/120/120 121/121/121 122/122/122
f 120/120/120 122/122/122 123/123/123
f 120/120/120 123/123/123 124/124/124
f 122/122/122 125/125/125 123/123/123
f 122/122/122 126/126/126 125/125/125
f 127/127/127 128/128/128 129/129/129
f 127/127/127 129/129/129 130/130/130
f 131/131/131 132/132/132 133/133/133
f 131/131/131 133/133/133 134/134/134
f 135/135/135 136/136/136 137/137/137
f 135/135/135 137/137/137 138/138/138
f 139/139/139 140/140/140 141/141/141
f 139/139/139 141/141/141 142/142/142
f 143/143/143 144/144/144 145/145/145
f 143/143/143 145/145/145 146/146/146
f 147/147/147 148/148/148 149/149/149
f 147/147/147 149/149/149 150/150/150
f 151/151/151 152/152/152 153/153/153
f 151/151/151 153/153/153 154/154/154
f 155/155/155 156/156/156 157/157/157
f 155/155/155 157/157/157 158/158/158
f 159/159/159 160/160/160 161/161/161
f 159/159/159 161/161/161 162/162/162
f 163/163/163 164/164/164 165/165/165
f 163/163/163 165/165/165 166/166/166
f 167/167/167 168/168/168 169/169/169
f 167/167/167 169/169/169 170/170/170
f 171/171/171 172/172/172 173/173/173
f 171/171/171 173/173/173 174/174/174
f 175/175/175 176/176/176 177/177/177
f 175/175/175 177/177/177 178/178/178
f 179/179/179 180/180/180 181/181/181
f 179/179/179 181/181/181 182/182/182
f 183/183/183 184/184/184 185/185/185
f 183/183/183 185/185/185 186/186/186
f 187/187/187 188/188/188 189/189/189
f 187/187/187 189/189/189 190/190/190
f 191/191/191 192/192/192 193/193/193
f 191/191/191 193/193/193 194/194/194
f 195/195/195 196/196/196 197/197/197
f 195/195/195 197/197/197 198/198/198
f 199/199/199 200/200/200 201/201/201
f 199/199/199 201/201/201 202/202/202
f 203/203/203 204/204/204 205/205/205
f 203/203/203 205/205/205 206/206/206
f 207/207/207 208/208/208 209/209/209
f 207/207/207 209/209/209 210/210/210
f 211/211/211 212/212/212 213/213/213
f 211/211/211 213/213/213 214/214/214
f 215/215/215 216/216/216 217/217/217
f 215/215/215 217/217/217 218/218/218
f 219/219/219 220/220/220 221/221/221
f 219/219/219 221/221/221 222/222/222
f 223/223/223 224/224/224 225/225/225
f 223/223/223 225/225/225 226/226/226
f 227/227/227 228/228/228 229/229/229
f 227/227/227 229/229/229 230/230/230
f 231/231/231 232/232/232 233/233/233
f 231/231/231 233/233/233 234/234/234
f 235/235/235 236/236/236 237/237/237
f 235/235/235 237/237/237 238/238/238
f 239/239/239 240/240/240 241/241/241
f 239/239/239 241/241/241 242/242/242
f 243/243/243 244/244/244 245/245/245
f 243/243/243 245/245/245 246/246/246
f 247/247/247 248/248/248 249/249/249
f 247/247/247 249/249/249 250/250/250
f 251/251/251 252/252/252 253/253/253
f 251/251/251 253/253/253 254/254/254
f 255/255/255 256/256/256 257/257/257
f 255/255/255 257/257/257 258/258/258
f 259/259/259 260/260/260 261/261/261
f 259/259/259 261/261/261 262/262/262