# Object003
v -0.555000 -0.105000 -0.007500
v -0.630000 -0.090000 -0.007500
v -0.555000 -0.090000 -0.007500
v -0.630000 -0.105000 -0.007500
v -0.540000 -0.135000 -0.007500
v -0.555000 -0.135000 -0.007500
v -0.540000 -0.105000 -0.007500
v -0.630000 -0.135000 -0.007500
v -0.645000 -0.105000 -0.007500
v -0.645000 -0.135000 -0.007500
v -0.825000 -0.135000 -0.007500
v -0.645000 -0.150000 -0.007500
v -0.840000 -0.150000 -0.007500
v -0.840000 0.045000 -0.007500
v -0.825000 0.030000 -0.007500
v -0.570000 0.030000 -0.007500
v -0.570000 0.045000 -0.007500
v -0.375000 0.015000 -0.007500
v -0.570000 0.015000 -0.007500
v -0.375000 0.030000 -0.007500
v -0.555000 -0.105000 0.007500
v -0.540000 -0.105000 0.007500
v -0.540000 -0.105000 0.015000
v -0.555000 -0.105000 0.015000
v -0.555000 -0.105000 -0.007500
v -0.555000 -0.135000 -0.007500
v -0.555000 -0.135000 0.007500
v -0.555000 -0.105000 0.007500
v -0.555000 -0.090000 -0.015000
v -0.540000 -0.105000 -0.015000
v -0.555000 -0.105000 -0.015000
v -0.510000 -0.105000 -0.015000
v -0.510000 -0.030000 -0.015000
v -0.570000 0.015000 -0.015000
v -0.720000 0.015000 -0.015000
v -0.495000 -0.030000 -0.015000
v -0.630000 -0.090000 -0.015000
v -0.495000 -0.015000 -0.015000
v -0.405000 -0.015000 -0.015000
v -0.375000 0.015000 -0.015000
v -0.630000 -0.105000 -0.015000
v -0.645000 -0.105000 -0.015000
v -0.570000 0.030000 -0.015000
v -0.645000 -0.135000 -0.015000
v -0.765000 0.015000 -0.015000
v -0.720000 -0.030000 -0.015000
v -0.825000 0.030000 -0.015000
v -0.825000 -0.135000 -0.015000
v -0.765000 -0.030000 -0.015000
v -0.570000 0.030000 -0.007500
v -0.570000 0.030000 0.007500
v -0.375000 0.030000 0.007500
v -0.375000 0.030000 -0.007500
v -0.630000 -0.135000 -0.007500
v -0.630000 -0.105000 -0.007500
v -0.630000 -0.105000 0.007500
v -0.630000 -0.135000 0.007500
v -0.375000 0.015000 0.015000
v -0.570000 0.015000 0.015000
v -0.405000 -0.015000 0.015000
v -0.495000 -0.015000 0.015000
v -0.495000 -0.030000 0.015000
v -0.510000 -0.030000 0.015000
v -0.555000 -0.090000 0.015000
v -0.720000 0.015000 0.015000
v -0.510000 -0.105000 0.015000
v -0.540000 -0.105000 0.015000
v -0.555000 -0.105000 0.015000
v -0.630000 -0.090000 0.015000
v -0.630000 -0.105000 0.015000
v -0.645000 -0.105000 0.015000
v -0.570000 0.030000 0.015000
v -0.645000 -0.135000 0.015000
v -0.765000 0.015000 0.015000
v -0.720000 -0.030000 0.015000
v -0.825000 0.030000 0.015000
v -0.825000 -0.135000 0.015000
v -0.765000 -0.030000 0.015000
v -0.630000 -0.090000 0.007500
v -0.555000 -0.090000 0.007500
v -0.555000 -0.090000 0.015000
v -0.630000 -0.090000 0.015000
v -0.825000 -0.135000 0.007500
v -0.645000 -0.135000 0.007500
v -0.645000 -0.135000 0.015000
v -0.825000 -0.135000 0.015000
v -0.570000 0.045000 0.007500
v -0.840000 0.045000 0.007500
v -0.570000 0.030000 0.007500
v -0.825000 0.030000 0.007500
v -0.825000 -0.135000 0.007500
v -0.840000 -0.150000 0.007500
v -0.645000 -0.150000 0.007500
v -0.645000 -0.135000 0.007500
v -0.375000 0.015000 0.007500
v -0.375000 0.030000 0.007500
v -0.570000 0.015000 0.007500
v -0.630000 -0.135000 0.007500
v -0.645000 -0.105000 0.007500
v -0.630000 -0.105000 0.007500
v -0.555000 -0.105000 0.007500
v -0.630000 -0.090000 0.007500
v -0.555000 -0.090000 0.007500
v -0.540000 -0.135000 0.007500
v -0.540000 -0.105000 0.007500
v -0.555000 -0.135000 0.007500
v -0.645000 -0.105000 -0.007500
v -0.645000 -0.105000 -0.015000
v -0.630000 -0.105000 -0.015000
v -0.630000 -0.105000 -0.007500
v -0.555000 -0.105000 -0.007500
v -0.555000 -0.105000 -0.015000
v -0.540000 -0.105000 -0.015000
v -0.540000 -0.105000 -0.007500
v -0.720000 -0.030000 -0.011250
v -0.765000 -0.030000 -0.011250
v -0.765000 0.015000 -0.011250
v -0.720000 0.015000 -0.011250
v -0.765000 -0.030000 -0.015000
v -0.765000 0.015000 -0.015000
v -0.765000 0.015000 -0.011250
v -0.765000 -0.030000 -0.011250
v -0.570000 0.030000 0.015000
v -0.570000 0.030000 0.007500
v -0.825000 0.030000 0.007500
v -0.825000 0.030000 0.015000
v -0.720000 0.015000 0.015000
v -0.720000 0.015000 0.011250
v -0.720000 -0.030000 0.011250
v -0.720000 -0.030000 0.015000
v -0.570000 0.015000 -0.015000
v -0.570000 0.015000 -0.007500
v -0.375000 0.015000 -0.007500
v -0.375000 0.015000 -0.015000
v -0.825000 -0.135000 -0.007500
v -0.825000 -0.135000 -0.015000
v -0.645000 -0.135000 -0.015000
v -0.645000 -0.135000 -0.007500
v -0.555000 -0.090000 -0.015000
v -0.555000 -0.105000 -0.015000
v -0.555000 -0.105000 -0.007500
v -0.555000 -0.090000 -0.007500
v -0.570000 0.015000 0.007500
v -0.570000 0.030000 0.007500
v -0.570000 0.030000 0.015000
v -0.570000 0.015000 0.015000
v -0.555000 -0.090000 0.015000
v -0.555000 -0.090000 0.007500
v -0.555000 -0.105000 0.007500
v -0.555000 -0.105000 0.015000
v -0.645000 -0.105000 0.007500
v -0.630000 -0.105000 0.007500
v -0.630000 -0.105000 0.015000
v -0.645000 -0.105000 0.015000
v -0.570000 0.030000 -0.007500
v -0.570000 0.045000 -0.007500
v -0.570000 0.045000 0.007500
v -0.570000 0.030000 0.007500
v -0.840000 0.045000 -0.007500
v -0.840000 0.045000 0.007500
v -0.570000 0.045000 0.007500
v -0.570000 0.045000 -0.007500
v -0.630000 -0.105000 0.007500
v -0.630000 -0.105000 -0.007500
v -0.555000 -0.105000 -0.007500
v -0.555000 -0.105000 0.007500
v -0.630000 -0.105000 0.007500
v -0.630000 -0.090000 0.007500
v -0.630000 -0.090000 0.015000
v -0.630000 -0.105000 0.015000
v -0.645000 -0.135000 0.007500
v -0.645000 -0.135000 -0.007500
v -0.630000 -0.135000 -0.007500
v -0.630000 -0.135000 0.007500
v -0.570000 0.015000 -0.015000
v -0.570000 0.030000 -0.015000
v -0.570000 0.030000 -0.007500
v -0.570000 0.015000 -0.007500
v -0.720000 -0.030000 0.015000
v -0.720000 -0.030000 0.011250
v -0.765000 -0.030000 0.011250
v -0.765000 -0.030000 0.015000
v -0.645000 -0.135000 0.007500
v -0.645000 -0.105000 0.007500
v -0.645000 -0.105000 0.015000
v -0.645000 -0.135000 0.015000
v -0.630000 -0.105000 -0.015000
v -0.630000 -0.090000 -0.015000
v -0.630000 -0.090000 -0.007500
v -0.630000 -0.105000 -0.007500
v -0.645000 -0.150000 -0.007500
v -0.645000 -0.135000 -0.007500
v -0.645000 -0.135000 0.007500
v -0.645000 -0.150000 0.007500
v -0.765000 -0.030000 -0.015000
v -0.765000 -0.030000 -0.011250
v -0.720000 -0.030000 -0.011250
v -0.720000 -0.030000 -0.015000
v -0.765000 -0.030000 0.011250
v -0.765000 0.015000 0.011250
v -0.765000 0.015000 0.015000
v -0.765000 -0.030000 0.015000
v -0.720000 0.015000 0.015000
v -0.765000 0.015000 0.015000
v -0.765000 0.015000 0.011250
v -0.720000 0.015000 0.011250
v -0.630000 -0.090000 -0.007500
v -0.630000 -0.090000 -0.015000
v -0.555000 -0.090000 -0.015000
v -0.555000 -0.090000 -0.007500
v -0.825000 0.030000 -0.015000
v -0.825000 0.030000 -0.007500
v -0.570000 0.030000 -0.007500
v -0.570000 0.030000 -0.015000
v -0.720000 -0.030000 0.011250
v -0.720000 0.015000 0.011250
v -0.765000 0.015000 0.011250
v -0.765000 -0.030000 0.011250
v -0.840000 -0.150000 0.007500
v -0.840000 -0.150000 -0.007500
v -0.645000 -0.150000 -0.007500
v -0.645000 -0.150000 0.007500
v -0.840000 0.045000 -0.007500
v -0.840000 -0.150000 -0.007500
v -0.840000 -0.150000 0.007500
v -0.840000 0.045000 0.007500
v -0.825000 0.030000 -0.015000
v -0.825000 -0.135000 -0.015000
v -0.825000 -0.135000 -0.007500
v -0.825000 0.030000 -0.007500
v -0.720000 0.015000 -0.015000
v -0.720000 -0.030000 -0.015000
v -0.720000 -0.030000 -0.011250
v -0.720000 0.015000 -0.011250
v -0.825000 0.030000 0.015000
v -0.825000 0.030000 0.007500
v -0.825000 -0.135000 0.007500
v -0.825000 -0.135000 0.015000
v -0.720000 0.015000 -0.015000
v -0.720000 0.015000 -0.011250
v -0.765000 0.015000 -0.011250
v -0.765000 0.015000 -0.015000
v -0.375000 0.015000 0.015000
v -0.375000 0.015000 0.007500
v -0.570000 0.015000 0.007500
v -0.570000 0.015000 0.015000
v -0.645000 -0.135000 -0.015000
v -0.645000 -0.105000 -0.015000
v -0.645000 -0.105000 -0.007500
v -0.645000 -0.135000 -0.007500
v -0.555000 -0.135000 0.007500
v -0.555000 -0.135000 -0.007500
v -0.540000 -0.135000 -0.007500
v -0.540000 -0.135000 0.007500
vt 0.148400 0.031300
vt 0.109400 0.039100
vt 0.148400 0.039100
vt 0.109400 0.031300
vt 0.156200 0.015600
vt 0.148400 0.015600
vt 0.156200 0.031300
vt 0.109400 0.015600
vt 0.101600 0.031300
vt 0.101600 0.015600
vt 0.007800 0.015600
vt 0.101600 0.007800
vt 0.000000 0.007800
vt 0.000000 0.109400
vt 0.007800 0.101600
vt 0.140600 0.101600
vt 0.140600 0.109400
vt 0.242200 0.093800
vt 0.140600 0.093800
vt 0.242200 0.101600
vt 0.148400 0.033200
vt 0.156300 0.033200
vt 0.156300 0.037100
vt 0.148400 0.037100
vt 0.155800 0.030400
vt 0.155800 0.016400
vt 0.148800 0.016400
vt 0.148800 0.030400
vt 0.148400 0.039100
vt 0.156200 0.031300
vt 0.148400 0.031300
vt 0.171900 0.031300
vt 0.171900 0.070300
vt 0.140600 0.093800
vt 0.062500 0.093800
vt 0.179700 0.070300
vt 0.109400 0.039100
vt 0.179700 0.078100
vt 0.226600 0.078100
vt 0.242200 0.093800
vt 0.109400 0.031300
vt 0.101600 0.031300
vt 0.140600 0.101600
vt 0.101600 0.015600
vt 0.039100 0.093800
vt 0.062500 0.070300
vt 0.007800 0.101600
vt 0.007800 0.015600
vt 0.039100 0.070300
vt 0.236900 0.101200
vt 0.236900 0.094200
vt 0.145900 0.094200
vt 0.145900 0.101200
vt 0.102000 0.016400
vt 0.102000 0.030400
vt 0.109000 0.030400
vt 0.109000 0.016400
vt 0.242200 0.093800
vt 0.140600 0.093800
vt 0.226600 0.078100
vt 0.179700 0.078100
vt 0.179700 0.070300
vt 0.171900 0.070300
vt 0.148400 0.039100
vt 0.062500 0.093800
vt 0.171900 0.031300
vt 0.156200 0.031300
vt 0.148400 0.031300
vt 0.109400 0.039100
vt 0.109400 0.031300
vt 0.101600 0.031300
vt 0.140600 0.101600
vt 0.101600 0.015600
vt 0.039100 0.093800
vt 0.062500 0.070300
vt 0.007800 0.101600
vt 0.007800 0.015600
vt 0.039100 0.070300
vt 0.109400 0.041000
vt 0.148400 0.041000
vt 0.148400 0.044900
vt 0.109400 0.044900
vt 0.007800 0.017600
vt 0.101600 0.017600
vt 0.101600 0.021500
vt 0.007800 0.021500
vt 0.140600 0.109400
vt 0.000000 0.109400
vt 0.140600 0.101600
vt 0.007800 0.101600
vt 0.007800 0.015600
vt 0.000000 0.007800
vt 0.101600 0.007800
vt 0.101600 0.015600
vt 0.242200 0.093800
vt 0.242200 0.101600
vt 0.140600 0.093800
vt 0.109400 0.015600
vt 0.101600 0.031300
vt 0.109400 0.031300
vt 0.148400 0.031300
vt 0.109400 0.039100
vt 0.148400 0.039100
vt 0.156200 0.015600
vt 0.156200 0.031300
vt 0.148400 0.015600
vt 0.101600 0.033200
vt 0.101600 0.037100
vt 0.109400 0.037100
vt 0.109400 0.033200
vt 0.148400 0.033200
vt 0.148400 0.037100
vt 0.156300 0.037100
vt 0.156300 0.033200
vt 0.062500 0.070300
vt 0.039100 0.070300
vt 0.039100 0.093800
vt 0.062500 0.093800
vt 0.034200 0.070300
vt 0.034200 0.093800
vt 0.036100 0.093800
vt 0.036100 0.070300
vt 0.140600 0.099600
vt 0.140600 0.095700
vt 0.007800 0.095700
vt 0.007800 0.099600
vt 0.067400 0.093800
vt 0.065400 0.093800
vt 0.065400 0.070300
vt 0.067400 0.070300
vt 0.140600 0.091800
vt 0.140600 0.087900
vt 0.242200 0.087900
vt 0.242200 0.091800
vt 0.007800 0.017600
vt 0.007800 0.021500
vt 0.101600 0.021500
vt 0.101600 0.017600
vt 0.154300 0.039100
vt 0.154300 0.031300
vt 0.150400 0.031300
vt 0.150400 0.039100
vt 0.138500 0.094200
vt 0.138500 0.101200
vt 0.135000 0.101200
vt 0.135000 0.094200
vt 0.154300 0.039100
vt 0.150400 0.039100
vt 0.150400 0.031300
vt 0.154300 0.031300
vt 0.101600 0.033200
vt 0.109400 0.033200
vt 0.109400 0.037100
vt 0.101600 0.037100
vt 0.129300 0.102000
vt 0.129300 0.109000
vt 0.136300 0.109000
vt 0.136300 0.102000
vt 0.133300 0.109000
vt 0.133300 0.102000
vt 0.007300 0.102000
vt 0.007300 0.109000
vt 0.111400 0.031700
vt 0.111400 0.038700
vt 0.146400 0.038700
vt 0.146400 0.031700
vt 0.107400 0.031300
vt 0.107400 0.039100
vt 0.103500 0.039100
vt 0.103500 0.031300
vt 0.102000 0.016400
vt 0.102000 0.023000
vt 0.109000 0.023000
vt 0.109000 0.016400
vt 0.135000 0.094200
vt 0.135000 0.101200
vt 0.138500 0.101200
vt 0.138500 0.094200
vt 0.039100 0.067400
vt 0.039100 0.065400
vt 0.062500 0.065400
vt 0.062500 0.067400
vt 0.099600 0.015600
vt 0.099600 0.031300
vt 0.095700 0.031300
vt 0.095700 0.015600
vt 0.103500 0.031300
vt 0.103500 0.039100
vt 0.107400 0.039100
vt 0.107400 0.031300
vt 0.094200 0.008200
vt 0.094200 0.015200
vt 0.101200 0.015200
vt 0.101200 0.008200
vt 0.062500 0.067400
vt 0.062500 0.065400
vt 0.039100 0.065400
vt 0.039100 0.067400
vt 0.036100 0.070300
vt 0.036100 0.093800
vt 0.034200 0.093800
vt 0.034200 0.070300
vt 0.039100 0.098600
vt 0.062500 0.098600
vt 0.062500 0.096700
vt 0.039100 0.096700
vt 0.109400 0.041000
vt 0.109400 0.044900
vt 0.148400 0.044900
vt 0.148400 0.041000
vt 0.007800 0.099600
vt 0.007800 0.095700
vt 0.140600 0.095700
vt 0.140600 0.099600
vt 0.062500 0.070300
vt 0.062500 0.093800
vt 0.039100 0.093800
vt 0.039100 0.070300
vt 0.009200 0.007800
vt 0.009200 0.014800
vt 0.100200 0.014800
vt 0.100200 0.007800
vt 0.007400 0.104100
vt 0.007400 0.013100
vt 0.000400 0.013100
vt 0.000400 0.104100
vt 0.013700 0.101600
vt 0.013700 0.015600
vt 0.009800 0.015600
vt 0.009800 0.101600
vt 0.067400 0.093800
vt 0.067400 0.070300
vt 0.065400 0.070300
vt 0.065400 0.093800
vt 0.013700 0.101600
vt 0.009800 0.101600
vt 0.009800 0.015600
vt 0.013700 0.015600
vt 0.039100 0.098600
vt 0.039100 0.096700
vt 0.062500 0.096700
vt 0.062500 0.098600
vt 0.242200 0.091800
vt 0.242200 0.087900
vt 0.140600 0.087900
vt 0.140600 0.091800
vt 0.095700 0.015600
vt 0.095700 0.031300
vt 0.099600 0.031300
vt 0.099600 0.015600
vt 0.148800 0.016400
vt 0.148800 0.023000
vt 0.155800 0.023000
vt 0.155800 0.016400
vn 0.000000 0.000000 -1.000000
vn 0.000000 0.000000 -1.000000
vn 0.000000 0.000000 -1.000000
vn 0.000000 0.000000 -1.000000
vn 0.000000 0.000000 -1.000000
vn 0.000000 0.000000 -1.000000
vn 0.000000 0.000000 -1.000000
vn 0.000000 0.000000 -1.000000
vn 0.000000 0.000000 -1.000000
vn 0.000000 0.000000 -1.000000
vn 0.000000 0.000000 -1.000000
vn 0.000000 0.000000 -1.000000
vn 0.000000 0.000000 -1.000000
vn 0.000000 0.000000 -1.000000
vn 0.000000 0.000000 -1.000000
vn 0.000000 0.000000 -1.000000
vn 0.000000 0.000000 -1.000000
vn 0.000000 0.000000 -1.000000
vn 0.000000 0.000000 -1.000000
vn 0.000000 0.000000 -1.000000
vn 0.000000 -1.000000 0.000000
vn 0.000000 -1.000000 0.000000
vn 0.000000 -1.000000 0.000000
vn 0.000000 -1.000000 0.000000
vn -1.000000 0.000000 0.000000
vn -1.000000 0.000000 0.000000
vn -1.000000 0.000000 0.000000
vn -1.000000 0.000000 0.000000
vn 0.000000 0.000000 -1.000000
vn 0.000000 0.000000 -1.000000
vn 0.000000 0.000000 -1.000000
vn 0.000000 0.000000 -1.000000
vn 0.000000 0.000000 -1.000000
vn 0.000000 0.000000 -1.000000
vn 0.000000 0.000000 -1.000000
vn 0.000000 0.000000 -1.000000
vn 0.000000 0.000000 -1.000000
vn 0.000000 0.000000 -1.000000
vn 0.000000 0.000000 -1.000000
vn 0.000000 0.000000 -1.000000
vn 0.000000 0.000000 -1.000000
vn 0.000000 0.000000 -1.000000
vn 0.000000 0.000000 -1.000000
vn 0.000000 0.000000 -1.000000
vn 0.000000 0.000000 -1.000000
vn 0.000000 0.000000 -1.000000
vn 0.000000 0.000000 -1.000000
vn 0.000000 0.000000 -1.000000
vn 0.000000 0.000000 -1.000000
vn 0.000000 1.000000 0.000000
vn 0.000000 1.000000 0.000000
vn 0.000000 1.000000 0.000000
vn 0.000000 1.000000 0.000000
vn 1.000000 0.000000 0.000000
vn 1.000000 0.000000 0.000000
vn 1.000000 0.000000 0.000000
vn 1.000000 0.000000 0.000000
vn 0.000000 0.000000 1.000000
vn 0.000000 0.000000 1.000000
vn 0.000000 0.000000 1.000000
vn 0.000000 0.000000 1.000000
vn 0.000000 0.000000 1.000000
vn 0.000000 0.000000 1.000000
vn 0.000000 0.000000 1.000000
vn 0.000000 0.000000 1.000000
vn 0.000000 0.000000 1.000000
vn 0.000000 0.000000 1.000000
vn 0.000000 0.000000 1.000000
vn 0.000000 0.000000 1.000000
vn 0.000000 0.000000 1.000000
vn 0.000000 0.000000 1.000000
vn 0.000000 0.000000 1.000000
vn 0.000000 0.000000 1.000000
vn 0.000000 0.000000 1.000000
vn 0.000000 0.000000 1.000000
vn 0.000000 0.000000 1.000000
vn 0.000000 0.000000 1.000000
vn 0.000000 0.000000 1.000000
vn 0.000000 -1.000000 0.000000
vn 0.000000 -1.000000 0.000000
vn 0.000000 -1.000000 0.000000
vn 0.000000 -1.000000 0.000000
vn 0.000000 -1.000000 0.000000
vn 0.000000 -1.000000 0.000000
vn 0.000000 -1.000000 0.000000
vn 0.000000 -1.000000 0.000000
vn 0.000000 0.000000 1.000000
vn 0.000000 0.000000 1.000000
vn 0.000000 0.000000 1.000000
vn 0.000000 0.000000 1.000000
vn 0.000000 0.000000 1.000000
vn 0.000000 0.000000 1.000000
vn 0.000000 0.000000 1.000000
vn 0.000000 0.000000 1.000000
vn 0.000000 0.000000 1.000000
vn 0.000000 0.000000 1.000000
vn 0.000000 0.000000 1.000000
vn 0.000000 0.000000 1.000000
vn 0.000000 0.000000 1.000000
vn 0.000000 0.000000 1.000000
vn 0.000000 0.000000 1.000000
vn 0.000000 0.000000 1.000000
vn 0.000000 0.000000 1.000000
vn 0.000000 0.000000 1.000000
vn 0.000000 0.000000 1.000000
vn 0.000000 0.000000 1.000000
vn 0.000000 -1.000000 0.000000
vn 0.000000 -1.000000 0.000000
vn 0.000000 -1.000000 0.000000
vn 0.000000 -1.000000 0.000000
vn 0.000000 -1.000000 0.000000
vn 0.000000 -1.000000 0.000000
vn 0.000000 -1.000000 0.000000
vn 0.000000 -1.000000 0.000000
vn 0.000000 0.000000 -1.000000
vn 0.000000 0.000000 -1.000000
vn 0.000000 0.000000 -1.000000
vn 0.000000 0.000000 -1.000000
vn 1.000000 0.000000 0.000000
vn 1.000000 0.000000 0.000000
vn 1.000000 0.000000 0.000000
vn 1.000000 0.000000 0.000000
vn 0.000000 1.000000 0.000000
vn 0.000000 1.000000 0.000000
vn 0.000000 1.000000 0.000000
vn 0.000000 1.000000 0.000000
vn -1.000000 0.000000 0.000000
vn -1.000000 0.000000 0.000000
vn -1.000000 0.000000 0.000000
vn -1.000000 0.000000 0.000000
vn 0.000000 1.000000 0.000000
vn 0.000000 1.000000 0.000000
vn 0.000000 1.000000 0.000000
vn 0.000000 1.000000 0.000000
vn 0.000000 -1.000000 0.000000
vn 0.000000 -1.000000 0.000000
vn 0.000000 -1.000000 0.000000
vn 0.000000 -1.000000 0.000000
vn -1.000000 0.000000 0.000000
vn -1.000000 0.000000 0.000000
vn -1.000000 0.000000 0.000000
vn -1.000000 0.000000 0.000000
vn 1.000000 0.000000 0.000000
vn 1.000000 0.000000 0.000000
vn 1.000000 0.000000 0.000000
vn 1.000000 0.000000 0.000000
vn -1.000000 0.000000 0.000000
vn -1.000000 0.000000 0.000000
vn -1.000000 0.000000 0.000000
vn -1.000000 0.000000 0.000000
vn 0.000000 -1.000000 0.000000
vn 0.000000 -1.000000 0.000000
vn 0.000000 -1.000000 0.000000
vn 0.000000 -1.000000 0.000000
vn 1.000000 0.000000 0.000000
vn 1.000000 0.000000 0.000000
vn 1.000000 0.000000 0.000000
vn 1.000000 0.000000 0.000000
vn 0.000000 1.000000 0.000000
vn 0.000000 1.000000 0.000000
vn 0.000000 1.000000 0.000000
vn 0.000000 1.000000 0.000000
vn 0.000000 -1.000000 0.000000
vn 0.000000 -1.000000 0.000000
vn 0.000000 -1.000000 0.000000
vn 0.000000 -1.000000 0.000000
vn 1.000000 0.000000 0.000000
vn 1.000000 0.000000 0.000000
vn 1.000000 0.000000 0.000000
vn 1.000000 0.000000 0.000000
vn 0.000000 -1.000000 0.000000
vn 0.000000 -1.000000 0.000000
vn 0.000000 -1.000000 0.000000
vn 0.000000 -1.000000 0.000000
vn 1.000000 0.000000 0.000000
vn 1.000000 0.000000 0.000000
vn 1.000000 0.000000 0.000000
vn 1.000000 0.000000 0.000000
vn 0.000000 1.000000 0.000000
vn 0.000000 1.000000 0.000000
vn 0.000000 1.000000 0.000000
vn 0.000000 1.000000 0.000000
vn 1.000000 0.000000 0.000000
vn 1.000000 0.000000 0.000000
vn 1.000000 0.000000 0.000000
vn 1.000000 0.000000 0.000000
vn 1.000000 0.000000 0.000000
vn 1.000000 0.000000 0.000000
vn 1.000000 0.000000 0.000000
vn 1.000000 0.000000 0.000000
vn 1.000000 0.000000 0.000000
vn 1.000000 0.000000 0.000000
vn 1.000000 0.000000 0.000000
vn 1.000000 0.000000 0.000000
vn 0.000000 1.000000 0.000000
vn 0.000000 1.000000 0.000000
vn 0.000000 1.000000 0.000000
vn 0.000000 1.000000 0.000000
vn 1.000000 0.000000 0.000000
vn 1.000000 0.000000 0.000000
vn 1.000000 0.000000 0.000000
vn 1.000000 0.000000 0.000000
vn 0.000000 -1.000000 0.000000
vn 0.000000 -1.000000 0.000000
vn 0.000000 -1.000000 0.000000
vn 0.000000 -1.000000 0.000000
vn 0.000000 -1.000000 0.000000
vn 0.000000 -1.000000 0.000000
vn 0.000000 -1.000000 0.000000
vn 0.000000 -1.000000 0.000000
vn 0.000000 1.000000 0.000000
vn 0.000000 1.000000 0.000000
vn 0.000000 1.000000 0.000000
vn 0.000000 1.000000 0.000000
vn 0.000000 0.000000 1.000000
vn 0.000000 0.000000 1.000000
vn 0.000000 0.000000 1.000000
vn 0.000000 0.000000 1.000000
vn 0.000000 -1.000000 0.000000
vn 0.000000 -1.000000 0.000000
vn 0.000000 -1.000000 0.000000
vn 0.000000 -1.000000 0.000000
vn -1.000000 0.000000 0.000000
vn -1.000000 0.000000 0.000000
vn -1.000000 0.000000 0.000000
vn -1.000000 0.000000 0.000000
vn -1.000000 0.000000 0.000000
vn -1.000000 0.000000 0.000000
vn -1.000000 0.000000 0.000000
vn -1.000000 0.000000 0.000000
vn -1.000000 0.000000 0.000000
vn -1.000000 0.000000 0.000000
vn -1.000000 0.000000 0.000000
vn -1.000000 0.000000 0.000000
vn -1.000000 0.000000 0.000000
vn -1.000000 0.000000 0.000000
vn -1.000000 0.000000 0.000000
vn -1.000000 0.000000 0.000000
vn 0.000000 -1.000000 0.000000
vn 0.000000 -1.000000 0.000000
vn 0.000000 -1.000000 0.000000
vn 0.000000 -1.000000 0.000000
vn 0.000000 1.000000 0.000000
vn 0.000000 1.000000 0.000000
vn 0.000000 1.000000 0.000000
vn 0.000000 1.000000 0.000000
vn 1.000000 0.000000 0.000000
vn 1.000000 0.000000 0.000000
vn 1.000000 0.000000 0.000000
vn 1.000000 0.000000 0.000000
vn 0.000000 -1.000000 0.000000
vn 0.000000 -1.000000 0.000000
vn 0.000000 -1.000000 0.000000
vn 0.000000 -1.000000 0.000000
f 1/1/1 2/2/2 3/3/3
f 1/1/1 4/4/4 2/2/2
f 5/5/5 6/6/6 1/1/1
f 5/5/5 1/1/1 7/7/7
f 8/8/8 9/9/9 4/4/4
f 8/8/8 10/10/10 9/9/9
f 11/11/11 10/10/10 12/12/12
f 11/11/11 12/12/12 13/13/13
f 14/14/14 11/11/11 13/13/13
f 14/14/14 15/15/15 11/11/11
f 14/14/14 16/16/16 15/15/15
f 14/14/14 17/17/17 16/16/16
f 18/18/18 19/19/19 16/16/16
f 18/18/18 16/16/16 20/20/20
f 21/21/21 22/22/22 23/23/23
f 21/21/21 23/23/23 24/24/24
f 25/25/25 26/26/26 27/27/27
f 25/25/25 27/27/27 28/28/28
f 29/29/29 30/30/30 31/31/31
f 29/29/29 32/32/32 30/30/30
f 29/29/29 33/33/33 32/32/32
f 34/34/34 33/33/33 29/29/29
f 34/34/34 29/29/29 35/35/35
f 34/34/34 36/36/36 33/33/33
f 35/35/35 29/29/29 37/37/37
f 34/34/34 38/38/38 36/36/36
f 34/34/34 39/39/39 38/38/38
f 34/34/34 40/40/40 39/39/39
f 35/35/35 37/37/37 41/41/41
f 35/35/35 41/41/41 42/42/42
f 43/43/43 34/34/34 35/35/35
f 35/35/35 42/42/42 44/44/44
f 35/35/35 45/45/45 43/43/43
f 35/35/35 44/44/44 46/46/46
f 43/43/43 45/45/45 47/47/47
f 48/48/48 46/46/46 44/44/44
f 47/47/47 45/45/45 49/49/49
f 47/47/47 49/49/49 48/48/48
f 48/48/48 49/49/49 46/46/46
f 50/50/50 51/51/51 52/52/52
f 50/50/50 52/52/52 53/53/53
f 54/54/54 55/55/55 56/56/56
f 54/54/54 56/56/56 57/57/57
f 58/58/58 59/59/59 60/60/60
f 60/60/60 59/59/59 61/61/61
f 61/61/61 59/59/59 62/62/62
f 62/62/62 59/59/59 63/63/63
f 63/63/63 59/59/59 64/64/64
f 64/64/64 59/59/59 65/65/65
f 63/63/63 64/64/64 66/66/66
f 66/66/66 64/64/64 67/67/67
f 67/67/67 64/64/64 68/68/68
f 64/64/64 65/65/65 69/69/69
f 69/69/69 65/65/65 70/70/70
f 70/70/70 65/65/65 71/71/71
f 59/59/59 72/72/72 65/65/65
f 71/71/71 65/65/65 73/73/73
f 74/74/74 65/65/65 72/72/72
f 73/73/73 65/65/65 75/75/75
f 74/74/74 72/72/72 76/76/76
f 77/77/77 73/73/73 75/75/75
f 74/74/74 76/76/76 78/78/78
f 77/77/77 75/75/75 78/78/78
f 78/78/78 76/76/76 77/77/77
f 79/79/79 80/80/80 81/81/81
f 79/79/79 81/81/81 82/82/82
f 83/83/83 84/84/84 85/85/85
f 83/83/83 85/85/85 86/86/86
f 87/87/87 88/88/88 89/89/89
f 89/89/89 88/88/88 90/90/90
f 90/90/90 88/88/88 91/91/91
f 91/91/91 88/88/88 92/92/92
f 93/93/93 91/91/91 92/92/92
f 94/94/94 91/91/91 93/93/93
f 95/95/95 96/96/96 89/89/89
f 95/95/95 89/89/89 97/97/97
f 98/98/98 99/99/99 94/94/94
f 98/98/98 100/100/100 99/99/99
f 101/101/101 102/102/102 100/100/100
f 101/101/101 103/103/103 102/102/102
f 104/104/104 105/105/105 101/101/101
f 104/104/104 101/101/101 106/106/106
f 107/107/107 108/108/108 109/109/109
f 107/107/107 109/109/109 110/110/110
f 111/111/111 112/112/112 113/113/113
f 111/111/111 113/113/113 114/114/114
f 115/115/115 116/116/116 117/117/117
f 115/115/115 117/117/117 118/118/118
f 119/119/119 120/120/120 121/121/121
f 119/119/119 121/121/121 122/122/122
f 123/123/123 124/124/124 125/125/125
f 123/123/123 125/125/125 126/126/126
f 127/127/127 128/128/128 129/129/129
f 127/127/127 129/129/129 130/130/130
f 131/131/131 132/132/132 133/133/133
f 131/131/131 133/133/133 134/134/134
f 135/135/135 136/136/136 137/137/137
f 135/135/135 137/137/137 138/138/138
f 139/139/139 140/140/140 141/141/141
f 139/139/139 141/141/141 142/142/142
f 143/143/143 144/144/144 145/145/145
f 143/143/143 145/145/145 146/146/146
f 147/147/147 148/148/148 149/149/149
f 147/147/147 149/149/149 150/150/150
f 151/151/151 152/152/152 153/153/153
f 151/151/151 153/153/153 154/154/154
f 155/155/155 156/156/156 157/157/157
f 155/155/155 157/157/157 158/158/158
f 159/159/159 160/160/160 161/161/161
f 159/159/159 161/161/161 162/162/162
f 163/163/163 164/164/164 165/165/165
f 163/163/163 165/165/165 166/166/166
f 167/167/167 168/168/168 169/169/169
f 167/167/167 169/169/169 170/170/170
f 171/171/171 172/172/172 173/173/173
f 171/171/171 173/173/173 174/174/174
f 175/175/175 176/176/176 177/177/177
f 175/175/175 177/177/177 178/178/178
f 179/179/179 180/180/180 181/181/181
f 179/179/179 181/181/181 182/182/182
f 183/183/183 184/184/184 185/185/185
f 183/183/183 185/185/185 186/186/186
f 187/187/187 188/188/188 189/189/189
f 187/187/187 189/189/189 190/190/190
f 191/191/191 192/192/192 193/193/193
f 191/191/191 193/193/193 194/194/194
f 195/195/195 196/196/196 197/197/197
f 195/195/195 197/197/197 198/198/198
f 199/199/199 200/200/200 201/201/201
f 199/199/199 201/201/201 202/202/202
f 203/203/203 204/204/204 205/205/205
f 203/203/203 205/205/205 206/206/206
f 207/207/207 208/208/208 209/209/209
f 207/207/207 209/209/209 210/210/210
f 211/211/211 212/212/212 213/213/213
f 211/211/211 213/213/213 214/214/214
f 215/215/215 216/216/216 217/217/217
f 215/215/215 217/217/217 218/218/218
f 219/219/219 220/220/220 221/221/221
f 219/219/219 221/221/221 222/222/222
f 223/223/223 224/224/224 225/225/225
f 223/223/223 225/225/225 226/226/226
f 227/227/227 228/228/228 229/229/229
f 227/227/227 229/229/229 230/230/230
f 231/231/231 232/232/232 233/233/233
f 231/231/231 233/233/233 234/234/234
f 235/235/235 236/236/236 237/237/237
f 235/235/235 237/237/237 238/238/238
f 239/239/239 240/240/240 241/241/241
f 239/239/239 241/241/241 242/242/242
f 243/243/243 244/244/244 245/245/245
f 243/243/243 245/245/245 246/246/246
f 247/247/247 248/248/248 249/249/249
f 247/247/247 249/249/249 250/250/250
f 251/251/251 252/252/252 253/253/253
f 251/251/251 253/253/253 254/254/254