# Object002
v -0.315000 0.150000 -0.022500
v -0.405000 0.165000 -0.022500
v -0.315000 0.165000 -0.022500
v -0.405000 0.150000 -0.022500
v -0.315000 0.105000 -0.037500
v -0.405000 0.150000 -0.037500
v -0.315000 0.150000 -0.037500
v -0.405000 0.105000 -0.037500
v -0.405000 0.105000 -0.022500
v -0.315000 0.090000 -0.022500
v -0.405000 0.090000 -0.022500
v -0.315000 0.105000 -0.022500
v -0.315000 0.150000 0.037500
v -0.405000 0.105000 0.037500
v -0.315000 0.105000 0.037500
v -0.405000 0.150000 0.037500
v -0.405000 0.150000 0.022500
v -0.315000 0.165000 0.022500
v -0.405000 0.165000 0.022500
v -0.315000 0.150000 0.022500
v -0.315000 0.105000 0.022500
v -0.405000 0.090000 0.022500
v -0.315000 0.090000 0.022500
v -0.405000 0.105000 0.022500
v -0.315000 0.090000 0.022500
v -0.405000 0.090000 -0.022500
v -0.315000 0.090000 -0.022500
v -0.405000 0.090000 0.022500
v -0.315000 0.150000 -0.022500
v -0.405000 0.150000 -0.037500
v -0.405000 0.150000 -0.022500
v -0.315000 0.150000 -0.037500
v -0.405000 0.105000 -0.022500
v -0.315000 0.105000 -0.037500
v -0.315000 0.105000 -0.022500
v -0.405000 0.105000 -0.037500
v -0.315000 0.105000 0.022500
v -0.405000 0.105000 0.037500
v -0.405000 0.105000 0.022500
v -0.315000 0.105000 0.037500
v -0.405000 0.150000 0.022500
v -0.315000 0.150000 0.037500
v -0.315000 0.150000 0.022500
v -0.405000 0.150000 0.037500
v -0.405000 0.165000 0.022500
v -0.405000 0.150000 -0.022500
v -0.405000 0.150000 0.022500
v -0.405000 0.165000 -0.022500
v -0.405000 0.105000 0.022500
v -0.405000 0.090000 -0.022500
v -0.405000 0.090000 0.022500
v -0.405000 0.105000 -0.022500
v -0.315000 0.165000 -0.022500
v -0.405000 0.165000 0.022500
v -0.315000 0.165000 0.022500
v -0.405000 0.165000 -0.022500
v -0.405000 0.105000 0.022500
v -0.405000 0.105000 0.037500
v -0.405000 0.150000 0.037500
v -0.405000 0.150000 0.022500
v -0.405000 0.150000 -0.022500
v -0.405000 0.150000 -0.037500
v -0.405000 0.105000 -0.037500
v -0.405000 0.105000 -0.022500
vt 0.273400 0.164000
vt 0.226600 0.171900
vt 0.273400 0.171900
vt 0.226600 0.164000
vt 0.273400 0.140600
vt 0.226600 0.164000
vt 0.273400 0.164000
vt 0.226600 0.140600
vt 0.226600 0.140600
vt 0.273400 0.132800
vt 0.226600 0.132800
vt 0.273400 0.140600
vt 0.273400 0.164000
vt 0.226600 0.140600
vt 0.273400 0.140600
vt 0.226600 0.164000
vt 0.226600 0.164000
vt 0.273400 0.171900
vt 0.226600 0.171900
vt 0.273400 0.164000
vt 0.273400 0.140600
vt 0.226600 0.132800
vt 0.273400 0.132800
vt 0.226600 0.140600
vt 0.273400 0.164000
vt 0.226600 0.140600
vt 0.273400 0.140600
vt 0.226600 0.164000
vt 0.271000 0.140200
vt 0.229000 0.133200
vt 0.229000 0.140200
vt 0.271000 0.133200
vt 0.271000 0.140200
vt 0.229000 0.133200
vt 0.229000 0.140200
vt 0.271000 0.133200
vt 0.229000 0.133200
vt 0.271000 0.140200
vt 0.271000 0.133200
vt 0.229000 0.140200
vt 0.229000 0.133200
vt 0.271000 0.140200
vt 0.271000 0.133200
vt 0.229000 0.140200
vt 0.274700 0.218300
vt 0.295700 0.211300
vt 0.274700 0.211300
vt 0.295700 0.218300
vt 0.274700 0.187100
vt 0.295700 0.180100
vt 0.274700 0.180100
vt 0.295700 0.187100
vt 0.273400 0.140600
vt 0.226600 0.164000
vt 0.273400 0.164000
vt 0.226600 0.140600
vt 0.281000 0.217200
vt 0.286700 0.217200
vt 0.286700 0.212400
vt 0.281000 0.212400
vt 0.291600 0.212400
vt 0.286700 0.212400
vt 0.286700 0.217200
vt 0.291600 0.217200
vn 0.000000 0.000000 -1.000000
vn 0.000000 0.000000 -1.000000
vn 0.000000 0.000000 -1.000000
vn 0.000000 0.000000 -1.000000
vn 0.000000 0.000000 -1.000000
vn 0.000000 0.000000 -1.000000
vn 0.000000 0.000000 -1.000000
vn 0.000000 0.000000 -1.000000
vn 0.000000 0.000000 -1.000000
vn 0.000000 0.000000 -1.000000
vn 0.000000 0.000000 -1.000000
vn 0.000000 0.000000 -1.000000
vn 0.000000 0.000000 1.000000
vn 0.000000 0.000000 1.000000
vn 0.000000 0.000000 1.000000
vn 0.000000 0.000000 1.000000
vn 0.000000 0.000000 1.000000
vn 0.000000 0.000000 1.000000
vn 0.000000 0.000000 1.000000
vn 0.000000 0.000000 1.000000
vn 0.000000 0.000000 1.000000
vn 0.000000 0.000000 1.000000
vn 0.000000 0.000000 1.000000
vn 0.000000 0.000000 1.000000
vn 0.000000 -1.000000 0.000000
vn 0.000000 -1.000000 0.000000
vn 0.000000 -1.000000 0.000000
vn 0.000000 -1.000000 0.000000
vn 0.000000 1.000000 0.000000
vn 0.000000 1.000000 0.000000
vn 0.000000 1.000000 0.000000
vn 0.000000 1.000000 0.000000
vn 0.000000 -1.000000 0.000000
vn 0.000000 -1.000000 0.000000
vn 0.000000 -1.000000 0.000000
vn 0.000000 -1.000000 0.000000
vn 0.000000 -1.000000 0.000000
vn 0.000000 -1.000000 0.000000
vn 0.000000 -1.000000 0.000000
vn 0.000000 -1.000000 0.000000
vn 0.000000 1.000000 0.000000
vn 0.000000 1.000000 0.000000
vn 0.000000 1.000000 0.000000
vn 0.000000 1.000000 0.000000
vn -1.000000 0.000000 0.000000
vn -1.000000 0.000000 0.000000
vn -1.000000 0.000000 0.000000
vn -1.000000 0.000000 0.000000
vn -1.000000 0.000000 0.000000
vn -1.000000 0.000000 0.000000
vn -1.000000 0.000000 0.000000
vn -1.000000 0.000000 0.000000
vn 0.000000 1.000000 0.000000
vn 0.000000 1.000000 0.000000
vn 0.000000 1.000000 0.000000
vn 0.000000 1.000000 0.000000
vn -1.000000 0.000000 0.000000
vn -1.000000 0.000000 0.000000
vn -1.000000 0.000000 0.000000
vn -1.000000 0.000000 0.000000
vn -1.000000 0.000000 0.000000
vn -1.000000 0.000000 0.000000
vn -1.000000 0.000000 0.000000
vn -1.000000 0.000000 0.000000
f 1/1/1 2/2/2 3/3/3
f 1/1/1 4/4/4 2/2/2
f 5/5/5 6/6/6 7/7/7
f 8/8/8 6/6/6 5/5/5
f 9/9/9 10/10/10 11/11/11
f 9/9/9 12/12/12 10/10/10
f 13/13/13 14/14/14 15/15/15
f 16/16/16 14/14/14 13/13/13
f 17/17/17 18/18/18 19/19/19
f 17/17/17 20/20/20 18/18/18
f 21/21/21 22/22/22 23/23/23
f 21/21/21 24/24/24 22/22/22
f 25/25/25 26/26/26 27/27/27
f 26/26/26 25/25/25 28/28/28
f 29/29/29 30/30/30 31/31/31
f 30/30/30 29/29/29 32/32/32
f 33/33/33 34/34/34 35/35/35
f 34/34/34 33/33/33 36/36/36
f 37/37/37 38/38/38 39/39/39
f 38/38/38 37/37/37 40/40/40
f 41/41/41 42/42/42 43/43/43
f 42/42/42 41/41/41 44/44/44
f 45/45/45 46/46/46 47/47/47
f 46/46/46 45/45/45 48/48/48
f 49/49/49 50/50/50 51/51/51
f 50/50/50 49/49/49 52/52/52
f 53/53/53 54/54/54 55/55/55
f 54/54/54 53/53/53 56/56/56
f 57/57/57 58/58/58 59/59/59
f 57/57/57 59/59/59 60/60/60
f 61/61/61 62/62/62 63/63/63
f 61/61/61 63/63/63 64/64/64