# Object001
v -0.165000 0.135000 -0.007500
v -0.060000 0.150000 -0.007500
v -0.060000 0.135000 -0.007500
v -0.165000 0.150000 -0.007500
v 0.030000 0.150000 -0.022500
v -0.060000 0.165000 -0.022500
v 0.030000 0.165000 -0.022500
v -0.060000 0.150000 -0.022500
v -0.060000 0.150000 -0.037500
v 0.030000 0.105000 -0.037500
v -0.060000 0.105000 -0.037500
v 0.030000 0.150000 -0.037500
v -0.060000 0.120000 -0.022500
v -0.165000 0.135000 -0.022500
v -0.060000 0.135000 -0.022500
v -0.165000 0.120000 -0.022500
v -0.060000 0.105000 -0.022500
v 0.030000 0.090000 -0.022500
v -0.060000 0.090000 -0.022500
v 0.030000 0.105000 -0.022500
v -0.210000 0.150000 -0.022500
v -0.165000 0.105000 -0.022500
v -0.210000 0.105000 -0.022500
v -0.165000 0.150000 -0.022500
v -0.315000 0.135000 -0.007500
v -0.210000 0.150000 -0.007500
v -0.210000 0.135000 -0.007500
v -0.315000 0.150000 -0.007500
v -0.315000 0.135000 -0.022500
v -0.210000 0.120000 -0.022500
v -0.315000 0.120000 -0.022500
v -0.210000 0.135000 -0.022500
v -0.315000 0.120000 0.022500
v -0.210000 0.135000 0.022500
v -0.315000 0.135000 0.022500
v -0.210000 0.120000 0.022500
v -0.210000 0.135000 0.007500
v -0.315000 0.150000 0.007500
v -0.315000 0.135000 0.007500
v -0.210000 0.150000 0.007500
v -0.210000 0.105000 0.022500
v -0.165000 0.150000 0.022500
v -0.210000 0.150000 0.022500
v -0.165000 0.105000 0.022500
v -0.060000 0.135000 0.007500
v -0.165000 0.150000 0.007500
v -0.165000 0.135000 0.007500
v -0.060000 0.150000 0.007500
v -0.060000 0.135000 0.022500
v -0.165000 0.120000 0.022500
v -0.060000 0.120000 0.022500
v -0.165000 0.135000 0.022500
v -0.060000 0.105000 0.037500
v 0.030000 0.150000 0.037500
v -0.060000 0.150000 0.037500
v 0.030000 0.105000 0.037500
v -0.060000 0.150000 0.022500
v 0.030000 0.165000 0.022500
v -0.060000 0.165000 0.022500
v 0.030000 0.150000 0.022500
v 0.030000 0.105000 0.022500
v -0.060000 0.090000 0.022500
v 0.030000 0.090000 0.022500
v -0.060000 0.105000 0.022500
v -0.255000 0.105000 -0.007500
v -0.315000 0.105000 -0.007500
v -0.255000 0.120000 -0.007500
v -0.315000 0.120000 -0.007500
v -0.240000 0.120000 -0.007500
v -0.210000 0.120000 -0.007500
v -0.240000 0.105000 -0.007500
v -0.210000 0.105000 -0.007500
v -0.135000 0.105000 -0.007500
v -0.165000 0.105000 -0.007500
v -0.135000 0.120000 -0.007500
v -0.165000 0.120000 -0.007500
v -0.120000 0.120000 -0.007500
v -0.060000 0.120000 -0.007500
v -0.120000 0.105000 -0.007500
v -0.060000 0.105000 -0.007500
v -0.120000 0.105000 0.007500
v -0.060000 0.105000 0.007500
v -0.120000 0.120000 0.007500
v -0.060000 0.120000 0.007500
v -0.135000 0.120000 0.007500
v -0.165000 0.120000 0.007500
v -0.135000 0.105000 0.007500
v -0.165000 0.105000 0.007500
v -0.240000 0.105000 0.007500
v -0.210000 0.105000 0.007500
v -0.240000 0.120000 0.007500
v -0.210000 0.120000 0.007500
v -0.255000 0.120000 0.007500
v -0.315000 0.120000 0.007500
v -0.255000 0.105000 0.007500
v -0.315000 0.105000 0.007500
v -0.210000 0.120000 0.022500
v -0.240000 0.120000 0.007500
v -0.210000 0.120000 0.007500
v -0.240000 0.120000 0.011250
v -0.255000 0.120000 0.011250
v -0.315000 0.120000 0.022500
v -0.315000 0.120000 0.007500
v -0.255000 0.120000 0.007500
v -0.135000 0.120000 0.011250
v -0.165000 0.120000 0.007500
v -0.135000 0.120000 0.007500
v -0.165000 0.120000 0.022500
v -0.060000 0.120000 0.022500
v -0.120000 0.120000 0.011250
v -0.120000 0.120000 0.007500
v -0.060000 0.120000 0.007500
v -0.165000 0.120000 -0.022500
v -0.135000 0.120000 -0.007500
v -0.165000 0.120000 -0.007500
v -0.135000 0.120000 -0.011250
v -0.120000 0.120000 -0.011250
v -0.060000 0.120000 -0.022500
v -0.060000 0.120000 -0.007500
v -0.120000 0.120000 -0.007500
v -0.240000 0.120000 -0.011250
v -0.210000 0.120000 -0.007500
v -0.240000 0.120000 -0.007500
v -0.210000 0.120000 -0.022500
v -0.315000 0.120000 -0.022500
v -0.255000 0.120000 -0.011250
v -0.255000 0.120000 -0.007500
v -0.315000 0.120000 -0.007500
v -0.165000 0.150000 -0.022500
v -0.165000 0.105000 0.022500
v -0.165000 0.105000 -0.022500
v -0.165000 0.150000 0.022500
v -0.210000 0.105000 -0.022500
v -0.165000 0.105000 0.022500
v -0.210000 0.105000 0.022500
v -0.165000 0.105000 -0.022500
v -0.210000 0.150000 0.022500
v -0.165000 0.150000 -0.022500
v -0.210000 0.150000 -0.022500
v -0.165000 0.150000 0.022500
v -0.060000 0.090000 -0.022500
v 0.030000 0.090000 0.022500
v -0.060000 0.090000 0.022500
v 0.030000 0.090000 -0.022500
v -0.060000 0.150000 0.022500
v 0.030000 0.150000 0.037500
v 0.030000 0.150000 0.022500
v -0.060000 0.150000 0.037500
v 0.030000 0.105000 0.022500
v -0.060000 0.105000 0.037500
v -0.060000 0.105000 0.022500
v 0.030000 0.105000 0.037500
v -0.060000 0.105000 -0.022500
v 0.030000 0.105000 -0.037500
v 0.030000 0.105000 -0.022500
v -0.060000 0.105000 -0.037500
v 0.030000 0.150000 -0.022500
v -0.060000 0.150000 -0.037500
v -0.060000 0.150000 -0.022500
v 0.030000 0.150000 -0.037500
v -0.210000 0.150000 -0.022500
v -0.210000 0.135000 0.022500
v -0.210000 0.150000 0.022500
v -0.210000 0.135000 -0.022500
v -0.210000 0.120000 0.022500
v -0.210000 0.120000 -0.022500
v -0.210000 0.105000 0.022500
v -0.210000 0.105000 -0.022500
v -0.315000 0.150000 0.007500
v -0.210000 0.150000 -0.007500
v -0.315000 0.150000 -0.007500
v -0.210000 0.150000 0.007500
v -0.060000 0.150000 -0.007500
v -0.165000 0.150000 0.007500
v -0.060000 0.150000 0.007500
v -0.165000 0.150000 -0.007500
v 0.030000 0.165000 -0.022500
v 0.030000 0.150000 0.022500
v 0.030000 0.150000 -0.022500
v 0.030000 0.165000 0.022500
v 0.030000 0.105000 -0.022500
v 0.030000 0.090000 0.022500
v 0.030000 0.090000 -0.022500
v 0.030000 0.105000 0.022500
v -0.210000 0.135000 -0.007500
v -0.315000 0.135000 -0.022500
v -0.315000 0.135000 -0.007500
v -0.210000 0.135000 -0.022500
v -0.060000 0.135000 -0.007500
v -0.165000 0.135000 -0.022500
v -0.165000 0.135000 -0.007500
v -0.060000 0.135000 -0.022500
v -0.165000 0.135000 0.007500
v -0.060000 0.135000 0.022500
v -0.060000 0.135000 0.007500
v -0.165000 0.135000 0.022500
v -0.315000 0.135000 0.007500
v -0.210000 0.135000 0.022500
v -0.210000 0.135000 0.007500
v -0.315000 0.135000 0.022500
v -0.315000 0.105000 0.037500
v -0.315000 0.150000 0.022500
v -0.315000 0.150000 0.037500
v -0.315000 0.105000 0.022500
v -0.315000 0.105000 0.022500
v -0.315000 0.150000 -0.022500
v -0.315000 0.150000 0.022500
v -0.315000 0.105000 -0.022500
v -0.315000 0.165000 -0.022500
v -0.315000 0.150000 0.022500
v -0.315000 0.150000 -0.022500
v -0.315000 0.165000 0.022500
v -0.315000 0.105000 -0.022500
v -0.315000 0.150000 -0.037500
v -0.315000 0.150000 -0.022500
v -0.315000 0.105000 -0.037500
v -0.315000 0.090000 0.022500
v -0.315000 0.105000 -0.022500
v -0.315000 0.105000 0.022500
v -0.315000 0.090000 -0.022500
v -0.060000 0.150000 -0.022500
v -0.060000 0.165000 0.022500
v -0.060000 0.165000 -0.022500
v -0.060000 0.150000 0.022500
v -0.060000 0.105000 -0.022500
v -0.060000 0.150000 0.022500
v -0.060000 0.150000 -0.022500
v -0.060000 0.105000 0.022500
v -0.060000 0.105000 -0.037500
v -0.060000 0.150000 -0.022500
v -0.060000 0.150000 -0.037500
v -0.060000 0.105000 -0.022500
v -0.060000 0.090000 0.022500
v -0.060000 0.105000 -0.022500
v -0.060000 0.090000 -0.022500
v -0.060000 0.105000 0.022500
v -0.060000 0.150000 0.037500
v -0.060000 0.105000 0.022500
v -0.060000 0.105000 0.037500
v -0.060000 0.150000 0.022500
v -0.060000 0.165000 0.022500
v 0.030000 0.165000 -0.022500
v -0.060000 0.165000 -0.022500
v 0.030000 0.165000 0.022500
v -0.120000 0.105000 -0.011250
v -0.135000 0.120000 -0.011250
v -0.120000 0.120000 -0.011250
v -0.135000 0.105000 -0.011250
v -0.240000 0.105000 -0.011250
v -0.255000 0.120000 -0.011250
v -0.240000 0.120000 -0.011250
v -0.255000 0.105000 -0.011250
v -0.240000 0.120000 -0.007500
v -0.240000 0.105000 -0.011250
v -0.240000 0.120000 -0.011250
v -0.240000 0.105000 -0.007500
v -0.255000 0.105000 -0.007500
v -0.255000 0.120000 -0.011250
v -0.255000 0.105000 -0.011250
v -0.255000 0.120000 -0.007500
v -0.120000 0.120000 -0.007500
v -0.120000 0.105000 -0.011250
v -0.120000 0.120000 -0.011250
v -0.120000 0.105000 -0.007500
v -0.135000 0.105000 -0.007500
v -0.135000 0.120000 -0.011250
v -0.135000 0.105000 -0.011250
v -0.135000 0.120000 -0.007500
v -0.135000 0.105000 0.011250
v -0.120000 0.120000 0.011250
v -0.135000 0.120000 0.011250
v -0.120000 0.105000 0.011250
v -0.255000 0.105000 0.011250
v -0.240000 0.120000 0.011250
v -0.255000 0.120000 0.011250
v -0.240000 0.105000 0.011250
v -0.255000 0.120000 0.007500
v -0.255000 0.105000 0.011250
v -0.255000 0.120000 0.011250
v -0.255000 0.105000 0.007500
v -0.240000 0.105000 0.007500
v -0.240000 0.120000 0.011250
v -0.240000 0.105000 0.011250
v -0.240000 0.120000 0.007500
v -0.135000 0.120000 0.007500
v -0.135000 0.105000 0.011250
v -0.135000 0.120000 0.011250
v -0.135000 0.105000 0.007500
v -0.120000 0.105000 0.007500
v -0.120000 0.120000 0.011250
v -0.120000 0.105000 0.011250
v -0.120000 0.120000 0.007500
v -0.135000 0.105000 0.007500
v -0.165000 0.105000 -0.007500
v -0.135000 0.105000 -0.007500
v -0.165000 0.105000 0.007500
v -0.060000 0.105000 0.007500
v -0.120000 0.105000 -0.007500
v -0.060000 0.105000 -0.007500
v -0.120000 0.105000 0.007500
v -0.255000 0.105000 0.007500
v -0.315000 0.105000 -0.007500
v -0.255000 0.105000 -0.007500
v -0.315000 0.105000 0.007500
v -0.210000 0.105000 0.007500
v -0.240000 0.105000 -0.007500
v -0.210000 0.105000 -0.007500
v -0.240000 0.105000 0.007500
v 0.030000 0.105000 -0.022500
v 0.030000 0.105000 -0.037500
v 0.030000 0.150000 -0.037500
v 0.030000 0.150000 -0.022500
v 0.030000 0.150000 0.022500
v 0.030000 0.150000 0.037500
v 0.030000 0.105000 0.037500
v 0.030000 0.105000 0.022500
vt 0.351600 0.156300
vt 0.406300 0.164000
vt 0.406300 0.156200
vt 0.351600 0.164100
vt 0.453100 0.164000
vt 0.406300 0.171900
vt 0.453100 0.171900
vt 0.406300 0.164000
vt 0.406300 0.164000
vt 0.453100 0.140600
vt 0.406300 0.140600
vt 0.453100 0.164000
vt 0.406300 0.148400
vt 0.351600 0.156300
vt 0.406300 0.156200
vt 0.351600 0.148400
vt 0.406300 0.140600
vt 0.453100 0.132800
vt 0.406300 0.132800
vt 0.453100 0.140600
vt 0.328100 0.164100
vt 0.351600 0.140600
vt 0.328100 0.140600
vt 0.351600 0.164100
vt 0.273400 0.156200
vt 0.328100 0.164100
vt 0.328100 0.156300
vt 0.273400 0.164000
vt 0.273400 0.156200
vt 0.328100 0.148400
vt 0.273400 0.148400
vt 0.328100 0.156300
vt 0.273400 0.148400
vt 0.328100 0.156300
vt 0.273400 0.156200
vt 0.328100 0.148400
vt 0.328100 0.156300
vt 0.273400 0.164000
vt 0.273400 0.156200
vt 0.328100 0.164100
vt 0.328100 0.140600
vt 0.351600 0.164100
vt 0.328100 0.164100
vt 0.351600 0.140600
vt 0.406300 0.156200
vt 0.351600 0.164100
vt 0.351600 0.156300
vt 0.406300 0.164000
vt 0.406300 0.156200
vt 0.351600 0.148400
vt 0.406300 0.148400
vt 0.351600 0.156300
vt 0.406300 0.140600
vt 0.453100 0.164000
vt 0.406300 0.164000
vt 0.453100 0.140600
vt 0.406300 0.164000
vt 0.453100 0.171900
vt 0.406300 0.171900
vt 0.453100 0.164000
vt 0.453100 0.140600
vt 0.406300 0.132800
vt 0.453100 0.132800
vt 0.406300 0.140600
vt 0.304700 0.140600
vt 0.273400 0.140600
vt 0.304700 0.148400
vt 0.273400 0.148400
vt 0.312100 0.148000
vt 0.328100 0.148400
vt 0.312500 0.140600
vt 0.328100 0.140600
vt 0.367200 0.140600
vt 0.351600 0.140600
vt 0.367200 0.148400
vt 0.351600 0.148400
vt 0.374600 0.148000
vt 0.406300 0.148400
vt 0.375000 0.140600
vt 0.406300 0.140600
vt 0.375000 0.140600
vt 0.406300 0.140600
vt 0.375000 0.148400
vt 0.406300 0.148400
vt 0.367200 0.148400
vt 0.351600 0.148400
vt 0.367200 0.140600
vt 0.351600 0.140600
vt 0.312500 0.140600
vt 0.328100 0.140600
vt 0.312100 0.148000
vt 0.328100 0.148400
vt 0.304700 0.148400
vt 0.273400 0.148400
vt 0.304700 0.140600
vt 0.273400 0.140600
vt 0.328100 0.156300
vt 0.312100 0.148000
vt 0.328100 0.148400
vt 0.312500 0.150400
vt 0.304700 0.150400
vt 0.273400 0.156200
vt 0.273400 0.148400
vt 0.304700 0.148400
vt 0.367200 0.150400
vt 0.351600 0.148400
vt 0.367200 0.148400
vt 0.351600 0.156300
vt 0.406300 0.156200
vt 0.375000 0.150400
vt 0.375000 0.148400
vt 0.406300 0.148400
vt 0.351600 0.148400
vt 0.367200 0.156300
vt 0.351600 0.156300
vt 0.367200 0.154300
vt 0.375000 0.154300
vt 0.406300 0.148400
vt 0.406300 0.156200
vt 0.375000 0.156300
vt 0.312500 0.154300
vt 0.328100 0.156300
vt 0.312500 0.156300
vt 0.328100 0.148400
vt 0.273400 0.148400
vt 0.304700 0.154300
vt 0.304700 0.156300
vt 0.273400 0.156200
vt 0.328100 0.164100
vt 0.351600 0.140600
vt 0.328100 0.140600
vt 0.351600 0.164100
vt 0.351600 0.140600
vt 0.328100 0.164100
vt 0.351600 0.164100
vt 0.328100 0.140600
vt 0.328100 0.164100
vt 0.351600 0.140600
vt 0.328100 0.140600
vt 0.351600 0.164100
vt 0.406300 0.140600
vt 0.453100 0.164000
vt 0.406300 0.164000
vt 0.453100 0.140600
vt 0.229000 0.133200
vt 0.271000 0.140200
vt 0.271000 0.133200
vt 0.229000 0.140200
vt 0.229000 0.133200
vt 0.271000 0.140200
vt 0.271000 0.133200
vt 0.229000 0.140200
vt 0.271000 0.140200
vt 0.229000 0.133200
vt 0.229000 0.140200
vt 0.271000 0.133200
vt 0.271000 0.140200
vt 0.229000 0.133200
vt 0.229000 0.140200
vt 0.271000 0.133200
vt 0.351600 0.164100
vt 0.328100 0.156300
vt 0.328100 0.164100
vt 0.351600 0.156300
vt 0.328100 0.148400
vt 0.351600 0.148400
vt 0.328100 0.140600
vt 0.351600 0.140600
vt 0.010700 0.015200
vt 0.059700 0.008200
vt 0.010700 0.008200
vt 0.059700 0.015200
vt 0.059700 0.008200
vt 0.010700 0.015200
vt 0.059700 0.015200
vt 0.010700 0.008200
vt 0.274700 0.218300
vt 0.295700 0.211300
vt 0.274700 0.211300
vt 0.295700 0.218300
vt 0.274700 0.187100
vt 0.295700 0.180100
vt 0.274700 0.180100
vt 0.295700 0.187100
vt 0.328100 0.155800
vt 0.273400 0.148800
vt 0.273400 0.155800
vt 0.328100 0.148800
vt 0.406300 0.155800
vt 0.351600 0.148800
vt 0.351600 0.155800
vt 0.406300 0.148800
vt 0.351600 0.148800
vt 0.406300 0.155800
vt 0.406300 0.148800
vt 0.351600 0.155800
vt 0.273400 0.148800
vt 0.328100 0.155800
vt 0.328100 0.148800
vt 0.273400 0.155800
vt 0.265200 0.188700
vt 0.258200 0.209700
vt 0.265200 0.209700
vt 0.258200 0.188700
vt 0.257800 0.187500
vt 0.234400 0.210900
vt 0.257800 0.210900
vt 0.234400 0.187500
vt 0.235600 0.218300
vt 0.256600 0.211300
vt 0.235600 0.211300
vt 0.256600 0.218300
vt 0.234000 0.188700
vt 0.227000 0.209700
vt 0.234000 0.209700
vt 0.227000 0.188700
vt 0.256600 0.180100
vt 0.235600 0.187100
vt 0.256600 0.187100
vt 0.235600 0.180100
vt 0.256600 0.211300
vt 0.235600 0.218300
vt 0.256600 0.218300
vt 0.235600 0.211300
vt 0.257800 0.187500
vt 0.234400 0.210900
vt 0.257800 0.210900
vt 0.234400 0.187500
vt 0.265200 0.188700
vt 0.258200 0.209700
vt 0.265200 0.209700
vt 0.258200 0.188700
vt 0.235600 0.180100
vt 0.256600 0.187100
vt 0.256600 0.180100
vt 0.235600 0.187100
vt 0.227000 0.209700
vt 0.234000 0.188700
vt 0.227000 0.188700
vt 0.234000 0.209700
vt 0.406300 0.164000
vt 0.453100 0.140600
vt 0.406300 0.140600
vt 0.453100 0.164000
vt 0.374600 0.141000
vt 0.367600 0.148000
vt 0.374600 0.148000
vt 0.367600 0.141000
vt 0.312100 0.141000
vt 0.305100 0.148000
vt 0.312100 0.148000
vt 0.305100 0.141000
vt 0.309500 0.148000
vt 0.307700 0.141000
vt 0.307700 0.148000
vt 0.309500 0.141000
vt 0.307700 0.141000
vt 0.309500 0.148000
vt 0.309500 0.141000
vt 0.307700 0.148000
vt 0.372000 0.148000
vt 0.370200 0.141000
vt 0.370200 0.148000
vt 0.372000 0.141000
vt 0.370200 0.141000
vt 0.372000 0.148000
vt 0.372000 0.141000
vt 0.370200 0.148000
vt 0.374600 0.141000
vt 0.367600 0.148000
vt 0.374600 0.148000
vt 0.367600 0.141000
vt 0.312100 0.141000
vt 0.305100 0.148000
vt 0.312100 0.148000
vt 0.305100 0.141000
vt 0.309500 0.148000
vt 0.307700 0.141000
vt 0.307700 0.148000
vt 0.309500 0.141000
vt 0.307700 0.141000
vt 0.309500 0.148000
vt 0.309500 0.141000
vt 0.307700 0.148000
vt 0.372000 0.148000
vt 0.370200 0.141000
vt 0.370200 0.148000
vt 0.372000 0.141000
vt 0.370200 0.141000
vt 0.372000 0.148000
vt 0.372000 0.141000
vt 0.370200 0.148000
vt 0.367200 0.148400
vt 0.351600 0.140600
vt 0.367200 0.140600
vt 0.351600 0.148400
vt 0.406300 0.148400
vt 0.375000 0.140600
vt 0.406300 0.140600
vt 0.375000 0.148400
vt 0.304700 0.148400
vt 0.273400 0.140600
vt 0.304700 0.140600
vt 0.273400 0.148400
vt 0.328100 0.148400
vt 0.312500 0.140600
vt 0.328100 0.140600
vt 0.312100 0.148000
vt 0.280200 0.217900
vt 0.285300 0.217900
vt 0.285300 0.214200
vt 0.280200 0.214200
vt 0.292000 0.214200
vt 0.285300 0.214200
vt 0.285300 0.217900
vt 0.292000 0.217900
vn 0.000000 0.000000 -1.000000
vn 0.000000 0.000000 -1.000000
vn 0.000000 0.000000 -1.000000
vn 0.000000 0.000000 -1.000000
vn 0.000000 0.000000 -1.000000
vn 0.000000 0.000000 -1.000000
vn 0.000000 0.000000 -1.000000
vn 0.000000 0.000000 -1.000000
vn 0.000000 0.000000 -1.000000
vn 0.000000 0.000000 -1.000000
vn 0.000000 0.000000 -1.000000
vn 0.000000 0.000000 -1.000000
vn 0.000000 0.000000 -1.000000
vn 0.000000 0.000000 -1.000000
vn 0.000000 0.000000 -1.000000
vn 0.000000 0.000000 -1.000000
vn 0.000000 0.000000 -1.000000
vn 0.000000 0.000000 -1.000000
vn 0.000000 0.000000 -1.000000
vn 0.000000 0.000000 -1.000000
vn 0.000000 0.000000 -1.000000
vn 0.000000 0.000000 -1.000000
vn 0.000000 0.000000 -1.000000
vn 0.000000 0.000000 -1.000000
vn 0.000000 0.000000 -1.000000
vn 0.000000 0.000000 -1.000000
vn 0.000000 0.000000 -1.000000
vn 0.000000 0.000000 -1.000000
vn 0.000000 0.000000 -1.000000
vn 0.000000 0.000000 -1.000000
vn 0.000000 0.000000 -1.000000
vn 0.000000 0.000000 -1.000000
vn 0.000000 0.000000 1.000000
vn 0.000000 0.000000 1.000000
vn 0.000000 0.000000 1.000000
vn 0.000000 0.000000 1.000000
vn 0.000000 0.000000 1.000000
vn 0.000000 0.000000 1.000000
vn 0.000000 0.000000 1.000000
vn 0.000000 0.000000 1.000000
vn 0.000000 0.000000 1.000000
vn 0.000000 0.000000 1.000000
vn 0.000000 0.000000 1.000000
vn 0.000000 0.000000 1.000000
vn 0.000000 0.000000 1.000000
vn 0.000000 0.000000 1.000000
vn 0.000000 0.000000 1.000000
vn 0.000000 0.000000 1.000000
vn 0.000000 0.000000 1.000000
vn 0.000000 0.000000 1.000000
vn 0.000000 0.000000 1.000000
vn 0.000000 0.000000 1.000000
vn 0.000000 0.000000 1.000000
vn 0.000000 0.000000 1.000000
vn 0.000000 0.000000 1.000000
vn 0.000000 0.000000 1.000000
vn 0.000000 0.000000 1.000000
vn 0.000000 0.000000 1.000000
vn 0.000000 0.000000 1.000000
vn 0.000000 0.000000 1.000000
vn 0.000000 0.000000 1.000000
vn 0.000000 0.000000 1.000000
vn 0.000000 0.000000 1.000000
vn 0.000000 0.000000 1.000000
vn 0.000000 0.000000 -1.000000
vn 0.000000 0.000000 -1.000000
vn 0.000000 0.000000 -1.000000
vn 0.000000 0.000000 -1.000000
vn 0.000000 0.000000 -1.000000
vn 0.000000 0.000000 -1.000000
vn 0.000000 0.000000 -1.000000
vn 0.000000 0.000000 -1.000000
vn 0.000000 0.000000 -1.000000
vn 0.000000 0.000000 -1.000000
vn 0.000000 0.000000 -1.000000
vn 0.000000 0.000000 -1.000000
vn 0.000000 0.000000 -1.000000
vn 0.000000 0.000000 -1.000000
vn 0.000000 0.000000 -1.000000
vn 0.000000 0.000000 -1.000000
vn 0.000000 0.000000 1.000000
vn 0.000000 0.000000 1.000000
vn 0.000000 0.000000 1.000000
vn 0.000000 0.000000 1.000000
vn 0.000000 0.000000 1.000000
vn 0.000000 0.000000 1.000000
vn 0.000000 0.000000 1.000000
vn 0.000000 0.000000 1.000000
vn 0.000000 0.000000 1.000000
vn 0.000000 0.000000 1.000000
vn 0.000000 0.000000 1.000000
vn 0.000000 0.000000 1.000000
vn 0.000000 0.000000 1.000000
vn 0.000000 0.000000 1.000000
vn 0.000000 0.000000 1.000000
vn 0.000000 0.000000 1.000000
vn 0.000000 -1.000000 0.000000
vn 0.000000 -1.000000 0.000000
vn 0.000000 -1.000000 0.000000
vn 0.000000 -1.000000 0.000000
vn 0.000000 -1.000000 0.000000
vn 0.000000 -1.000000 0.000000
vn 0.000000 -1.000000 0.000000
vn 0.000000 -1.000000 0.000000
vn 0.000000 -1.000000 0.000000
vn 0.000000 -1.000000 0.000000
vn 0.000000 -1.000000 0.000000
vn 0.000000 -1.000000 0.000000
vn 0.000000 -1.000000 0.000000
vn 0.000000 -1.000000 0.000000
vn 0.000000 -1.000000 0.000000
vn 0.000000 -1.000000 0.000000
vn 0.000000 -1.000000 0.000000
vn 0.000000 -1.000000 0.000000
vn 0.000000 -1.000000 0.000000
vn 0.000000 -1.000000 0.000000
vn 0.000000 -1.000000 0.000000
vn 0.000000 -1.000000 0.000000
vn 0.000000 -1.000000 0.000000
vn 0.000000 -1.000000 0.000000
vn 0.000000 -1.000000 0.000000
vn 0.000000 -1.000000 0.000000
vn 0.000000 -1.000000 0.000000
vn 0.000000 -1.000000 0.000000
vn 0.000000 -1.000000 0.000000
vn 0.000000 -1.000000 0.000000
vn 0.000000 -1.000000 0.000000
vn 0.000000 -1.000000 0.000000
vn 1.000000 0.000000 0.000000
vn 1.000000 0.000000 0.000000
vn 1.000000 0.000000 0.000000
vn 1.000000 0.000000 0.000000
vn 0.000000 -1.000000 0.000000
vn 0.000000 -1.000000 0.000000
vn 0.000000 -1.000000 0.000000
vn 0.000000 -1.000000 0.000000
vn 0.000000 1.000000 0.000000
vn 0.000000 1.000000 0.000000
vn 0.000000 1.000000 0.000000
vn 0.000000 1.000000 0.000000
vn 0.000000 -1.000000 0.000000
vn 0.000000 -1.000000 0.000000
vn 0.000000 -1.000000 0.000000
vn 0.000000 -1.000000 0.000000
vn 0.000000 1.000000 0.000000
vn 0.000000 1.000000 0.000000
vn 0.000000 1.000000 0.000000
vn 0.000000 1.000000 0.000000
vn 0.000000 -1.000000 0.000000
vn 0.000000 -1.000000 0.000000
vn 0.000000 -1.000000 0.000000
vn 0.000000 -1.000000 0.000000
vn 0.000000 -1.000000 0.000000
vn 0.000000 -1.000000 0.000000
vn 0.000000 -1.000000 0.000000
vn 0.000000 -1.000000 0.000000
vn 0.000000 1.000000 0.000000
vn 0.000000 1.000000 0.000000
vn 0.000000 1.000000 0.000000
vn 0.000000 1.000000 0.000000
vn -1.000000 0.000000 0.000000
vn -1.000000 0.000000 0.000000
vn -1.000000 0.000000 0.000000
vn -1.000000 0.000000 0.000000
vn -1.000000 0.000000 0.000000
vn -1.000000 0.000000 0.000000
vn -1.000000 0.000000 0.000000
vn -1.000000 0.000000 0.000000
vn 0.000000 1.000000 0.000000
vn 0.000000 1.000000 0.000000
vn 0.000000 1.000000 0.000000
vn 0.000000 1.000000 0.000000
vn 0.000000 1.000000 0.000000
vn 0.000000 1.000000 0.000000
vn 0.000000 1.000000 0.000000
vn 0.000000 1.000000 0.000000
vn 1.000000 0.000000 0.000000
vn 1.000000 0.000000 0.000000
vn 1.000000 0.000000 0.000000
vn 1.000000 0.000000 0.000000
vn 1.000000 0.000000 0.000000
vn 1.000000 0.000000 0.000000
vn 1.000000 0.000000 0.000000
vn 1.000000 0.000000 0.000000
vn 0.000000 1.000000 0.000000
vn 0.000000 1.000000 0.000000
vn 0.000000 1.000000 0.000000
vn 0.000000 1.000000 0.000000
vn 0.000000 1.000000 0.000000
vn 0.000000 1.000000 0.000000
vn 0.000000 1.000000 0.000000
vn 0.000000 1.000000 0.000000
vn 0.000000 1.000000 0.000000
vn 0.000000 1.000000 0.000000
vn 0.000000 1.000000 0.000000
vn 0.000000 1.000000 0.000000
vn 0.000000 1.000000 0.000000
vn 0.000000 1.000000 0.000000
vn 0.000000 1.000000 0.000000
vn 0.000000 1.000000 0.000000
vn 1.000000 0.000000 0.000000
vn 1.000000 0.000000 0.000000
vn 1.000000 0.000000 0.000000
vn 1.000000 0.000000 0.000000
vn 1.000000 0.000000 0.000000
vn 1.000000 0.000000 0.000000
vn 1.000000 0.000000 0.000000
vn 1.000000 0.000000 0.000000
vn 1.000000 0.000000 0.000000
vn 1.000000 0.000000 0.000000
vn 1.000000 0.000000 0.000000
vn 1.000000 0.000000 0.000000
vn 1.000000 0.000000 0.000000
vn 1.000000 0.000000 0.000000
vn 1.000000 0.000000 0.000000
vn 1.000000 0.000000 0.000000
vn 1.000000 0.000000 0.000000
vn 1.000000 0.000000 0.000000
vn 1.000000 0.000000 0.000000
vn 1.000000 0.000000 0.000000
vn -1.000000 0.000000 0.000000
vn -1.000000 0.000000 0.000000
vn -1.000000 0.000000 0.000000
vn -1.000000 0.000000 0.000000
vn -1.000000 0.000000 0.000000
vn -1.000000 0.000000 0.000000
vn -1.000000 0.000000 0.000000
vn -1.000000 0.000000 0.000000
vn -1.000000 0.000000 0.000000
vn -1.000000 0.000000 0.000000
vn -1.000000 0.000000 0.000000
vn -1.000000 0.000000 0.000000
vn -1.000000 0.000000 0.000000
vn -1.000000 0.000000 0.000000
vn -1.000000 0.000000 0.000000
vn -1.000000 0.000000 0.000000
vn -1.000000 0.000000 0.000000
vn -1.000000 0.000000 0.000000
vn -1.000000 0.000000 0.000000
vn -1.000000 0.000000 0.000000
vn 0.000000 1.000000 0.000000
vn 0.000000 1.000000 0.000000
vn 0.000000 1.000000 0.000000
vn 0.000000 1.000000 0.000000
vn 0.000000 0.000000 -1.000000
vn 0.000000 0.000000 -1.000000
vn 0.000000 0.000000 -1.000000
vn 0.000000 0.000000 -1.000000
vn 0.000000 0.000000 -1.000000
vn 0.000000 0.000000 -1.000000
vn 0.000000 0.000000 -1.000000
vn 0.000000 0.000000 -1.000000
vn 1.000000 0.000000 0.000000
vn 1.000000 0.000000 0.000000
vn 1.000000 0.000000 0.000000
vn 1.000000 0.000000 0.000000
vn -1.000000 0.000000 0.000000
vn -1.000000 0.000000 0.000000
vn -1.000000 0.000000 0.000000
vn -1.000000 0.000000 0.000000
vn 1.000000 0.000000 0.000000
vn 1.000000 0.000000 0.000000
vn 1.000000 0.000000 0.000000
vn 1.000000 0.000000 0.000000
vn -1.000000 0.000000 0.000000
vn -1.000000 0.000000 0.000000
vn -1.000000 0.000000 0.000000
vn -1.000000 0.000000 0.000000
vn 0.000000 0.000000 1.000000
vn 0.000000 0.000000 1.000000
vn 0.000000 0.000000 1.000000
vn 0.000000 0.000000 1.000000
vn 0.000000 0.000000 1.000000
vn 0.000000 0.000000 1.000000
vn 0.000000 0.000000 1.000000
vn 0.000000 0.000000 1.000000
vn -1.000000 0.000000 0.000000
vn -1.000000 0.000000 0.000000
vn -1.000000 0.000000 0.000000
vn -1.000000 0.000000 0.000000
vn 1.000000 0.000000 0.000000
vn 1.000000 0.000000 0.000000
vn 1.000000 0.000000 0.000000
vn 1.000000 0.000000 0.000000
vn -1.000000 0.000000 0.000000
vn -1.000000 0.000000 0.000000
vn -1.000000 0.000000 0.000000
vn -1.000000 0.000000 0.000000
vn 1.000000 0.000000 0.000000
vn 1.000000 0.000000 0.000000
vn 1.000000 0.000000 0.000000
vn 1.000000 0.000000 0.000000
vn 0.000000 -1.000000 0.000000
vn 0.000000 -1.000000 0.000000
vn 0.000000 -1.000000 0.000000
vn 0.000000 -1.000000 0.000000
vn 0.000000 -1.000000 0.000000
vn 0.000000 -1.000000 0.000000
vn 0.000000 -1.000000 0.000000
vn 0.000000 -1.000000 0.000000
vn 0.000000 -1.000000 0.000000
vn 0.000000 -1.000000 0.000000
vn 0.000000 -1.000000 0.000000
vn 0.000000 -1.000000 0.000000
vn 0.000000 -1.000000 0.000000
vn 0.000000 -1.000000 0.000000
vn 0.000000 -1.000000 0.000000
vn 0.000000 -1.000000 0.000000
vn 1.000000 0.000000 0.000000
vn 1.000000 0.000000 0.000000
vn 1.000000 0.000000 0.000000
vn 1.000000 0.000000 0.000000
vn 1.000000 0.000000 0.000000
vn 1.000000 0.000000 0.000000
vn 1.000000 0.000000 0.000000
vn 1.000000 0.000000 0.000000
f 1/1/1 2/2/2 3/3/3
f 4/4/4 2/2/2 1/1/1
f 5/5/5 6/6/6 7/7/7
f 5/5/5 8/8/8 6/6/6
f 9/9/9 10/10/10 11/11/11
f 12/12/12 10/10/10 9/9/9
f 13/13/13 14/14/14 15/15/15
f 16/16/16 14/14/14 13/13/13
f 17/17/17 18/18/18 19/19/19
f 17/17/17 20/20/20 18/18/18
f 21/21/21 22/22/22 23/23/23
f 24/24/24 22/22/22 21/21/21
f 25/25/25 26/26/26 27/27/27
f 28/28/28 26/26/26 25/25/25
f 29/29/29 30/30/30 31/31/31
f 32/32/32 30/30/30 29/29/29
f 33/33/33 34/34/34 35/35/35
f 36/36/36 34/34/34 33/33/33
f 37/37/37 38/38/38 39/39/39
f 40/40/40 38/38/38 37/37/37
f 41/41/41 42/42/42 43/43/43
f 44/44/44 42/42/42 41/41/41
f 45/45/45 46/46/46 47/47/47
f 48/48/48 46/46/46 45/45/45
f 49/49/49 50/50/50 51/51/51
f 52/52/52 50/50/50 49/49/49
f 53/53/53 54/54/54 55/55/55
f 56/56/56 54/54/54 53/53/53
f 57/57/57 58/58/58 59/59/59
f 57/57/57 60/60/60 58/58/58
f 61/61/61 62/62/62 63/63/63
f 61/61/61 64/64/64 62/62/62
f 65/65/65 66/66/66 67/67/67
f 67/67/67 66/66/66 68/68/68
f 69/69/69 70/70/70 71/71/71
f 71/71/71 70/70/70 72/72/72
f 73/73/73 74/74/74 75/75/75
f 75/75/75 74/74/74 76/76/76
f 77/77/77 78/78/78 79/79/79
f 79/79/79 78/78/78 80/80/80
f 81/81/81 82/82/82 83/83/83
f 83/83/83 82/82/82 84/84/84
f 85/85/85 86/86/86 87/87/87
f 87/87/87 86/86/86 88/88/88
f 89/89/89 90/90/90 91/91/91
f 91/91/91 90/90/90 92/92/92
f 93/93/93 94/94/94 95/95/95
f 95/95/95 94/94/94 96/96/96
f 97/97/97 98/98/98 99/99/99
f 100/100/100 98/98/98 97/97/97
f 97/97/97 101/101/101 100/100/100
f 102/102/102 101/101/101 97/97/97
f 102/102/102 103/103/103 101/101/101
f 101/101/101 103/103/103 104/104/104
f 105/105/105 106/106/106 107/107/107
f 108/108/108 106/106/106 105/105/105
f 108/108/108 105/105/105 109/109/109
f 109/109/109 105/105/105 110/110/110
f 110/110/110 111/111/111 109/109/109
f 109/109/109 111/111/111 112/112/112
f 113/113/113 114/114/114 115/115/115
f 116/116/116 114/114/114 113/113/113
f 113/113/113 117/117/117 116/116/116
f 118/118/118 117/117/117 113/113/113
f 119/119/119 117/117/117 118/118/118
f 120/120/120 117/117/117 119/119/119
f 121/121/121 122/122/122 123/123/123
f 124/124/124 122/122/122 121/121/121
f 124/124/124 121/121/121 125/125/125
f 125/125/125 121/121/121 126/126/126
f 126/126/126 127/127/127 125/125/125
f 125/125/125 127/127/127 128/128/128
f 129/129/129 130/130/130 131/131/131
f 130/130/130 129/129/129 132/132/132
f 133/133/133 134/134/134 135/135/135
f 134/134/134 133/133/133 136/136/136
f 137/137/137 138/138/138 139/139/139
f 138/138/138 137/137/137 140/140/140
f 141/141/141 142/142/142 143/143/143
f 142/142/142 141/141/141 144/144/144
f 145/145/145 146/146/146 147/147/147
f 146/146/146 145/145/145 148/148/148
f 149/149/149 150/150/150 151/151/151
f 150/150/150 149/149/149 152/152/152
f 153/153/153 154/154/154 155/155/155
f 154/154/154 153/153/153 156/156/156
f 157/157/157 158/158/158 159/159/159
f 158/158/158 157/157/157 160/160/160
f 161/161/161 162/162/162 163/163/163
f 162/162/162 161/161/161 164/164/164
f 164/164/164 165/165/165 162/162/162
f 165/165/165 164/164/164 166/166/166
f 166/166/166 167/167/167 165/165/165
f 167/167/167 166/166/166 168/168/168
f 169/169/169 170/170/170 171/171/171
f 170/170/170 169/169/169 172/172/172
f 173/173/173 174/174/174 175/175/175
f 174/174/174 173/173/173 176/176/176
f 177/177/177 178/178/178 179/179/179
f 178/178/178 177/177/177 180/180/180
f 181/181/181 182/182/182 183/183/183
f 182/182/182 181/181/181 184/184/184
f 185/185/185 186/186/186 187/187/187
f 186/186/186 185/185/185 188/188/188
f 189/189/189 190/190/190 191/191/191
f 190/190/190 189/189/189 192/192/192
f 193/193/193 194/194/194 195/195/195
f 194/194/194 193/193/193 196/196/196
f 197/197/197 198/198/198 199/199/199
f 198/198/198 197/197/197 200/200/200
f 201/201/201 202/202/202 203/203/203
f 202/202/202 201/201/201 204/204/204
f 205/205/205 206/206/206 207/207/207
f 206/206/206 205/205/205 208/208/208
f 209/209/209 210/210/210 211/211/211
f 210/210/210 209/209/209 212/212/212
f 213/213/213 214/214/214 215/215/215
f 214/214/214 213/213/213 216/216/216
f 217/217/217 218/218/218 219/219/219
f 218/218/218 217/217/217 220/220/220
f 221/221/221 222/222/222 223/223/223
f 222/222/222 221/221/221 224/224/224
f 225/225/225 226/226/226 227/227/227
f 226/226/226 225/225/225 228/228/228
f 229/229/229 230/230/230 231/231/231
f 230/230/230 229/229/229 232/232/232
f 233/233/233 234/234/234 235/235/235
f 234/234/234 233/233/233 236/236/236
f 237/237/237 238/238/238 239/239/239
f 238/238/238 237/237/237 240/240/240
f 241/241/241 242/242/242 243/243/243
f 242/242/242 241/241/241 244/244/244
f 245/245/245 246/246/246 247/247/247
f 246/246/246 245/245/245 248/248/248
f 249/249/249 250/250/250 251/251/251
f 250/250/250 249/249/249 252/252/252
f 253/253/253 254/254/254 255/255/255
f 254/254/254 253/253/253 256/256/256
f 257/257/257 258/258/258 259/259/259
f 258/258/258 257/257/257 260/260/260
f 261/261/261 262/262/262 263/263/263
f 262/262/262 261/261/261 264/264/264
f 265/265/265 266/266/266 267/267/267
f 266/266/266 265/265/265 268/268/268
f 269/269/269 270/270/270 271/271/271
f 270/270/270 269/269/269 272/272/272
f 273/273/273 274/274/274 275/275/275
f 274/274/274 273/273/273 276/276/276
f 277/277/277 278/278/278 279/279/279
f 278/278/278 277/277/277 280/280/280
f 281/281/281 282/282/282 283/283/283
f 282/282/282 281/281/281 284/284/284
f 285/285/285 286/286/286 287/287/287
f 286/286/286 285/285/285 288/288/288
f 289/289/289 290/290/290 291/291/291
f 290/290/290 289/289/289 292/292/292
f 293/293/293 294/294/294 295/295/295
f 294/294/294 293/293/293 296/296/296
f 297/297/297 298/298/298 299/299/299
f 298/298/298 297/297/297 300/300/300
f 301/301/301 302/302/302 303/303/303
f 302/302/302 301/301/301 304/304/304
f 305/305/305 306/306/306 307/307/307
f 306/306/306 305/305/305 308/308/308
f 309/309/309 310/310/310 311/311/311
f 309/309/309 311/311/311 312/312/312
f 313/313/313 314/314/314 315/315/315
f 313/313/313 315/315/315 316/316/316