# Object006
v -0.225000 -0.045000 -0.007500
v -0.225000 -0.045000 0.007500
v -0.225000 -0.060000 0.007500
v -0.225000 -0.045000 -0.007500
v -0.225000 -0.060000 0.007500
v -0.225000 -0.060000 -0.007500
v -0.270000 0.075000 -0.007500
v -0.255000 0.060000 -0.007500
v -0.300000 0.060000 -0.007500
v -0.270000 0.105000 -0.007500
v -0.255000 0.105000 -0.007500
v -0.300000 0.060000 -0.015000
v -0.090000 0.060000 -0.015000
v -0.090000 0.045000 -0.015000
v -0.240000 0.000000 -0.015000
v -0.300000 0.045000 -0.015000
v -0.090000 -0.030000 -0.015000
v -0.090000 -0.045000 -0.015000
v -0.240000 -0.045000 -0.015000
v -0.315000 -0.015000 -0.007500
v -0.315000 -0.030000 -0.007500
v -0.315000 -0.030000 0.007500
v -0.315000 -0.015000 0.007500
v -0.240000 0.105000 -0.007500
v -0.225000 0.105000 -0.007500
v -0.225000 0.075000 -0.007500
v -0.240000 0.060000 -0.007500
v -0.150000 0.075000 -0.007500
v -0.135000 0.060000 -0.007500
v -0.150000 0.105000 -0.007500
v -0.135000 0.105000 -0.007500
v -0.135000 0.105000 0.011250
v -0.135000 0.105000 0.007500
v -0.135000 0.060000 0.007500
v -0.135000 0.060000 0.011250
v -0.090000 -0.030000 0.015000
v -0.240000 -0.045000 0.015000
v -0.090000 -0.045000 0.015000
v -0.240000 0.000000 0.015000
v -0.090000 0.045000 0.015000
v -0.300000 0.060000 0.015000
v -0.090000 0.060000 0.015000
v -0.300000 0.045000 0.015000
v -0.255000 -0.015000 -0.007500
v -0.240000 0.000000 -0.007500
v -0.240000 -0.045000 -0.007500
v -0.255000 -0.060000 -0.007500
v -0.225000 -0.060000 -0.007500
v -0.225000 -0.045000 -0.007500
v -0.120000 0.060000 -0.011250
v -0.135000 0.060000 -0.011250
v -0.135000 0.105000 -0.011250
v -0.120000 0.105000 -0.011250
v -0.150000 0.105000 -0.007500
v -0.150000 0.075000 -0.007500
v -0.150000 0.075000 0.007500
v -0.150000 0.105000 0.007500
v -0.090000 0.060000 -0.015000
v -0.300000 0.060000 -0.015000
v -0.300000 0.060000 -0.011250
v -0.255000 0.060000 -0.011250
v -0.300000 0.060000 -0.007500
v -0.255000 0.060000 -0.007500
v -0.240000 0.060000 -0.011250
v -0.135000 0.060000 -0.011250
v -0.120000 0.060000 -0.011250
v -0.240000 0.060000 -0.007500
v -0.135000 0.060000 -0.007500
v -0.225000 0.075000 -0.007500
v -0.225000 0.105000 -0.007500
v -0.225000 0.105000 0.007500
v -0.225000 0.075000 0.007500
v -0.135000 0.105000 0.007500
v -0.150000 0.105000 0.007500
v -0.135000 0.060000 0.007500
v -0.150000 0.075000 0.007500
v -0.240000 0.060000 0.007500
v -0.225000 0.075000 0.007500
v -0.240000 0.105000 0.007500
v -0.225000 0.105000 0.007500
v -0.225000 -0.045000 0.007500
v -0.240000 -0.045000 0.007500
v -0.225000 -0.060000 0.007500
v -0.255000 -0.060000 0.007500
v -0.255000 -0.015000 0.007500
v -0.240000 0.000000 0.007500
v -0.300000 -0.030000 -0.007500
v -0.300000 -0.030000 0.007500
v -0.285000 -0.030000 0.007500
v -0.285000 -0.030000 -0.007500
v -0.240000 0.060000 0.011250
v -0.240000 0.105000 0.011250
v -0.255000 0.105000 0.011250
v -0.255000 0.060000 0.011250
v -0.255000 0.105000 0.007500
v -0.270000 0.105000 0.007500
v -0.255000 0.060000 0.007500
v -0.270000 0.075000 0.007500
v -0.300000 0.060000 0.007500
v -0.300000 0.060000 0.015000
v -0.300000 0.060000 0.011250
v -0.300000 0.045000 0.011250
v -0.300000 0.045000 0.015000
v -0.135000 0.060000 0.011250
v -0.090000 0.060000 0.015000
v -0.120000 0.060000 0.011250
v -0.240000 0.060000 0.011250
v -0.135000 0.060000 0.007500
v -0.240000 0.060000 0.007500
v -0.255000 0.060000 0.011250
v -0.300000 0.060000 0.011250
v -0.300000 0.060000 0.015000
v -0.255000 0.060000 0.007500
v -0.300000 0.060000 0.007500
v -0.135000 0.105000 -0.011250
v -0.135000 0.060000 -0.011250
v -0.135000 0.060000 -0.007500
v -0.135000 0.105000 -0.007500
v -0.240000 -0.045000 -0.015000
v -0.090000 -0.045000 -0.015000
v -0.090000 -0.045000 0.015000
v -0.240000 -0.045000 0.015000
v -0.240000 0.060000 -0.011250
v -0.240000 0.105000 -0.011250
v -0.240000 0.105000 -0.007500
v -0.240000 0.060000 -0.007500
v -0.255000 -0.015000 -0.007500
v -0.255000 -0.060000 -0.007500
v -0.255000 -0.060000 0.007500
v -0.255000 -0.015000 0.007500
v -0.315000 -0.015000 -0.007500
v -0.300000 -0.015000 -0.007500
v -0.300000 -0.030000 -0.007500
v -0.315000 -0.030000 -0.007500
v -0.285000 -0.045000 -0.007500
v -0.300000 -0.045000 -0.007500
v -0.285000 -0.030000 -0.007500
v -0.300000 0.060000 -0.015000
v -0.300000 0.045000 -0.015000
v -0.300000 0.045000 -0.011250
v -0.300000 0.060000 -0.011250
v -0.315000 -0.030000 0.007500
v -0.315000 -0.030000 -0.007500
v -0.300000 -0.030000 -0.007500
v -0.300000 -0.030000 0.007500
v -0.240000 0.060000 0.007500
v -0.240000 0.105000 0.007500
v -0.240000 0.105000 0.011250
v -0.240000 0.060000 0.011250
v -0.270000 0.105000 -0.007500
v -0.270000 0.075000 -0.007500
v -0.270000 0.075000 0.007500
v -0.270000 0.105000 0.007500
v -0.300000 -0.015000 0.007500
v -0.315000 -0.015000 0.007500
v -0.315000 -0.030000 0.007500
v -0.300000 -0.030000 0.007500
v -0.120000 0.060000 0.011250
v -0.120000 0.105000 0.011250
v -0.135000 0.105000 0.011250
v -0.135000 0.060000 0.011250
v -0.300000 -0.030000 -0.007500
v -0.300000 -0.045000 -0.007500
v -0.300000 -0.045000 0.007500
v -0.300000 -0.030000 0.007500
v -0.225000 0.075000 -0.007500
v -0.225000 0.075000 0.007500
v -0.150000 0.075000 0.007500
v -0.150000 0.075000 -0.007500
v -0.285000 -0.045000 0.007500
v -0.285000 -0.030000 0.007500
v -0.300000 -0.030000 0.007500
v -0.300000 -0.045000 0.007500
v -0.255000 0.105000 -0.011250
v -0.255000 0.060000 -0.011250
v -0.255000 0.060000 -0.007500
v -0.255000 0.105000 -0.007500
v -0.300000 -0.030000 -0.007500
v -0.300000 -0.015000 -0.007500
v -0.300000 -0.015000 0.007500
v -0.300000 -0.030000 0.007500
v -0.255000 0.105000 0.011250
v -0.255000 0.105000 0.007500
v -0.255000 0.060000 0.007500
v -0.255000 0.060000 0.011250
v -0.300000 -0.045000 0.007500
v -0.300000 -0.045000 -0.007500
v -0.285000 -0.045000 -0.007500
v -0.285000 -0.045000 0.007500
v -0.240000 0.000000 -0.015000
v -0.240000 -0.045000 -0.015000
v -0.240000 -0.045000 -0.007500
v -0.240000 0.000000 -0.007500
v -0.255000 -0.060000 0.007500
v -0.255000 -0.060000 -0.007500
v -0.225000 -0.060000 -0.007500
v -0.225000 -0.060000 0.007500
v -0.240000 0.000000 0.015000
v -0.240000 0.000000 0.007500
v -0.240000 -0.045000 0.007500
v -0.240000 -0.045000 0.015000
v -0.240000 0.060000 -0.011250
v -0.255000 0.060000 -0.011250
v -0.255000 0.105000 -0.011250
v -0.240000 0.105000 -0.011250
v -0.285000 -0.045000 -0.007500
v -0.285000 -0.030000 -0.007500
v -0.285000 -0.030000 0.007500
v -0.285000 -0.045000 0.007500
v -0.255000 -0.075000 -0.007500
v -0.255000 -0.060000 -0.007500
v -0.255000 -0.060000 0.007500
v -0.255000 -0.075000 0.007500
v -0.300000 -0.015000 0.007500
v -0.300000 -0.015000 -0.007500
v -0.255000 -0.015000 -0.007500
v -0.255000 -0.015000 0.007500
vt 0.327485 0.061808
vt 0.327485 0.061808
vt 0.320377 0.054931
vt 0.327485 0.061808
vt 0.320377 0.054931
vt 0.319500 0.062100
vt 0.296900 0.125000
vt 0.304700 0.117200
vt 0.281200 0.117200
vt 0.296900 0.140600
vt 0.304700 0.140600
vt 0.281200 0.117200
vt 0.390600 0.117200
vt 0.390600 0.109400
vt 0.312500 0.085900
vt 0.281200 0.109400
vt 0.390600 0.070300
vt 0.390600 0.062500
vt 0.312500 0.062500
vt 0.280800 0.077700
vt 0.280800 0.070700
vt 0.273800 0.070700
vt 0.273800 0.077700
vt 0.312500 0.140600
vt 0.320300 0.140600
vt 0.320300 0.125000
vt 0.312500 0.117200
vt 0.359400 0.125000
vt 0.367200 0.117200
vt 0.359400 0.140600
vt 0.367200 0.140600
vt 0.372100 0.140600
vt 0.370100 0.140600
vt 0.370100 0.117200
vt 0.372100 0.117200
vt 0.390600 0.070300
vt 0.312500 0.062500
vt 0.390600 0.062500
vt 0.312500 0.085900
vt 0.390600 0.109400
vt 0.281200 0.117200
vt 0.390600 0.117200
vt 0.281200 0.109400
vt 0.304700 0.078100
vt 0.312500 0.085900
vt 0.312500 0.062500
vt 0.304700 0.054700
vt 0.320300 0.054700
vt 0.328100 0.062500
vt 0.375000 0.117200
vt 0.367200 0.117200
vt 0.367200 0.140600
vt 0.375000 0.140600
vt 0.366800 0.139400
vt 0.366800 0.125400
vt 0.359800 0.125400
vt 0.359800 0.139400
vt 0.390600 0.115500
vt 0.281300 0.115500
vt 0.281300 0.113600
vt 0.304700 0.113600
vt 0.281300 0.111600
vt 0.304700 0.111600
vt 0.312500 0.113600
vt 0.367200 0.113600
vt 0.375000 0.113600
vt 0.312500 0.111600
vt 0.367200 0.111600
vt 0.312900 0.125800
vt 0.312900 0.139800
vt 0.319900 0.139800
vt 0.319900 0.125800
vt 0.367200 0.140600
vt 0.359400 0.140600
vt 0.367200 0.117200
vt 0.359400 0.125000
vt 0.312500 0.117200
vt 0.320300 0.125000
vt 0.312500 0.140600
vt 0.320300 0.140600
vt 0.328100 0.062500
vt 0.312500 0.062500
vt 0.320300 0.054700
vt 0.304700 0.054700
vt 0.304700 0.078100
vt 0.312500 0.085900
vt 0.288700 0.069900
vt 0.288700 0.062900
vt 0.281700 0.062900
vt 0.281700 0.069900
vt 0.312500 0.117200
vt 0.312500 0.140600
vt 0.304700 0.140600
vt 0.304700 0.117200
vt 0.304700 0.140600
vt 0.296900 0.140600
vt 0.304700 0.117200
vt 0.296900 0.125000
vt 0.281200 0.117200
vt 0.262700 0.117200
vt 0.260700 0.117200
vt 0.260700 0.109400
vt 0.262700 0.109400
vt 0.367200 0.113600
vt 0.390600 0.115500
vt 0.375000 0.113600
vt 0.312500 0.113600
vt 0.367200 0.111600
vt 0.312500 0.111600
vt 0.304700 0.113600
vt 0.281300 0.113600
vt 0.281300 0.115500
vt 0.304700 0.111600
vt 0.281300 0.111600
vt 0.372100 0.140600
vt 0.372100 0.117200
vt 0.370100 0.117200
vt 0.370100 0.140600
vt 0.328195 0.068930
vt 0.374942 0.068930
vt 0.374942 0.064030
vt 0.328195 0.064030
vt 0.307600 0.117200
vt 0.307600 0.140600
vt 0.309600 0.140600
vt 0.309600 0.117200
vt 0.312100 0.076900
vt 0.312100 0.055900
vt 0.305100 0.055900
vt 0.305100 0.076900
vt 0.273400 0.078100
vt 0.281300 0.078100
vt 0.281300 0.070300
vt 0.273400 0.070300
vt 0.289100 0.062500
vt 0.281300 0.062500
vt 0.289100 0.070300
vt 0.262700 0.117200
vt 0.262700 0.109400
vt 0.260700 0.109400
vt 0.260700 0.117200
vt 0.273800 0.070700
vt 0.273800 0.077700
vt 0.280800 0.077700
vt 0.280800 0.070700
vt 0.309600 0.117200
vt 0.309600 0.140600
vt 0.307600 0.140600
vt 0.307600 0.117200
vt 0.304300 0.139800
vt 0.304300 0.125800
vt 0.297300 0.125800
vt 0.297300 0.139800
vt 0.281300 0.078100
vt 0.273400 0.078100
vt 0.273400 0.070300
vt 0.281300 0.070300
vt 0.375000 0.117200
vt 0.375000 0.140600
vt 0.367200 0.140600
vt 0.367200 0.117200
vt 0.288700 0.069900
vt 0.288700 0.062900
vt 0.281700 0.062900
vt 0.281700 0.069900
vt 0.357300 0.124600
vt 0.357300 0.117600
vt 0.322300 0.117600
vt 0.322300 0.124600
vt 0.289100 0.062500
vt 0.289100 0.070300
vt 0.281300 0.070300
vt 0.281300 0.062500
vt 0.309600 0.140600
vt 0.309600 0.117200
vt 0.307600 0.117200
vt 0.307600 0.140600
vt 0.273800 0.070700
vt 0.273800 0.077700
vt 0.280800 0.077700
vt 0.280800 0.070700
vt 0.309600 0.140600
vt 0.307600 0.140600
vt 0.307600 0.117200
vt 0.309600 0.117200
vt 0.281700 0.062900
vt 0.281700 0.069900
vt 0.288700 0.069900
vt 0.288700 0.062900
vt 0.318400 0.085900
vt 0.318400 0.062500
vt 0.314500 0.062500
vt 0.314500 0.085900
vt 0.305500 0.055100
vt 0.305500 0.062100
vt 0.319500 0.062100
vt 0.319500 0.055100
vt 0.318400 0.085900
vt 0.314500 0.085900
vt 0.314500 0.062500
vt 0.318400 0.062500
vt 0.312500 0.117200
vt 0.304700 0.117200
vt 0.304700 0.140600
vt 0.312500 0.140600
vt 0.281700 0.062900
vt 0.281700 0.069900
vt 0.288700 0.069900
vt 0.288700 0.062900
vt 0.297300 0.047300
vt 0.297300 0.054300
vt 0.304300 0.054300
vt 0.304300 0.047300
vt 0.282500 0.078500
vt 0.282500 0.085500
vt 0.303500 0.085500
vt 0.303500 0.078500
vn 1.000000 0.000000 0.000000
vn 1.000000 0.000000 0.000000
vn 1.000000 0.000000 0.000000
vn 1.000000 0.000000 0.000000
vn 1.000000 0.000000 0.000000
vn 1.000000 0.000000 0.000000
vn 0.000000 0.000000 -1.000000
vn 0.000000 0.000000 -1.000000
vn 0.000000 0.000000 -1.000000
vn 0.000000 0.000000 -1.000000
vn 0.000000 0.000000 -1.000000
vn 0.000000 0.000000 -1.000000
vn 0.000000 0.000000 -1.000000
vn 0.000000 0.000000 -1.000000
vn 0.000000 0.000000 -1.000000
vn 0.000000 0.000000 -1.000000
vn 0.000000 0.000000 -1.000000
vn 0.000000 0.000000 -1.000000
vn 0.000000 0.000000 -1.000000
vn -1.000000 0.000000 0.000000
vn -1.000000 0.000000 0.000000
vn -1.000000 0.000000 0.000000
vn -1.000000 0.000000 0.000000
vn 0.000000 0.000000 -1.000000
vn 0.000000 0.000000 -1.000000
vn 0.000000 0.000000 -1.000000
vn 0.000000 0.000000 -1.000000
vn 0.000000 0.000000 -1.000000
vn 0.000000 0.000000 -1.000000
vn 0.000000 0.000000 -1.000000
vn 0.000000 0.000000 -1.000000
vn -1.000000 0.000000 0.000000
vn -1.000000 0.000000 0.000000
vn -1.000000 0.000000 0.000000
vn -1.000000 0.000000 0.000000
vn 0.000000 0.000000 1.000000
vn 0.000000 0.000000 1.000000
vn 0.000000 0.000000 1.000000
vn 0.000000 0.000000 1.000000
vn 0.000000 0.000000 1.000000
vn 0.000000 0.000000 1.000000
vn 0.000000 0.000000 1.000000
vn 0.000000 0.000000 1.000000
vn 0.000000 0.000000 -1.000000
vn 0.000000 0.000000 -1.000000
vn 0.000000 0.000000 -1.000000
vn 0.000000 0.000000 -1.000000
vn 0.000000 0.000000 -1.000000
vn 0.000000 0.000000 -1.000000
vn 0.000000 0.000000 -1.000000
vn 0.000000 0.000000 -1.000000
vn 0.000000 0.000000 -1.000000
vn 0.000000 0.000000 -1.000000
vn -1.000000 0.000000 0.000000
vn -1.000000 0.000000 0.000000
vn -1.000000 0.000000 0.000000
vn -1.000000 0.000000 0.000000
vn 0.000000 1.000000 0.000000
vn 0.000000 1.000000 0.000000
vn 0.000000 1.000000 0.000000
vn 0.000000 1.000000 0.000000
vn 0.000000 1.000000 0.000000
vn 0.000000 1.000000 0.000000
vn 0.000000 1.000000 0.000000
vn 0.000000 1.000000 0.000000
vn 0.000000 1.000000 0.000000
vn 0.000000 1.000000 0.000000
vn 0.000000 1.000000 0.000000
vn 1.000000 0.000000 0.000000
vn 1.000000 0.000000 0.000000
vn 1.000000 0.000000 0.000000
vn 1.000000 0.000000 0.000000
vn 0.000000 0.000000 1.000000
vn 0.000000 0.000000 1.000000
vn 0.000000 0.000000 1.000000
vn 0.000000 0.000000 1.000000
vn 0.000000 0.000000 1.000000
vn 0.000000 0.000000 1.000000
vn 0.000000 0.000000 1.000000
vn 0.000000 0.000000 1.000000
vn 0.000000 0.000000 1.000000
vn 0.000000 0.000000 1.000000
vn 0.000000 0.000000 1.000000
vn 0.000000 0.000000 1.000000
vn 0.000000 0.000000 1.000000
vn 0.000000 0.000000 1.000000
vn 0.000000 1.000000 0.000000
vn 0.000000 1.000000 0.000000
vn 0.000000 1.000000 0.000000
vn 0.000000 1.000000 0.000000
vn 0.000000 0.000000 1.000000
vn 0.000000 0.000000 1.000000
vn 0.000000 0.000000 1.000000
vn 0.000000 0.000000 1.000000
vn 0.000000 0.000000 1.000000
vn 0.000000 0.000000 1.000000
vn 0.000000 0.000000 1.000000
vn 0.000000 0.000000 1.000000
vn 0.000000 0.000000 1.000000
vn -1.000000 0.000000 0.000000
vn -1.000000 0.000000 0.000000
vn -1.000000 0.000000 0.000000
vn -1.000000 0.000000 0.000000
vn 0.000000 1.000000 0.000000
vn 0.000000 1.000000 0.000000
vn 0.000000 1.000000 0.000000
vn 0.000000 1.000000 0.000000
vn 0.000000 1.000000 0.000000
vn 0.000000 1.000000 0.000000
vn 0.000000 1.000000 0.000000
vn 0.000000 1.000000 0.000000
vn 0.000000 1.000000 0.000000
vn 0.000000 1.000000 0.000000
vn 0.000000 1.000000 0.000000
vn -1.000000 0.000000 0.000000
vn -1.000000 0.000000 0.000000
vn -1.000000 0.000000 0.000000
vn -1.000000 0.000000 0.000000
vn 0.000000 -1.000000 0.000000
vn 0.000000 -1.000000 0.000000
vn 0.000000 -1.000000 0.000000
vn 0.000000 -1.000000 0.000000
vn 1.000000 0.000000 0.000000
vn 1.000000 0.000000 0.000000
vn 1.000000 0.000000 0.000000
vn 1.000000 0.000000 0.000000
vn -1.000000 0.000000 0.000000
vn -1.000000 0.000000 0.000000
vn -1.000000 0.000000 0.000000
vn -1.000000 0.000000 0.000000
vn 0.000000 0.000000 -1.000000
vn 0.000000 0.000000 -1.000000
vn 0.000000 0.000000 -1.000000
vn 0.000000 0.000000 -1.000000
vn 0.000000 0.000000 -1.000000
vn 0.000000 0.000000 -1.000000
vn 0.000000 0.000000 -1.000000
vn -1.000000 0.000000 0.000000
vn -1.000000 0.000000 0.000000
vn -1.000000 0.000000 0.000000
vn -1.000000 0.000000 0.000000
vn 0.000000 -1.000000 0.000000
vn 0.000000 -1.000000 0.000000
vn 0.000000 -1.000000 0.000000
vn 0.000000 -1.000000 0.000000
vn 1.000000 0.000000 0.000000
vn 1.000000 0.000000 0.000000
vn 1.000000 0.000000 0.000000
vn 1.000000 0.000000 0.000000
vn -1.000000 0.000000 0.000000
vn -1.000000 0.000000 0.000000
vn -1.000000 0.000000 0.000000
vn -1.000000 0.000000 0.000000
vn 0.000000 0.000000 1.000000
vn 0.000000 0.000000 1.000000
vn 0.000000 0.000000 1.000000
vn 0.000000 0.000000 1.000000
vn 0.000000 0.000000 1.000000
vn 0.000000 0.000000 1.000000
vn 0.000000 0.000000 1.000000
vn 0.000000 0.000000 1.000000
vn -1.000000 0.000000 0.000000
vn -1.000000 0.000000 0.000000
vn -1.000000 0.000000 0.000000
vn -1.000000 0.000000 0.000000
vn 0.000000 1.000000 0.000000
vn 0.000000 1.000000 0.000000
vn 0.000000 1.000000 0.000000
vn 0.000000 1.000000 0.000000
vn 0.000000 0.000000 1.000000
vn 0.000000 0.000000 1.000000
vn 0.000000 0.000000 1.000000
vn 0.000000 0.000000 1.000000
vn -1.000000 0.000000 0.000000
vn -1.000000 0.000000 0.000000
vn -1.000000 0.000000 0.000000
vn -1.000000 0.000000 0.000000
vn 1.000000 0.000000 0.000000
vn 1.000000 0.000000 0.000000
vn 1.000000 0.000000 0.000000
vn 1.000000 0.000000 0.000000
vn -1.000000 0.000000 0.000000
vn -1.000000 0.000000 0.000000
vn -1.000000 0.000000 0.000000
vn -1.000000 0.000000 0.000000
vn 0.000000 -1.000000 0.000000
vn 0.000000 -1.000000 0.000000
vn 0.000000 -1.000000 0.000000
vn 0.000000 -1.000000 0.000000
vn -1.000000 0.000000 0.000000
vn -1.000000 0.000000 0.000000
vn -1.000000 0.000000 0.000000
vn -1.000000 0.000000 0.000000
vn 0.000000 -1.000000 0.000000
vn 0.000000 -1.000000 0.000000
vn 0.000000 -1.000000 0.000000
vn 0.000000 -1.000000 0.000000
vn -1.000000 0.000000 0.000000
vn -1.000000 0.000000 0.000000
vn -1.000000 0.000000 0.000000
vn -1.000000 0.000000 0.000000
vn 0.000000 0.000000 -1.000000
vn 0.000000 0.000000 -1.000000
vn 0.000000 0.000000 -1.000000
vn 0.000000 0.000000 -1.000000
vn 1.000000 0.000000 0.000000
vn 1.000000 0.000000 0.000000
vn 1.000000 0.000000 0.000000
vn 1.000000 0.000000 0.000000
vn 1.000000 0.000000 0.000000
vn 1.000000 0.000000 0.000000
vn 1.000000 0.000000 0.000000
vn 1.000000 0.000000 0.000000
vn 0.000000 -1.000000 0.000000
vn 0.000000 -1.000000 0.000000
vn 0.000000 -1.000000 0.000000
vn 0.000000 -1.000000 0.000000
f 1/1/1 2/2/2 3/3/3
f 4/4/4 5/5/5 6/6/6
f 7/7/7 8/8/8 9/9/9
f 10/10/10 8/8/8 7/7/7
f 10/10/10 11/11/11 8/8/8
f 12/12/12 13/13/13 14/14/14
f 12/12/12 14/14/14 15/15/15
f 12/12/12 15/15/15 16/16/16
f 15/15/15 14/14/14 17/17/17
f 15/15/15 17/17/17 18/18/18
f 15/15/15 18/18/18 19/19/19
f 20/20/20 21/21/21 22/22/22
f 20/20/20 22/22/22 23/23/23
f 24/24/24 25/25/25 26/26/26
f 24/24/24 26/26/26 27/27/27
f 26/26/26 28/28/28 27/27/27
f 28/28/28 29/29/29 27/27/27
f 30/30/30 29/29/29 28/28/28
f 30/30/30 31/31/31 29/29/29
f 32/32/32 33/33/33 34/34/34
f 32/32/32 34/34/34 35/35/35
f 36/36/36 37/37/37 38/38/38
f 36/36/36 39/39/39 37/37/37
f 40/40/40 39/39/39 36/36/36
f 40/40/40 41/41/41 39/39/39
f 42/42/42 41/41/41 40/40/40
f 39/39/39 41/41/41 43/43/43
f 44/44/44 45/45/45 46/46/46
f 44/44/44 46/46/46 47/47/47
f 46/46/46 48/48/48 47/47/47
f 46/46/46 49/49/49 48/48/48
f 50/50/50 51/51/51 52/52/52
f 50/50/50 52/52/52 53/53/53
f 54/54/54 55/55/55 56/56/56
f 54/54/54 56/56/56 57/57/57
f 58/58/58 59/59/59 60/60/60
f 58/58/58 60/60/60 61/61/61
f 61/61/61 60/60/60 62/62/62
f 61/61/61 62/62/62 63/63/63
f 58/58/58 61/61/61 64/64/64
f 58/58/58 64/64/64 65/65/65
f 58/58/58 65/65/65 66/66/66
f 65/65/65 64/64/64 67/67/67
f 65/65/65 67/67/67 68/68/68
f 69/69/69 70/70/70 71/71/71
f 69/69/69 71/71/71 72/72/72
f 73/73/73 74/74/74 75/75/75
f 75/75/75 74/74/74 76/76/76
f 75/75/75 76/76/76 77/77/77
f 76/76/76 78/78/78 77/77/77
f 78/78/78 79/79/79 77/77/77
f 80/80/80 79/79/79 78/78/78
f 81/81/81 82/82/82 83/83/83
f 83/83/83 82/82/82 84/84/84
f 82/82/82 85/85/85 84/84/84
f 86/86/86 85/85/85 82/82/82
f 87/87/87 88/88/88 89/89/89
f 87/87/87 89/89/89 90/90/90
f 91/91/91 92/92/92 93/93/93
f 91/91/91 93/93/93 94/94/94
f 95/95/95 96/96/96 97/97/97
f 97/97/97 96/96/96 98/98/98
f 97/97/97 98/98/98 99/99/99
f 100/100/100 101/101/101 102/102/102
f 100/100/100 102/102/102 103/103/103
f 104/104/104 105/105/105 106/106/106
f 107/107/107 105/105/105 104/104/104
f 107/107/107 104/104/104 108/108/108
f 107/107/107 108/108/108 109/109/109
f 110/110/110 105/105/105 107/107/107
f 111/111/111 105/105/105 110/110/110
f 112/112/112 105/105/105 111/111/111
f 111/111/111 110/110/110 113/113/113
f 111/111/111 113/113/113 114/114/114
f 115/115/115 116/116/116 117/117/117
f 115/115/115 117/117/117 118/118/118
f 119/119/119 120/120/120 121/121/121
f 119/119/119 121/121/121 122/122/122
f 123/123/123 124/124/124 125/125/125
f 123/123/123 125/125/125 126/126/126
f 127/127/127 128/128/128 129/129/129
f 127/127/127 129/129/129 130/130/130
f 131/131/131 132/132/132 133/133/133
f 131/131/131 133/133/133 134/134/134
f 135/135/135 136/136/136 133/133/133
f 135/135/135 133/133/133 137/137/137
f 138/138/138 139/139/139 140/140/140
f 138/138/138 140/140/140 141/141/141
f 142/142/142 143/143/143 144/144/144
f 142/142/142 144/144/144 145/145/145
f 146/146/146 147/147/147 148/148/148
f 146/146/146 148/148/148 149/149/149
f 150/150/150 151/151/151 152/152/152
f 150/150/150 152/152/152 153/153/153
f 154/154/154 155/155/155 156/156/156
f 154/154/154 156/156/156 157/157/157
f 158/158/158 159/159/159 160/160/160
f 158/158/158 160/160/160 161/161/161
f 162/162/162 163/163/163 164/164/164
f 162/162/162 164/164/164 165/165/165
f 166/166/166 167/167/167 168/168/168
f 166/166/166 168/168/168 169/169/169
f 170/170/170 171/171/171 172/172/172
f 170/170/170 172/172/172 173/173/173
f 174/174/174 175/175/175 176/176/176
f 174/174/174 176/176/176 177/177/177
f 178/178/178 179/179/179 180/180/180
f 178/178/178 180/180/180 181/181/181
f 182/182/182 183/183/183 184/184/184
f 182/182/182 184/184/184 185/185/185
f 186/186/186 187/187/187 188/188/188
f 186/186/186 188/188/188 189/189/189
f 190/190/190 191/191/191 192/192/192
f 190/190/190 192/192/192 193/193/193
f 194/194/194 195/195/195 196/196/196
f 194/194/194 196/196/196 197/197/197
f 198/198/198 199/199/199 200/200/200
f 198/198/198 200/200/200 201/201/201
f 202/202/202 203/203/203 204/204/204
f 202/202/202 204/204/204 205/205/205
f 206/206/206 207/207/207 208/208/208
f 206/206/206 208/208/208 209/209/209
f 210/210/210 211/211/211 212/212/212
f 210/210/210 212/212/212 213/213/213
f 214/214/214 215/215/215 216/216/216
f 214/214/214 216/216/216 217/217/217