# Object005
v -0.360000 -0.090000 0.007500
v -0.360000 -0.090000 -0.007500
v -0.345000 -0.090000 -0.007500
v -0.360000 -0.090000 0.007500
v -0.345000 -0.090000 0.007500
v -0.375000 0.045000 -0.007500
v -0.375000 0.045000 0.007500
v -0.360000 0.045000 0.007500
v -0.375000 0.045000 -0.007500
v -0.360000 0.045000 -0.007500
v -0.345000 0.060000 -0.011250
v -0.345000 0.045000 -0.011250
v -0.345000 0.045000 -0.007500
v -0.345000 0.060000 -0.007500
v -0.375000 0.015000 -0.015000
v -0.360000 -0.090000 -0.015000
v -0.375000 -0.090000 -0.015000
v -0.375000 0.030000 -0.015000
v -0.360000 -0.060000 -0.015000
v -0.360000 0.030000 -0.015000
v -0.345000 -0.060000 -0.015000
v -0.360000 0.045000 -0.015000
v -0.345000 -0.015000 -0.015000
v -0.330000 -0.015000 -0.015000
v -0.330000 0.000000 -0.015000
v -0.300000 0.045000 -0.015000
v -0.240000 0.000000 -0.015000
v -0.345000 -0.090000 -0.007500
v -0.345000 -0.060000 -0.007500
v -0.345000 -0.060000 0.007500
v -0.345000 -0.090000 0.007500
v -0.345000 -0.060000 -0.015000
v -0.345000 -0.015000 -0.015000
v -0.345000 -0.015000 -0.007500
v -0.345000 -0.060000 -0.007500
v -0.360000 0.075000 -0.007500
v -0.270000 0.075000 -0.007500
v -0.300000 0.060000 -0.007500
v -0.345000 0.060000 -0.007500
v -0.345000 0.045000 -0.007500
v -0.360000 0.045000 -0.007500
v -0.360000 0.030000 -0.007500
v -0.375000 0.045000 -0.007500
v -0.375000 0.030000 -0.007500
v -0.330000 0.000000 -0.007500
v -0.240000 0.000000 -0.007500
v -0.255000 -0.015000 -0.007500
v -0.300000 -0.015000 -0.007500
v -0.315000 -0.015000 -0.007500
v -0.330000 -0.015000 -0.007500
v -0.330000 -0.060000 -0.007500
v -0.345000 -0.015000 -0.007500
v -0.345000 -0.060000 -0.007500
v -0.255000 -0.075000 -0.007500
v -0.330000 -0.075000 -0.007500
v -0.255000 -0.060000 -0.007500
v -0.345000 -0.090000 -0.007500
v -0.360000 -0.060000 -0.007500
v -0.360000 -0.090000 -0.007500
v -0.360000 -0.120000 -0.007500
v -0.375000 -0.090000 -0.007500
v -0.375000 -0.120000 -0.007500
v -0.345000 -0.060000 0.007500
v -0.345000 -0.060000 -0.007500
v -0.330000 -0.060000 -0.007500
v -0.330000 -0.060000 0.007500
v -0.330000 -0.075000 0.007500
v -0.330000 -0.075000 -0.007500
v -0.255000 -0.075000 -0.007500
v -0.255000 -0.075000 0.007500
v -0.330000 -0.015000 -0.015000
v -0.330000 0.000000 -0.015000
v -0.330000 0.000000 -0.007500
v -0.330000 -0.015000 -0.007500
v -0.300000 0.045000 -0.015000
v -0.345000 0.045000 -0.011250
v -0.300000 0.045000 -0.011250
v -0.360000 0.045000 -0.015000
v -0.360000 0.045000 -0.007500
v -0.345000 0.045000 -0.007500
v -0.330000 -0.015000 0.007500
v -0.330000 -0.015000 -0.007500
v -0.315000 -0.015000 -0.007500
v -0.315000 -0.015000 0.007500
v -0.255000 -0.075000 0.007500
v -0.255000 -0.060000 0.007500
v -0.330000 -0.060000 0.007500
v -0.330000 -0.075000 0.007500
v -0.240000 0.000000 0.007500
v -0.330000 0.000000 0.007500
v -0.255000 -0.015000 0.007500
v -0.300000 -0.015000 0.007500
v -0.315000 -0.015000 0.007500
v -0.330000 -0.015000 0.007500
v -0.330000 -0.060000 0.007500
v -0.345000 -0.015000 0.007500
v -0.345000 -0.060000 0.007500
v -0.345000 -0.090000 0.007500
v -0.360000 -0.060000 0.007500
v -0.360000 -0.090000 0.007500
v -0.360000 -0.120000 0.007500
v -0.375000 -0.090000 0.007500
v -0.375000 -0.120000 0.007500
v -0.240000 0.000000 0.015000
v -0.300000 0.045000 0.015000
v -0.330000 0.000000 0.015000
v -0.360000 0.045000 0.015000
v -0.330000 -0.015000 0.015000
v -0.345000 -0.015000 0.015000
v -0.345000 -0.060000 0.015000
v -0.360000 0.030000 0.015000
v -0.360000 -0.060000 0.015000
v -0.375000 0.030000 0.015000
v -0.360000 -0.090000 0.015000
v -0.375000 0.015000 0.015000
v -0.375000 -0.090000 0.015000
v -0.270000 0.075000 0.007500
v -0.360000 0.075000 0.007500
v -0.300000 0.060000 0.007500
v -0.345000 0.060000 0.007500
v -0.345000 0.045000 0.007500
v -0.360000 0.045000 0.007500
v -0.360000 0.030000 0.007500
v -0.375000 0.045000 0.007500
v -0.375000 0.030000 0.007500
v -0.360000 0.045000 0.015000
v -0.345000 0.045000 0.007500
v -0.360000 0.045000 0.007500
v -0.345000 0.045000 0.011250
v -0.300000 0.045000 0.015000
v -0.300000 0.045000 0.011250
v -0.375000 0.030000 0.015000
v -0.375000 0.030000 0.007500
v -0.375000 0.015000 0.007500
v -0.375000 0.015000 0.015000
v -0.360000 0.045000 0.015000
v -0.360000 0.045000 0.007500
v -0.360000 0.030000 0.007500
v -0.360000 0.030000 0.015000
v -0.375000 -0.150000 -0.007500
v -0.375000 -0.120000 -0.007500
v -0.375000 -0.120000 0.007500
v -0.375000 -0.150000 0.007500
v -0.360000 -0.060000 -0.007500
v -0.360000 -0.060000 -0.015000
v -0.345000 -0.060000 -0.015000
v -0.345000 -0.060000 -0.007500
v -0.375000 -0.090000 -0.007500
v -0.375000 -0.090000 -0.015000
v -0.360000 -0.090000 -0.015000
v -0.360000 -0.090000 -0.007500
v -0.345000 0.060000 0.011250
v -0.345000 0.060000 0.007500
v -0.345000 0.045000 0.007500
v -0.345000 0.045000 0.011250
v -0.360000 -0.090000 -0.015000
v -0.360000 -0.060000 -0.015000
v -0.360000 -0.060000 -0.007500
v -0.360000 -0.090000 -0.007500
v -0.345000 -0.015000 -0.007500
v -0.345000 -0.015000 -0.015000
v -0.330000 -0.015000 -0.015000
v -0.330000 -0.015000 -0.007500
v -0.330000 -0.060000 -0.007500
v -0.330000 -0.075000 -0.007500
v -0.330000 -0.075000 0.007500
v -0.330000 -0.060000 0.007500
v -0.360000 0.045000 -0.015000
v -0.360000 0.030000 -0.015000
v -0.360000 0.030000 -0.007500
v -0.360000 0.045000 -0.007500
v -0.360000 0.030000 0.015000
v -0.360000 0.030000 0.007500
v -0.375000 0.030000 0.007500
v -0.375000 0.030000 0.015000
v -0.300000 0.060000 -0.011250
v -0.345000 0.060000 -0.011250
v -0.345000 0.060000 -0.007500
v -0.300000 0.060000 -0.007500
v -0.360000 -0.120000 -0.007500
v -0.360000 -0.090000 -0.007500
v -0.360000 -0.090000 0.007500
v -0.360000 -0.120000 0.007500
v -0.300000 0.045000 0.011250
v -0.300000 0.060000 0.011250
v -0.345000 0.060000 0.011250
v -0.345000 0.045000 0.011250
v -0.330000 0.000000 0.007500
v -0.240000 0.000000 0.007500
v -0.240000 0.000000 0.015000
v -0.330000 0.000000 0.015000
v -0.330000 -0.060000 -0.007500
v -0.330000 -0.060000 0.007500
v -0.255000 -0.060000 0.007500
v -0.255000 -0.060000 -0.007500
v -0.375000 0.030000 -0.015000
v -0.375000 0.030000 -0.007500
v -0.360000 0.030000 -0.007500
v -0.360000 0.030000 -0.015000
v -0.345000 0.060000 0.011250
v -0.300000 0.060000 0.011250
v -0.300000 0.060000 0.007500
v -0.345000 0.060000 0.007500
v -0.330000 -0.060000 -0.007500
v -0.330000 -0.015000 -0.007500
v -0.330000 -0.015000 0.007500
v -0.330000 -0.060000 0.007500
v -0.330000 -0.015000 0.007500
v -0.330000 0.000000 0.007500
v -0.330000 0.000000 0.015000
v -0.330000 -0.015000 0.015000
v -0.360000 -0.060000 0.007500
v -0.345000 -0.060000 0.007500
v -0.345000 -0.060000 0.015000
v -0.360000 -0.060000 0.015000
v -0.375000 0.045000 -0.007500
v -0.375000 0.030000 -0.007500
v -0.375000 0.030000 0.007500
v -0.375000 0.045000 0.007500
v -0.345000 -0.015000 0.007500
v -0.330000 -0.015000 0.007500
v -0.330000 -0.015000 0.015000
v -0.345000 -0.015000 0.015000
v -0.375000 -0.090000 0.007500
v -0.360000 -0.090000 0.007500
v -0.360000 -0.090000 0.015000
v -0.375000 -0.090000 0.015000
v -0.375000 -0.120000 -0.015000
v -0.375000 -0.090000 -0.015000
v -0.375000 -0.090000 -0.007500
v -0.375000 -0.120000 -0.007500
v -0.375000 0.030000 -0.015000
v -0.375000 0.015000 -0.015000
v -0.375000 0.015000 -0.007500
v -0.375000 0.030000 -0.007500
v -0.375000 -0.120000 0.007500
v -0.375000 -0.090000 0.007500
v -0.375000 -0.090000 0.015000
v -0.375000 -0.120000 0.015000
v -0.345000 -0.060000 0.007500
v -0.345000 -0.015000 0.007500
v -0.345000 -0.015000 0.015000
v -0.345000 -0.060000 0.015000
v -0.330000 0.000000 -0.007500
v -0.330000 0.000000 -0.015000
v -0.240000 0.000000 -0.015000
v -0.240000 0.000000 -0.007500
v -0.360000 0.075000 -0.007500
v -0.360000 0.045000 -0.007500
v -0.360000 0.045000 0.007500
v -0.360000 0.075000 0.007500
v -0.300000 0.045000 -0.011250
v -0.345000 0.045000 -0.011250
v -0.345000 0.060000 -0.011250
v -0.300000 0.060000 -0.011250
v -0.360000 0.075000 -0.007500
v -0.360000 0.075000 0.007500
v -0.270000 0.075000 0.007500
v -0.270000 0.075000 -0.007500
v -0.360000 -0.090000 0.007500
v -0.360000 -0.060000 0.007500
v -0.360000 -0.060000 0.015000
v -0.360000 -0.090000 0.015000
v -0.375000 -0.120000 0.007500
v -0.375000 -0.120000 -0.007500
v -0.360000 -0.120000 -0.007500
v -0.360000 -0.120000 0.007500
vt 0.250000 0.039100
vt 0.250400 0.046500
vt 0.257400 0.046500
vt 0.250000 0.039100
vt 0.257400 0.039500
vt 0.249600 0.109000
vt 0.250000 0.101600
vt 0.242600 0.102000
vt 0.249600 0.109000
vt 0.242600 0.109000
vt 0.286100 0.117200
vt 0.286100 0.109400
vt 0.284200 0.109400
vt 0.284200 0.117200
vt 0.242200 0.093800
vt 0.250000 0.039100
vt 0.242200 0.039100
vt 0.242200 0.101600
vt 0.250000 0.054700
vt 0.250000 0.101600
vt 0.257800 0.054700
vt 0.250000 0.109400
vt 0.257800 0.078100
vt 0.265600 0.078100
vt 0.265600 0.085900
vt 0.281200 0.109400
vt 0.312500 0.085900
vt 0.250400 0.039900
vt 0.250400 0.053900
vt 0.257400 0.053900
vt 0.257400 0.039900
vt 0.252000 0.054700
vt 0.252000 0.078100
vt 0.255900 0.078100
vt 0.255900 0.054700
vt 0.250000 0.125000
vt 0.296900 0.125000
vt 0.281200 0.117200
vt 0.257800 0.117200
vt 0.257800 0.109400
vt 0.250000 0.109400
vt 0.250000 0.101600
vt 0.242200 0.109400
vt 0.242200 0.101600
vt 0.265600 0.085900
vt 0.312500 0.085900
vt 0.304700 0.078100
vt 0.281300 0.078100
vt 0.273400 0.078100
vt 0.265600 0.078100
vt 0.265600 0.054700
vt 0.257800 0.078100
vt 0.257800 0.054700
vt 0.304700 0.046900
vt 0.265600 0.046900
vt 0.304700 0.054700
vt 0.257800 0.039100
vt 0.250000 0.054700
vt 0.250000 0.039100
vt 0.250000 0.023400
vt 0.242200 0.039100
vt 0.242200 0.023400
vt 0.258200 0.055100
vt 0.258200 0.062100
vt 0.265200 0.062100
vt 0.265200 0.055100
vt 0.267700 0.047300
vt 0.267700 0.054300
vt 0.302700 0.054300
vt 0.302700 0.047300
vt 0.259800 0.078100
vt 0.259800 0.085900
vt 0.263700 0.085900
vt 0.263700 0.078100
vt 0.281300 0.107400
vt 0.257800 0.105500
vt 0.281300 0.105500
vt 0.250000 0.107400
vt 0.250000 0.103500
vt 0.257800 0.103500
vt 0.266000 0.078500
vt 0.266000 0.085500
vt 0.273000 0.085500
vt 0.273000 0.078500
vt 0.304700 0.046900
vt 0.304700 0.054700
vt 0.265600 0.054700
vt 0.265600 0.046900
vt 0.312500 0.085900
vt 0.265600 0.085900
vt 0.304700 0.078100
vt 0.281300 0.078100
vt 0.273400 0.078100
vt 0.265600 0.078100
vt 0.265600 0.054700
vt 0.257800 0.078100
vt 0.257800 0.054700
vt 0.257800 0.039100
vt 0.250000 0.054700
vt 0.250000 0.039100
vt 0.250000 0.023400
vt 0.242200 0.039100
vt 0.242200 0.023400
vt 0.312500 0.085900
vt 0.281200 0.109400
vt 0.265600 0.085900
vt 0.250000 0.109400
vt 0.265600 0.078100
vt 0.257800 0.078100
vt 0.257800 0.054700
vt 0.250000 0.101600
vt 0.250000 0.054700
vt 0.242200 0.101600
vt 0.250000 0.039100
vt 0.242200 0.093800
vt 0.242200 0.039100
vt 0.296900 0.125000
vt 0.250000 0.125000
vt 0.281200 0.117200
vt 0.257800 0.117200
vt 0.257800 0.109400
vt 0.250000 0.109400
vt 0.250000 0.101600
vt 0.242200 0.109400
vt 0.242200 0.101600
vt 0.250000 0.107400
vt 0.257800 0.103500
vt 0.250000 0.103500
vt 0.257800 0.105500
vt 0.281300 0.107400
vt 0.281300 0.105500
vt 0.248000 0.101600
vt 0.244100 0.101600
vt 0.244100 0.093700
vt 0.248000 0.093700
vt 0.255900 0.109400
vt 0.252000 0.109400
vt 0.252000 0.101600
vt 0.255900 0.101600
vt 0.234800 0.008600
vt 0.234800 0.022600
vt 0.241800 0.022600
vt 0.241800 0.008600
vt 0.250000 0.056600
vt 0.250000 0.060500
vt 0.257800 0.060500
vt 0.257800 0.056600
vt 0.242200 0.041000
vt 0.242200 0.044900
vt 0.250000 0.044900
vt 0.250000 0.041000
vt 0.286100 0.117200
vt 0.284200 0.117200
vt 0.284200 0.109400
vt 0.286100 0.109400
vt 0.244100 0.039100
vt 0.244100 0.054700
vt 0.248000 0.054700
vt 0.248000 0.039100
vt 0.257800 0.080100
vt 0.257800 0.084000
vt 0.265600 0.084000
vt 0.265600 0.080100
vt 0.273000 0.054300
vt 0.273000 0.047300
vt 0.266000 0.047300
vt 0.266000 0.054300
vt 0.255900 0.109400
vt 0.255900 0.101600
vt 0.252000 0.101600
vt 0.252000 0.109400
vt 0.242200 0.099600
vt 0.242200 0.095700
vt 0.250000 0.095700
vt 0.250000 0.099600
vt 0.281300 0.113600
vt 0.257800 0.113600
vt 0.257800 0.111600
vt 0.281300 0.111600
vt 0.242600 0.024300
vt 0.242600 0.038200
vt 0.249600 0.038200
vt 0.249600 0.024300
vt 0.281200 0.109400
vt 0.281200 0.117200
vt 0.257800 0.117200
vt 0.257800 0.109400
vt 0.265600 0.087900
vt 0.312500 0.087900
vt 0.312500 0.091800
vt 0.265600 0.091800
vt 0.302700 0.054300
vt 0.302700 0.047300
vt 0.267700 0.047300
vt 0.267700 0.054300
vt 0.250000 0.099600
vt 0.250000 0.095700
vt 0.242200 0.095700
vt 0.242200 0.099600
vt 0.257800 0.113600
vt 0.281300 0.113600
vt 0.281300 0.111600
vt 0.257800 0.111600
vt 0.258300 0.055900
vt 0.258300 0.076900
vt 0.265300 0.076900
vt 0.265300 0.055900
vt 0.263700 0.078100
vt 0.263700 0.085900
vt 0.259800 0.085900
vt 0.259800 0.078100
vt 0.250000 0.056600
vt 0.257800 0.056600
vt 0.257800 0.060500
vt 0.250000 0.060500
vt 0.249600 0.109000
vt 0.250000 0.101600
vt 0.242600 0.102000
vt 0.242600 0.109000
vt 0.257800 0.080100
vt 0.265600 0.080100
vt 0.265600 0.084000
vt 0.257800 0.084000
vt 0.242200 0.041000
vt 0.250000 0.041000
vt 0.250000 0.044900
vt 0.242200 0.044900
vt 0.236300 0.023400
vt 0.236300 0.039100
vt 0.240200 0.039100
vt 0.240200 0.023400
vt 0.248000 0.101600
vt 0.248000 0.093700
vt 0.244100 0.093700
vt 0.244100 0.101600
vt 0.240200 0.023400
vt 0.240200 0.039100
vt 0.236300 0.039100
vt 0.236300 0.023400
vt 0.255900 0.054700
vt 0.255900 0.078100
vt 0.252000 0.078100
vt 0.252000 0.054700
vt 0.265600 0.087900
vt 0.265600 0.091800
vt 0.312500 0.091800
vt 0.312500 0.087900
vt 0.257400 0.124200
vt 0.257400 0.110200
vt 0.250400 0.110200
vt 0.250400 0.124200
vt 0.281200 0.109400
vt 0.257800 0.109400
vt 0.257800 0.117200
vt 0.281200 0.117200
vt 0.294400 0.124600
vt 0.294400 0.117600
vt 0.252400 0.117600
vt 0.252400 0.124600
vt 0.248000 0.039100
vt 0.248000 0.054700
vt 0.244100 0.054700
vt 0.244100 0.039100
vt 0.242600 0.023800
vt 0.242600 0.030800
vt 0.249600 0.030800
vt 0.249600 0.023800
vn 0.000000 -1.000000 0.000000
vn 0.000000 -1.000000 0.000000
vn 0.000000 -1.000000 0.000000
vn 0.000000 -1.000000 0.000000
vn 0.000000 -1.000000 0.000000
vn 0.000000 1.000000 0.000000
vn 0.000000 1.000000 0.000000
vn 0.000000 1.000000 0.000000
vn 0.000000 1.000000 0.000000
vn 0.000000 1.000000 0.000000
vn -1.000000 0.000000 0.000000
vn -1.000000 0.000000 0.000000
vn -1.000000 0.000000 0.000000
vn -1.000000 0.000000 0.000000
vn 0.000000 0.000000 -1.000000
vn 0.000000 0.000000 -1.000000
vn 0.000000 0.000000 -1.000000
vn 0.000000 0.000000 -1.000000
vn 0.000000 0.000000 -1.000000
vn 0.000000 0.000000 -1.000000
vn 0.000000 0.000000 -1.000000
vn 0.000000 0.000000 -1.000000
vn 0.000000 0.000000 -1.000000
vn 0.000000 0.000000 -1.000000
vn 0.000000 0.000000 -1.000000
vn 0.000000 0.000000 -1.000000
vn 0.000000 0.000000 -1.000000
vn 1.000000 0.000000 0.000000
vn 1.000000 0.000000 0.000000
vn 1.000000 0.000000 0.000000
vn 1.000000 0.000000 0.000000
vn 1.000000 0.000000 0.000000
vn 1.000000 0.000000 0.000000
vn 1.000000 0.000000 0.000000
vn 1.000000 0.000000 0.000000
vn 0.000000 0.000000 -1.000000
vn 0.000000 0.000000 -1.000000
vn 0.000000 0.000000 -1.000000
vn 0.000000 0.000000 -1.000000
vn 0.000000 0.000000 -1.000000
vn 0.000000 0.000000 -1.000000
vn 0.000000 0.000000 -1.000000
vn 0.000000 0.000000 -1.000000
vn 0.000000 0.000000 -1.000000
vn 0.000000 0.000000 -1.000000
vn 0.000000 0.000000 -1.000000
vn 0.000000 0.000000 -1.000000
vn 0.000000 0.000000 -1.000000
vn 0.000000 0.000000 -1.000000
vn 0.000000 0.000000 -1.000000
vn 0.000000 0.000000 -1.000000
vn 0.000000 0.000000 -1.000000
vn 0.000000 0.000000 -1.000000
vn 0.000000 0.000000 -1.000000
vn 0.000000 0.000000 -1.000000
vn 0.000000 0.000000 -1.000000
vn 0.000000 0.000000 -1.000000
vn 0.000000 0.000000 -1.000000
vn 0.000000 0.000000 -1.000000
vn 0.000000 0.000000 -1.000000
vn 0.000000 0.000000 -1.000000
vn 0.000000 0.000000 -1.000000
vn 0.000000 -1.000000 0.000000
vn 0.000000 -1.000000 0.000000
vn 0.000000 -1.000000 0.000000
vn 0.000000 -1.000000 0.000000
vn 0.000000 -1.000000 0.000000
vn 0.000000 -1.000000 0.000000
vn 0.000000 -1.000000 0.000000
vn 0.000000 -1.000000 0.000000
vn 1.000000 0.000000 0.000000
vn 1.000000 0.000000 0.000000
vn 1.000000 0.000000 0.000000
vn 1.000000 0.000000 0.000000
vn 0.000000 1.000000 0.000000
vn 0.000000 1.000000 0.000000
vn 0.000000 1.000000 0.000000
vn 0.000000 1.000000 0.000000
vn 0.000000 1.000000 0.000000
vn 0.000000 1.000000 0.000000
vn 0.000000 -1.000000 0.000000
vn 0.000000 -1.000000 0.000000
vn 0.000000 -1.000000 0.000000
vn 0.000000 -1.000000 0.000000
vn 0.000000 0.000000 1.000000
vn 0.000000 0.000000 1.000000
vn 0.000000 0.000000 1.000000
vn 0.000000 0.000000 1.000000
vn 0.000000 0.000000 1.000000
vn 0.000000 0.000000 1.000000
vn 0.000000 0.000000 1.000000
vn 0.000000 0.000000 1.000000
vn 0.000000 0.000000 1.000000
vn 0.000000 0.000000 1.000000
vn 0.000000 0.000000 1.000000
vn 0.000000 0.000000 1.000000
vn 0.000000 0.000000 1.000000
vn 0.000000 0.000000 1.000000
vn 0.000000 0.000000 1.000000
vn 0.000000 0.000000 1.000000
vn 0.000000 0.000000 1.000000
vn 0.000000 0.000000 1.000000
vn 0.000000 0.000000 1.000000
vn 0.000000 0.000000 1.000000
vn 0.000000 0.000000 1.000000
vn 0.000000 0.000000 1.000000
vn 0.000000 0.000000 1.000000
vn 0.000000 0.000000 1.000000
vn 0.000000 0.000000 1.000000
vn 0.000000 0.000000 1.000000
vn 0.000000 0.000000 1.000000
vn 0.000000 0.000000 1.000000
vn 0.000000 0.000000 1.000000
vn 0.000000 0.000000 1.000000
vn 0.000000 0.000000 1.000000
vn 0.000000 0.000000 1.000000
vn 0.000000 0.000000 1.000000
vn 0.000000 0.000000 1.000000
vn 0.000000 0.000000 1.000000
vn 0.000000 0.000000 1.000000
vn 0.000000 0.000000 1.000000
vn 0.000000 0.000000 1.000000
vn 0.000000 0.000000 1.000000
vn 0.000000 0.000000 1.000000
vn 0.000000 0.000000 1.000000
vn 0.000000 1.000000 0.000000
vn 0.000000 1.000000 0.000000
vn 0.000000 1.000000 0.000000
vn 0.000000 1.000000 0.000000
vn 0.000000 1.000000 0.000000
vn 0.000000 1.000000 0.000000
vn -1.000000 0.000000 0.000000
vn -1.000000 0.000000 0.000000
vn -1.000000 0.000000 0.000000
vn -1.000000 0.000000 0.000000
vn -1.000000 0.000000 0.000000
vn -1.000000 0.000000 0.000000
vn -1.000000 0.000000 0.000000
vn -1.000000 0.000000 0.000000
vn 1.000000 0.000000 0.000000
vn 1.000000 0.000000 0.000000
vn 1.000000 0.000000 0.000000
vn 1.000000 0.000000 0.000000
vn 0.000000 -1.000000 0.000000
vn 0.000000 -1.000000 0.000000
vn 0.000000 -1.000000 0.000000
vn 0.000000 -1.000000 0.000000
vn 0.000000 -1.000000 0.000000
vn 0.000000 -1.000000 0.000000
vn 0.000000 -1.000000 0.000000
vn 0.000000 -1.000000 0.000000
vn -1.000000 0.000000 0.000000
vn -1.000000 0.000000 0.000000
vn -1.000000 0.000000 0.000000
vn -1.000000 0.000000 0.000000
vn 1.000000 0.000000 0.000000
vn 1.000000 0.000000 0.000000
vn 1.000000 0.000000 0.000000
vn 1.000000 0.000000 0.000000
vn 0.000000 -1.000000 0.000000
vn 0.000000 -1.000000 0.000000
vn 0.000000 -1.000000 0.000000
vn 0.000000 -1.000000 0.000000
vn -1.000000 0.000000 0.000000
vn -1.000000 0.000000 0.000000
vn -1.000000 0.000000 0.000000
vn -1.000000 0.000000 0.000000
vn -1.000000 0.000000 0.000000
vn -1.000000 0.000000 0.000000
vn -1.000000 0.000000 0.000000
vn -1.000000 0.000000 0.000000
vn 0.000000 1.000000 0.000000
vn 0.000000 1.000000 0.000000
vn 0.000000 1.000000 0.000000
vn 0.000000 1.000000 0.000000
vn 0.000000 1.000000 0.000000
vn 0.000000 1.000000 0.000000
vn 0.000000 1.000000 0.000000
vn 0.000000 1.000000 0.000000
vn 1.000000 0.000000 0.000000
vn 1.000000 0.000000 0.000000
vn 1.000000 0.000000 0.000000
vn 1.000000 0.000000 0.000000
vn 0.000000 0.000000 1.000000
vn 0.000000 0.000000 1.000000
vn 0.000000 0.000000 1.000000
vn 0.000000 0.000000 1.000000
vn 0.000000 -1.000000 0.000000
vn 0.000000 -1.000000 0.000000
vn 0.000000 -1.000000 0.000000
vn 0.000000 -1.000000 0.000000
vn 0.000000 1.000000 0.000000
vn 0.000000 1.000000 0.000000
vn 0.000000 1.000000 0.000000
vn 0.000000 1.000000 0.000000
vn 0.000000 1.000000 0.000000
vn 0.000000 1.000000 0.000000
vn 0.000000 1.000000 0.000000
vn 0.000000 1.000000 0.000000
vn 0.000000 1.000000 0.000000
vn 0.000000 1.000000 0.000000
vn 0.000000 1.000000 0.000000
vn 0.000000 1.000000 0.000000
vn 1.000000 0.000000 0.000000
vn 1.000000 0.000000 0.000000
vn 1.000000 0.000000 0.000000
vn 1.000000 0.000000 0.000000
vn 1.000000 0.000000 0.000000
vn 1.000000 0.000000 0.000000
vn 1.000000 0.000000 0.000000
vn 1.000000 0.000000 0.000000
vn 0.000000 -1.000000 0.000000
vn 0.000000 -1.000000 0.000000
vn 0.000000 -1.000000 0.000000
vn 0.000000 -1.000000 0.000000
vn -1.000000 0.000000 0.000000
vn -1.000000 0.000000 0.000000
vn -1.000000 0.000000 0.000000
vn -1.000000 0.000000 0.000000
vn 0.000000 -1.000000 0.000000
vn 0.000000 -1.000000 0.000000
vn 0.000000 -1.000000 0.000000
vn 0.000000 -1.000000 0.000000
vn 0.000000 -1.000000 0.000000
vn 0.000000 -1.000000 0.000000
vn 0.000000 -1.000000 0.000000
vn 0.000000 -1.000000 0.000000
vn 1.000000 0.000000 0.000000
vn 1.000000 0.000000 0.000000
vn 1.000000 0.000000 0.000000
vn 1.000000 0.000000 0.000000
vn -1.000000 0.000000 0.000000
vn -1.000000 0.000000 0.000000
vn -1.000000 0.000000 0.000000
vn -1.000000 0.000000 0.000000
vn 1.000000 0.000000 0.000000
vn 1.000000 0.000000 0.000000
vn 1.000000 0.000000 0.000000
vn 1.000000 0.000000 0.000000
vn 1.000000 0.000000 0.000000
vn 1.000000 0.000000 0.000000
vn 1.000000 0.000000 0.000000
vn 1.000000 0.000000 0.000000
vn 0.000000 -1.000000 0.000000
vn 0.000000 -1.000000 0.000000
vn 0.000000 -1.000000 0.000000
vn 0.000000 -1.000000 0.000000
vn -1.000000 0.000000 0.000000
vn -1.000000 0.000000 0.000000
vn -1.000000 0.000000 0.000000
vn -1.000000 0.000000 0.000000
vn 0.000000 0.000000 -1.000000
vn 0.000000 0.000000 -1.000000
vn 0.000000 0.000000 -1.000000
vn 0.000000 0.000000 -1.000000
vn 0.000000 1.000000 0.000000
vn 0.000000 1.000000 0.000000
vn 0.000000 1.000000 0.000000
vn 0.000000 1.000000 0.000000
vn 1.000000 0.000000 0.000000
vn 1.000000 0.000000 0.000000
vn 1.000000 0.000000 0.000000
vn 1.000000 0.000000 0.000000
vn 0.000000 -1.000000 0.000000
vn 0.000000 -1.000000 0.000000
vn 0.000000 -1.000000 0.000000
vn 0.000000 -1.000000 0.000000
f 1/1/1 2/2/2 3/3/3
f 4/4/4 3/3/3 5/5/5
f 6/6/6 7/7/7 8/8/8
f 9/9/9 8/8/8 10/10/10
f 11/11/11 12/12/12 13/13/13
f 11/11/11 13/13/13 14/14/14
f 15/15/15 16/16/16 17/17/17
f 18/18/18 16/16/16 15/15/15
f 18/18/18 19/19/19 16/16/16
f 19/19/19 18/18/18 20/20/20
f 19/19/19 20/20/20 21/21/21
f 22/22/22 21/21/21 20/20/20
f 22/22/22 23/23/23 21/21/21
f 22/22/22 24/24/24 23/23/23
f 22/22/22 25/25/25 24/24/24
f 22/22/22 26/26/26 25/25/25
f 26/26/26 27/27/27 25/25/25
f 28/28/28 29/29/29 30/30/30
f 28/28/28 30/30/30 31/31/31
f 32/32/32 33/33/33 34/34/34
f 32/32/32 34/34/34 35/35/35
f 36/36/36 37/37/37 38/38/38
f 36/36/36 38/38/38 39/39/39
f 36/36/36 39/39/39 40/40/40
f 36/36/36 40/40/40 41/41/41
f 42/42/42 43/43/43 41/41/41
f 42/42/42 44/44/44 43/43/43
f 45/45/45 46/46/46 47/47/47
f 45/45/45 47/47/47 48/48/48
f 45/45/45 48/48/48 49/49/49
f 45/45/45 49/49/49 50/50/50
f 51/51/51 52/52/52 50/50/50
f 51/51/51 53/53/53 52/52/52
f 54/54/54 55/55/55 51/51/51
f 54/54/54 51/51/51 56/56/56
f 57/57/57 58/58/58 53/53/53
f 57/57/57 59/59/59 58/58/58
f 60/60/60 61/61/61 59/59/59
f 60/60/60 62/62/62 61/61/61
f 63/63/63 64/64/64 65/65/65
f 63/63/63 65/65/65 66/66/66
f 67/67/67 68/68/68 69/69/69
f 67/67/67 69/69/69 70/70/70
f 71/71/71 72/72/72 73/73/73
f 71/71/71 73/73/73 74/74/74
f 75/75/75 76/76/76 77/77/77
f 75/75/75 78/78/78 76/76/76
f 76/76/76 78/78/78 79/79/79
f 76/76/76 79/79/79 80/80/80
f 81/81/81 82/82/82 83/83/83
f 81/81/81 83/83/83 84/84/84
f 85/85/85 86/86/86 87/87/87
f 85/85/85 87/87/87 88/88/88
f 89/89/89 90/90/90 91/91/91
f 91/91/91 90/90/90 92/92/92
f 92/92/92 90/90/90 93/93/93
f 93/93/93 90/90/90 94/94/94
f 95/95/95 94/94/94 96/96/96
f 95/95/95 96/96/96 97/97/97
f 98/98/98 97/97/97 99/99/99
f 98/98/98 99/99/99 100/100/100
f 101/101/101 100/100/100 102/102/102
f 101/101/101 102/102/102 103/103/103
f 104/104/104 105/105/105 106/106/106
f 105/105/105 107/107/107 106/106/106
f 106/106/106 107/107/107 108/108/108
f 108/108/108 107/107/107 109/109/109
f 109/109/109 107/107/107 110/110/110
f 110/110/110 107/107/107 111/111/111
f 112/112/112 110/110/110 111/111/111
f 112/112/112 111/111/111 113/113/113
f 112/112/112 113/113/113 114/114/114
f 114/114/114 113/113/113 115/115/115
f 114/114/114 115/115/115 116/116/116
f 117/117/117 118/118/118 119/119/119
f 119/119/119 118/118/118 120/120/120
f 120/120/120 118/118/118 121/121/121
f 121/121/121 118/118/118 122/122/122
f 123/123/123 122/122/122 124/124/124
f 123/123/123 124/124/124 125/125/125
f 126/126/126 127/127/127 128/128/128
f 126/126/126 129/129/129 127/127/127
f 126/126/126 130/130/130 129/129/129
f 129/129/129 130/130/130 131/131/131
f 132/132/132 133/133/133 134/134/134
f 132/132/132 134/134/134 135/135/135
f 136/136/136 137/137/137 138/138/138
f 136/136/136 138/138/138 139/139/139
f 140/140/140 141/141/141 142/142/142
f 140/140/140 142/142/142 143/143/143
f 144/144/144 145/145/145 146/146/146
f 144/144/144 146/146/146 147/147/147
f 148/148/148 149/149/149 150/150/150
f 148/148/148 150/150/150 151/151/151
f 152/152/152 153/153/153 154/154/154
f 152/152/152 154/154/154 155/155/155
f 156/156/156 157/157/157 158/158/158
f 156/156/156 158/158/158 159/159/159
f 160/160/160 161/161/161 162/162/162
f 160/160/160 162/162/162 163/163/163
f 164/164/164 165/165/165 166/166/166
f 164/164/164 166/166/166 167/167/167
f 168/168/168 169/169/169 170/170/170
f 168/168/168 170/170/170 171/171/171
f 172/172/172 173/173/173 174/174/174
f 172/172/172 174/174/174 175/175/175
f 176/176/176 177/177/177 178/178/178
f 176/176/176 178/178/178 179/179/179
f 180/180/180 181/181/181 182/182/182
f 180/180/180 182/182/182 183/183/183
f 184/184/184 185/185/185 186/186/186
f 184/184/184 186/186/186 187/187/187
f 188/188/188 189/189/189 190/190/190
f 188/188/188 190/190/190 191/191/191
f 192/192/192 193/193/193 194/194/194
f 192/192/192 194/194/194 195/195/195
f 196/196/196 197/197/197 198/198/198
f 196/196/196 198/198/198 199/199/199
f 200/200/200 201/201/201 202/202/202
f 200/200/200 202/202/202 203/203/203
f 204/204/204 205/205/205 206/206/206
f 204/204/204 206/206/206 207/207/207
f 208/208/208 209/209/209 210/210/210
f 208/208/208 210/210/210 211/211/211
f 212/212/212 213/213/213 214/214/214
f 212/212/212 214/214/214 215/215/215
f 216/216/216 217/217/217 218/218/218
f 216/216/216 218/218/218 219/219/219
f 220/220/220 221/221/221 222/222/222
f 220/220/220 222/222/222 223/223/223
f 224/224/224 225/225/225 226/226/226
f 224/224/224 226/226/226 227/227/227
f 228/228/228 229/229/229 230/230/230
f 228/228/228 230/230/230 231/231/231
f 232/232/232 233/233/233 234/234/234
f 232/232/232 234/234/234 235/235/235
f 236/236/236 237/237/237 238/238/238
f 236/236/236 238/238/238 239/239/239
f 240/240/240 241/241/241 242/242/242
f 240/240/240 242/242/242 243/243/243
f 244/244/244 245/245/245 246/246/246
f 244/244/244 246/246/246 247/247/247
f 248/248/248 249/249/249 250/250/250
f 248/248/248 250/250/250 251/251/251
f 252/252/252 253/253/253 254/254/254
f 252/252/252 254/254/254 255/255/255
f 256/256/256 257/257/257 258/258/258
f 256/256/256 258/258/258 259/259/259
f 260/260/260 261/261/261 262/262/262
f 260/260/260 262/262/262 263/263/263
f 264/264/264 265/265/265 266/266/266
f 264/264/264 266/266/266 267/267/267