# Object004
v -0.510000 -0.105000 0.015000
v -0.540000 -0.105000 0.015000
v -0.540000 -0.135000 0.015000
v -0.525000 -0.135000 0.015000
v -0.525000 -0.150000 0.015000
v -0.495000 -0.120000 0.015000
v -0.495000 -0.105000 0.015000
v -0.420000 -0.120000 0.015000
v -0.390000 -0.150000 0.015000
v -0.405000 -0.105000 0.015000
v -0.420000 -0.105000 0.015000
v -0.405000 -0.075000 0.015000
v -0.390000 -0.120000 0.015000
v -0.390000 -0.075000 0.015000
v -0.375000 -0.120000 0.015000
v -0.390000 -0.030000 0.015000
v -0.375000 -0.090000 0.015000
v -0.375000 0.015000 0.015000
v -0.405000 -0.015000 0.015000
v -0.405000 -0.030000 0.015000
v -0.495000 -0.105000 -0.007500
v -0.510000 -0.105000 -0.007500
v -0.510000 -0.030000 -0.007500
v -0.495000 -0.030000 -0.007500
v -0.420000 -0.120000 -0.007500
v -0.495000 -0.120000 -0.007500
v -0.420000 -0.105000 -0.007500
v -0.405000 -0.105000 -0.007500
v -0.420000 -0.075000 -0.007500
v -0.405000 -0.075000 -0.007500
v -0.405000 -0.030000 -0.007500
v -0.495000 -0.015000 -0.007500
v -0.405000 -0.015000 -0.007500
v -0.390000 -0.075000 -0.007500
v -0.390000 -0.030000 -0.007500
v -0.495000 -0.105000 -0.007500
v -0.495000 -0.105000 0.007500
v -0.420000 -0.105000 0.007500
v -0.420000 -0.105000 -0.007500
v -0.510000 -0.030000 -0.007500
v -0.510000 -0.030000 -0.015000
v -0.495000 -0.030000 -0.015000
v -0.495000 -0.030000 -0.007500
v -0.420000 -0.105000 -0.015000
v -0.405000 -0.105000 -0.015000
v -0.420000 -0.120000 -0.015000
v -0.390000 -0.150000 -0.015000
v -0.405000 -0.075000 -0.015000
v -0.390000 -0.120000 -0.015000
v -0.390000 -0.075000 -0.015000
v -0.375000 -0.120000 -0.015000
v -0.525000 -0.150000 -0.015000
v -0.390000 -0.030000 -0.015000
v -0.375000 -0.090000 -0.015000
v -0.375000 0.015000 -0.015000
v -0.405000 -0.015000 -0.015000
v -0.405000 -0.030000 -0.015000
v -0.495000 -0.120000 -0.015000
v -0.510000 -0.105000 -0.015000
v -0.495000 -0.105000 -0.015000
v -0.525000 -0.135000 -0.015000
v -0.540000 -0.105000 -0.015000
v -0.540000 -0.135000 -0.015000
v -0.525000 -0.150000 -0.007500
v -0.540000 -0.150000 -0.007500
v -0.540000 -0.135000 -0.007500
v -0.525000 -0.135000 -0.007500
v -0.390000 -0.165000 -0.007500
v -0.525000 -0.165000 -0.007500
v -0.390000 -0.150000 -0.007500
v -0.375000 -0.150000 -0.007500
v -0.390000 -0.120000 -0.007500
v -0.375000 -0.120000 -0.007500
v -0.390000 -0.120000 -0.007500
v -0.390000 -0.120000 -0.015000
v -0.375000 -0.120000 -0.015000
v -0.375000 -0.120000 -0.007500
v -0.375000 -0.150000 0.007500
v -0.375000 -0.120000 0.007500
v -0.390000 -0.120000 0.007500
v -0.390000 -0.150000 0.007500
v -0.390000 -0.165000 0.007500
v -0.525000 -0.150000 0.007500
v -0.525000 -0.165000 0.007500
v -0.525000 -0.135000 0.007500
v -0.540000 -0.135000 0.007500
v -0.540000 -0.150000 0.007500
v -0.420000 -0.105000 0.015000
v -0.420000 -0.105000 0.007500
v -0.420000 -0.120000 0.007500
v -0.420000 -0.120000 0.015000
v -0.495000 -0.105000 0.007500
v -0.510000 -0.030000 0.007500
v -0.510000 -0.105000 0.007500
v -0.495000 -0.030000 0.007500
v -0.420000 -0.120000 0.007500
v -0.495000 -0.120000 0.007500
v -0.420000 -0.105000 0.007500
v -0.405000 -0.105000 0.007500
v -0.420000 -0.075000 0.007500
v -0.405000 -0.075000 0.007500
v -0.405000 -0.030000 0.007500
v -0.495000 -0.015000 0.007500
v -0.405000 -0.015000 0.007500
v -0.390000 -0.075000 0.007500
v -0.390000 -0.030000 0.007500
v -0.495000 -0.030000 -0.015000
v -0.495000 -0.015000 -0.015000
v -0.495000 -0.015000 -0.007500
v -0.495000 -0.030000 -0.007500
v -0.525000 -0.150000 -0.007500
v -0.525000 -0.150000 -0.015000
v -0.390000 -0.150000 -0.015000
v -0.390000 -0.150000 -0.007500
v -0.495000 -0.030000 0.007500
v -0.495000 -0.015000 0.007500
v -0.495000 -0.015000 0.015000
v -0.495000 -0.030000 0.015000
v -0.390000 -0.150000 -0.015000
v -0.390000 -0.120000 -0.015000
v -0.390000 -0.120000 -0.007500
v -0.390000 -0.150000 -0.007500
v -0.540000 -0.135000 -0.007500
v -0.540000 -0.135000 -0.015000
v -0.525000 -0.135000 -0.015000
v -0.525000 -0.135000 -0.007500
v -0.495000 -0.120000 -0.015000
v -0.495000 -0.120000 -0.007500
v -0.420000 -0.120000 -0.007500
v -0.420000 -0.120000 -0.015000
v -0.405000 -0.015000 0.015000
v -0.405000 -0.015000 0.007500
v -0.405000 -0.030000 0.007500
v -0.405000 -0.030000 0.015000
v -0.405000 -0.075000 -0.015000
v -0.405000 -0.105000 -0.015000
v -0.405000 -0.105000 -0.007500
v -0.405000 -0.075000 -0.007500
v -0.495000 -0.105000 -0.007500
v -0.495000 -0.030000 -0.007500
v -0.495000 -0.030000 0.007500
v -0.495000 -0.105000 0.007500
v -0.405000 -0.030000 -0.007500
v -0.405000 -0.030000 -0.015000
v -0.390000 -0.030000 -0.015000
v -0.390000 -0.030000 -0.007500
v -0.525000 -0.135000 0.015000
v -0.525000 -0.135000 0.007500
v -0.525000 -0.150000 0.007500
v -0.525000 -0.150000 0.015000
v -0.390000 -0.165000 -0.007500
v -0.390000 -0.150000 -0.007500
v -0.390000 -0.150000 0.007500
v -0.390000 -0.165000 0.007500
v -0.510000 -0.105000 0.007500
v -0.510000 -0.030000 0.007500
v -0.510000 -0.030000 0.015000
v -0.510000 -0.105000 0.015000
v -0.495000 -0.015000 0.007500
v -0.405000 -0.015000 0.007500
v -0.405000 -0.015000 0.015000
v -0.495000 -0.015000 0.015000
v -0.390000 -0.075000 0.015000
v -0.390000 -0.075000 0.007500
v -0.405000 -0.075000 0.007500
v -0.405000 -0.075000 0.015000
v -0.525000 -0.165000 0.007500
v -0.525000 -0.165000 -0.007500
v -0.390000 -0.165000 -0.007500
v -0.390000 -0.165000 0.007500
v -0.405000 -0.075000 -0.015000
v -0.405000 -0.075000 -0.007500
v -0.390000 -0.075000 -0.007500
v -0.390000 -0.075000 -0.015000
v -0.540000 -0.105000 -0.015000
v -0.540000 -0.135000 -0.015000
v -0.540000 -0.135000 -0.007500
v -0.540000 -0.105000 -0.007500
v -0.420000 -0.105000 -0.015000
v -0.420000 -0.120000 -0.015000
v -0.420000 -0.120000 -0.007500
v -0.420000 -0.105000 -0.007500
v -0.525000 -0.135000 -0.015000
v -0.525000 -0.150000 -0.015000
v -0.525000 -0.150000 -0.007500
v -0.525000 -0.135000 -0.007500
v -0.510000 -0.105000 -0.015000
v -0.510000 -0.030000 -0.015000
v -0.510000 -0.030000 -0.007500
v -0.510000 -0.105000 -0.007500
v -0.540000 -0.135000 0.007500
v -0.525000 -0.135000 0.007500
v -0.525000 -0.135000 0.015000
v -0.540000 -0.135000 0.015000
v -0.420000 -0.120000 0.015000
v -0.420000 -0.120000 0.007500
v -0.495000 -0.120000 0.007500
v -0.495000 -0.120000 0.015000
v -0.495000 -0.105000 0.015000
v -0.495000 -0.105000 0.007500
v -0.510000 -0.105000 0.007500
v -0.510000 -0.105000 0.015000
v -0.405000 -0.015000 -0.015000
v -0.405000 -0.030000 -0.015000
v -0.405000 -0.030000 -0.007500
v -0.405000 -0.015000 -0.007500
v -0.510000 -0.030000 0.007500
v -0.495000 -0.030000 0.007500
v -0.495000 -0.030000 0.015000
v -0.510000 -0.030000 0.015000
v -0.495000 -0.120000 0.007500
v -0.495000 -0.105000 0.007500
v -0.495000 -0.105000 0.015000
v -0.495000 -0.120000 0.015000
v -0.390000 -0.030000 0.015000
v -0.390000 -0.030000 0.007500
v -0.390000 -0.075000 0.007500
v -0.390000 -0.075000 0.015000
v -0.405000 -0.030000 0.007500
v -0.390000 -0.030000 0.007500
v -0.390000 -0.030000 0.015000
v -0.405000 -0.030000 0.015000
v -0.420000 -0.105000 -0.015000
v -0.420000 -0.105000 -0.007500
v -0.405000 -0.105000 -0.007500
v -0.405000 -0.105000 -0.015000
v -0.540000 -0.135000 -0.007500
v -0.540000 -0.150000 -0.007500
v -0.540000 -0.150000 0.007500
v -0.540000 -0.135000 0.007500
v -0.540000 -0.150000 0.007500
v -0.540000 -0.150000 -0.007500
v -0.525000 -0.150000 -0.007500
v -0.525000 -0.150000 0.007500
v -0.390000 -0.030000 -0.015000
v -0.390000 -0.075000 -0.015000
v -0.390000 -0.075000 -0.007500
v -0.390000 -0.030000 -0.007500
v -0.495000 -0.030000 0.007500
v -0.495000 -0.030000 -0.007500
v -0.405000 -0.030000 -0.007500
v -0.405000 -0.030000 0.007500
v -0.390000 -0.150000 0.007500
v -0.390000 -0.150000 -0.007500
v -0.375000 -0.150000 -0.007500
v -0.375000 -0.150000 0.007500
v -0.540000 -0.105000 0.015000
v -0.540000 -0.105000 0.007500
v -0.540000 -0.135000 0.007500
v -0.540000 -0.135000 0.015000
v -0.405000 -0.030000 -0.007500
v -0.405000 -0.075000 -0.007500
v -0.405000 -0.075000 0.007500
v -0.405000 -0.030000 0.007500
v -0.405000 -0.105000 0.015000
v -0.405000 -0.105000 0.007500
v -0.420000 -0.105000 0.007500
v -0.420000 -0.105000 0.015000
v -0.510000 -0.105000 -0.015000
v -0.510000 -0.105000 -0.007500
v -0.495000 -0.105000 -0.007500
v -0.495000 -0.105000 -0.015000
v -0.525000 -0.150000 -0.007500
v -0.525000 -0.165000 -0.007500
v -0.525000 -0.165000 0.007500
v -0.525000 -0.150000 0.007500
v -0.525000 -0.150000 0.007500
v -0.390000 -0.150000 0.007500
v -0.390000 -0.150000 0.015000
v -0.525000 -0.150000 0.015000
v -0.420000 -0.075000 -0.007500
v -0.420000 -0.075000 0.007500
v -0.405000 -0.075000 0.007500
v -0.405000 -0.075000 -0.007500
v -0.390000 -0.120000 0.007500
v -0.375000 -0.120000 0.007500
v -0.375000 -0.120000 0.015000
v -0.390000 -0.120000 0.015000
v -0.405000 -0.075000 0.015000
v -0.405000 -0.075000 0.007500
v -0.405000 -0.105000 0.007500
v -0.405000 -0.105000 0.015000
v -0.495000 -0.120000 -0.015000
v -0.495000 -0.105000 -0.015000
v -0.495000 -0.105000 -0.007500
v -0.495000 -0.120000 -0.007500
v -0.495000 -0.015000 -0.007500
v -0.495000 -0.015000 -0.015000
v -0.405000 -0.015000 -0.015000
v -0.405000 -0.015000 -0.007500
v -0.390000 -0.150000 0.007500
v -0.390000 -0.120000 0.007500
v -0.390000 -0.120000 0.015000
v -0.390000 -0.150000 0.015000
v -0.420000 -0.075000 -0.007500
v -0.420000 -0.105000 -0.007500
v -0.420000 -0.105000 0.007500
v -0.420000 -0.075000 0.007500
vt 0.171900 0.031300
vt 0.156200 0.031300
vt 0.156200 0.015600
vt 0.164100 0.015600
vt 0.164100 0.007800
vt 0.179700 0.023400
vt 0.179700 0.031300
vt 0.218700 0.023400
vt 0.234400 0.007800
vt 0.226600 0.031300
vt 0.218700 0.031300
vt 0.226600 0.046900
vt 0.234400 0.023400
vt 0.234400 0.046900
vt 0.242200 0.023400
vt 0.234400 0.070300
vt 0.242200 0.039100
vt 0.242200 0.093800
vt 0.226600 0.078100
vt 0.226600 0.070300
vt 0.179700 0.031300
vt 0.171900 0.031300
vt 0.171900 0.070300
vt 0.179700 0.070300
vt 0.218700 0.023400
vt 0.179700 0.023400
vt 0.218700 0.031300
vt 0.226600 0.031300
vt 0.218800 0.046900
vt 0.226600 0.046900
vt 0.226600 0.070300
vt 0.179700 0.078100
vt 0.226600 0.078100
vt 0.234400 0.046900
vt 0.234400 0.070300
vt 0.216700 0.030800
vt 0.216700 0.023800
vt 0.181700 0.023800
vt 0.181700 0.030800
vt 0.171900 0.072300
vt 0.171900 0.076200
vt 0.179700 0.076200
vt 0.179700 0.072300
vt 0.218700 0.031300
vt 0.226600 0.031300
vt 0.218700 0.023400
vt 0.234400 0.007800
vt 0.226600 0.046900
vt 0.234400 0.023400
vt 0.234400 0.046900
vt 0.242200 0.023400
vt 0.164100 0.007800
vt 0.234400 0.070300
vt 0.242200 0.039100
vt 0.242200 0.093800
vt 0.226600 0.078100
vt 0.226600 0.070300
vt 0.179700 0.023400
vt 0.171900 0.031300
vt 0.179700 0.031300
vt 0.164100 0.015600
vt 0.156200 0.031300
vt 0.156200 0.015600
vt 0.164100 0.007800
vt 0.156300 0.007800
vt 0.156200 0.015600
vt 0.164100 0.015600
vt 0.234400 0.000000
vt 0.164100 0.000000
vt 0.234400 0.007800
vt 0.242200 0.007800
vt 0.234400 0.023400
vt 0.242200 0.023400
vt 0.234400 0.025400
vt 0.234400 0.029300
vt 0.242200 0.029300
vt 0.242200 0.025400
vt 0.242200 0.007800
vt 0.242200 0.023400
vt 0.234400 0.023400
vt 0.234400 0.007800
vt 0.234400 0.000000
vt 0.164100 0.007800
vt 0.164100 0.000000
vt 0.164100 0.015600
vt 0.156200 0.015600
vt 0.156300 0.007800
vt 0.224600 0.031300
vt 0.220700 0.031300
vt 0.220700 0.023400
vt 0.224600 0.023400
vt 0.179700 0.031300
vt 0.171900 0.070300
vt 0.171900 0.031300
vt 0.179700 0.070300
vt 0.218700 0.023400
vt 0.179700 0.023400
vt 0.218700 0.031300
vt 0.226600 0.031300
vt 0.218800 0.046900
vt 0.226600 0.046900
vt 0.226600 0.070300
vt 0.179700 0.078100
vt 0.226600 0.078100
vt 0.234400 0.046900
vt 0.234400 0.070300
vt 0.173800 0.070300
vt 0.173800 0.078100
vt 0.177700 0.078100
vt 0.177700 0.070300
vt 0.164100 0.009800
vt 0.164100 0.013700
vt 0.234400 0.013700
vt 0.234400 0.009800
vt 0.177700 0.070300
vt 0.177700 0.078100
vt 0.173800 0.078100
vt 0.173800 0.070300
vt 0.228500 0.007800
vt 0.228500 0.023400
vt 0.232400 0.023400
vt 0.232400 0.007800
vt 0.156300 0.017600
vt 0.156300 0.021500
vt 0.164100 0.021500
vt 0.164100 0.017600
vt 0.218800 0.021500
vt 0.218800 0.017600
vt 0.179700 0.017600
vt 0.179700 0.021500
vt 0.232400 0.078100
vt 0.228500 0.078100
vt 0.228500 0.070300
vt 0.232400 0.070300
vt 0.232400 0.046900
vt 0.232400 0.031300
vt 0.228500 0.031300
vt 0.228500 0.046900
vt 0.172300 0.033300
vt 0.172300 0.068300
vt 0.179300 0.068300
vt 0.179300 0.033300
vt 0.226600 0.072300
vt 0.226600 0.076200
vt 0.234400 0.076200
vt 0.234400 0.072300
vt 0.169900 0.015600
vt 0.166000 0.015600
vt 0.166000 0.007800
vt 0.169900 0.007800
vt 0.227000 0.000400
vt 0.227000 0.007400
vt 0.234000 0.007400
vt 0.234000 0.000400
vt 0.169900 0.031300
vt 0.169900 0.070300
vt 0.166000 0.070300
vt 0.166000 0.031300
vt 0.226600 0.080100
vt 0.179700 0.080100
vt 0.179700 0.084000
vt 0.226600 0.084000
vt 0.226600 0.044900
vt 0.226600 0.041000
vt 0.234400 0.041000
vt 0.234400 0.044900
vt 0.167700 0.000400
vt 0.167700 0.007400
vt 0.230700 0.007400
vt 0.230700 0.000400
vt 0.234400 0.044900
vt 0.234400 0.041000
vt 0.226600 0.041000
vt 0.226600 0.044900
vt 0.162100 0.031300
vt 0.162100 0.015600
vt 0.158200 0.015600
vt 0.158200 0.031300
vt 0.224600 0.031300
vt 0.224600 0.023400
vt 0.220700 0.023400
vt 0.220700 0.031300
vt 0.169900 0.015600
vt 0.169900 0.007800
vt 0.166000 0.007800
vt 0.166000 0.015600
vt 0.166000 0.031300
vt 0.166000 0.070300
vt 0.169900 0.070300
vt 0.169900 0.031300
vt 0.156300 0.017600
vt 0.164100 0.017600
vt 0.164100 0.021500
vt 0.156300 0.021500
vt 0.179700 0.021500
vt 0.179700 0.017600
vt 0.218800 0.017600
vt 0.218800 0.021500
vt 0.171900 0.029300
vt 0.171900 0.025400
vt 0.179700 0.025400
vt 0.179700 0.029300
vt 0.232400 0.078100
vt 0.232400 0.070300
vt 0.228500 0.070300
vt 0.228500 0.078100
vt 0.171900 0.072300
vt 0.179700 0.072300
vt 0.179700 0.076200
vt 0.171900 0.076200
vt 0.177700 0.023400
vt 0.177700 0.031300
vt 0.173800 0.031300
vt 0.173800 0.023400
vt 0.240200 0.070300
vt 0.236300 0.070300
vt 0.236300 0.046900
vt 0.240200 0.046900
vt 0.226600 0.072300
vt 0.234400 0.072300
vt 0.234400 0.076200
vt 0.226600 0.076200
vt 0.226600 0.029300
vt 0.226600 0.025400
vt 0.218800 0.025400
vt 0.218800 0.029300
vt 0.163700 0.015200
vt 0.163700 0.008200
vt 0.156700 0.008200
vt 0.156700 0.015200
vt 0.156700 0.008200
vt 0.156700 0.015200
vt 0.163700 0.015200
vt 0.163700 0.008200
vt 0.240200 0.070300
vt 0.240200 0.046900
vt 0.236300 0.046900
vt 0.236300 0.070300
vt 0.182100 0.070700
vt 0.182100 0.077700
vt 0.224100 0.077700
vt 0.224100 0.070700
vt 0.234800 0.008200
vt 0.234800 0.015200
vt 0.241800 0.015200
vt 0.241800 0.008200
vt 0.162100 0.031300
vt 0.158200 0.031300
vt 0.158200 0.015600
vt 0.162100 0.015600
vt 0.234000 0.069100
vt 0.234000 0.048100
vt 0.227000 0.048100
vt 0.227000 0.069100
vt 0.218800 0.029300
vt 0.218800 0.025400
vt 0.226600 0.025400
vt 0.226600 0.029300
vt 0.179700 0.029300
vt 0.179700 0.025400
vt 0.171900 0.025400
vt 0.171900 0.029300
vt 0.171500 0.007400
vt 0.171500 0.000400
vt 0.164100 0.000000
vt 0.164500 0.007400
vt 0.164100 0.009800
vt 0.234400 0.009800
vt 0.234400 0.013700
vt 0.164100 0.013700
vt 0.226200 0.046500
vt 0.226200 0.039500
vt 0.219200 0.039500
vt 0.219200 0.046500
vt 0.234400 0.025400
vt 0.242200 0.025400
vt 0.242200 0.029300
vt 0.234400 0.029300
vt 0.232400 0.046900
vt 0.228500 0.046900
vt 0.228500 0.031300
vt 0.232400 0.031300
vt 0.173800 0.023400
vt 0.173800 0.031300
vt 0.177700 0.031300
vt 0.177700 0.023400
vt 0.226600 0.080100
vt 0.226600 0.084000
vt 0.179700 0.084000
vt 0.179700 0.080100
vt 0.232400 0.007800
vt 0.232400 0.023400
vt 0.228500 0.023400
vt 0.228500 0.007800
vt 0.226200 0.046000
vt 0.226200 0.032000
vt 0.219200 0.032000
vt 0.219200 0.046000
vn 0.000000 0.000000 1.000000
vn 0.000000 0.000000 1.000000
vn 0.000000 0.000000 1.000000
vn 0.000000 0.000000 1.000000
vn 0.000000 0.000000 1.000000
vn 0.000000 0.000000 1.000000
vn 0.000000 0.000000 1.000000
vn 0.000000 0.000000 1.000000
vn 0.000000 0.000000 1.000000
vn 0.000000 0.000000 1.000000
vn 0.000000 0.000000 1.000000
vn 0.000000 0.000000 1.000000
vn 0.000000 0.000000 1.000000
vn 0.000000 0.000000 1.000000
vn 0.000000 0.000000 1.000000
vn 0.000000 0.000000 1.000000
vn 0.000000 0.000000 1.000000
vn 0.000000 0.000000 1.000000
vn 0.000000 0.000000 1.000000
vn 0.000000 0.000000 1.000000
vn 0.000000 0.000000 -1.000000
vn 0.000000 0.000000 -1.000000
vn 0.000000 0.000000 -1.000000
vn 0.000000 0.000000 -1.000000
vn 0.000000 0.000000 -1.000000
vn 0.000000 0.000000 -1.000000
vn 0.000000 0.000000 -1.000000
vn 0.000000 0.000000 -1.000000
vn 0.000000 0.000000 -1.000000
vn 0.000000 0.000000 -1.000000
vn 0.000000 0.000000 -1.000000
vn 0.000000 0.000000 -1.000000
vn 0.000000 0.000000 -1.000000
vn 0.000000 0.000000 -1.000000
vn 0.000000 0.000000 -1.000000
vn 0.000000 1.000000 0.000000
vn 0.000000 1.000000 0.000000
vn 0.000000 1.000000 0.000000
vn 0.000000 1.000000 0.000000
vn 0.000000 -1.000000 0.000000
vn 0.000000 -1.000000 0.000000
vn 0.000000 -1.000000 0.000000
vn 0.000000 -1.000000 0.000000
vn 0.000000 0.000000 -1.000000
vn 0.000000 0.000000 -1.000000
vn 0.000000 0.000000 -1.000000
vn 0.000000 0.000000 -1.000000
vn 0.000000 0.000000 -1.000000
vn 0.000000 0.000000 -1.000000
vn 0.000000 0.000000 -1.000000
vn 0.000000 0.000000 -1.000000
vn 0.000000 0.000000 -1.000000
vn 0.000000 0.000000 -1.000000
vn 0.000000 0.000000 -1.000000
vn 0.000000 0.000000 -1.000000
vn 0.000000 0.000000 -1.000000
vn 0.000000 0.000000 -1.000000
vn 0.000000 0.000000 -1.000000
vn 0.000000 0.000000 -1.000000
vn 0.000000 0.000000 -1.000000
vn 0.000000 0.000000 -1.000000
vn 0.000000 0.000000 -1.000000
vn 0.000000 0.000000 -1.000000
vn 0.000000 0.000000 -1.000000
vn 0.000000 0.000000 -1.000000
vn 0.000000 0.000000 -1.000000
vn 0.000000 0.000000 -1.000000
vn 0.000000 0.000000 -1.000000
vn 0.000000 0.000000 -1.000000
vn 0.000000 0.000000 -1.000000
vn 0.000000 0.000000 -1.000000
vn 0.000000 0.000000 -1.000000
vn 0.000000 0.000000 -1.000000
vn 0.000000 -1.000000 0.000000
vn 0.000000 -1.000000 0.000000
vn 0.000000 -1.000000 0.000000
vn 0.000000 -1.000000 0.000000
vn 0.000000 0.000000 1.000000
vn 0.000000 0.000000 1.000000
vn 0.000000 0.000000 1.000000
vn 0.000000 0.000000 1.000000
vn 0.000000 0.000000 1.000000
vn 0.000000 0.000000 1.000000
vn 0.000000 0.000000 1.000000
vn 0.000000 0.000000 1.000000
vn 0.000000 0.000000 1.000000
vn 0.000000 0.000000 1.000000
vn -1.000000 0.000000 0.000000
vn -1.000000 0.000000 0.000000
vn -1.000000 0.000000 0.000000
vn -1.000000 0.000000 0.000000
vn 0.000000 0.000000 1.000000
vn 0.000000 0.000000 1.000000
vn 0.000000 0.000000 1.000000
vn 0.000000 0.000000 1.000000
vn 0.000000 0.000000 1.000000
vn 0.000000 0.000000 1.000000
vn 0.000000 0.000000 1.000000
vn 0.000000 0.000000 1.000000
vn 0.000000 0.000000 1.000000
vn 0.000000 0.000000 1.000000
vn 0.000000 0.000000 1.000000
vn 0.000000 0.000000 1.000000
vn 0.000000 0.000000 1.000000
vn 0.000000 0.000000 1.000000
vn 0.000000 0.000000 1.000000
vn 1.000000 0.000000 0.000000
vn 1.000000 0.000000 0.000000
vn 1.000000 0.000000 0.000000
vn 1.000000 0.000000 0.000000
vn 0.000000 -1.000000 0.000000
vn 0.000000 -1.000000 0.000000
vn 0.000000 -1.000000 0.000000
vn 0.000000 -1.000000 0.000000
vn 1.000000 0.000000 0.000000
vn 1.000000 0.000000 0.000000
vn 1.000000 0.000000 0.000000
vn 1.000000 0.000000 0.000000
vn 1.000000 0.000000 0.000000
vn 1.000000 0.000000 0.000000
vn 1.000000 0.000000 0.000000
vn 1.000000 0.000000 0.000000
vn 0.000000 -1.000000 0.000000
vn 0.000000 -1.000000 0.000000
vn 0.000000 -1.000000 0.000000
vn 0.000000 -1.000000 0.000000
vn 0.000000 1.000000 0.000000
vn 0.000000 1.000000 0.000000
vn 0.000000 1.000000 0.000000
vn 0.000000 1.000000 0.000000
vn -1.000000 0.000000 0.000000
vn -1.000000 0.000000 0.000000
vn -1.000000 0.000000 0.000000
vn -1.000000 0.000000 0.000000
vn -1.000000 0.000000 0.000000
vn -1.000000 0.000000 0.000000
vn -1.000000 0.000000 0.000000
vn -1.000000 0.000000 0.000000
vn 1.000000 0.000000 0.000000
vn 1.000000 0.000000 0.000000
vn 1.000000 0.000000 0.000000
vn 1.000000 0.000000 0.000000
vn 0.000000 -1.000000 0.000000
vn 0.000000 -1.000000 0.000000
vn 0.000000 -1.000000 0.000000
vn 0.000000 -1.000000 0.000000
vn -1.000000 0.000000 0.000000
vn -1.000000 0.000000 0.000000
vn -1.000000 0.000000 0.000000
vn -1.000000 0.000000 0.000000
vn 1.000000 0.000000 0.000000
vn 1.000000 0.000000 0.000000
vn 1.000000 0.000000 0.000000
vn 1.000000 0.000000 0.000000
vn 1.000000 0.000000 0.000000
vn 1.000000 0.000000 0.000000
vn 1.000000 0.000000 0.000000
vn 1.000000 0.000000 0.000000
vn 0.000000 -1.000000 0.000000
vn 0.000000 -1.000000 0.000000
vn 0.000000 -1.000000 0.000000
vn 0.000000 -1.000000 0.000000
vn 0.000000 1.000000 0.000000
vn 0.000000 1.000000 0.000000
vn 0.000000 1.000000 0.000000
vn 0.000000 1.000000 0.000000
vn 0.000000 -1.000000 0.000000
vn 0.000000 -1.000000 0.000000
vn 0.000000 -1.000000 0.000000
vn 0.000000 -1.000000 0.000000
vn 0.000000 1.000000 0.000000
vn 0.000000 1.000000 0.000000
vn 0.000000 1.000000 0.000000
vn 0.000000 1.000000 0.000000
vn -1.000000 0.000000 0.000000
vn -1.000000 0.000000 0.000000
vn -1.000000 0.000000 0.000000
vn -1.000000 0.000000 0.000000
vn -1.000000 0.000000 0.000000
vn -1.000000 0.000000 0.000000
vn -1.000000 0.000000 0.000000
vn -1.000000 0.000000 0.000000
vn -1.000000 0.000000 0.000000
vn -1.000000 0.000000 0.000000
vn -1.000000 0.000000 0.000000
vn -1.000000 0.000000 0.000000
vn 1.000000 0.000000 0.000000
vn 1.000000 0.000000 0.000000
vn 1.000000 0.000000 0.000000
vn 1.000000 0.000000 0.000000
vn 0.000000 -1.000000 0.000000
vn 0.000000 -1.000000 0.000000
vn 0.000000 -1.000000 0.000000
vn 0.000000 -1.000000 0.000000
vn 0.000000 1.000000 0.000000
vn 0.000000 1.000000 0.000000
vn 0.000000 1.000000 0.000000
vn 0.000000 1.000000 0.000000
vn 0.000000 1.000000 0.000000
vn 0.000000 1.000000 0.000000
vn 0.000000 1.000000 0.000000
vn 0.000000 1.000000 0.000000
vn -1.000000 0.000000 0.000000
vn -1.000000 0.000000 0.000000
vn -1.000000 0.000000 0.000000
vn -1.000000 0.000000 0.000000
vn 0.000000 -1.000000 0.000000
vn 0.000000 -1.000000 0.000000
vn 0.000000 -1.000000 0.000000
vn 0.000000 -1.000000 0.000000
vn 1.000000 0.000000 0.000000
vn 1.000000 0.000000 0.000000
vn 1.000000 0.000000 0.000000
vn 1.000000 0.000000 0.000000
vn -1.000000 0.000000 0.000000
vn -1.000000 0.000000 0.000000
vn -1.000000 0.000000 0.000000
vn -1.000000 0.000000 0.000000
vn 0.000000 -1.000000 0.000000
vn 0.000000 -1.000000 0.000000
vn 0.000000 -1.000000 0.000000
vn 0.000000 -1.000000 0.000000
vn 0.000000 1.000000 0.000000
vn 0.000000 1.000000 0.000000
vn 0.000000 1.000000 0.000000
vn 0.000000 1.000000 0.000000
vn -1.000000 0.000000 0.000000
vn -1.000000 0.000000 0.000000
vn -1.000000 0.000000 0.000000
vn -1.000000 0.000000 0.000000
vn 0.000000 -1.000000 0.000000
vn 0.000000 -1.000000 0.000000
vn 0.000000 -1.000000 0.000000
vn 0.000000 -1.000000 0.000000
vn -1.000000 0.000000 0.000000
vn -1.000000 0.000000 0.000000
vn -1.000000 0.000000 0.000000
vn -1.000000 0.000000 0.000000
vn 0.000000 -1.000000 0.000000
vn 0.000000 -1.000000 0.000000
vn 0.000000 -1.000000 0.000000
vn 0.000000 -1.000000 0.000000
vn 0.000000 -1.000000 0.000000
vn 0.000000 -1.000000 0.000000
vn 0.000000 -1.000000 0.000000
vn 0.000000 -1.000000 0.000000
vn -1.000000 0.000000 0.000000
vn -1.000000 0.000000 0.000000
vn -1.000000 0.000000 0.000000
vn -1.000000 0.000000 0.000000
vn -1.000000 0.000000 0.000000
vn -1.000000 0.000000 0.000000
vn -1.000000 0.000000 0.000000
vn -1.000000 0.000000 0.000000
vn 0.000000 1.000000 0.000000
vn 0.000000 1.000000 0.000000
vn 0.000000 1.000000 0.000000
vn 0.000000 1.000000 0.000000
vn 0.000000 1.000000 0.000000
vn 0.000000 1.000000 0.000000
vn 0.000000 1.000000 0.000000
vn 0.000000 1.000000 0.000000
vn -1.000000 0.000000 0.000000
vn -1.000000 0.000000 0.000000
vn -1.000000 0.000000 0.000000
vn -1.000000 0.000000 0.000000
vn 0.000000 -1.000000 0.000000
vn 0.000000 -1.000000 0.000000
vn 0.000000 -1.000000 0.000000
vn 0.000000 -1.000000 0.000000
vn 0.000000 1.000000 0.000000
vn 0.000000 1.000000 0.000000
vn 0.000000 1.000000 0.000000
vn 0.000000 1.000000 0.000000
vn 0.000000 -1.000000 0.000000
vn 0.000000 -1.000000 0.000000
vn 0.000000 -1.000000 0.000000
vn 0.000000 -1.000000 0.000000
vn -1.000000 0.000000 0.000000
vn -1.000000 0.000000 0.000000
vn -1.000000 0.000000 0.000000
vn -1.000000 0.000000 0.000000
vn 1.000000 0.000000 0.000000
vn 1.000000 0.000000 0.000000
vn 1.000000 0.000000 0.000000
vn 1.000000 0.000000 0.000000
vn 0.000000 -1.000000 0.000000
vn 0.000000 -1.000000 0.000000
vn 0.000000 -1.000000 0.000000
vn 0.000000 -1.000000 0.000000
vn 1.000000 0.000000 0.000000
vn 1.000000 0.000000 0.000000
vn 1.000000 0.000000 0.000000
vn 1.000000 0.000000 0.000000
vn -1.000000 0.000000 0.000000
vn -1.000000 0.000000 0.000000
vn -1.000000 0.000000 0.000000
vn -1.000000 0.000000 0.000000
f 1/1/1 2/2/2 3/3/3
f 1/1/1 3/3/3 4/4/4
f 1/1/1 4/4/4 5/5/5
f 6/6/6 1/1/1 5/5/5
f 7/7/7 1/1/1 6/6/6
f 8/8/8 6/6/6 5/5/5
f 9/9/9 8/8/8 5/5/5
f 9/9/9 10/10/10 8/8/8
f 10/10/10 11/11/11 8/8/8
f 9/9/9 12/12/12 10/10/10
f 13/13/13 12/12/12 9/9/9
f 13/13/13 14/14/14 12/12/12
f 13/13/13 15/15/15 14/14/14
f 15/15/15 16/16/16 14/14/14
f 17/17/17 16/16/16 15/15/15
f 18/18/18 16/16/16 17/17/17
f 18/18/18 19/19/19 16/16/16
f 16/16/16 19/19/19 20/20/20
f 21/21/21 22/22/22 23/23/23
f 21/21/21 23/23/23 24/24/24
f 25/25/25 26/26/26 21/21/21
f 25/25/25 21/21/21 27/27/27
f 28/28/28 27/27/27 29/29/29
f 28/28/28 29/29/29 30/30/30
f 31/31/31 24/24/24 32/32/32
f 31/31/31 32/32/32 33/33/33
f 34/34/34 30/30/30 31/31/31
f 34/34/34 31/31/31 35/35/35
f 36/36/36 37/37/37 38/38/38
f 36/36/36 38/38/38 39/39/39
f 40/40/40 41/41/41 42/42/42
f 40/40/40 42/42/42 43/43/43
f 44/44/44 45/45/45 46/46/46
f 45/45/45 47/47/47 46/46/46
f 48/48/48 47/47/47 45/45/45
f 48/48/48 49/49/49 47/47/47
f 49/49/49 48/48/48 50/50/50
f 49/49/49 50/50/50 51/51/51
f 46/46/46 47/47/47 52/52/52
f 53/53/53 51/51/51 50/50/50
f 53/53/53 54/54/54 51/51/51
f 53/53/53 55/55/55 54/54/54
f 56/56/56 55/55/55 53/53/53
f 56/56/56 53/53/53 57/57/57
f 58/58/58 46/46/46 52/52/52
f 59/59/59 58/58/58 52/52/52
f 59/59/59 60/60/60 58/58/58
f 61/61/61 59/59/59 52/52/52
f 62/62/62 59/59/59 61/61/61
f 62/62/62 61/61/61 63/63/63
f 64/64/64 65/65/65 66/66/66
f 64/64/64 66/66/66 67/67/67
f 68/68/68 69/69/69 64/64/64
f 68/68/68 64/64/64 70/70/70
f 71/71/71 70/70/70 72/72/72
f 71/71/71 72/72/72 73/73/73
f 74/74/74 75/75/75 76/76/76
f 74/74/74 76/76/76 77/77/77
f 78/78/78 79/79/79 80/80/80
f 78/78/78 80/80/80 81/81/81
f 82/82/82 81/81/81 83/83/83
f 82/82/82 83/83/83 84/84/84
f 83/83/83 85/85/85 86/86/86
f 83/83/83 86/86/86 87/87/87
f 88/88/88 89/89/89 90/90/90
f 88/88/88 90/90/90 91/91/91
f 92/92/92 93/93/93 94/94/94
f 92/92/92 95/95/95 93/93/93
f 96/96/96 92/92/92 97/97/97
f 96/96/96 98/98/98 92/92/92
f 99/99/99 100/100/100 98/98/98
f 99/99/99 101/101/101 100/100/100
f 102/102/102 103/103/103 95/95/95
f 102/102/102 104/104/104 103/103/103
f 105/105/105 102/102/102 101/101/101
f 105/105/105 106/106/106 102/102/102
f 107/107/107 108/108/108 109/109/109
f 107/107/107 109/109/109 110/110/110
f 111/111/111 112/112/112 113/113/113
f 111/111/111 113/113/113 114/114/114
f 115/115/115 116/116/116 117/117/117
f 115/115/115 117/117/117 118/118/118
f 119/119/119 120/120/120 121/121/121
f 119/119/119 121/121/121 122/122/122
f 123/123/123 124/124/124 125/125/125
f 123/123/123 125/125/125 126/126/126
f 127/127/127 128/128/128 129/129/129
f 127/127/127 129/129/129 130/130/130
f 131/131/131 132/132/132 133/133/133
f 131/131/131 133/133/133 134/134/134
f 135/135/135 136/136/136 137/137/137
f 135/135/135 137/137/137 138/138/138
f 139/139/139 140/140/140 141/141/141
f 139/139/139 141/141/141 142/142/142
f 143/143/143 144/144/144 145/145/145
f 143/143/143 145/145/145 146/146/146
f 147/147/147 148/148/148 149/149/149
f 147/147/147 149/149/149 150/150/150
f 151/151/151 152/152/152 153/153/153
f 151/151/151 153/153/153 154/154/154
f 155/155/155 156/156/156 157/157/157
f 155/155/155 157/157/157 158/158/158
f 159/159/159 160/160/160 161/161/161
f 159/159/159 161/161/161 162/162/162
f 163/163/163 164/164/164 165/165/165
f 163/163/163 165/165/165 166/166/166
f 167/167/167 168/168/168 169/169/169
f 167/167/167 169/169/169 170/170/170
f 171/171/171 172/172/172 173/173/173
f 171/171/171 173/173/173 174/174/174
f 175/175/175 176/176/176 177/177/177
f 175/175/175 177/177/177 178/178/178
f 179/179/179 180/180/180 181/181/181
f 179/179/179 181/181/181 182/182/182
f 183/183/183 184/184/184 185/185/185
f 183/183/183 185/185/185 186/186/186
f 187/187/187 188/188/188 189/189/189
f 187/187/187 189/189/189 190/190/190
f 191/191/191 192/192/192 193/193/193
f 191/191/191 193/193/193 194/194/194
f 195/195/195 196/196/196 197/197/197
f 195/195/195 197/197/197 198/198/198
f 199/199/199 200/200/200 201/201/201
f 199/199/199 201/201/201 202/202/202
f 203/203/203 204/204/204 205/205/205
f 203/203/203 205/205/205 206/206/206
f 207/207/207 208/208/208 209/209/209
f 207/207/207 209/209/209 210/210/210
f 211/211/211 212/212/212 213/213/213
f 211/211/211 213/213/213 214/214/214
f 215/215/215 216/216/216 217/217/217
f 215/215/215 217/217/217 218/218/218
f 219/219/219 220/220/220 221/221/221
f 219/219/219 221/221/221 222/222/222
f 223/223/223 224/224/224 225/225/225
f 223/223/223 225/225/225 226/226/226
f 227/227/227 228/228/228 229/229/229
f 227/227/227 229/229/229 230/230/230
f 231/231/231 232/232/232 233/233/233
f 231/231/231 233/233/233 234/234/234
f 235/235/235 236/236/236 237/237/237
f 235/235/235 237/237/237 238/238/238
f 239/239/239 240/240/240 241/241/241
f 239/239/239 241/241/241 242/242/242
f 243/243/243 244/244/244 245/245/245
f 243/243/243 245/245/245 246/246/246
f 247/247/247 248/248/248 249/249/249
f 247/247/247 249/249/249 250/250/250
f 251/251/251 252/252/252 253/253/253
f 251/251/251 253/253/253 254/254/254
f 255/255/255 256/256/256 257/257/257
f 255/255/255 257/257/257 258/258/258
f 259/259/259 260/260/260 261/261/261
f 259/259/259 261/261/261 262/262/262
f 263/263/263 264/264/264 265/265/265
f 263/263/263 265/265/265 266/266/266
f 267/267/267 268/268/268 269/269/269
f 267/267/267 269/269/269 270/270/270
f 271/271/271 272/272/272 273/273/273
f 271/271/271 273/273/273 274/274/274
f 275/275/275 276/276/276 277/277/277
f 275/275/275 277/277/277 278/278/278
f 279/279/279 280/280/280 281/281/281
f 279/279/279 281/281/281 282/282/282
f 283/283/283 284/284/284 285/285/285
f 283/283/283 285/285/285 286/286/286
f 287/287/287 288/288/288 289/289/289
f 287/287/287 289/289/289 290/290/290
f 291/291/291 292/292/292 293/293/293
f 291/291/291 293/293/293 294/294/294
f 295/295/295 296/296/296 297/297/297
f 295/295/295 297/297/297 298/298/298